<svg width="24" height="24" viewBox="0 0 24 24" fill="none" xmlns="http://www.w3.org/2000/svg">
<path d="M22.2857 6H1.71429C0.767679 6 0 5.32969 0 4.5C0 3.67172 0.767679 3 1.71429 3H22.2857C23.2339 3 24 3.67172 24 4.5C24 5.32969 23.2339 6 22.2857 6ZM22.2857 21H1.71429C0.767679 21 0 20.3297 0 19.5C0 18.6703 0.767679 18 1.71429 18H22.2857C23.2339 18 24 18.6703 24 19.5C24 20.3297 23.2339 21 22.2857 21Z" fill="#477BED"/>
<path opacity="0.8" d="M0 12.5C0 11.6703 0.767679 11 1.71429 11H22.2857C23.2339 11 24 11.6703 24 12.5C24 13.3297 23.2339 14 22.2857 14H1.71429C0.767679 14 0 13.3297 0 12.5Z" fill="#EDF5FF"/>
</svg>
