<svg width="24" height="24" viewBox="0 0 24 24" fill="none" xmlns="http://www.w3.org/2000/svg">
<path d="M3 22.5H21C22.6547 22.5 24 21.1547 24 19.5V7.5C24 5.84531 22.6547 4.5 21 4.5H13.9922C13.1953 4.5 12.4312 4.18594 11.8687 3.62344L10.6266 2.37656C10.0641 1.81406 9.3 1.5 8.50312 1.5H3C1.34531 1.5 0 2.84531 0 4.5V19.5C0 21.1547 1.34531 22.5 3 22.5Z" fill="#477BED"/>
<g clip-path="url(#clip0_8_161)">
<path d="M14.625 13.5C14.625 14.1504 14.5922 14.7773 14.5348 15.375H9.46523C9.40508 14.7773 9.375 14.1504 9.375 13.5C9.375 12.8496 9.40781 12.2227 9.46523 11.625H14.5348C14.5949 12.2227 14.625 12.8496 14.625 13.5ZM15.4125 11.625H18.7785C18.9234 12.2256 19 12.8525 19 13.5C19 14.1475 18.9234 14.7744 18.7785 15.375H15.4125C15.4699 14.7715 15.5 14.1445 15.5 13.5C15.5 12.8555 15.4699 12.2285 15.4125 11.625ZM18.4914 10.6875H15.3004C15.027 8.81543 14.4855 7.24805 13.7883 6.24609C15.9293 6.85254 17.6711 8.5166 18.4887 10.6875H18.4914ZM14.4145 10.6875H9.58555C9.75234 9.62109 10.0094 8.67773 10.3238 7.91309C10.6109 7.22168 10.9309 6.7207 11.2398 6.4043C11.5461 6.09375 11.8004 6 12 6C12.1996 6 12.4539 6.09375 12.7602 6.4043C13.0691 6.7207 13.3891 7.22168 13.6762 7.91309C13.9934 8.6748 14.2504 9.61816 14.4145 10.6875ZM8.69961 10.6875H5.50859C6.32891 8.5166 8.06797 6.85254 10.2117 6.24609C9.51445 7.24805 8.97305 8.81543 8.69961 10.6875ZM5.22148 11.625H8.5875C8.53008 12.2285 8.5 12.8555 8.5 13.5C8.5 14.1445 8.53008 14.7715 8.5875 15.375H5.22148C5.07656 14.7744 5 14.1475 5 13.5C5 12.8525 5.07656 12.2256 5.22148 11.625ZM10.3238 19.084C10.0066 18.3223 9.75234 17.3789 9.58555 16.3125H14.4145C14.2477 17.3789 13.9906 18.3223 13.6762 19.084C13.3891 19.7754 13.0691 20.2764 12.7602 20.5928C12.4539 20.9062 12.1996 21 12 21C11.8004 21 11.5461 20.9062 11.2398 20.5957C10.9309 20.2793 10.6109 19.7783 10.3238 19.0869V19.084ZM8.69961 16.3125C8.97305 18.1846 9.51445 19.752 10.2117 20.7539C8.06797 20.1475 6.32891 18.4834 5.50859 16.3125H8.69961ZM18.4914 16.3125C17.6711 18.4834 15.932 20.1475 13.791 20.7539C14.4883 19.752 15.027 18.1846 15.3031 16.3125H18.4914Z" fill="#EDF5FF"/>
</g>
<defs>
<clipPath id="clip0_8_161">
<rect width="14" height="15" fill="white" transform="translate(5 6)"/>
</clipPath>
</defs>
</svg>
