<svg width="24" height="22" viewBox="0 0 24 22" fill="none" xmlns="http://www.w3.org/2000/svg">
<g clip-path="url(#clip0_8_234)">
<path d="M11.1208 0.329906C11.5875 -0.109969 12.375 -0.109969 12.8792 0.329906L23.5458 9.66249C24.1 10.15 24.1542 10.9917 23.6708 11.5458C23.1833 12.1 22.3417 12.1542 21.7875 11.6708L12 3.10499L2.21124 11.6708C1.65708 12.1542 0.814995 12.1 0.329911 11.5458C-0.155005 10.9917 -0.0988387 10.15 0.455411 9.66249L11.1208 0.329906Z" fill="white"/>
<path opacity="0.8" d="M12.0005 3.10547L21.338 11.2755L21.3546 19.663C21.3588 20.5838 20.613 21.3338 19.688 21.3338H16.3338C15.413 21.3338 14.6671 20.588 14.6671 19.6671V15.988C14.6671 15.2505 14.0713 14.6546 13.3338 14.6546H10.6671C9.92964 14.6546 9.3338 15.2505 9.3338 15.988V19.6671C9.3338 20.588 8.58797 21.3338 7.66714 21.3338H4.33797C3.37964 21.3338 2.67089 20.588 2.67047 19.6671L2.66797 11.2713L12.0005 3.10547Z" fill="white"/>
</g>
<defs>
<clipPath id="clip0_8_234">
<rect width="24" height="21.3333" fill="white"/>
</clipPath>
</defs>
</svg>
