<?xml version="1.0" encoding="utf-8"?>
<!-- Generator: Adobe Illustrator 25.4.1, SVG Export Plug-In . SVG Version: 6.00 Build 0)  -->
<svg version="1.1" id="Layer_1" xmlns="http://www.w3.org/2000/svg" xmlns:xlink="http://www.w3.org/1999/xlink" x="0px" y="0px"
	 viewBox="0 0 500 500" style="enable-background:new 0 0 500 500;" xml:space="preserve">
<style type="text/css">
	.st0{fill:#01572E;}
	
		.st1{clip-path:url(#SVGID_00000173157954484895439220000005906902662230937998_);fill:url(#SVGID_00000121973347675120952460000005125236018471599009_);}
	.st2{clip-path:url(#SVGID_00000173157954484895439220000005906902662230937998_);fill:#F2F5D1;}
	.st3{clip-path:url(#SVGID_00000173157954484895439220000005906902662230937998_);}
	.st4{fill:#F2F5D1;}
	.st5{fill:#BA2028;}
	
		.st6{clip-path:url(#SVGID_00000173157954484895439220000005906902662230937998_);fill:url(#SVGID_00000038409404194115349890000015142820856256720796_);}
	
		.st7{clip-path:url(#SVGID_00000173157954484895439220000005906902662230937998_);fill:url(#SVGID_00000005970457054681735140000011594472760182078649_);}
	
		.st8{clip-path:url(#SVGID_00000173157954484895439220000005906902662230937998_);fill:url(#SVGID_00000074433006688962352950000010854030675675589505_);}
	
		.st9{clip-path:url(#SVGID_00000173157954484895439220000005906902662230937998_);fill:url(#SVGID_00000137089991812008668150000007892323600753892793_);}
	
		.st10{clip-path:url(#SVGID_00000173157954484895439220000005906902662230937998_);fill:url(#SVGID_00000020385859129702585730000014227614862993133495_);}
	
		.st11{clip-path:url(#SVGID_00000173157954484895439220000005906902662230937998_);fill:url(#SVGID_00000140007688457473115410000007700714678945316484_);}
	
		.st12{clip-path:url(#SVGID_00000173157954484895439220000005906902662230937998_);fill:url(#SVGID_00000001633195850398530020000017857886400905294223_);}
	
		.st13{clip-path:url(#SVGID_00000173157954484895439220000005906902662230937998_);fill:url(#SVGID_00000159454284198399940350000003473986246792230317_);}
	.st14{clip-path:url(#SVGID_00000173157954484895439220000005906902662230937998_);fill:#40B7E9;}
	.st15{fill:#40B7E9;}
	
		.st16{clip-path:url(#SVGID_00000173157954484895439220000005906902662230937998_);fill:url(#SVGID_00000106853332742683510390000000013950230955491759_);}
	
		.st17{clip-path:url(#SVGID_00000173157954484895439220000005906902662230937998_);fill:url(#SVGID_00000147924469178615997960000015636762464710728835_);}
	
		.st18{clip-path:url(#SVGID_00000173157954484895439220000005906902662230937998_);fill:url(#SVGID_00000080174505513337313240000010387916084800848290_);}
	
		.st19{clip-path:url(#SVGID_00000173157954484895439220000005906902662230937998_);fill:url(#SVGID_00000100345600744405380630000007415785930329416101_);}
	
		.st20{clip-path:url(#SVGID_00000173157954484895439220000005906902662230937998_);fill:url(#SVGID_00000119084111184125603840000012142803674702158765_);}
	.st21{clip-path:url(#SVGID_00000173157954484895439220000005906902662230937998_);fill:#BA2028;}
	.st22{clip-path:url(#SVGID_00000173157954484895439220000005906902662230937998_);fill:none;}
	.st23{fill:url(#SVGID_00000099647730807347338190000001383043884948558477_);}
	.st24{fill:url(#SVGID_00000072258930642176109700000017365817661890175898_);}
	.st25{fill:url(#SVGID_00000062171260916084634400000011094162700583157394_);}
	.st26{fill:url(#SVGID_00000124856027765691211760000004919547521017052337_);}
</style>
<g>
	<path class="st0" d="M241.9,69.2H112.2v129.7c0,71.6,58.1,129.7,129.7,129.7h0c71.6,0,129.7-58.1,129.7-129.7v0
		C371.7,127.2,314.7,69.2,241.9,69.2z"/>
	<g>
		<defs>
			<path id="SVGID_1_" d="M241.9,69.2H112.2v129.7c0,71.6,58.1,129.7,129.7,129.7h0c71.6,0,129.7-58.1,129.7-129.7v0
				C371.7,127.2,315.2,69.2,241.9,69.2z"/>
		</defs>
		<clipPath id="SVGID_00000093866547281898390120000013308556024365580206_">
			<use xlink:href="#SVGID_1_"  style="overflow:visible;"/>
		</clipPath>
		
			<linearGradient id="SVGID_00000165914384234741379010000001699753937767008927_" gradientUnits="userSpaceOnUse" x1="174.2044" y1="238.6857" x2="231.2574" y2="329.5346">
			<stop  offset="0" style="stop-color:#E7DE16"/>
			<stop  offset="1" style="stop-color:#ED9621"/>
		</linearGradient>
		
			<path style="clip-path:url(#SVGID_00000093866547281898390120000013308556024365580206_);fill:url(#SVGID_00000165914384234741379010000001699753937767008927_);" d="
			M239.7,344.6c0,0,0-23.9-11.7-46.8c-17.7-34.7-40.3-46.2-48.8-51.2c-6.4-1.8-11.3,0.7-11.3,0.7c6.1,1.9,18.1,6,32.8,21.6
			c11.2,12.3,18,39.6,19,57.9c1.6,7.7,5.2,12.5,4,18.4L239.7,344.6z"/>
		<path style="clip-path:url(#SVGID_00000093866547281898390120000013308556024365580206_);fill:#F2F5D1;" d="M244.1,160.1
			l27.6,60.6l11.8-6.1c0,0-8.5-7.4-9.6-19.9c-1.2-12.7,5.1-24.9,15.5-31.1c8.9-5.2,16.7-4.4,16.7-4.4S266.1,139.3,244.1,160.1z"/>
		<path style="clip-path:url(#SVGID_00000093866547281898390120000013308556024365580206_);fill:#F2F5D1;" d="M312.3,165.3
			c0,0-16-5.2-28.8,9c-5.8,6.6-6.8,15.1-6.7,18.6c0,0,4.6,1.2,9.7-2.5c5-3.6,7.7-8.1,10.7-12.2c3.1-4.1,6.4-8.6,17.3-11L312.3,165.3
			z"/>
		<g style="clip-path:url(#SVGID_00000093866547281898390120000013308556024365580206_);">
			<path class="st4" d="M341.9,248.8c0.7-3.7-0.7-19.7-3.7-24.1c0,0,4.2,22.5-8.6,28.8c0,0,9.3-5.7,6.7-22.1c0,0-2.7,9.6-9.2,10.2
				c0,0,8.8-4.1,8.6-24.1c0-3.6-1.7-10.1-3.5-13.9c-1.2,3.9-4.3,11.9-10.5,20.6c-5.7,8-9.7,11.5-13,13.5c2.9,1.4,8,4.7,10.1,8.3
				c3.5,6-0.1,16.5-11,16.5c-8.9,0-16.6-6.3-20-10.7c0,0-6.9,11.1-6.2,25.2c0.8,14.1,10.2,38.2,19,44.9c0,0,36.1-23.2,39.7-57.3
				c0,0-2.2,8-11.4,15c0,0,4.8-5.7,8.1-12.6c0,0-3.3,5.2-12,9.1C325,276.1,338.8,264.2,341.9,248.8z"/>
		</g>
		<g style="clip-path:url(#SVGID_00000093866547281898390120000013308556024365580206_);">
			<path class="st5" d="M295.6,221.8c-0.7-2-0.2-2.5,1-3.6c1.2-1.2,0-2.3-1.3-0.8c-1.2,1.5-3,1.6-4.7,1.7c-5.5,0.1-7,0.9-7.7,2.2
				c-0.5,0.9-1.6,4.2,4.1,5.5c0,2.3,2.1,4.7,5.1,4.3C296.9,230.1,296.3,223.8,295.6,221.8z"/>
			<path class="st4" d="M336.2,193.1L322.6,175c0,0-3.1,0.4-4.1-0.5c0,0-0.4,2.3,0.3,3.3c0.7,1,4.5,3.1,2.4,6.6c0,0,0.2-3.2-2.1-4.2
				c-2.3-0.9-2.4-4-2.4-4s-1.8,2.8,1,7.2c1.5,2.4,1.9,6.5-2.9,9.2c0,0,3.1-4,1.4-7.9c-1.7-3.9-3.5-5.9-2.5-9.4c0,0-1.6,3.4-0.2,6.9
				c1.3,3.6,1.2,7.2-0.2,10.3c0,0,1.4-5.1-1-9.5c-1.7-3.2-3.9-6.6-2.1-12c0,0-5.4,0.2-8.7,5.8c-3.3,5.5-8.2,13.9-13.1,16.9
				c-4.1,2.6-8.1,2.8-11.5,2c0,0,0.5,9.5,9.6,20l-5,2.9l1.2,2.8c0.8-1.3,2.2-2.1,7.7-2.2c1.7,0,3.6-0.2,4.7-1.7
				c1.3-1.5,2.4-0.4,1.3,0.8c-1.2,1.2-1.7,1.7-1,3.6c0.7,2,1.4,8.3-3.6,9.3c0.3,0.8,1.1,1.2,1.1,1.2s-1.1,5.5,4.7,6.9
				c5.4,1.3,15.2-3.2,26.7-23.1c3.6-6,9.1-18.2,6.9-22.6L336.2,193.1z"/>
		</g>
		
			<linearGradient id="SVGID_00000044869188271548447890000010048872897198828682_" gradientUnits="userSpaceOnUse" x1="240.3822" y1="235.9572" x2="387.806" y2="235.9572">
			<stop  offset="0" style="stop-color:#E7DE16"/>
			<stop  offset="1" style="stop-color:#ED9621"/>
		</linearGradient>
		
			<path style="clip-path:url(#SVGID_00000093866547281898390120000013308556024365580206_);fill:url(#SVGID_00000044869188271548447890000010048872897198828682_);" d="
			M244.1,160.1l-3.7-7.8c9.7-10.6,42.4-30.5,72.2-23.1c38.7,9.7,70.8,55.5,73.9,90.3c3.1,34.8,4.2,80.7-41,124.5h-17.9
			c0,0-14.1-3.8-4.2-32.7s20.1-30,20.5-50.7c0.5-26.6,5.1-50.9-14.3-78.3c-30-42.1-61.4-33.6-79.2-26.3L244.1,160.1z"/>
		
			<linearGradient id="SVGID_00000154418286985618423940000016901606317447286687_" gradientUnits="userSpaceOnUse" x1="244.0745" y1="244.6118" x2="347.3911" y2="244.6118">
			<stop  offset="0" style="stop-color:#E7DE16"/>
			<stop  offset="1" style="stop-color:#ED9621"/>
		</linearGradient>
		
			<path style="clip-path:url(#SVGID_00000093866547281898390120000013308556024365580206_);fill:url(#SVGID_00000154418286985618423940000016901606317447286687_);" d="
			M244.1,160.1c0,0,27.6-21,66.2,3.5c17,12.8,30.3,45.4,31,73.2c0.5,21.7,5.2,56.5-54.4,92.8v9.7c0,0,37.9-14.8,52-48.1
			c14.1-33.3,10.9-86-11.9-115.1C307.3,151.1,273.1,140.3,244.1,160.1z"/>
		
			<linearGradient id="SVGID_00000036244218004184477210000013860835595926117298_" gradientUnits="userSpaceOnUse" x1="272.1345" y1="284.8907" x2="301.3127" y2="284.8907">
			<stop  offset="0" style="stop-color:#E7DE16"/>
			<stop  offset="1" style="stop-color:#ED9621"/>
		</linearGradient>
		
			<path style="clip-path:url(#SVGID_00000093866547281898390120000013308556024365580206_);fill:url(#SVGID_00000036244218004184477210000013860835595926117298_);" d="
			M283.1,284.5c1.4,9.5,4.6,23.3,18.2,36.9l-6.2,3.5c0,0-5.9-4.5-14.1-17c-7.9-12-10.1-29.9-8.2-41.9c1.3-7.9,4.5-15.8,7.1-21.1
			c3.5,2.2,7.6,7.3,7.6,7.3S281,264.2,283.1,284.5z"/>
		
			<linearGradient id="SVGID_00000183250948355444529190000012853163651604134308_" gradientUnits="userSpaceOnUse" x1="236.7505" y1="270.9892" x2="264.5369" y2="270.9892">
			<stop  offset="0" style="stop-color:#E7DE16"/>
			<stop  offset="1" style="stop-color:#ED9621"/>
		</linearGradient>
		
			<path style="clip-path:url(#SVGID_00000093866547281898390120000013308556024365580206_);fill:url(#SVGID_00000183250948355444529190000012853163651604134308_);" d="
			M264.5,237.4c-5.2-1.5-10.9-1.4-15-1.4c-10.4,13.8-16.2,32.6-10.6,54.3L251,306l12.6-47.9L264.5,237.4z"/>
		
			<linearGradient id="SVGID_00000047739090975968752280000015371049142891474098_" gradientUnits="userSpaceOnUse" x1="254.8946" y1="254.3382" x2="272.0762" y2="254.3382">
			<stop  offset="0" style="stop-color:#E7DE16"/>
			<stop  offset="1" style="stop-color:#ED9621"/>
		</linearGradient>
		
			<path style="clip-path:url(#SVGID_00000093866547281898390120000013308556024365580206_);fill:url(#SVGID_00000047739090975968752280000015371049142891474098_);" d="
			M264.5,237.4c-4,6.8-8.8,14.2-9.6,32.6l11.5,1.2c0,0,0.9-16.1,5.7-31C269.5,239,267.3,238.2,264.5,237.4z"/>
		
			<linearGradient id="SVGID_00000001628748707553823620000013752109518916175003_" gradientUnits="userSpaceOnUse" x1="268.1812" y1="250.9646" x2="283.2008" y2="309.97">
			<stop  offset="0" style="stop-color:#ED9621"/>
			<stop  offset="1" style="stop-color:#E7DE16"/>
		</linearGradient>
		
			<path style="clip-path:url(#SVGID_00000093866547281898390120000013308556024365580206_);fill:url(#SVGID_00000001628748707553823620000013752109518916175003_);" d="
			M279.9,244.9c0,0-4.2-3-7.8-4.7c-4.8,7.3-11.5,22.9-9.3,40c2.7,18.6,12.4,36.6,29.2,47.2l3.3-2.5
			C284.8,316.2,260,284.8,279.9,244.9z"/>
		
			<linearGradient id="SVGID_00000062184517583206016510000016253350182750304133_" gradientUnits="userSpaceOnUse" x1="249.918" y1="343.7561" x2="189.9715" y2="248.5314">
			<stop  offset="0" style="stop-color:#E7DE16"/>
			<stop  offset="1" style="stop-color:#ED9621"/>
		</linearGradient>
		
			<path style="clip-path:url(#SVGID_00000093866547281898390120000013308556024365580206_);fill:url(#SVGID_00000062184517583206016510000016253350182750304133_);" d="
			M249.4,335.8c0,0-0.7-26.7-22.8-57.6c-12-16.1-27-26.6-36.5-31.3c-5.1-2-8.2-1.1-10.4,0c0,0,8.2,4.3,14.3,9.3
			c7.2,6,19.9,15.3,31.7,37.2c9.1,16.8,12.3,30.1,13.6,46c1.1,13.7-1,14.9-1,14.9l12.7,2.3L249.4,335.8z"/>
		
			<linearGradient id="SVGID_00000137823603297294012950000007324187009825601695_" gradientUnits="userSpaceOnUse" x1="187.1474" y1="251.2447" x2="256.9389" y2="316.7413">
			<stop  offset="0" style="stop-color:#E7DE16"/>
			<stop  offset="1" style="stop-color:#ED9621"/>
		</linearGradient>
		
			<path style="clip-path:url(#SVGID_00000093866547281898390120000013308556024365580206_);fill:url(#SVGID_00000137823603297294012950000007324187009825601695_);" d="
			M189.7,246.7c0,0,7.3-2.5,11.7,0.9c3.2,2.5,12,7.6,16.1,11.4c14.1,13,31.7,29.3,39.6,66l-8.6,4.6c0,0-2.7-18-11.6-34.6
			c-7.5-14-16.2-25.9-29.9-37C200.6,252.8,189.7,246.7,189.7,246.7z"/>
		<path style="clip-path:url(#SVGID_00000093866547281898390120000013308556024365580206_);fill:#40B7E9;" d="M249.5,131l-44.3,60.2
			l-11.7-12.8c0,0,7.4-3.7,11.6-9.3c4.1-5.6,9.9-16.4,2.6-30.4c-7.3-14.1-35-30.8-35-30.8l9.5-0.8
			C193.8,116.4,210.9,137.4,249.5,131z"/>
		<path style="clip-path:url(#SVGID_00000093866547281898390120000013308556024365580206_);fill:#40B7E9;" d="M172.7,117.2
			c0,0,22.6,14.7,27.9,22.3c5.3,7.6,6.2,10.8,5.4,20.2c0,0-7.7,0.3-12.5-5.7c-4.7-6-5.6-12.7-6.7-16.6c-1-4-3.4-10.9-7.1-14.4
			C177.1,120.4,172.7,117.2,172.7,117.2z"/>
		<path style="clip-path:url(#SVGID_00000093866547281898390120000013308556024365580206_);fill:#40B7E9;" d="M220.8,337.4
			c-2.2-16.2-1-36.6-15.1-61.7c-6.6-11.8-24.1-24-34.5-27.3c-8.7-2.7-15.2-7.5-18.7-11.6c-3.5-4.1-7.6-10.4-6.7-19.9
			c0.9-9.5,6.5-16.8,12.3-20.3c-6.9-6.7-9.7-16.2-11-19.8c-3.7-12.2-5.3-22.9-5.7-26.8c-16.5,6.3-35.4,27.6-35.4,27.6v190
			c0,0,114.5,1.1,114.7-1.9C223.8,353.4,223,353.6,220.8,337.4z"/>
		<g style="clip-path:url(#SVGID_00000093866547281898390120000013308556024365580206_);">
			<path class="st5" d="M187.6,182c-3.4-1.5-4.5-3.9-4.7-4.5c-0.2-0.7-0.7-2.4-2.4-1.7c-1.7,0.7-0.6,2.6,0.2,2.6
				c0.8,0.1,1.2,1.7-0.3,2.8c-1.6,1.1-4.6,4.6-2.6,8.3c2,3.7,3.9,3.9,3.9,3.9s4-0.1,4.1-3.9c0,0,5.1,2.6,6.7-3.2
				C192.6,186.4,191,183.6,187.6,182z"/>
			<path class="st15" d="M205.6,161.5c-6.3,0.2-9.7-1.4-14.1-5.7c-4.4-4.3-6.2-13.7-8.2-21.5c-1.2-4.9-3.8-8.5-5.6-10.5
				c-2.7-3-7.5-4.3-7.5-4.3s-9.8,19.8-27.4,16.3c1.5,29,8.3,46.1,12.4,53c4.1,6.9,8.5,10.6,13.3,12.2c4.8,1.6,8.7-3.5,9.8-5
				c1.2-1.5,3.5-2.4,3.5-2.4s-1.9-0.2-3.9-3.9c-2-3.7,1-7.2,2.6-8.3c1.6-1.1,1.2-2.7,0.3-2.8c-0.8-0.1-1.9-2-0.2-2.6
				c1.7-0.7,2.1,1.1,2.4,1.7c0.2,0.7,1.3,3,4.7,4.5c3.4,1.5,5,4.4,5,4.4l2.9-2.8l-5.1-5.9C203.1,171.7,205.6,161.5,205.6,161.5z"/>
		</g>
		
			<linearGradient id="SVGID_00000018213239235516232070000014836805297944076198_" gradientUnits="userSpaceOnUse" x1="105.9704" y1="338.7039" x2="154.8546" y2="338.7039">
			<stop  offset="0" style="stop-color:#E7DE16"/>
			<stop  offset="1" style="stop-color:#ED9621"/>
		</linearGradient>
		
			<path style="clip-path:url(#SVGID_00000093866547281898390120000013308556024365580206_);fill:url(#SVGID_00000018213239235516232070000014836805297944076198_);" d="
			M106,310.5c0,0,14.5,8.3,24.6,20.5c10.1,12.2,23.1,30.6,24.2,35.9h-10.5c0,0-14.9-33.2-38.4-45.6V310.5z"/>
		
			<linearGradient id="SVGID_00000003088050159830075560000006519454024514034607_" gradientUnits="userSpaceOnUse" x1="105.9704" y1="344.1044" x2="144.3841" y2="344.1044">
			<stop  offset="0" style="stop-color:#E7DE16"/>
			<stop  offset="1" style="stop-color:#ED9621"/>
		</linearGradient>
		
			<path style="clip-path:url(#SVGID_00000093866547281898390120000013308556024365580206_);fill:url(#SVGID_00000003088050159830075560000006519454024514034607_);" d="
			M106,321.3c0,0,22,8.8,38.4,45.6l-14-1.1c0,0-9.3-21.6-24.4-31V321.3z"/>
		
			<linearGradient id="SVGID_00000146475263097079337610000014031664992245796736_" gradientUnits="userSpaceOnUse" x1="105.9704" y1="351.2637" x2="130.4125" y2="351.2637">
			<stop  offset="0" style="stop-color:#E7DE16"/>
			<stop  offset="1" style="stop-color:#ED9621"/>
		</linearGradient>
		
			<path style="clip-path:url(#SVGID_00000093866547281898390120000013308556024365580206_);fill:url(#SVGID_00000146475263097079337610000014031664992245796736_);" d="
			M130.4,365.8c0,0-10.6-23.1-24.4-31v14.8c0,0,8.8,6,13.5,18.1L130.4,365.8z"/>
		
			<linearGradient id="SVGID_00000096028333627627075830000001105493444498579388_" gradientUnits="userSpaceOnUse" x1="105.9704" y1="358.5977" x2="118.8112" y2="358.5977">
			<stop  offset="0" style="stop-color:#E7DE16"/>
			<stop  offset="1" style="stop-color:#ED9621"/>
		</linearGradient>
		
			<path style="clip-path:url(#SVGID_00000093866547281898390120000013308556024365580206_);fill:url(#SVGID_00000096028333627627075830000001105493444498579388_);" d="
			M106,367.6v-18c0,0,9.5,8.3,12.8,16.5L106,367.6z"/>
		<g style="clip-path:url(#SVGID_00000093866547281898390120000013308556024365580206_);">
			<path class="st5" d="M236,130.7c-2.1,3.7-4.3,7.3-6.4,11c-2,3.5-4.8,7.1-6.1,10.9c-1.3,3.8,0.1,9.1,4.7,9.5c-0.1,0,0.1-2.5,0-2.5
				c-1.8-0.2-4.4-1.5-4.7-3.6c-0.3-2,2.2-5,3.2-6.7c3.1-5.4,6.2-10.7,9.3-16.1C236.4,132.6,235.7,131.3,236,130.7L236,130.7z"/>
		</g>
		
			<linearGradient id="SVGID_00000011003226005124806170000008659127954782926244_" gradientUnits="userSpaceOnUse" x1="164.3158" y1="96.7951" x2="308.6335" y2="96.7951">
			<stop  offset="0" style="stop-color:#E7DE16"/>
			<stop  offset="1" style="stop-color:#ED9621"/>
		</linearGradient>
		
			<path style="clip-path:url(#SVGID_00000093866547281898390120000013308556024365580206_);fill:url(#SVGID_00000011003226005124806170000008659127954782926244_);" d="
			M292.6,100.6c0,0-26.3,31.4-53.3,32.2c-27,0.9-41.5-12.1-41.5-12.1S144.4,79.5,172.5,72c12.8-3.4,67.7-13.4,93.9-10.9
			c31.5,3,42.2,20.3,42.2,20.3L292.6,100.6z"/>
		<path style="clip-path:url(#SVGID_00000093866547281898390120000013308556024365580206_);fill:#BA2028;" d="M227.7,167.9
			c2.3-0.4,9.5-1,11.6,3.8l-62.2,154.8l-10.1-5.4L227.7,167.9z"/>
		<path style="clip-path:url(#SVGID_00000093866547281898390120000013308556024365580206_);fill:#40B7E9;" d="M241.7,362.3
			c0,0,9.5-47.6,8.4-63.3c-1.1-15.7-1.8-24.5-10.8-30c-9-5.5-16.8-13-21.2-20.6c-4.4-7.6-18.7-12.9-32.2-8.3
			c-13.4,4.6-23.1,7.3-25.8-1.7c0,0,6.8,2.4,17.6-1.6c10.8-4,30-6,40.5,0.8c0,0-9.7-6.8-22.1-5.6c-12.4,1.2-27.6,2.1-31.4-2.2
			c-3.8-4.4-2.2-7.5-2.2-7.5s3.4,6.7,18.6,6.3c15.2-0.4,26.3-4.1,39.8,2.2c0,0-6.9-4.2-16.4-4.5c-9.4-0.3-29,4.4-34-1.1
			c-2.6-2.9-3-5.1-2.3-7c0,0,4.2,4.9,8.8,4.8c4.5-0.1,19.6-2.7,25.3-2.6c5.7,0.1,15.3,1,21.3,4.2c0,0-8.8-4.5-15.9-5.4
			c-7.1-0.9-23.3-7.8-19.9-19.1c0,0,4.2,7.4,8,9.1c3.8,1.7,13.1,4.7,24.9,8c11.8,3.3,24.1,11.6,30.1,18.4c6,6.9,11.7,12.9,16.2,32.5
			c4.5,19.6,3.1,26.1,9.5,38.1c6.4,12,17.3,32.7,18.4,42.2c1.1,9.5-0.7,14.4-0.7,14.4L241.7,362.3z"/>
		
			<circle style="clip-path:url(#SVGID_00000093866547281898390120000013308556024365580206_);fill:none;" cx="241.9" cy="198.9" r="129.7"/>
		<path style="clip-path:url(#SVGID_00000093866547281898390120000013308556024365580206_);fill:#BA2028;" d="M284.9,72.9
			c-6.9,7.7-15.2,14.2-24.2,19.3c-9.1,5.1-18.9,8.8-29.2,10.9c-2.6,0.5-5.4,0.8-8.2,0.3c-1.4-0.2-2.8-0.6-4.2-1.3
			c-1.3-0.6-2.6-1.6-3.6-2.6c-1-1.1-1.9-2.3-2.5-3.7c-0.6-1.4-0.9-2.9-1-4.4c-0.1-3,0.9-6,2.8-8.4c2-2.3,4.7-3.9,7.8-4.2
			c0.8-0.1,1.5,0,2.3,0.1c0.8,0.1,1.5,0.4,2.2,0.7c1.4,0.6,2.6,1.6,3.5,2.8c0.9,1.2,1.5,2.6,1.7,4.1c0.1,0.8,0,1.5-0.2,2.2
			c-0.2,0.7-0.5,1.4-0.9,2c-0.4,0.6-0.9,1.1-1.4,1.6c-0.6,0.4-1.2,0.8-1.8,1.1c-0.7,0.3-1.3,0.4-2,0.5c-0.7,0-1.4-0.1-2-0.3l0.1-0.3
			c0.6,0.1,1.2,0.1,1.8-0.1c0.6-0.1,1.1-0.4,1.6-0.7c0.5-0.3,1-0.7,1.3-1.1c0.4-0.4,0.7-0.9,1-1.4c1-2,0.4-4.4-1.1-6
			c-0.7-0.8-1.7-1.4-2.7-1.8c-0.5-0.2-1-0.3-1.5-0.3c-0.5,0-1,0-1.6,0.1c-2.1,0.3-4.1,1.6-5.3,3.3c-1.3,1.7-2,3.9-1.9,6
			c0,2.1,0.9,4.2,2.3,5.9c1.4,1.7,3.4,2.7,5.7,3.2c2.3,0.4,4.7,0.3,7.2,0c10-1.6,19.8-4.9,28.8-9.6c9.1-4.6,17.5-10.8,24.8-18
			L284.9,72.9z"/>
		<g style="clip-path:url(#SVGID_00000093866547281898390120000013308556024365580206_);">
			
				<linearGradient id="SVGID_00000070808766616256862600000007003308374815868854_" gradientUnits="userSpaceOnUse" x1="115.9265" y1="114.1795" x2="177.2135" y2="114.1795">
				<stop  offset="0" style="stop-color:#ED9621"/>
				<stop  offset="1" style="stop-color:#E7DE16"/>
			</linearGradient>
			<path style="fill:url(#SVGID_00000070808766616256862600000007003308374815868854_);" d="M147.8,144.6c-7.5,0-14.7-2.7-20.6-7.7
				c-6.3-5.4-10.3-12.8-11.1-20.9c-0.8-8.1,1.5-16,6.7-22.1c5.2-6.1,12.5-9.7,20.7-10.2c8.1-0.5,16.1,2.2,22.4,7.6
				c13.1,11.1,15.1,30.4,4.4,43c-5.2,6.1-12.5,9.7-20.7,10.2C149,144.6,148.4,144.6,147.8,144.6z M145.4,88.8c-0.5,0-1,0-1.5,0
				c-6.8,0.4-12.9,3.4-17.1,8.4c-4.3,5-6.3,11.5-5.6,18.3c0.7,6.8,4,13,9.4,17.5c5.3,4.5,12,6.8,18.8,6.4c6.8-0.4,12.9-3.4,17.1-8.4
				c8.9-10.4,7.2-26.5-3.8-35.8C157.7,91.1,151.6,88.8,145.4,88.8z"/>
		</g>
		<g style="clip-path:url(#SVGID_00000093866547281898390120000013308556024365580206_);">
			
				<linearGradient id="SVGID_00000023971896315624439880000009808270602532766395_" gradientUnits="userSpaceOnUse" x1="120.7274" y1="114.1793" x2="172.43" y2="114.1793">
				<stop  offset="0" style="stop-color:#E7DE16"/>
				<stop  offset="1" style="stop-color:#ED9621"/>
			</linearGradient>
			<path style="fill:url(#SVGID_00000023971896315624439880000009808270602532766395_);" d="M147.6,139.9c-6.3,0-12.4-2.3-17.4-6.5
				c-11-9.4-12.7-25.7-3.7-36.3c4.4-5.2,10.6-8.2,17.5-8.6c6.8-0.4,13.6,1.9,18.9,6.4c11,9.4,12.7,25.7,3.7,36.3l0,0
				c-4.4,5.2-10.6,8.2-17.5,8.6C148.6,139.9,148.1,139.9,147.6,139.9z M145.6,93.6c-0.4,0-0.8,0-1.2,0c-5.5,0.3-10.4,2.8-13.9,6.8
				c-7.2,8.5-5.8,21.5,3.1,29.1c4.3,3.7,9.8,5.5,15.3,5.2c5.5-0.3,10.4-2.8,13.9-6.8l0,0c7.2-8.5,5.8-21.5-3.1-29.1
				C155.6,95.4,150.7,93.6,145.6,93.6z"/>
		</g>
		<g style="clip-path:url(#SVGID_00000093866547281898390120000013308556024365580206_);">
			
				<linearGradient id="SVGID_00000044180154520728457440000012449190252806260624_" gradientUnits="userSpaceOnUse" x1="129.4549" y1="114.1838" x2="163.7021" y2="114.1838">
				<stop  offset="0" style="stop-color:#ED9621"/>
				<stop  offset="1" style="stop-color:#E7DE16"/>
			</linearGradient>
			<path style="fill:url(#SVGID_00000044180154520728457440000012449190252806260624_);" d="M147.2,131.2c-4.2,0-8.2-1.5-11.5-4.3
				c-7.3-6.2-8.4-17-2.4-24c6-7,16.8-7.7,24.1-1.5c7.3,6.2,8.4,17,2.4,24v0c-2.9,3.4-7,5.5-11.6,5.7
				C147.9,131.2,147.5,131.2,147.2,131.2z M145.9,102.2c-3.3,0-6.5,1.3-8.8,4c-4.2,4.9-3.3,12.5,1.8,16.9c2.5,2.1,5.7,3.2,8.9,3
				c3.2-0.2,6-1.6,8-3.9v0c4.2-4.9,3.3-12.5-1.8-16.9C151.7,103.2,148.8,102.2,145.9,102.2z"/>
		</g>
		<g style="clip-path:url(#SVGID_00000093866547281898390120000013308556024365580206_);">
			
				<linearGradient id="SVGID_00000121969583922138779070000007709518026031861898_" gradientUnits="userSpaceOnUse" x1="133.4261" y1="114.1794" x2="159.7313" y2="114.1794">
				<stop  offset="0" style="stop-color:#E7DE16"/>
				<stop  offset="1" style="stop-color:#ED9621"/>
			</linearGradient>
			<path style="fill:url(#SVGID_00000121969583922138779070000007709518026031861898_);" d="M147,127.3c-3.1,0-6.2-1.1-8.8-3.3
				c-5.6-4.8-6.4-13.1-1.8-18.5c4.6-5.4,12.9-5.9,18.5-1.2c5.6,4.8,6.4,13.1,1.8,18.5v0C154.3,125.8,150.7,127.3,147,127.3z
				 M146.1,106.2c-2.2,0-4.4,0.9-5.8,2.6c-2.8,3.3-2.2,8.4,1.3,11.3c3.5,3,8.6,2.7,11.4-0.6v0c2.8-3.3,2.2-8.4-1.3-11.3
				C150,106.9,148,106.2,146.1,106.2z"/>
		</g>
		<g style="clip-path:url(#SVGID_00000093866547281898390120000013308556024365580206_);">
			<path class="st5" d="M248.1,173.5c-0.2-0.9-0.3-1.8,0-2.7c0.4-1.2,1.8-1.9,3-1.8c1.3,0.1,2.4,1,2.9,2.1c0.4,0.8,0.6,1.7,0.5,2.6
				c-0.3,1.4-1.4,2.6-2.8,2.8c-1.2,0.2-2.5-0.2-3.3-1.1c-0.8-0.9-1.1-2.2-0.7-3.4"/>
		</g>
	</g>
</g>
<g>
	<path class="st0" d="M359.2,358.7c3.2,0.3,6.1,2.2,7.4,3.5c1,1,1.8,1.8,2.7,3.6c0.7,1.5,1.4,3.3,1.4,5.2v21h-8.4v-19.5
		c0-2.3-1-3.9-2-4.9c-0.9-1-1.9-1.5-3.1-1.8c-0.7-0.2-1.7-0.3-2.8-0.1V392h-8.4v-40.3c0-1.9-0.1-3.5-0.2-4.7
		c-0.1-1.2-0.3-2.1-0.4-2.8c-0.2-0.8-0.4-1.4-0.6-1.8h9.7V359C356.1,358.5,357.7,358.6,359.2,358.7z"/>
	<path class="st0" d="M66.3,386.9c0.3,0.5,0.5,0.7,0.9,1c0.8,0.6,1.7,0.7,2,0.7v3.4c-1,0-2.2,0-3.6-0.1c-1.4-0.1-2.6-0.3-3.9-0.7
		c-1.2-0.4-2.3-0.9-3-1.8c-0.8-1-1.4-2-1.4-3.5v-34.1c0-1.9-0.1-3.5-0.2-4.7c-0.1-1.2-0.3-2.1-0.4-2.8c-0.2-0.8-0.4-1.4-0.6-1.8h9.7
		V385C65.9,385.8,66,386.4,66.3,386.9z"/>
	<path class="st0" d="M94.7,358.6v9.2V392l-3.7,0l-2.7-2.8c-0.9,0.8-1.8,1.5-3.1,2.1c-1.3,0.6-2.8,0.7-4.9,0.7c-2,0-3.1-0.1-4.6-0.7
		c-1.3-0.5-2.3-1.3-3.2-2.2c-0.9-0.9-1.5-1.9-1.9-3.1c-0.4-1.1-0.7-2.4-0.7-3.7v-7.2c0-2.8,0.1-5.1,0.7-7.2c0.6-2.1,1.7-3.8,3-5.2
		c1.3-1.4,3-2.6,5.1-3.3c2.6-0.8,3.6-0.8,7.5-0.8H94.7z M82.3,386.6c3.6-0.1,4-3.2,4-3.9c0-0.7,0-1.4,0-1.7v-15.9
		c-1.1-0.1-2.1-0.1-3.4,0.3c-0.9,0.3-1.8,0.9-2.4,1.6c-0.7,0.7-1.4,1.7-1.7,3c-0.3,1.3-0.2,3-0.2,5v7.2c0,1.2,0.4,2.4,1,3
		C80.2,386,81,386.6,82.3,386.6z"/>
	<path class="st0" d="M125.4,392h-9.1l-8.9-15.6V392h-8.4v-40.3c0-1.9-0.1-3.5-0.2-4.7c-0.1-1.2-0.3-2.1-0.4-2.8
		c-0.2-0.8-0.4-1.4-0.6-1.8h9.7v30.2l8.1-14h7.9l-9.2,14.4L125.4,392z"/>
	<path class="st0" d="M147.6,383.1c0,2.8-1.3,5.2-3.2,6.9c-1.8,1.5-4.1,2.3-8.1,2c-1.6-0.1-3-0.1-4.2-0.4c-1.2-0.3-2.2-0.6-3.1-1
		c-1-0.4-1.8-0.9-2.5-1.4l3-5.5c0.6,0.4,1.1,0.8,1.8,1c0.6,0.2,1.2,0.4,1.9,0.7c0.7,0.2,1.6,0.3,2.5,0.3c1.4,0.1,2-0.3,2.5-0.8
		c0.5-0.6,0.7-1,0.7-1.6c0.1-0.8-0.2-1.6-0.9-2.2c-0.7-0.7-1.5-1.3-2.5-1.9c-1-0.6-2.1-1.3-3.3-1.9c-1.2-0.7-2.3-1.4-3.3-2.3
		c-1-0.9-1.7-1.8-2.4-2.9c-0.7-1.1-1.1-2.7-1.1-4.3c0-2.8,1.1-5,2.8-6.5c1.7-1.6,3.7-2.7,8.5-2.4c1.6,0.1,3.2,0.3,4.3,0.6
		c1.1,0.3,1.8,0.6,2.6,0.9c0.9,0.4,1.7,0.9,2.3,1.5l-3.1,5.5c-0.5-0.4-1-0.7-1.5-1c-0.5-0.2-1.1-0.4-1.8-0.7
		c-0.7-0.2-1.5-0.3-2.3-0.3c-1.2-0.1-2,0.2-2.6,0.7c-0.5,0.5-0.8,1-0.8,1.7c0,0.7,0.2,1.4,0.9,2c0.7,0.6,1.6,1.2,2.6,1.8
		c1,0.6,2.1,1.3,3.3,2c1.2,0.7,2.3,1.5,3.3,2.4c1,0.9,1.9,2,2.6,3.2C147.2,380,147.6,381.4,147.6,383.1L147.6,383.1z"/>
	<path class="st0" d="M165.1,358.7c3.2,0.3,6.1,2.2,7.4,3.5c1,1,1.8,1.8,2.7,3.6c0.7,1.5,1.4,3.3,1.4,5.2v21h-8.4v-19.5
		c0-2.3-1-3.9-2-4.9c-0.9-1-1.9-1.5-3.1-1.8c-0.7-0.2-1.7-0.3-2.8-0.1V392h-8.4v-40.3c0-1.9-0.1-3.5-0.2-4.7
		c-0.1-1.2-0.3-2.1-0.4-2.8c-0.2-0.8-0.4-1.4-0.6-1.8h9.7V359C162,358.5,163.5,358.6,165.1,358.7z"/>
	<path class="st0" d="M207.7,358.6c3.5-0.3,6.3,0.6,9.5,3.2c3.4,2.7,4.6,7.6,4.6,9.8V392h-8.4v-19c0-2.1-1-3.9-2.2-5
		c-0.8-0.7-2.5-1.8-4.2-1.8c-0.7,0-1.7,0-2.5,0.3c0.3,0.8,0.7,1.8,0.8,2.5c0.1,1,0.3,1.9,0.3,2.7V392H197v-19c0-2.1-0.9-3.4-1.5-4.3
		c-1.1-1.5-2.2-1.8-3.4-2.3c-0.6-0.2-2.2-0.4-2.9-0.2V392h-8.4v-26.4c2-3.6,5.3-5.5,6.7-6c5.8-1.9,10.2-0.2,13,1.9
		c1-0.6,2.1-1.6,3.6-2C205.4,359,206.5,358.7,207.7,358.6z"/>
	<path class="st0" d="M234.4,358.6V392h-8.5v-24.1c0-1.9-0.1-3.5-0.2-4.7c-0.1-1.2-0.3-2.1-0.4-2.8c-0.2-0.8-0.4-1.4-0.6-1.8H234.4z
		 M225.9,344.9h4.2c2.3,0,4.2,1.9,4.2,4.2v0c0,2.3-1.9,4.2-4.2,4.2l0,0c-2.3,0-4.2-1.9-4.2-4.2V344.9z"/>
	<path class="st0" d="M282.7,392h-9.1l-8.9-15.6V392h-8.4v-40.3c0-1.9-0.1-3.5-0.2-4.7c-0.1-1.2-0.3-2.1-0.4-2.8
		c-0.2-0.8-0.4-1.4-0.6-1.8h9.7v30.2l8.1-14h7.9l-9.2,14.4L282.7,392z"/>
	<path class="st0" d="M296.1,362.8c0.5-0.8,1.2-1.6,1.9-2.3c0.7-0.7,1.4-1,2.3-1.3c0.9-0.4,1.9-0.6,3.1-0.6v8.3c-1.9,0-3,0.4-4.1,1
		c-1.1,0.6-2,1.5-2.6,2.2c-0.7,0.8-1.7,2.8-1.7,5.1V392h-8.4v-24.1c0-1.9-0.1-3.5-0.2-4.7c-0.1-1.2-0.3-2.1-0.4-2.8
		c-0.2-0.8-0.4-1.4-0.6-1.8h9.7v7.9C295.2,364.6,295.6,363.6,296.1,362.8z"/>
	<path class="st0" d="M315.8,358.6V392h-8.5v-24.1c0-1.9-0.1-3.5-0.2-4.7c-0.1-1.2-0.3-2.1-0.4-2.8c-0.2-0.8-0.4-1.4-0.6-1.8H315.8z
		 M307.3,344.9h4.2c2.3,0,4.2,1.9,4.2,4.2v0c0,2.3-1.9,4.2-4.2,4.2l0,0c-2.3,0-4.2-1.9-4.2-4.2V344.9z"/>
	<path class="st0" d="M427.7,358.6v9.2V392l-3.7,0l-2.7-2.8c-0.9,0.8-1.8,1.5-3.1,2.1c-1.3,0.6-2.8,0.7-4.9,0.7
		c-2,0-3.1-0.1-4.6-0.7c-1.3-0.5-2.3-1.3-3.2-2.2c-0.9-0.9-1.5-1.9-1.9-3.1c-0.4-1.1-0.7-2.4-0.7-3.7v-7.2c0-2.8,0.1-5.1,0.7-7.2
		c0.6-2.1,1.7-3.8,3-5.2c1.3-1.4,3-2.6,5.1-3.3c2.6-0.8,3.6-0.8,7.5-0.8H427.7z M415.3,386.6c3.6-0.1,4-3.2,4-3.9c0-0.7,0-1.4,0-1.7
		v-15.9c-1.1-0.1-2.1-0.1-3.4,0.3c-0.9,0.3-1.8,0.9-2.4,1.6c-0.7,0.7-1.4,1.7-1.7,3c-0.3,1.3-0.2,3-0.2,5v7.2c0,1.2,0.4,2.4,1,3
		C413.2,386,414,386.6,415.3,386.6z"/>
	<path class="st0" d="M342,383.1c0,2.8-1.3,5.2-3.2,6.9c-1.8,1.5-4.1,2.3-8.1,2c-1.6-0.1-3-0.1-4.2-0.4c-1.2-0.3-2.2-0.6-3.1-1
		c-1-0.4-1.8-0.9-2.5-1.4l3-5.5c0.6,0.4,1.1,0.8,1.8,1c0.6,0.2,1.2,0.4,1.9,0.7c0.7,0.2,1.6,0.3,2.5,0.3c1.4,0.1,2-0.3,2.5-0.8
		c0.5-0.6,0.7-1,0.7-1.6c0.1-0.8-0.2-1.6-0.9-2.2c-0.7-0.7-1.5-1.3-2.5-1.9c-1-0.6-2.1-1.3-3.3-1.9c-1.2-0.7-2.3-1.4-3.3-2.3
		c-1-0.9-1.7-1.8-2.4-2.9c-0.7-1.1-1.1-2.7-1.1-4.3c0-2.8,1.1-5,2.8-6.5c1.7-1.6,3.7-2.7,8.5-2.4c1.6,0.1,3.2,0.3,4.3,0.6
		c1.1,0.3,1.8,0.6,2.6,0.9c0.9,0.4,1.7,0.9,2.3,1.5l-3.1,5.5c-0.5-0.4-1-0.7-1.5-1c-0.5-0.2-1.1-0.4-1.8-0.7
		c-0.7-0.2-1.5-0.3-2.3-0.3c-1.2-0.1-2,0.2-2.6,0.7c-0.5,0.5-0.8,1-0.8,1.7c0,0.7,0.2,1.4,0.9,2c0.7,0.6,1.6,1.2,2.6,1.8
		c1,0.6,2.1,1.3,3.3,2c1.2,0.7,2.3,1.5,3.3,2.4c1,0.9,1.9,2,2.6,3.2C341.6,380,342,381.4,342,383.1L342,383.1z"/>
	<path class="st0" d="M398.2,366.5c0.3,0.8,0.7,1.8,0.8,2.5c0.1,1,0.3,1.9,0.3,2.7V392h-8.4v-19c0-2.1-0.9-3.4-1.5-4.3
		c-1.1-1.5-2.2-1.8-3.4-2.3c-0.6-0.2-2.2-0.4-2.9-0.2V392h-8.4v-26.4c2-3.6,5.3-5.5,6.7-6c5.8-1.9,10.2-0.2,13,1.9
		C396.2,363,397,364.4,398.2,366.5z"/>
</g>
<g>
	<path class="st5" d="M111,419.4c-0.2,0-0.4-0.1-0.4-0.3V419c0-0.1,0.1-0.3,0.3-0.5c0.2-0.2,0.3-0.5,0.3-0.7v-7.3
		c0-0.2-0.1-0.5-0.3-0.7c-0.2-0.2-0.3-0.4-0.3-0.5v-0.1c0-0.2,0.1-0.3,0.4-0.3h3.5c2.1,0,3.7,0.5,4.8,1.5c1.2,1,1.7,2.3,1.7,3.9
		c0,1.6-0.5,2.8-1.6,3.8c-1.1,1-2.5,1.4-4.2,1.4H111z M115.2,418.3h0.6c0.7,0,1.3-0.3,1.8-0.8c0.5-0.5,0.7-1.2,0.7-2.2
		c0-1-0.1-1.9-0.4-2.7c-0.3-0.8-0.7-1.5-1.3-2.1c-0.5-0.5-1.1-0.8-1.8-0.8h-0.2c-0.4,0-0.7,0.2-0.7,0.7v6.2c0,0.5,0.1,0.9,0.3,1.1
		C114.4,418.2,114.8,418.3,115.2,418.3z"/>
	<path class="st5" d="M128.8,417.8c0,0.2,0.1,0.4,0.2,0.6c0.1,0.1,0.2,0.2,0.3,0.3c0.1,0,0.2,0.1,0.2,0.1c0.1,0.1,0.1,0.1,0.1,0.2
		c0,0.3-0.6,0.5-1.7,0.5c-0.5,0-0.8-0.1-1-0.2c-0.2-0.1-0.4-0.3-0.4-0.5c-0.4,0.5-1,0.8-1.9,0.8c-0.8,0-1.5-0.2-2-0.6
		c-0.5-0.4-0.8-0.9-0.8-1.7c0-0.7,0.3-1.3,0.8-1.7c0.5-0.4,1.1-0.6,1.9-0.6c0.6,0,1.1,0.1,1.5,0.4v0c-0.1-1-0.2-1.6-0.3-2
		c-0.1-0.3-0.4-0.5-0.7-0.5c-0.2,0-0.4,0.1-0.5,0.3c-0.1,0.2-0.2,0.4-0.3,0.7c-0.1,0.2-0.2,0.5-0.4,0.7c-0.2,0.2-0.4,0.3-0.7,0.3
		c-0.3,0-0.6-0.1-0.8-0.3c-0.2-0.2-0.3-0.4-0.3-0.7c0-0.6,0.3-1,0.9-1.3c0.6-0.3,1.3-0.4,2.1-0.4c1,0,1.8,0.3,2.5,0.8
		c0.6,0.5,1,1.3,1.2,2.2L128.8,417.8z M125.4,418.8c0.2,0,0.4-0.1,0.6-0.3c0.1-0.2,0.2-0.5,0.2-0.7l-0.1-0.7
		c-0.1-0.8-0.4-1.2-0.9-1.2c-0.2,0-0.4,0.1-0.5,0.3c-0.1,0.2-0.2,0.4-0.2,0.7c0,0.6,0.1,1,0.3,1.4
		C124.8,418.6,125.1,418.8,125.4,418.8z"/>
	<path class="st5" d="M136.7,417c0.3,0,0.4,0.2,0.3,0.5l-0.4,1.6c-0.1,0.2-0.2,0.4-0.4,0.4h-6c-0.1,0-0.2,0-0.3-0.1
		c-0.1-0.1-0.1-0.2-0.1-0.3v-0.2c0-0.1,0.1-0.3,0.3-0.6l3.5-5.3h-1.3c-0.2,0-0.4,0.1-0.6,0.2c-0.2,0.2-0.4,0.3-0.5,0.5
		c-0.1,0.2-0.3,0.4-0.5,0.5c-0.2,0.2-0.4,0.2-0.5,0.2h-0.1c-0.2,0-0.3-0.1-0.3-0.2c-0.1-0.1-0.1-0.2,0-0.4l0.4-1.2
		c0.1-0.2,0.1-0.3,0.2-0.4c0.1-0.1,0.2-0.1,0.3-0.1h5.5c0.1,0,0.2,0,0.2,0.1c0.1,0.1,0.1,0.1,0.1,0.2v0.1c0,0.1-0.2,0.4-0.5,0.9
		l-3.4,5.2h1.4c0.3,0,0.5-0.1,0.8-0.3c0.2-0.2,0.4-0.4,0.6-0.6c0.2-0.2,0.3-0.4,0.5-0.6c0.2-0.2,0.4-0.3,0.5-0.3H136.7z"/>
	<path class="st5" d="M144.4,417c0.3,0,0.4,0.2,0.3,0.5l-0.4,1.6c-0.1,0.2-0.2,0.4-0.4,0.4h-6c-0.1,0-0.2,0-0.3-0.1
		c-0.1-0.1-0.1-0.2-0.1-0.3v-0.2c0-0.1,0.1-0.3,0.3-0.6l3.5-5.3h-1.3c-0.2,0-0.4,0.1-0.6,0.2c-0.2,0.2-0.4,0.3-0.5,0.5
		c-0.1,0.2-0.3,0.4-0.5,0.5c-0.2,0.2-0.4,0.2-0.5,0.2h-0.1c-0.2,0-0.3-0.1-0.3-0.2c-0.1-0.1-0.1-0.2,0-0.4l0.4-1.2
		c0.1-0.2,0.1-0.3,0.2-0.4c0.1-0.1,0.2-0.1,0.3-0.1h5.5c0.1,0,0.2,0,0.2,0.1c0.1,0.1,0.1,0.1,0.1,0.2v0.1c0,0.1-0.2,0.4-0.5,0.9
		l-3.4,5.2h1.4c0.3,0,0.5-0.1,0.8-0.3c0.2-0.2,0.4-0.4,0.6-0.6c0.2-0.2,0.3-0.4,0.5-0.6c0.2-0.2,0.4-0.3,0.5-0.3H144.4z"/>
	<path class="st5" d="M145.5,419.4c-0.2,0-0.3-0.1-0.3-0.3V419c0-0.1,0.1-0.3,0.3-0.5c0.2-0.2,0.3-0.5,0.3-0.7V411
		c0-0.3-0.1-0.5-0.3-0.8c-0.2-0.2-0.3-0.4-0.3-0.5v-0.1c0-0.1,0.1-0.2,0.3-0.3l2.2-1.1c0.2-0.1,0.4-0.1,0.5,0
		c0.1,0.1,0.2,0.2,0.2,0.3v9.2c0,0.2,0.1,0.5,0.3,0.7c0.2,0.2,0.3,0.4,0.3,0.5v0.1c0,0.2-0.1,0.3-0.4,0.3H145.5z"/>
	<path class="st5" d="M150.1,419.4c-0.2,0-0.4-0.1-0.4-0.3V419c0-0.1,0.1-0.3,0.3-0.5c0.2-0.2,0.3-0.5,0.3-0.7v-2.8
		c0-0.3-0.1-0.5-0.3-0.8c-0.2-0.2-0.3-0.4-0.3-0.5v-0.1c0-0.1,0.1-0.2,0.3-0.3l2.2-1.1c0.2-0.1,0.4-0.1,0.5,0
		c0.1,0.1,0.2,0.2,0.2,0.3v5.3c0,0.2,0.1,0.5,0.3,0.7c0.2,0.2,0.3,0.4,0.3,0.5v0.1c0,0.2-0.1,0.3-0.4,0.3H150.1z M151.7,411.4
		c-0.5,0-0.9-0.1-1.2-0.4c-0.3-0.3-0.5-0.6-0.5-1.1c0-0.4,0.2-0.8,0.5-1.1c0.3-0.3,0.7-0.4,1.2-0.4c0.5,0,0.9,0.1,1.2,0.4
		c0.3,0.3,0.5,0.6,0.5,1.1c0,0.4-0.2,0.8-0.5,1.1C152.6,411.2,152.2,411.4,151.7,411.4z"/>
	<path class="st5" d="M162.3,417.8c0,0.2,0.1,0.5,0.3,0.7c0.2,0.2,0.3,0.4,0.3,0.6v0.1c0,0.2-0.1,0.3-0.4,0.3h-3
		c-0.2,0-0.4-0.1-0.4-0.3V419c0-0.1,0.1-0.3,0.3-0.6c0.2-0.2,0.3-0.5,0.3-0.7l-0.1-2.7c0-0.7-0.1-1.3-0.3-1.6
		c-0.2-0.3-0.4-0.5-0.7-0.5c-0.3,0-0.6,0.1-0.7,0.4c-0.2,0.3-0.2,0.6-0.2,1.1v3.2c0,0.2,0.1,0.5,0.3,0.7c0.2,0.2,0.3,0.4,0.3,0.6
		v0.1c0,0.2-0.1,0.3-0.4,0.3h-3.2c-0.2,0-0.4-0.1-0.4-0.3V419c0-0.1,0.1-0.3,0.3-0.6c0.2-0.2,0.3-0.5,0.3-0.7v-2.9
		c0-0.2-0.1-0.4-0.2-0.5c-0.1-0.1-0.3-0.3-0.4-0.4c-0.1-0.1-0.2-0.2-0.2-0.3v0c0-0.1,0.1-0.3,0.4-0.4l2.1-1c0.2-0.1,0.3-0.1,0.4,0
		c0.1,0.1,0.1,0.2,0.1,0.4v0.7c0.4-0.7,1.1-1.1,2.1-1.1c0.7,0,1.4,0.2,1.9,0.7c0.5,0.5,0.8,1.3,0.9,2.4L162.3,417.8z"/>
	<path class="st5" d="M170,412.2c0.5,0,0.8,0,0.9,0.1c0.1,0.1,0.2,0.2,0.2,0.4c0,0.1-0.1,0.3-0.1,0.3c-0.1,0.1-0.2,0.1-0.3,0.2
		c-0.1,0-0.2,0.1-0.4,0.1c-0.2,0-0.3,0.1-0.3,0.1c0.5,0.6,0.7,1.2,0.7,1.8c0,1.2-0.5,2-1.6,2.6c0.6,0.1,1.1,0.3,1.4,0.6
		c0.3,0.3,0.4,0.6,0.4,1c0,0.6-0.4,1.1-1.1,1.4c-0.7,0.4-1.7,0.6-2.8,0.6c-1.1,0-1.9-0.2-2.6-0.5c-0.6-0.3-0.9-0.8-0.9-1.4
		c0-0.3,0.1-0.5,0.3-0.7c0.2-0.2,0.4-0.3,0.8-0.3c0.3,0,0.6,0.1,0.8,0.3c0.2,0.2,0.4,0.5,0.5,0.8c0.1,0.3,0.3,0.5,0.5,0.8
		c0.2,0.2,0.5,0.3,0.8,0.3c0.4,0,0.7-0.1,0.9-0.3c0.2-0.2,0.3-0.5,0.3-0.9c0-0.7-0.2-1.1-0.6-1.2c-0.2,0-0.4,0-0.5,0
		c-1,0-1.9-0.3-2.6-0.8c-0.7-0.6-1-1.3-1-2.2c0-0.9,0.3-1.7,1-2.3c0.7-0.6,1.6-0.9,2.6-0.9c0.3,0,0.7,0,1.3,0.1
		C168.9,412.2,169.5,412.2,170,412.2z M165.9,414.1c0,0.8,0.2,1.6,0.5,2.3c0.3,0.8,0.7,1.1,1,1.1c0.2,0,0.4-0.1,0.6-0.3
		c0.1-0.2,0.2-0.5,0.2-0.9c0-0.7-0.2-1.5-0.5-2.2c-0.3-0.8-0.7-1.2-1.1-1.2c-0.2,0-0.4,0.1-0.6,0.3
		C166,413.4,165.9,413.7,165.9,414.1z"/>
	<path class="st5" d="M177.8,419.5c-1,0-1.7-0.2-2.3-0.5c-0.6-0.3-0.9-0.7-0.9-1.3c0-0.3,0.1-0.6,0.3-0.7c0.2-0.2,0.4-0.2,0.8-0.2
		c0.3,0,0.6,0.1,0.8,0.3c0.2,0.2,0.3,0.4,0.4,0.7c0.1,0.3,0.2,0.5,0.4,0.7c0.2,0.2,0.4,0.3,0.7,0.3c0.5,0,0.8-0.3,0.8-0.8
		c0-0.4-0.1-0.6-0.4-0.8c-0.3-0.2-0.6-0.4-1-0.5c-0.4-0.1-0.8-0.2-1.2-0.4c-0.4-0.1-0.7-0.4-1-0.7c-0.3-0.3-0.4-0.8-0.4-1.3
		c0-0.7,0.3-1.2,0.9-1.6c0.6-0.4,1.3-0.6,2.3-0.6c0.9,0,1.7,0.2,2.3,0.5c0.6,0.3,0.9,0.8,0.9,1.3c0,0.3-0.1,0.5-0.3,0.6
		c-0.2,0.2-0.4,0.3-0.7,0.3c-0.3,0-0.6-0.1-0.8-0.3c-0.2-0.2-0.3-0.4-0.4-0.7c-0.1-0.3-0.2-0.5-0.3-0.7c-0.1-0.2-0.3-0.3-0.5-0.3
		c-0.2,0-0.4,0.1-0.5,0.3c-0.1,0.2-0.2,0.4-0.2,0.6c0,0.4,0.1,0.7,0.4,0.9c0.3,0.2,0.6,0.4,1,0.5c0.4,0.1,0.7,0.2,1.1,0.4
		c0.4,0.1,0.7,0.4,1,0.7c0.3,0.3,0.4,0.7,0.4,1.2c0,0.6-0.3,1.2-0.9,1.6C179.6,419.3,178.8,419.5,177.8,419.5z"/>
	<path class="st5" d="M185.8,419.5c-1.1,0-2.1-0.4-2.9-1.1c-0.8-0.7-1.2-1.6-1.2-2.7c0-1.1,0.4-2,1.2-2.7c0.8-0.7,1.7-1,2.8-1
		c1.1,0,2.1,0.4,2.9,1.1c0.8,0.7,1.2,1.6,1.2,2.7c0,1.1-0.4,2-1.2,2.7C187.9,419.2,186.9,419.5,185.8,419.5z M186.2,418.8
		c0.6,0,1-0.6,1-1.8c0-0.4-0.1-1-0.2-1.6c-0.1-0.6-0.3-1.2-0.6-1.7c-0.3-0.5-0.6-0.8-1-0.8c-0.3,0-0.6,0.2-0.7,0.5
		c-0.1,0.3-0.2,0.8-0.2,1.4c0,0.3,0,0.7,0.1,1.2c0.1,0.4,0.2,0.9,0.3,1.3c0.1,0.5,0.3,0.8,0.6,1.1
		C185.6,418.6,185.9,418.8,186.2,418.8z"/>
	<path class="st5" d="M190.8,419.4c-0.2,0-0.3-0.1-0.3-0.3V419c0-0.1,0.1-0.3,0.3-0.5c0.2-0.2,0.3-0.5,0.3-0.7V411
		c0-0.3-0.1-0.5-0.3-0.8c-0.2-0.2-0.3-0.4-0.3-0.5v-0.1c0-0.1,0.1-0.2,0.3-0.3l2.2-1.1c0.2-0.1,0.4-0.1,0.5,0
		c0.1,0.1,0.2,0.2,0.2,0.3v9.2c0,0.2,0.1,0.5,0.3,0.7c0.2,0.2,0.3,0.4,0.3,0.5v0.1c0,0.2-0.1,0.3-0.4,0.3H190.8z"/>
	<path class="st5" d="M202.6,417.7c0,0.3,0,0.5,0.1,0.6c0.1,0.1,0.1,0.2,0.2,0.2c0.1,0,0.2,0.1,0.2,0.1c0.1,0.1,0.1,0.2,0.1,0.3
		c0,0.2-0.1,0.3-0.4,0.4c-0.3,0.1-0.6,0.1-1.2,0.1c-0.5,0-0.8-0.1-1-0.2c-0.2-0.1-0.3-0.4-0.4-0.7c-0.4,0.6-1.1,0.9-2.1,0.9
		c-0.8,0-1.5-0.3-2-0.8c-0.5-0.5-0.8-1.2-0.8-2.1v-2.5c0-0.3-0.1-0.5-0.3-0.7c-0.2-0.2-0.3-0.4-0.3-0.5v-0.1c0-0.2,0.1-0.3,0.3-0.3
		l2.2-0.3c0.5-0.1,0.7,0,0.7,0.3l0,4.4c0,0.6,0.1,1,0.2,1.3c0.2,0.3,0.4,0.4,0.7,0.4c0.3,0,0.5-0.1,0.7-0.4c0.2-0.3,0.3-0.6,0.3-1.1
		v-2.9c0-0.3-0.1-0.5-0.3-0.7c-0.2-0.2-0.3-0.4-0.3-0.5v-0.1c0-0.2,0.1-0.3,0.3-0.3l2.2-0.3c0.4-0.1,0.7,0,0.7,0.3V417.7z"/>
	<path class="st5" d="M206.9,419.5c-0.8,0-1.3-0.2-1.8-0.7c-0.4-0.5-0.6-1.2-0.6-2v-3.5H204c-0.1,0-0.2,0-0.2-0.1
		c-0.1-0.1-0.1-0.1-0.1-0.2v-0.3c0-0.2,0.1-0.3,0.3-0.3h0.3c0.5,0,0.8-0.1,1.2-0.4c0.3-0.3,0.5-0.6,0.6-1.1c0-0.3,0.2-0.4,0.4-0.4
		h0.3c0.3,0,0.4,0.1,0.4,0.4v1.5h1.5c0.1,0,0.2,0,0.2,0.1c0.1,0.1,0.1,0.1,0.1,0.2v0.3c0,0.1,0,0.2-0.1,0.2
		c-0.1,0.1-0.1,0.1-0.2,0.1h-1.5v3.6c0,0.2,0.1,0.4,0.2,0.6c0.1,0.1,0.3,0.2,0.5,0.2c0.4,0,0.8-0.2,1-0.5c0.1-0.1,0.1-0.1,0.2-0.2
		c0.1,0,0.2,0,0.2,0.1c0.1,0,0.1,0.1,0.1,0.2c0,0.6-0.2,1.2-0.7,1.6S207.7,419.5,206.9,419.5z"/>
	<path class="st5" d="M210.2,419.4c-0.2,0-0.4-0.1-0.4-0.3V419c0-0.1,0.1-0.3,0.3-0.5c0.2-0.2,0.3-0.5,0.3-0.7v-2.8
		c0-0.3-0.1-0.5-0.3-0.8c-0.2-0.2-0.3-0.4-0.3-0.5v-0.1c0-0.1,0.1-0.2,0.3-0.3l2.2-1.1c0.2-0.1,0.4-0.1,0.5,0
		c0.1,0.1,0.2,0.2,0.2,0.3v5.3c0,0.2,0.1,0.5,0.3,0.7c0.2,0.2,0.3,0.4,0.3,0.5v0.1c0,0.2-0.1,0.3-0.4,0.3H210.2z M211.8,411.4
		c-0.5,0-0.9-0.1-1.2-0.4c-0.3-0.3-0.5-0.6-0.5-1.1c0-0.4,0.2-0.8,0.5-1.1c0.3-0.3,0.7-0.4,1.2-0.4c0.5,0,0.9,0.1,1.2,0.4
		c0.3,0.3,0.5,0.6,0.5,1.1c0,0.4-0.2,0.8-0.5,1.1C212.7,411.2,212.3,411.4,211.8,411.4z"/>
	<path class="st5" d="M218.5,419.5c-1.1,0-2.1-0.4-2.9-1.1c-0.8-0.7-1.2-1.6-1.2-2.7c0-1.1,0.4-2,1.2-2.7c0.8-0.7,1.7-1,2.8-1
		c1.1,0,2.1,0.4,2.9,1.1c0.8,0.7,1.2,1.6,1.2,2.7c0,1.1-0.4,2-1.2,2.7C220.5,419.2,219.6,419.5,218.5,419.5z M218.8,418.8
		c0.6,0,1-0.6,1-1.8c0-0.4-0.1-1-0.2-1.6c-0.1-0.6-0.3-1.2-0.6-1.7c-0.3-0.5-0.6-0.8-1-0.8c-0.3,0-0.6,0.2-0.7,0.5
		c-0.1,0.3-0.2,0.8-0.2,1.4c0,0.3,0,0.7,0.1,1.2c0.1,0.4,0.2,0.9,0.3,1.3c0.1,0.5,0.3,0.8,0.6,1.1
		C218.3,418.6,218.5,418.8,218.8,418.8z"/>
	<path class="st5" d="M231.2,417.8c0,0.2,0.1,0.5,0.3,0.7c0.2,0.2,0.3,0.4,0.3,0.6v0.1c0,0.2-0.1,0.3-0.4,0.3h-3
		c-0.2,0-0.4-0.1-0.4-0.3V419c0-0.1,0.1-0.3,0.3-0.6c0.2-0.2,0.3-0.5,0.3-0.7l-0.1-2.7c0-0.7-0.1-1.3-0.3-1.6
		c-0.2-0.3-0.4-0.5-0.7-0.5c-0.3,0-0.6,0.1-0.7,0.4c-0.2,0.3-0.2,0.6-0.2,1.1v3.2c0,0.2,0.1,0.5,0.3,0.7c0.2,0.2,0.3,0.4,0.3,0.6
		v0.1c0,0.2-0.1,0.3-0.4,0.3h-3.2c-0.2,0-0.4-0.1-0.4-0.3V419c0-0.1,0.1-0.3,0.3-0.6c0.2-0.2,0.3-0.5,0.3-0.7v-2.9
		c0-0.2-0.1-0.4-0.2-0.5c-0.1-0.1-0.3-0.3-0.4-0.4c-0.1-0.1-0.2-0.2-0.2-0.3v0c0-0.1,0.1-0.3,0.4-0.4l2.1-1c0.2-0.1,0.3-0.1,0.4,0
		c0.1,0.1,0.1,0.2,0.1,0.4v0.7c0.4-0.7,1.1-1.1,2.1-1.1c0.7,0,1.4,0.2,1.9,0.7c0.5,0.5,0.8,1.3,0.9,2.4L231.2,417.8z"/>
	<path class="st5" d="M235.6,419.5c-1,0-1.7-0.2-2.3-0.5c-0.6-0.3-0.9-0.7-0.9-1.3c0-0.3,0.1-0.6,0.3-0.7c0.2-0.2,0.4-0.2,0.8-0.2
		c0.3,0,0.6,0.1,0.8,0.3c0.2,0.2,0.3,0.4,0.4,0.7c0.1,0.3,0.2,0.5,0.4,0.7c0.2,0.2,0.4,0.3,0.7,0.3c0.5,0,0.8-0.3,0.8-0.8
		c0-0.4-0.1-0.6-0.4-0.8c-0.3-0.2-0.6-0.4-1-0.5c-0.4-0.1-0.8-0.2-1.2-0.4c-0.4-0.1-0.7-0.4-1-0.7c-0.3-0.3-0.4-0.8-0.4-1.3
		c0-0.7,0.3-1.2,0.9-1.6c0.6-0.4,1.3-0.6,2.3-0.6c0.9,0,1.7,0.2,2.3,0.5c0.6,0.3,0.9,0.8,0.9,1.3c0,0.3-0.1,0.5-0.3,0.6
		c-0.2,0.2-0.4,0.3-0.7,0.3c-0.3,0-0.6-0.1-0.8-0.3c-0.2-0.2-0.3-0.4-0.4-0.7c-0.1-0.3-0.2-0.5-0.3-0.7c-0.1-0.2-0.3-0.3-0.5-0.3
		c-0.2,0-0.4,0.1-0.5,0.3c-0.1,0.2-0.2,0.4-0.2,0.6c0,0.4,0.1,0.7,0.4,0.9c0.3,0.2,0.6,0.4,1,0.5c0.4,0.1,0.7,0.2,1.1,0.4
		c0.4,0.1,0.7,0.4,1,0.7c0.3,0.3,0.4,0.7,0.4,1.2c0,0.6-0.3,1.2-0.9,1.6C237.3,419.3,236.6,419.5,235.6,419.5z"/>
	<path class="st5" d="M252.5,412.2c0.2,0,0.3,0.1,0.3,0.3v0.1c0,0.1-0.1,0.3-0.4,0.6c-0.3,0.2-0.4,0.5-0.5,0.7l-1.8,5.1
		c-0.1,0.3-0.3,0.4-0.5,0.4H249c-0.3,0-0.5-0.1-0.5-0.4l-1.2-4l-1.2,4c-0.1,0.3-0.2,0.4-0.5,0.4h-0.4c-0.2,0-0.4-0.1-0.5-0.4
		l-2.1-5.1c-0.1-0.2-0.2-0.5-0.5-0.7c-0.2-0.2-0.3-0.4-0.3-0.6v-0.1c0-0.2,0.1-0.3,0.3-0.3h3c0.2,0,0.3,0.1,0.3,0.3v0.1
		c0,0.1-0.1,0.2-0.2,0.3c-0.1,0.1-0.2,0.2-0.3,0.4c-0.1,0.2-0.1,0.3,0,0.6l1,2.9l1.2-4.2c0.1-0.2,0.2-0.3,0.4-0.3l0.9,0
		c0.2,0,0.3,0.1,0.4,0.3l1.2,4.2l0.9-2.7c0.1-0.2,0.1-0.4,0-0.6c-0.1-0.2-0.1-0.3-0.2-0.4c-0.1-0.1-0.2-0.2-0.3-0.3
		c-0.1-0.1-0.1-0.2-0.1-0.3v-0.1c0-0.2,0.1-0.3,0.3-0.3H252.5z"/>
	<path class="st5" d="M253.4,419.4c-0.2,0-0.4-0.1-0.4-0.3V419c0-0.1,0.1-0.3,0.3-0.5c0.2-0.2,0.3-0.5,0.3-0.7v-2.8
		c0-0.3-0.1-0.5-0.3-0.8c-0.2-0.2-0.3-0.4-0.3-0.5v-0.1c0-0.1,0.1-0.2,0.3-0.3l2.2-1.1c0.2-0.1,0.4-0.1,0.5,0
		c0.1,0.1,0.2,0.2,0.2,0.3v5.3c0,0.2,0.1,0.5,0.3,0.7c0.2,0.2,0.3,0.4,0.3,0.5v0.1c0,0.2-0.1,0.3-0.4,0.3H253.4z M255,411.4
		c-0.5,0-0.9-0.1-1.2-0.4c-0.3-0.3-0.5-0.6-0.5-1.1c0-0.4,0.2-0.8,0.5-1.1c0.3-0.3,0.7-0.4,1.2-0.4c0.5,0,0.9,0.1,1.2,0.4
		c0.3,0.3,0.5,0.6,0.5,1.1c0,0.4-0.2,0.8-0.5,1.1C255.9,411.2,255.5,411.4,255,411.4z"/>
	<path class="st5" d="M260.7,419.5c-0.8,0-1.3-0.2-1.8-0.7c-0.4-0.5-0.6-1.2-0.6-2v-3.5h-0.6c-0.1,0-0.2,0-0.2-0.1
		c-0.1-0.1-0.1-0.1-0.1-0.2v-0.3c0-0.2,0.1-0.3,0.3-0.3h0.3c0.5,0,0.8-0.1,1.2-0.4c0.3-0.3,0.5-0.6,0.6-1.1c0-0.3,0.2-0.4,0.4-0.4
		h0.3c0.3,0,0.4,0.1,0.4,0.4v1.5h1.5c0.1,0,0.2,0,0.2,0.1c0.1,0.1,0.1,0.1,0.1,0.2v0.3c0,0.1,0,0.2-0.1,0.2
		c-0.1,0.1-0.1,0.1-0.2,0.1H261v3.6c0,0.2,0.1,0.4,0.2,0.6c0.1,0.1,0.3,0.2,0.5,0.2c0.4,0,0.8-0.2,1-0.5c0.1-0.1,0.1-0.1,0.2-0.2
		c0.1,0,0.2,0,0.2,0.1c0.1,0,0.1,0.1,0.1,0.2c0,0.6-0.2,1.2-0.7,1.6C262.1,419.3,261.5,419.5,260.7,419.5z"/>
	<path class="st5" d="M271.6,417.7c0,0.2,0.1,0.5,0.3,0.7c0.2,0.2,0.3,0.4,0.3,0.6v0.1c0,0.2-0.1,0.3-0.4,0.3h-3
		c-0.2,0-0.4-0.1-0.4-0.3V419c0-0.1,0.1-0.3,0.3-0.5c0.2-0.2,0.3-0.5,0.3-0.7l-0.1-2.8c0-0.7-0.1-1.2-0.3-1.5
		c-0.2-0.3-0.4-0.4-0.7-0.4c-0.3,0-0.6,0.1-0.7,0.4c-0.2,0.3-0.2,0.6-0.2,1.1v3.2c0,0.2,0.1,0.5,0.3,0.7c0.2,0.2,0.3,0.4,0.3,0.5
		v0.1c0,0.2-0.1,0.3-0.4,0.3h-3.2c-0.2,0-0.3-0.1-0.3-0.3V419c0-0.1,0.1-0.3,0.3-0.5c0.2-0.2,0.3-0.5,0.3-0.7v-6.9
		c0-0.3-0.1-0.5-0.4-0.7c-0.2-0.2-0.4-0.4-0.4-0.5v0c0-0.2,0.1-0.3,0.3-0.4l2.3-1c0.2-0.1,0.3-0.1,0.4,0c0.1,0.1,0.2,0.2,0.2,0.3
		v4.3c0.4-0.5,1-0.7,1.8-0.7c0.7,0,1.4,0.2,1.9,0.7c0.5,0.5,0.8,1.2,0.9,2.3L271.6,417.7z"/>
	<path class="st5" d="M283.6,417.8c0,0.2,0.1,0.5,0.3,0.7c0.2,0.2,0.3,0.4,0.3,0.6v0.1c0,0.2-0.1,0.3-0.4,0.3h-3
		c-0.2,0-0.4-0.1-0.4-0.3V419c0-0.1,0.1-0.3,0.3-0.6c0.2-0.2,0.3-0.5,0.3-0.7l-0.1-2.7c0-0.7-0.1-1.3-0.3-1.6
		c-0.2-0.3-0.4-0.5-0.7-0.5c-0.3,0-0.6,0.1-0.7,0.4c-0.2,0.3-0.2,0.6-0.2,1.1v3.2c0,0.2,0.1,0.5,0.3,0.7c0.2,0.2,0.3,0.4,0.3,0.6
		v0.1c0,0.2-0.1,0.3-0.4,0.3H276c-0.2,0-0.4-0.1-0.4-0.3V419c0-0.1,0.1-0.3,0.3-0.6c0.2-0.2,0.3-0.5,0.3-0.7v-2.9
		c0-0.2-0.1-0.4-0.2-0.5c-0.1-0.1-0.3-0.3-0.4-0.4c-0.1-0.1-0.2-0.2-0.2-0.3v0c0-0.1,0.1-0.3,0.4-0.4l2.1-1c0.2-0.1,0.3-0.1,0.4,0
		c0.1,0.1,0.1,0.2,0.1,0.4v0.7c0.4-0.7,1.1-1.1,2.1-1.1c0.7,0,1.4,0.2,1.9,0.7c0.5,0.5,0.8,1.3,0.9,2.4L283.6,417.8z"/>
	<path class="st5" d="M291.8,417.8c0,0.2,0.1,0.4,0.2,0.6c0.1,0.1,0.2,0.2,0.3,0.3c0.1,0,0.2,0.1,0.2,0.1c0.1,0.1,0.1,0.1,0.1,0.2
		c0,0.3-0.6,0.5-1.7,0.5c-0.5,0-0.8-0.1-1-0.2c-0.2-0.1-0.4-0.3-0.4-0.5c-0.4,0.5-1,0.8-1.9,0.8c-0.8,0-1.5-0.2-2-0.6
		c-0.5-0.4-0.8-0.9-0.8-1.7c0-0.7,0.3-1.3,0.8-1.7c0.5-0.4,1.1-0.6,1.9-0.6c0.6,0,1.1,0.1,1.5,0.4v0c-0.1-1-0.2-1.6-0.3-2
		s-0.4-0.5-0.7-0.5c-0.2,0-0.4,0.1-0.5,0.3c-0.1,0.2-0.2,0.4-0.3,0.7c-0.1,0.2-0.2,0.5-0.4,0.7c-0.2,0.2-0.4,0.3-0.7,0.3
		c-0.3,0-0.6-0.1-0.8-0.3c-0.2-0.2-0.3-0.4-0.3-0.7c0-0.6,0.3-1,0.9-1.3c0.6-0.3,1.3-0.4,2.1-0.4c1,0,1.8,0.3,2.5,0.8
		c0.6,0.5,1,1.3,1.2,2.2L291.8,417.8z M288.3,418.8c0.2,0,0.4-0.1,0.6-0.3c0.1-0.2,0.2-0.5,0.2-0.7l-0.1-0.7
		c-0.1-0.8-0.4-1.2-0.9-1.2c-0.2,0-0.4,0.1-0.5,0.3c-0.1,0.2-0.2,0.4-0.2,0.7c0,0.6,0.1,1,0.3,1.4
		C287.8,418.6,288,418.8,288.3,418.8z"/>
	<path class="st5" d="M295.9,419.5c-0.8,0-1.3-0.2-1.8-0.7c-0.4-0.5-0.6-1.2-0.6-2v-3.5h-0.6c-0.1,0-0.2,0-0.2-0.1
		c-0.1-0.1-0.1-0.1-0.1-0.2v-0.3c0-0.2,0.1-0.3,0.3-0.3h0.3c0.5,0,0.8-0.1,1.2-0.4c0.3-0.3,0.5-0.6,0.6-1.1c0-0.3,0.2-0.4,0.4-0.4
		h0.3c0.3,0,0.4,0.1,0.4,0.4v1.5h1.5c0.1,0,0.2,0,0.2,0.1c0.1,0.1,0.1,0.1,0.1,0.2v0.3c0,0.1,0,0.2-0.1,0.2
		c-0.1,0.1-0.1,0.1-0.2,0.1h-1.5v3.6c0,0.2,0.1,0.4,0.2,0.6c0.1,0.1,0.3,0.2,0.5,0.2c0.4,0,0.8-0.2,1-0.5c0.1-0.1,0.1-0.1,0.2-0.2
		c0.1,0,0.2,0,0.2,0.1c0.1,0,0.1,0.1,0.1,0.2c0,0.6-0.2,1.2-0.7,1.6C297.3,419.3,296.7,419.5,295.9,419.5z"/>
	<path class="st5" d="M306.4,417.7c0,0.3,0,0.5,0.1,0.6c0.1,0.1,0.1,0.2,0.2,0.2c0.1,0,0.2,0.1,0.2,0.1c0.1,0.1,0.1,0.2,0.1,0.3
		c0,0.2-0.1,0.3-0.4,0.4c-0.3,0.1-0.6,0.1-1.2,0.1c-0.5,0-0.8-0.1-1-0.2c-0.2-0.1-0.3-0.4-0.4-0.7c-0.4,0.6-1.1,0.9-2.1,0.9
		c-0.8,0-1.5-0.3-2-0.8c-0.5-0.5-0.8-1.2-0.8-2.1v-2.5c0-0.3-0.1-0.5-0.3-0.7c-0.2-0.2-0.3-0.4-0.3-0.5v-0.1c0-0.2,0.1-0.3,0.3-0.3
		l2.2-0.3c0.5-0.1,0.7,0,0.7,0.3l0,4.4c0,0.6,0.1,1,0.2,1.3c0.2,0.3,0.4,0.4,0.7,0.4c0.3,0,0.5-0.1,0.7-0.4c0.2-0.3,0.3-0.6,0.3-1.1
		v-2.9c0-0.3-0.1-0.5-0.3-0.7c-0.2-0.2-0.3-0.4-0.3-0.5v-0.1c0-0.2,0.1-0.3,0.3-0.3l2.2-0.3c0.4-0.1,0.7,0,0.7,0.3V417.7z"/>
	<path class="st5" d="M312.6,412.1c0.4,0,0.8,0.1,1,0.4c0.3,0.3,0.4,0.6,0.4,1.1c0,0.9-0.4,1.4-1.1,1.4c-0.3,0-0.5-0.1-0.7-0.2
		c-0.2-0.1-0.2-0.3-0.3-0.5c0-0.2-0.1-0.3-0.2-0.5c-0.1-0.1-0.2-0.2-0.4-0.2c-0.4,0-0.5,0.5-0.5,1.4v2.8c0,0.2,0.1,0.5,0.4,0.7
		c0.3,0.2,0.4,0.4,0.4,0.5v0.1c0,0.2-0.1,0.3-0.4,0.3h-3.2c-0.2,0-0.4-0.1-0.4-0.3V419c0-0.1,0.1-0.3,0.3-0.5
		c0.2-0.2,0.3-0.5,0.3-0.7v-3c0-0.2-0.1-0.4-0.2-0.5c-0.1-0.1-0.2-0.3-0.4-0.4c-0.1-0.1-0.2-0.2-0.2-0.3v0c0-0.2,0.1-0.3,0.3-0.4
		l2.1-1c0.2-0.1,0.3-0.1,0.4,0c0.1,0.1,0.1,0.2,0.1,0.3v1.1C310.9,412.6,311.6,412.1,312.6,412.1z"/>
	<path class="st5" d="M321.4,417.8c0,0.2,0.1,0.4,0.2,0.6c0.1,0.1,0.2,0.2,0.3,0.3c0.1,0,0.2,0.1,0.2,0.1c0.1,0.1,0.1,0.1,0.1,0.2
		c0,0.3-0.6,0.5-1.7,0.5c-0.5,0-0.8-0.1-1-0.2c-0.2-0.1-0.4-0.3-0.4-0.5c-0.4,0.5-1,0.8-1.9,0.8c-0.8,0-1.5-0.2-2-0.6
		c-0.5-0.4-0.8-0.9-0.8-1.7c0-0.7,0.3-1.3,0.8-1.7c0.5-0.4,1.1-0.6,1.9-0.6c0.6,0,1.1,0.1,1.5,0.4v0c-0.1-1-0.2-1.6-0.3-2
		c-0.1-0.3-0.4-0.5-0.7-0.5c-0.2,0-0.4,0.1-0.5,0.3c-0.1,0.2-0.2,0.4-0.3,0.7c-0.1,0.2-0.2,0.5-0.4,0.7c-0.2,0.2-0.4,0.3-0.7,0.3
		c-0.3,0-0.6-0.1-0.8-0.3c-0.2-0.2-0.3-0.4-0.3-0.7c0-0.6,0.3-1,0.9-1.3c0.6-0.3,1.3-0.4,2.1-0.4c1,0,1.8,0.3,2.5,0.8
		c0.6,0.5,1,1.3,1.2,2.2L321.4,417.8z M317.9,418.8c0.2,0,0.4-0.1,0.6-0.3c0.1-0.2,0.2-0.5,0.2-0.7l-0.1-0.7
		c-0.1-0.8-0.4-1.2-0.9-1.2c-0.2,0-0.4,0.1-0.5,0.3c-0.1,0.2-0.2,0.4-0.2,0.7c0,0.6,0.1,1,0.3,1.4
		C317.4,418.6,317.6,418.8,317.9,418.8z"/>
	<path class="st5" d="M322.8,419.4c-0.2,0-0.3-0.1-0.3-0.3V419c0-0.1,0.1-0.3,0.3-0.5c0.2-0.2,0.3-0.5,0.3-0.7V411
		c0-0.3-0.1-0.5-0.3-0.8c-0.2-0.2-0.3-0.4-0.3-0.5v-0.1c0-0.1,0.1-0.2,0.3-0.3l2.2-1.1c0.2-0.1,0.4-0.1,0.5,0
		c0.1,0.1,0.2,0.2,0.2,0.3v9.2c0,0.2,0.1,0.5,0.3,0.7c0.2,0.2,0.3,0.4,0.3,0.5v0.1c0,0.2-0.1,0.3-0.4,0.3H322.8z"/>
	<path class="st5" d="M333,419.5c-0.8,0-1.3-0.2-1.8-0.7c-0.4-0.5-0.6-1.2-0.6-2v-3.5H330c-0.1,0-0.2,0-0.2-0.1
		c-0.1-0.1-0.1-0.1-0.1-0.2v-0.3c0-0.2,0.1-0.3,0.3-0.3h0.3c0.5,0,0.8-0.1,1.2-0.4c0.3-0.3,0.5-0.6,0.6-1.1c0-0.3,0.2-0.4,0.4-0.4
		h0.3c0.3,0,0.4,0.1,0.4,0.4v1.5h1.5c0.1,0,0.2,0,0.2,0.1c0.1,0.1,0.1,0.1,0.1,0.2v0.3c0,0.1,0,0.2-0.1,0.2
		c-0.1,0.1-0.1,0.1-0.2,0.1h-1.5v3.6c0,0.2,0.1,0.4,0.2,0.6c0.1,0.1,0.3,0.2,0.5,0.2c0.4,0,0.8-0.2,1-0.5c0.1-0.1,0.1-0.1,0.2-0.2
		c0.1,0,0.2,0,0.2,0.1c0.1,0,0.1,0.1,0.1,0.2c0,0.6-0.2,1.2-0.7,1.6C334.3,419.3,333.7,419.5,333,419.5z"/>
	<path class="st5" d="M339.9,419.5c-1.1,0-2.1-0.4-2.9-1.1c-0.8-0.7-1.2-1.6-1.2-2.7c0-1.1,0.4-2,1.2-2.7c0.8-0.7,1.7-1,2.8-1
		c1.1,0,2.1,0.4,2.9,1.1c0.8,0.7,1.2,1.6,1.2,2.7c0,1.1-0.4,2-1.2,2.7C341.9,419.2,341,419.5,339.9,419.5z M340.2,418.8
		c0.6,0,1-0.6,1-1.8c0-0.4-0.1-1-0.2-1.6c-0.1-0.6-0.3-1.2-0.6-1.7c-0.3-0.5-0.6-0.8-1-0.8c-0.3,0-0.6,0.2-0.7,0.5
		c-0.1,0.3-0.2,0.8-0.2,1.4c0,0.3,0,0.7,0.1,1.2c0.1,0.4,0.2,0.9,0.3,1.3c0.1,0.5,0.3,0.8,0.6,1.1
		C339.6,418.6,339.9,418.8,340.2,418.8z"/>
	<path class="st5" d="M352.1,417.7c0,0.3,0,0.5,0.1,0.6c0.1,0.1,0.1,0.2,0.2,0.2c0.1,0,0.2,0.1,0.2,0.1c0.1,0.1,0.1,0.2,0.1,0.3
		c0,0.2-0.1,0.3-0.4,0.4c-0.3,0.1-0.6,0.1-1.2,0.1c-0.5,0-0.8-0.1-1-0.2c-0.2-0.1-0.3-0.4-0.4-0.7c-0.4,0.6-1.1,0.9-2.1,0.9
		c-0.8,0-1.5-0.3-2-0.8c-0.5-0.5-0.8-1.2-0.8-2.1v-2.5c0-0.3-0.1-0.5-0.3-0.7c-0.2-0.2-0.3-0.4-0.3-0.5v-0.1c0-0.2,0.1-0.3,0.3-0.3
		l2.2-0.3c0.5-0.1,0.7,0,0.7,0.3l0,4.4c0,0.6,0.1,1,0.2,1.3c0.2,0.3,0.4,0.4,0.7,0.4c0.3,0,0.5-0.1,0.7-0.4c0.2-0.3,0.3-0.6,0.3-1.1
		v-2.9c0-0.3-0.1-0.5-0.3-0.7c-0.2-0.2-0.3-0.4-0.3-0.5v-0.1c0-0.2,0.1-0.3,0.3-0.3l2.2-0.3c0.4-0.1,0.7,0,0.7,0.3V417.7z"/>
	<path class="st5" d="M357.1,419.5c-1.1,0-2.1-0.4-2.8-1.1c-0.7-0.7-1.1-1.6-1.1-2.6c0-1.1,0.4-2,1.1-2.7c0.7-0.7,1.6-1,2.7-1
		c0.9,0,1.6,0.2,2.2,0.6c0.6,0.4,0.9,0.9,0.9,1.6c0,0.2-0.1,0.5-0.3,0.6c-0.2,0.2-0.4,0.2-0.8,0.2c-0.3,0-0.6-0.2-0.9-0.4
		c-0.2-0.2-0.4-0.5-0.5-0.8c-0.1-0.3-0.3-0.5-0.4-0.8c-0.2-0.2-0.4-0.3-0.6-0.3c-0.3,0-0.6,0.2-0.8,0.5c-0.2,0.3-0.3,0.7-0.3,1.2
		c0,1,0.2,1.7,0.7,2.3c0.4,0.6,1,0.9,1.8,0.9c0.7,0,1.2-0.3,1.6-0.9c0.1-0.1,0.2-0.2,0.4-0.1c0.1,0,0.2,0.1,0.2,0.3
		c0,0.7-0.3,1.3-0.8,1.8C358.9,419.3,358.1,419.5,357.1,419.5z"/>
	<path class="st5" d="M368.8,417.7c0,0.2,0.1,0.5,0.3,0.7c0.2,0.2,0.3,0.4,0.3,0.6v0.1c0,0.2-0.1,0.3-0.4,0.3h-3
		c-0.2,0-0.4-0.1-0.4-0.3V419c0-0.1,0.1-0.3,0.3-0.5c0.2-0.2,0.3-0.5,0.3-0.7l-0.1-2.8c0-0.7-0.1-1.2-0.3-1.5
		c-0.2-0.3-0.4-0.4-0.7-0.4c-0.3,0-0.6,0.1-0.7,0.4c-0.2,0.3-0.2,0.6-0.2,1.1v3.2c0,0.2,0.1,0.5,0.3,0.7c0.2,0.2,0.3,0.4,0.3,0.5
		v0.1c0,0.2-0.1,0.3-0.4,0.3h-3.2c-0.2,0-0.3-0.1-0.3-0.3V419c0-0.1,0.1-0.3,0.3-0.5c0.2-0.2,0.3-0.5,0.3-0.7v-6.9
		c0-0.3-0.1-0.5-0.4-0.7c-0.2-0.2-0.4-0.4-0.4-0.5v0c0-0.2,0.1-0.3,0.3-0.4l2.3-1c0.2-0.1,0.3-0.1,0.4,0c0.1,0.1,0.2,0.2,0.2,0.3
		v4.3c0.4-0.5,1-0.7,1.8-0.7c0.7,0,1.4,0.2,1.9,0.7c0.5,0.5,0.8,1.2,0.9,2.3L368.8,417.7z"/>
	<path class="st5" d="M372.8,419.2c-0.3,0.2-0.7,0.4-1.1,0.4c-0.5,0-0.8-0.1-1.1-0.4c-0.3-0.2-0.4-0.6-0.4-1c0-0.5,0.1-0.8,0.4-1
		c0.3-0.2,0.7-0.4,1.1-0.4c0.5,0,0.8,0.1,1.1,0.4c0.3,0.2,0.4,0.6,0.4,1C373.2,418.6,373.1,419,372.8,419.2z M371.1,415.7
		c-0.2-1-0.4-2.2-0.6-3.3c-0.1-1.2-0.2-2.1-0.2-2.8c0-0.2,0.1-0.4,0.3-0.6c0.2-0.2,0.4-0.3,0.7-0.3c0.3,0,0.5,0,0.8,0
		c0.3,0,0.5,0.1,0.7,0.3c0.2,0.2,0.3,0.4,0.3,0.6c0,0.8-0.1,1.7-0.2,2.9c-0.1,1.1-0.3,2.2-0.6,3.3c0,0.2-0.2,0.3-0.5,0.3
		C371.4,416,371.2,415.9,371.1,415.7z"/>
</g>
</svg>
