<svg width="24" height="24" viewBox="0 0 24 24" fill="none" xmlns="http://www.w3.org/2000/svg">
<g clip-path="url(#clip0_8_155)">
<path d="M23.9906 9.49219C23.9156 8.64375 23.4797 7.85625 22.7859 7.34531L21 6.02344V9.75469V11.7047L23.9906 9.49219ZM24 21V11.3484L13.8 18.9047C13.2797 19.2937 12.6469 19.5 12 19.5C11.3531 19.5 10.7203 19.2937 10.2 18.9047L0 11.3484V21C0 22.6547 1.34531 24 3 24H21C22.6547 24 24 22.6547 24 21ZM3 11.7047V9.75469V6.02344L1.21406 7.34531C0.520312 7.85625 0.084375 8.64375 0.009375 9.49219L3 11.7047ZM13.5703 0.520313C13.1156 0.182813 12.5672 0 12 0C11.4328 0 10.8844 0.182813 10.4297 0.515625L9.10312 1.5H14.8969L13.5703 0.520313ZM8.25 6C7.8375 6 7.5 6.3375 7.5 6.75C7.5 7.1625 7.8375 7.5 8.25 7.5H15.75C16.1625 7.5 16.5 7.1625 16.5 6.75C16.5 6.3375 16.1625 6 15.75 6H8.25ZM8.25 9C7.8375 9 7.5 9.3375 7.5 9.75C7.5 10.1625 7.8375 10.5 8.25 10.5H15.75C16.1625 10.5 16.5 10.1625 16.5 9.75C16.5 9.3375 16.1625 9 15.75 9H8.25Z" fill="#477BED"/>
<path opacity="0.8" d="M4.5 1.5C3.67031 1.5 3 2.17031 3 3V11.7047L11.0953 17.7C11.3578 17.8922 11.6766 18 12 18C12.3234 18 12.6422 17.8969 12.9047 17.7L21 11.7047V3C21 2.17031 20.3297 1.5 19.5 1.5H4.5ZM8.25 6H15.75C16.1625 6 16.5 6.3375 16.5 6.75C16.5 7.1625 16.1625 7.5 15.75 7.5H8.25C7.8375 7.5 7.5 7.1625 7.5 6.75C7.5 6.3375 7.8375 6 8.25 6ZM8.25 9H15.75C16.1625 9 16.5 9.3375 16.5 9.75C16.5 10.1625 16.1625 10.5 15.75 10.5H8.25C7.8375 10.5 7.5 10.1625 7.5 9.75C7.5 9.3375 7.8375 9 8.25 9Z" fill="#EDF5FF"/>
</g>
<defs>
<clipPath id="clip0_8_155">
<rect width="24" height="24" fill="white"/>
</clipPath>
</defs>
</svg>
