<svg width="24" height="22" viewBox="0 0 24 22" fill="none" xmlns="http://www.w3.org/2000/svg">
<g clip-path="url(#clip0_8_166)">
<path d="M23.9993 2.66634V18.6663C23.9993 19.4038 23.4035 19.9997 22.666 19.9997C21.9285 19.9997 21.3327 19.4038 21.3327 18.6663V2.66634C21.3327 1.93009 21.9285 1.33301 22.666 1.33301C23.4035 1.33301 23.9993 1.93009 23.9993 2.66634ZM6.66602 15.9997C6.66602 15.5038 6.74518 15.0955 6.88685 14.6872L8.80352 15.2663C8.71602 15.4955 8.66602 15.7413 8.66602 15.9997C8.66602 17.1038 9.56185 17.9997 10.666 17.9997C11.5868 17.9997 12.4243 17.3247 12.6202 16.4247L14.5368 17.008C14.091 18.7288 12.5285 19.9997 10.666 19.9997C8.42018 19.9997 6.66602 18.208 6.66602 15.9997Z" fill="#477BED"/>
<path opacity="0.8" d="M2.665 7.92949L20 2.66699V18.667L2.665 13.4045C2.62792 14.1087 2.04583 14.667 1.33333 14.667C0.597083 14.667 0 14.0712 0 13.3337V8.00033C0 7.26283 0.597083 6.66699 1.33333 6.66699C2.04583 6.66699 2.62792 7.22533 2.665 7.92949Z" fill="#477BED"/>
</g>
<defs>
<clipPath id="clip0_8_166">
<rect width="24" height="21.3333" fill="white"/>
</clipPath>
</defs>
</svg>
