<svg width="125" height="125" viewBox="0 0 125 125" fill="none" xmlns="http://www.w3.org/2000/svg">
<path d="M125 95.6H0V95.6625H125V95.6Z" fill="#EBEBEB"/>
<path d="M21.395 97.98H13.115V98.0425H21.395V97.98Z" fill="#EBEBEB"/>
<path d="M44.9576 97.3025H38.3601V97.365H44.9576V97.3025Z" fill="#EBEBEB"/>
<path d="M33.9724 99.455H22.4924V99.5175H33.9724V99.455Z" fill="#EBEBEB"/>
<path d="M112.475 99.8825H107.075V99.945H112.475V99.8825Z" fill="#EBEBEB"/>
<path d="M105.86 99.8825H97.8674V99.945H105.86V99.8825Z" fill="#EBEBEB"/>
<path d="M83.0825 98.8275H69.3025V98.89H83.0825V98.8275Z" fill="#EBEBEB"/>
<path d="M59.25 84.45H10.9775C10.5993 84.4493 10.2369 84.2986 9.96971 84.031C9.70254 83.7634 9.55249 83.4007 9.55249 83.0225V15.165C9.55578 14.789 9.70729 14.4295 9.9741 14.1646C10.2409 13.8996 10.6015 13.7506 10.9775 13.75H59.25C59.6286 13.75 59.9917 13.9004 60.2594 14.1681C60.5271 14.4358 60.6775 14.7989 60.6775 15.1775V83.0225C60.6775 83.4011 60.5271 83.7642 60.2594 84.0319C59.9917 84.2996 59.6286 84.45 59.25 84.45ZM10.9775 13.8C10.6159 13.8007 10.2694 13.9448 10.0139 14.2007C9.75846 14.4566 9.61499 14.8034 9.61499 15.165V83.0225C9.61499 83.3841 9.75846 83.7309 10.0139 83.9868C10.2694 84.2427 10.6159 84.3868 10.9775 84.3875H59.25C59.6118 84.3868 59.9586 84.2428 60.2145 83.987C60.4703 83.7311 60.6143 83.3843 60.615 83.0225V15.165C60.6143 14.8032 60.4703 14.4564 60.2145 14.2005C59.9586 13.9447 59.6118 13.8007 59.25 13.8H10.9775Z" fill="#EBEBEB"/>
<path d="M113.327 84.45H65.0525C64.6741 84.4493 64.3114 84.2987 64.0438 84.0312C63.7763 83.7636 63.6257 83.4009 63.625 83.0225V15.165C63.6289 14.7888 63.781 14.4293 64.0482 14.1644C64.3154 13.8995 64.6763 13.7506 65.0525 13.75H113.327C113.703 13.7513 114.063 13.9006 114.329 14.1654C114.596 14.4303 114.747 14.7894 114.75 15.165V83.0225C114.75 83.4002 114.6 83.7626 114.334 84.0301C114.067 84.2977 113.705 84.4487 113.327 84.45ZM65.0525 13.8C64.6907 13.8007 64.3439 13.9447 64.088 14.2005C63.8322 14.4564 63.6882 14.8032 63.6875 15.165V83.0225C63.6882 83.3843 63.8322 83.7311 64.088 83.987C64.3439 84.2428 64.6907 84.3868 65.0525 84.3875H113.327C113.689 84.3868 114.036 84.2428 114.292 83.987C114.548 83.7311 114.692 83.3843 114.692 83.0225V15.165C114.692 14.8032 114.548 14.4564 114.292 14.2005C114.036 13.9447 113.689 13.8007 113.327 13.8H65.0525Z" fill="#EBEBEB"/>
<path d="M21.56 55.7475L103.22 55.7475V20.325L21.56 20.325V55.7475Z" fill="#E6E6E6"/>
<path d="M20.435 55.7475L102.73 55.7475V20.325L20.435 20.325V55.7475Z" fill="#F5F5F5"/>
<path d="M100.71 53.705V22.3675L22.4525 22.3675V53.705H100.71Z" fill="#FAFAFA"/>
<path d="M55.7275 53.705L46.8025 22.37H40.575L49.5 53.705H55.7275Z" fill="white"/>
<path d="M47.7325 53.705L38.81 22.37H34.52L43.445 53.705H47.7325Z" fill="white"/>
<path d="M93.195 53.705L84.2725 22.37H78.0425L86.9675 53.705H93.195Z" fill="white"/>
<path d="M85.2025 53.705L76.2775 22.37H71.99L80.9125 53.705H85.2025Z" fill="white"/>
<path d="M39.7524 53.705V22.3675H37.3424V53.705H39.7524Z" fill="#E6E6E6"/>
<path d="M87.4351 53.7075V22.37H85.0251V53.7075H87.4351Z" fill="#E6E6E6"/>
<path d="M39.3174 55.0025V20.85H36.2724V55.0025H39.3174Z" fill="#F5F5F5"/>
<path d="M87.0024 55.0025V20.85H83.9574V55.0025H87.0024Z" fill="#F5F5F5"/>
<path d="M22.6675 53.7075L22.6675 22.37H22.4525L22.4525 53.7075H22.6675Z" fill="#E6E6E6"/>
<path d="M19.585 17.7H105.415C105.481 17.7 105.545 17.7263 105.592 17.7732C105.639 17.8201 105.665 17.8837 105.665 17.95C105.665 18.0163 105.639 18.0799 105.592 18.1268C105.545 18.1737 105.481 18.2 105.415 18.2H19.585C19.5187 18.2 19.4551 18.1737 19.4082 18.1268C19.3613 18.0799 19.335 18.0163 19.335 17.95C19.335 17.8837 19.3613 17.8201 19.4082 17.7732C19.4551 17.7263 19.5187 17.7 19.585 17.7Z" fill="#E6E6E6"/>
<path d="M103.217 19.4175C103.31 19.4175 103.4 19.3807 103.466 19.3151C103.532 19.2496 103.569 19.1606 103.57 19.0675V18.3175C103.57 18.224 103.533 18.1343 103.467 18.0682C103.401 18.0021 103.311 17.965 103.217 17.965C103.124 17.9657 103.035 18.0031 102.97 18.0691C102.904 18.1352 102.867 18.2244 102.867 18.3175V19.0675C102.867 19.1603 102.904 19.2493 102.97 19.315C103.036 19.3806 103.125 19.4175 103.217 19.4175Z" fill="#E6E6E6"/>
<path d="M23.5126 19.4175C23.6057 19.4175 23.6949 19.3807 23.761 19.3151C23.827 19.2496 23.8644 19.1606 23.8651 19.0675V18.3175C23.8651 18.224 23.828 18.1343 23.7619 18.0682C23.6957 18.0021 23.6061 17.965 23.5126 17.965C23.4195 17.9657 23.3305 18.0031 23.265 18.0691C23.1994 18.1352 23.1626 18.2244 23.1626 18.3175V19.0675C23.1626 19.1603 23.1995 19.2493 23.2651 19.315C23.3307 19.3806 23.4198 19.4175 23.5126 19.4175Z" fill="#E6E6E6"/>
<path opacity="0.6" d="M19.6675 26.82L101.927 26.82V17.96L19.6675 17.96V26.82Z" fill="#E0E0E0"/>
<path d="M48.6899 82.925C49.5774 82.625 50.2199 81.77 49.6574 80.8925C48.7249 79.4425 51.0574 79.1425 50.4074 76.71C49.4849 73.285 46.6174 76.2525 45.9074 72.96C45.3899 70.5675 41.3724 69 41.2149 72.15C41.0424 75.5975 39.3149 73.345 38.9299 77.18C38.6649 79.83 42.4299 80.215 41.3124 81.045C40.4899 81.65 40.0024 82.705 41.1499 83.4275C42.7149 84.41 41.2374 85.1775 42.3024 85.8625C43.3674 86.5475 43.5374 85.455 45.1874 85.9875C46.6624 86.4625 47.9124 85.005 47.6199 84.0925C47.3374 83.25 47.7999 83.2275 48.6899 82.925Z" fill="#E6E6E6"/>
<path d="M40.1626 84.5C40.1626 84.5 40.2826 95.6 44.9351 95.6C49.5876 95.6 49.7076 84.5 49.7076 84.5H40.1626Z" fill="#F0F0F0"/>
<path d="M35.7349 82.925C36.6199 82.625 37.2649 81.77 36.6999 80.8925C35.7674 79.4425 38.1024 79.1425 37.4499 76.71C36.5249 73.285 33.6574 76.2525 32.9499 72.96C32.4324 70.5675 28.4149 69 28.2574 72.15C28.0849 75.5975 26.3574 73.345 25.9724 77.18C25.7074 79.83 29.4724 80.215 28.3549 81.045C27.5324 81.65 27.0449 82.705 28.1949 83.4275C29.7574 84.41 28.2824 85.1775 29.3449 85.8625C30.4074 86.5475 30.5799 85.455 32.2299 85.9875C33.7074 86.4625 34.9574 85.005 34.6624 84.0925C34.3799 83.25 34.8424 83.2275 35.7349 82.925Z" fill="#E6E6E6"/>
<path d="M27.2051 84.5C27.2051 84.5 27.3276 95.6 31.9776 95.6C36.6276 95.6 36.7501 84.5 36.7501 84.5H27.2051Z" fill="#F0F0F0"/>
<path d="M76.4125 72.22C77.0825 64.8025 77.55 52.7625 77.1875 48.735C77.1818 48.6669 77.1623 48.6008 77.13 48.5406C77.0978 48.4804 77.0535 48.4274 77 48.385C76.9281 48.3284 76.8411 48.2942 76.7499 48.2869C76.6587 48.2795 76.5673 48.2992 76.4872 48.3435C76.4072 48.3878 76.3419 48.4547 76.2998 48.5359C76.2576 48.6171 76.2403 48.709 76.25 48.8C76.315 50.8 76.3875 55.7825 76 64.3875C75.8025 68.67 75.5175 71.6025 75.7125 72.22H76.4125Z" fill="#F0F0F0"/>
<path d="M78.4775 56.86C80.0825 54.86 83.3575 53.42 86.695 53.4275C88.005 53.4275 82.7075 55.765 80.505 58.3425C78.795 60.3425 76.865 63.7125 76.21 65.58C76.6325 61.6475 76.875 58.87 78.4775 56.86Z" fill="#F0F0F0"/>
<path d="M75.1249 56.84C73.5399 54.63 69.8749 52.93 65.9124 52.7375C64.3549 52.6625 70.2774 55.435 72.4849 58.2775C74.2024 60.485 75.9624 64.145 76.4449 66.15C76.5624 62 76.7124 59.05 75.1249 56.84Z" fill="#F0F0F0"/>
<path d="M78.4775 60.0875C80.0825 58.0875 83.3575 56.6475 86.695 56.655C88.005 56.655 82.7075 58.9925 80.505 61.57C78.795 63.57 76.865 66.94 76.21 68.82C76.6325 64.875 76.875 62.0975 78.4775 60.0875Z" fill="#F0F0F0"/>
<path d="M75.1249 60.25C73.5399 58.04 69.8749 56.34 65.9124 56.1475C64.3549 56.0725 70.2774 58.845 72.4849 61.6875C74.2024 63.8975 75.9624 67.555 76.4449 69.56C76.5624 65.395 76.7124 62.4575 75.1249 60.25Z" fill="#F0F0F0"/>
<path d="M78.1901 49.2675C79.2401 47.7675 81.4876 46.6075 83.8351 46.45C84.7576 46.3875 81.1226 48.29 79.6726 50.2C78.5451 51.7 77.3176 54.155 76.9226 55.5025C77.0751 52.725 77.1376 50.75 78.1901 49.2675Z" fill="#F0F0F0"/>
<path d="M76.1 49.8975C74.9825 48.34 72.4 47.1475 69.6 47.0075C68.5025 46.955 72.675 48.91 74.2325 50.9125C75.4425 52.4675 76.6825 55.0475 77.0225 56.46C77.1125 53.5275 77.22 51.455 76.1 49.8975Z" fill="#F0F0F0"/>
<path d="M78.5499 51.205C79.9074 49.5025 82.6799 48.2925 85.5074 48.2975C86.6174 48.2975 82.1324 50.2775 80.2574 52.46C78.8074 54.155 77.1749 57.0075 76.6174 58.59C76.9999 55.25 77.1924 52.905 78.5499 51.205Z" fill="#F0F0F0"/>
<path d="M75.7926 52.11C74.4476 50.25 71.3451 48.8 68.0001 48.6375C66.6826 48.5725 71.6951 50.9225 73.5651 53.3275C75.0001 55.1975 76.5001 58.295 76.9101 60C77.0001 56.47 77.1351 53.9825 75.7926 52.11Z" fill="#F0F0F0"/>
<path d="M78.64 53.565C80.105 51.73 83.0975 50.4225 86.14 50.43C87.3375 50.43 82.5 52.565 80.4875 54.93C78.925 56.76 77.1625 59.835 76.5625 61.5425C76.955 57.94 77.175 55.4 78.64 53.565Z" fill="#F0F0F0"/>
<path d="M75.58 54.57C74.08 52.4925 70.645 50.895 66.9175 50.715C65.455 50.6425 71.02 53.25 73.0975 55.9225C74.7125 58 76.3675 61.44 76.8225 63.325C76.93 59.41 77.0725 56.65 75.58 54.57Z" fill="#F0F0F0"/>
<path d="M71.9025 70.9675L72.1525 73.05C72.1659 73.2751 72.2647 73.4865 72.4287 73.6413C72.5927 73.796 72.8096 73.8823 73.035 73.8825H79.25C79.4755 73.8823 79.6924 73.796 79.8564 73.6413C80.0204 73.4865 80.1192 73.2751 80.1325 73.05L80.3825 70.9675C80.3894 70.8475 80.3716 70.7273 80.3303 70.6144C80.289 70.5015 80.2251 70.3982 80.1424 70.3109C80.0598 70.2236 79.9602 70.1541 79.8497 70.1066C79.7393 70.0592 79.6203 70.0348 79.5 70.035H72.785C72.6648 70.0348 72.5458 70.0592 72.4354 70.1066C72.3249 70.1541 72.2253 70.2236 72.1427 70.3109C72.06 70.3982 71.9961 70.5015 71.9548 70.6144C71.9135 70.7273 71.8957 70.8475 71.9025 70.9675Z" fill="#E6E6E6"/>
<path d="M71.5326 71.4075H80.7501C80.8153 71.4074 80.8782 71.3834 80.927 71.3401C80.9758 71.2969 81.0071 71.2372 81.0151 71.1725L81.2351 69.1875C81.2389 69.1503 81.2349 69.1128 81.2234 69.0773C81.2118 69.0417 81.1929 69.009 81.168 68.9812C81.143 68.9534 81.1125 68.9312 81.0784 68.9159C81.0443 68.9006 81.0074 68.8927 80.9701 68.8925H71.3126C71.2752 68.8927 71.2383 68.9006 71.2042 68.9159C71.1701 68.9312 71.1396 68.9534 71.1146 68.9812C71.0897 69.009 71.0708 69.0417 71.0593 69.0773C71.0477 69.1128 71.0437 69.1503 71.0476 69.1875L71.2676 71.1725C71.2755 71.2372 71.3068 71.2969 71.3556 71.3401C71.4044 71.3834 71.4673 71.4074 71.5326 71.4075Z" fill="#F5F5F5"/>
<path d="M57.735 95.6H61.74V73.8825H57.735V95.6Z" fill="#E6E6E6"/>
<path d="M58.9351 95.6H57.7351V91.4425H60.1926L58.9351 95.6Z" fill="#F0F0F0"/>
<path d="M107.628 95.6H111.633V73.8825H107.628V95.6Z" fill="#E6E6E6"/>
<path d="M57.735 93.05H108.677V73.8825H57.735V93.05Z" fill="#F0F0F0"/>
<path d="M107.475 95.6H108.675V91.4425H106.218L107.475 95.6Z" fill="#F0F0F0"/>
<path d="M58.6651 82.9025H107.745V75.2325H58.6651V82.9025Z" fill="#E6E6E6"/>
<path d="M65.8574 77.615H99.75C100.92 77.615 102.04 76.6675 102.847 74.9975H62.7625C63.5675 76.6675 64.6874 77.615 65.8574 77.615Z" fill="#F0F0F0"/>
<path d="M58.6651 91.81H107.745V84.14H58.6651V91.81Z" fill="#E6E6E6"/>
<path d="M65.8574 86.5225H99.75C100.92 86.5225 102.04 85.5775 102.847 83.9075H62.7625C63.5675 85.5775 64.6874 86.5225 65.8574 86.5225Z" fill="#F0F0F0"/>
<path d="M108.06 68.7925C108.06 68.7925 107.84 73.8825 99.445 73.8825C91.05 73.8825 90.8325 68.7925 90.8325 68.7925H108.06Z" fill="#F5F5F5"/>
<path d="M108.06 66.15C108.06 66.15 107.84 71.25 99.445 71.25C91.05 71.25 90.8325 66.16 90.8325 66.16L108.06 66.15Z" fill="#F5F5F5"/>
<path d="M62.5001 106.89C89.2707 106.89 110.973 105.623 110.973 104.06C110.973 102.497 89.2707 101.23 62.5001 101.23C35.7295 101.23 14.0276 102.497 14.0276 104.06C14.0276 105.623 35.7295 106.89 62.5001 106.89Z" fill="#F5F5F5"/>
<path d="M91.9749 33.8425C90.4749 34.6625 89.9749 37.0925 90.6774 38.15C88.0774 38.93 89.4274 43.4 93.6774 43.65C97.9274 43.9 101.162 42.3475 99.0749 39.0325C101.14 36.25 100.19 33.1425 98.3799 33.485C96.4374 29.5925 89.9324 29.7075 91.9749 33.8425Z" fill="#263238"/>
<path d="M96.5 43.95C95.8444 43.9479 95.2016 43.7682 94.64 43.43C94.631 43.4267 94.6229 43.4215 94.6161 43.4148C94.6094 43.408 94.6042 43.3998 94.601 43.3908C94.5978 43.3819 94.5966 43.3723 94.5975 43.3628C94.5984 43.3532 94.6013 43.3441 94.6062 43.3358C94.6111 43.3276 94.6177 43.3206 94.6256 43.3152C94.6335 43.3098 94.6425 43.3062 94.6519 43.3047C94.6613 43.3032 94.671 43.3038 94.6801 43.3064C94.6893 43.3091 94.6978 43.3137 94.705 43.32C95.4293 43.7535 96.2852 43.9128 97.1169 43.7687C97.9487 43.6246 98.7012 43.1869 99.2375 42.535C99.92 41.69 100.237 40.335 99.045 39.07C99.0392 39.0639 99.0348 39.0568 99.0318 39.049C99.0288 39.0412 99.0274 39.0328 99.0276 39.0245C99.0278 39.0161 99.0297 39.0079 99.0331 39.0003C99.0365 38.9926 99.0414 38.9857 99.0475 38.98C99.0536 38.9743 99.0607 38.9698 99.0685 38.9668C99.0763 38.9638 99.0847 38.9624 99.093 38.9626C99.1014 38.9628 99.1096 38.9647 99.1172 38.9681C99.1249 38.9715 99.1317 38.9764 99.1375 38.9825C100.372 40.3075 100.05 41.7325 99.335 42.615C98.9887 43.0311 98.5554 43.3663 98.0656 43.597C97.5758 43.8276 97.0414 43.9481 96.5 43.95Z" fill="#263238"/>
<path d="M90.2074 38.98C90.1947 38.9797 90.1823 38.9754 90.172 38.9678C90.1617 38.9602 90.154 38.9496 90.1499 38.9375C89.4849 37.0325 90.3749 34.475 91.9474 33.775C91.9628 33.7696 91.9796 33.7698 91.9948 33.7758C92.0099 33.7818 92.0224 33.793 92.0299 33.8075C92.0333 33.8151 92.035 33.8232 92.0352 33.8314C92.0354 33.8397 92.0339 33.8479 92.0309 33.8555C92.0278 33.8632 92.0233 33.8702 92.0176 33.8761C92.0119 33.882 92.005 33.8867 91.9974 33.89C90.4774 34.565 89.6199 37.045 90.2674 38.89C90.2702 38.8979 90.2713 38.9062 90.2708 38.9145C90.2702 38.9229 90.268 38.931 90.2643 38.9384C90.2606 38.9459 90.2554 38.9525 90.2491 38.9579C90.2427 38.9634 90.2354 38.9675 90.2274 38.97L90.2074 38.98Z" fill="#263238"/>
<path d="M89.7999 36.2275H89.7774C89.7622 36.2214 89.7499 36.2097 89.743 36.1949C89.736 36.18 89.7349 36.1631 89.7399 36.1475C90.1899 34.955 91.0399 34.0475 91.9549 33.7775C91.9708 33.7729 91.9879 33.7747 92.0024 33.7827C92.017 33.7907 92.0278 33.8041 92.0324 33.82C92.037 33.8359 92.0352 33.853 92.0272 33.8676C92.0192 33.8821 92.0058 33.8929 91.9899 33.8975C91.1124 34.1475 90.2949 35.035 89.8574 36.1925C89.8521 36.2032 89.8439 36.2122 89.8338 36.2184C89.8236 36.2246 89.8118 36.2278 89.7999 36.2275Z" fill="#263238"/>
<path d="M93.2998 102.727L91.8548 102.73L91.6123 97.3025L94.0448 97.3625L93.2998 102.727Z" fill="#FFB573"/>
<path d="M90.7874 55.8925C90.7874 55.8925 90.6599 70.955 90.3424 77.5125C90.3299 77.7073 90.3299 77.9027 90.3424 78.0975C90.8174 84.67 91.6049 97.3025 91.6049 97.3025L94.0524 97.365C94.0524 97.365 96.1849 87.2775 94.8649 78.14C96.9874 67.805 98.1299 58.5825 96.2074 55.89L90.7874 55.8925Z" fill="#8FC1FF"/>
<path opacity="0.2" d="M94.8874 61.875C94.1374 64.39 94.8674 72.475 95.2549 76.205C95.7824 73.51 96.2324 70.9175 96.5649 68.5275L94.8874 61.875Z" fill="black"/>
<path d="M91.6925 102.028H93.57C93.6095 102.026 93.648 102.04 93.6777 102.066C93.7075 102.092 93.7262 102.128 93.73 102.168L93.92 103.705C93.921 103.753 93.9125 103.8 93.8949 103.844C93.8774 103.888 93.8512 103.929 93.8179 103.963C93.7846 103.997 93.7449 104.024 93.701 104.042C93.6572 104.061 93.61 104.07 93.5625 104.07C92.735 104.07 92.34 104.01 91.2975 104.013C90.655 104.013 90.2675 104.078 89.38 104.078C88.4925 104.078 88.4925 103.228 88.865 103.15C90.5375 102.803 90.7525 102.61 91.335 102.15C91.4372 102.071 91.563 102.027 91.6925 102.028Z" fill="#263238"/>
<path d="M92.3098 44.8075C92.2173 45.325 92.1123 45.8075 91.9998 46.3075C91.8873 46.8075 91.7723 47.3075 91.6398 47.8075C91.3773 48.8075 91.1048 49.7875 90.7448 50.7775C90.5642 51.2893 90.3538 51.7902 90.1148 52.2775C89.9823 52.5479 89.8294 52.8079 89.6573 53.055C89.6073 53.1225 89.5623 53.1875 89.4973 53.2625C89.4351 53.3421 89.3656 53.4157 89.2898 53.4825C89.0981 53.6636 88.8671 53.798 88.6148 53.875C88.3503 53.9549 88.0698 53.9661 87.7998 53.9075C87.5872 53.8583 87.3844 53.7738 87.1998 53.6575C86.9196 53.4781 86.6712 53.2534 86.4648 52.9925C86.1102 52.5513 85.8276 52.0569 85.6273 51.5275C85.5833 51.415 85.5795 51.2907 85.6165 51.1757C85.6535 51.0607 85.7291 50.9619 85.8304 50.8961C85.9318 50.8303 86.0527 50.8015 86.1728 50.8145C86.2929 50.8275 86.4049 50.8815 86.4898 50.9675L86.5198 51C86.8301 51.3277 87.1643 51.6319 87.5198 51.91C87.6587 52.0161 87.813 52.1004 87.9773 52.16C88.0373 52.175 88.0798 52.175 88.0848 52.16C88.0898 52.145 88.0498 52.135 88.0148 52.1375C87.9798 52.14 87.9573 52.1525 87.9673 52.1375C87.9791 52.1157 87.9924 52.0948 88.0073 52.075C88.0321 52.0447 88.0539 52.0121 88.0723 51.9775C88.1771 51.8053 88.269 51.6257 88.3473 51.44C88.5293 51.0117 88.6895 50.5745 88.8273 50.13C89.1123 49.215 89.3723 48.2625 89.5973 47.305C89.8223 46.3475 90.0448 45.37 90.2448 44.415C90.3064 44.151 90.468 43.9211 90.6955 43.7738C90.9231 43.6264 91.1989 43.573 91.465 43.6248C91.7312 43.6766 91.9668 43.8296 92.1225 44.0515C92.2782 44.2735 92.3417 44.5472 92.2998 44.815L92.3098 44.8075Z" fill="#FFB573"/>
<path d="M90.0374 53.8475C90.0374 54.4625 99.6224 54.5825 99.6224 53.77L94.7249 52.52L90.0374 53.8475Z" fill="#263238"/>
<path d="M91.7974 43.195C94.3246 42.7723 96.9065 42.7977 99.4249 43.27C99.5726 43.2934 99.714 43.3468 99.8403 43.4269C99.9665 43.507 100.075 43.6122 100.159 43.7358C100.243 43.8595 100.301 43.9991 100.329 44.146C100.357 44.2929 100.355 44.444 100.322 44.59C98.9674 50.6575 99.0449 52.6975 99.1749 55.8925H90.7899C90.3699 50.5625 90.1474 47.52 90.0924 45.7925C90.0474 44.475 90.4999 43.3875 91.7974 43.195Z" fill="#FFB573"/>
<path opacity="0.2" d="M99.3999 44.9575C99.3471 45.8043 99.4592 46.6534 99.7299 47.4575C99.8374 46.88 99.9624 46.26 100.105 45.5825L99.3999 44.9575Z" fill="black"/>
<path d="M96.6725 38.765C96.4225 39.9775 96.195 42.205 97.045 43.015C97.045 43.015 96.7125 44.2475 94.4575 44.2475C91.975 44.2475 93.27 43.015 93.27 43.015C94.625 42.69 94.59 41.685 94.355 40.7425L96.6725 38.765Z" fill="#FFB573"/>
<path opacity="0.2" d="M95.7275 39.5725L94.355 40.75C94.4133 40.9696 94.4526 41.1937 94.4725 41.42C94.99 41.345 95.7 40.7775 95.755 40.235C95.7858 40.0143 95.7765 39.7899 95.7275 39.5725Z" fill="black"/>
<path d="M97.9823 36.66C97.5173 38.6375 97.3648 39.485 96.1798 40.3375C94.3998 41.6225 92.0698 40.6225 91.9298 38.545C91.8048 36.6775 92.5823 33.755 94.6798 33.295C95.1405 33.1911 95.6201 33.2067 96.0732 33.3401C96.5262 33.4736 96.9376 33.7206 97.2684 34.0576C97.5992 34.3947 97.8384 34.8107 97.9633 35.2661C98.0883 35.7215 98.0948 36.2013 97.9823 36.66Z" fill="#FFB573"/>
<path d="M97.2273 33.685C95.1323 33.9175 95.7698 37.8225 97.3448 38.2C99.1898 37.2975 100.327 33.87 97.2273 33.685Z" fill="#263238"/>
<path d="M107.482 99.1525L106.035 99.5925L103.922 95.1675L106.15 94.56L107.482 99.1525Z" fill="#FFB573"/>
<path d="M105.617 99.15L107.477 98.43C107.51 98.4174 107.546 98.4168 107.579 98.4283C107.612 98.4397 107.64 98.4625 107.657 98.4925L108.49 99.8975C108.51 99.9325 108.522 99.9714 108.526 100.012C108.529 100.052 108.524 100.092 108.51 100.13C108.497 100.168 108.475 100.203 108.447 100.232C108.419 100.261 108.385 100.283 108.347 100.297C107.695 100.547 107.38 100.675 106.562 100.992C106.062 101.187 105.277 101.837 104.582 102.105C103.887 102.372 103.582 101.737 103.832 101.517C104.51 100.926 105.043 100.188 105.392 99.36C105.413 99.3115 105.444 99.2678 105.483 99.2317C105.522 99.1956 105.567 99.1678 105.617 99.15Z" fill="#263238"/>
<path d="M93.0898 55.8925C93.0898 55.8925 96.1723 71.66 97.3398 77.8925C98.5473 84.3925 103.927 95.1575 103.927 95.1575L106.16 94.5475C106.16 94.5475 103.102 83.0325 101.677 77.325C101.397 66.99 101.727 58.575 99.1773 55.8825L93.0898 55.8925Z" fill="#8FC1FF"/>
<path d="M94.7025 36.6475C94.675 36.81 94.5675 36.9275 94.4525 36.8975C94.3375 36.8675 94.2825 36.7325 94.31 36.57C94.3375 36.4075 94.4475 36.29 94.56 36.3075C94.6725 36.325 94.7325 36.485 94.7025 36.6475Z" fill="#263238"/>
<path d="M92.8649 36.335C92.8374 36.4975 92.7274 36.615 92.6149 36.585C92.5024 36.555 92.4449 36.4225 92.4724 36.2575C92.4999 36.0925 92.6099 35.9775 92.7224 36.0075C92.8349 36.0375 92.8924 36.1725 92.8649 36.335Z" fill="#263238"/>
<path d="M92.7675 36.025L92.395 35.845C92.395 35.845 92.545 36.185 92.7675 36.025Z" fill="#263238"/>
<path d="M93.3799 36.725C93.1735 37.0708 92.9212 37.387 92.6299 37.665C92.7028 37.7379 92.7905 37.7942 92.8872 37.83C92.9838 37.8658 93.0871 37.8803 93.1899 37.8725L93.3799 36.725Z" fill="#ED893E"/>
<path d="M93.965 38.66C93.8811 38.6601 93.7975 38.6525 93.715 38.6375C93.7087 38.6366 93.7027 38.6344 93.6973 38.6312C93.6918 38.6279 93.6871 38.6236 93.6834 38.6184C93.6797 38.6133 93.677 38.6075 93.6756 38.6013C93.6741 38.5951 93.6739 38.5888 93.675 38.5825C93.6774 38.5701 93.6844 38.5591 93.6946 38.5517C93.7048 38.5443 93.7175 38.541 93.73 38.5425C93.9318 38.581 94.1398 38.5716 94.3374 38.5151C94.5349 38.4587 94.7165 38.3568 94.8675 38.2175C94.8719 38.2127 94.8774 38.2088 94.8834 38.2061C94.8894 38.2035 94.8959 38.2021 94.9025 38.2021C94.9091 38.2021 94.9156 38.2035 94.9216 38.2061C94.9276 38.2088 94.933 38.2127 94.9375 38.2175C94.9459 38.2267 94.9506 38.2388 94.9506 38.2513C94.9506 38.2637 94.9459 38.2758 94.9375 38.285C94.6757 38.5337 94.326 38.6686 93.965 38.66Z" fill="#263238"/>
<path d="M98.2675 38.365C98.0683 38.7035 97.7442 38.9503 97.365 39.0525C96.865 39.18 96.615 38.7275 96.77 38.2575C96.9025 37.835 97.3275 37.2575 97.83 37.335C97.9391 37.3549 98.0416 37.4017 98.1282 37.471C98.2148 37.5403 98.2829 37.63 98.3262 37.7321C98.3696 37.8342 98.3869 37.9455 98.3767 38.056C98.3664 38.1664 98.3289 38.2726 98.2675 38.365Z" fill="#FFB573"/>
<path d="M95.4998 36.3975C95.4796 36.3973 95.46 36.3907 95.4438 36.3785C95.4276 36.3664 95.4157 36.3494 95.4098 36.33C95.2773 35.9025 94.7298 35.7175 94.7248 35.7175C94.7125 35.7138 94.7011 35.7077 94.6912 35.6995C94.6813 35.6912 94.6732 35.6811 94.6674 35.6696C94.6615 35.6582 94.6581 35.6457 94.6572 35.6328C94.6563 35.62 94.6581 35.6071 94.6623 35.595C94.666 35.5827 94.6721 35.5712 94.6804 35.5614C94.6886 35.5515 94.6988 35.5434 94.7102 35.5375C94.7217 35.5317 94.7342 35.5282 94.747 35.5274C94.7598 35.5265 94.7727 35.5282 94.7848 35.5325C94.8098 35.5325 95.4323 35.75 95.5948 36.2825C95.5987 36.2948 95.6001 36.3078 95.5989 36.3206C95.5977 36.3335 95.594 36.3459 95.5879 36.3573C95.5819 36.3687 95.5736 36.3788 95.5637 36.387C95.5537 36.3952 95.5422 36.4013 95.5298 36.405L95.4998 36.3975Z" fill="#263238"/>
<path d="M92.4549 35.39C92.4383 35.3898 92.4219 35.3853 92.4075 35.377C92.3931 35.3687 92.381 35.3568 92.3724 35.3425C92.3599 35.3199 92.3568 35.2933 92.3638 35.2685C92.3708 35.2437 92.3874 35.2226 92.4099 35.21C92.5416 35.1304 92.6904 35.0834 92.8439 35.0729C92.9974 35.0625 93.1512 35.0889 93.2924 35.15C93.3152 35.1618 93.3324 35.182 93.3403 35.2063C93.3483 35.2306 93.3463 35.2571 93.3349 35.28C93.3232 35.3027 93.303 35.3199 93.2786 35.3279C93.2543 35.3358 93.2278 35.3339 93.2049 35.3225C93.0921 35.2763 92.97 35.2572 92.8484 35.2668C92.7268 35.2763 92.6092 35.3143 92.5049 35.3775C92.4899 35.3866 92.4725 35.3909 92.4549 35.39Z" fill="#263238"/>
<path d="M100.11 43.6175C100.822 44.55 101.47 45.4925 102.085 46.4875C102.39 46.9875 102.69 47.4875 102.965 48.02C103.264 48.5718 103.511 49.1501 103.702 49.7475C103.73 49.8275 103.75 49.92 103.772 49.9975L103.79 50.07L103.812 50.175C103.823 50.2404 103.829 50.3064 103.832 50.3725C103.844 50.5895 103.828 50.807 103.785 51.02C103.714 51.3577 103.607 51.687 103.467 52.0025C103.221 52.5599 102.93 53.0966 102.597 53.6075C101.965 54.5893 101.253 55.5182 100.47 56.385C100.384 56.481 100.266 56.5418 100.138 56.5556C100.01 56.5693 99.8811 56.5351 99.7769 56.4595C99.6727 56.3838 99.6002 56.2722 99.5735 56.1463C99.5468 56.0203 99.5678 55.8889 99.6325 55.7775V55.765C100.185 54.8025 100.732 53.8125 101.205 52.8325C101.437 52.36 101.638 51.8732 101.807 51.375C101.88 51.1634 101.931 50.9447 101.957 50.7225C101.967 50.657 101.967 50.5905 101.957 50.525V50.51V50.48C101.94 50.43 101.927 50.385 101.905 50.3325C101.71 49.8638 101.481 49.4101 101.22 48.975C100.945 48.5125 100.652 48.05 100.352 47.5875C99.7425 46.6725 99.1025 45.7525 98.4525 44.8625C98.2967 44.6392 98.2341 44.364 98.2777 44.0953C98.3214 43.8266 98.4679 43.5854 98.6864 43.4229C98.9048 43.2604 99.1779 43.1893 99.4479 43.2247C99.7178 43.2601 99.9634 43.3992 100.132 43.6125L100.11 43.6175Z" fill="#FFB573"/>
<path d="M94.6074 36.3375L94.2349 36.1575C94.2349 36.1575 94.3824 36.5 94.6074 36.3375Z" fill="#263238"/>
<path d="M90.3275 45.195C90.482 44.5643 90.6808 43.9452 90.9225 43.3425C91.306 43.2279 91.6981 43.1443 92.095 43.0925C92.9036 43.8091 93.5687 44.6727 94.055 45.6375C95.1275 44.5525 97.18 43.455 98.43 43.055C98.8529 43.0283 99.277 43.0818 99.68 43.2125C98.8275 45.9025 97.9575 48.6075 99.5 49.3025C99.4725 50.58 99.545 52.165 99.61 53.7675C98.1525 53.6075 92.3725 53.33 90.025 53.845C89.905 52.22 89.8625 50.845 89.87 49.6575C88.7775 48.265 89.8725 46.37 90.3275 45.195Z" fill="#263238"/>
<mask id="mask0_761_6884" style="mask-type:luminance" maskUnits="userSpaceOnUse" x="89" y="43" width="11" height="11">
<path d="M90.3275 45.195C90.482 44.5643 90.6808 43.9452 90.9225 43.3425C91.306 43.2279 91.6981 43.1443 92.095 43.0925C92.9036 43.8091 93.5687 44.6727 94.055 45.6375C95.1275 44.5525 97.18 43.455 98.43 43.055C98.8529 43.0283 99.277 43.0818 99.68 43.2125C98.8275 45.9025 97.9575 48.6075 99.5 49.3025C99.4725 50.58 99.545 52.165 99.61 53.7675C98.1525 53.6075 92.3725 53.33 90.025 53.845C89.905 52.22 89.8625 50.845 89.87 49.6575C88.7775 48.265 89.8725 46.37 90.3275 45.195Z" fill="white"/>
</mask>
<g mask="url(#mask0_761_6884)">
<g opacity="0.2">
<path d="M92.6251 50.1975C92.612 50.1991 92.5996 50.2041 92.589 50.212C92.5785 50.2199 92.5702 50.2304 92.5651 50.2425C92.3878 50.7397 92.3931 51.2838 92.5801 51.7775C92.4076 51.6325 92.2376 51.49 92.0801 51.345C92.2209 51.044 92.2753 50.7097 92.2374 50.3796C92.1994 50.0494 92.0705 49.7362 91.8651 49.475C91.8572 49.4648 91.8469 49.4567 91.8351 49.4514C91.8233 49.4462 91.8104 49.444 91.7976 49.445C91.7843 49.446 91.7717 49.4508 91.761 49.4588C91.7504 49.4668 91.7423 49.4776 91.7376 49.49C91.5546 50.0012 91.5661 50.5618 91.7701 51.065C91.5451 50.86 91.3301 50.655 91.1326 50.4575C91.2802 50.1549 91.3395 49.8169 91.3037 49.4821C91.2679 49.1474 91.1384 48.8295 90.9301 48.565C90.9222 48.5548 90.9119 48.5467 90.9001 48.5414C90.8883 48.5362 90.8754 48.534 90.8626 48.535C90.8493 48.536 90.8367 48.5408 90.826 48.5488C90.8154 48.5568 90.8073 48.5676 90.8026 48.58C90.6208 49.0922 90.6324 49.6532 90.8351 50.1575C90.4926 49.8 90.2076 49.475 89.9951 49.205C89.9187 48.9027 89.767 48.6247 89.5541 48.3969C89.3412 48.1692 89.074 47.9991 88.7776 47.9025C88.7655 47.9004 88.7531 47.9012 88.7414 47.9048C88.7297 47.9084 88.719 47.9147 88.7102 47.9233C88.7015 47.9318 88.6948 47.9423 88.6909 47.9539C88.6869 47.9655 88.6858 47.9779 88.6876 47.99C88.9126 49.0975 89.7276 49.29 89.8926 49.3175C90.0101 49.465 90.1426 49.6275 90.3026 49.8025C89.9107 49.6269 89.4748 49.5746 89.0526 49.6525C89.0398 49.6554 89.0281 49.6619 89.0188 49.6712C89.0095 49.6805 89.003 49.6922 89.0001 49.705C88.9963 49.7174 88.9957 49.7305 88.9984 49.7432C89.001 49.7558 89.0067 49.7676 89.0151 49.7775C89.23 50.0226 89.5091 50.2028 89.821 50.2977C90.1328 50.3927 90.465 50.3987 90.7801 50.315C90.9201 50.46 91.0701 50.6075 91.2276 50.76C90.6981 50.6086 90.1329 50.6421 89.6251 50.855C89.613 50.8614 89.603 50.8709 89.596 50.8826C89.5889 50.8943 89.5852 50.9076 89.5852 50.9213C89.5852 50.9349 89.5889 50.9482 89.596 50.9599C89.603 50.9716 89.613 50.9811 89.6251 50.9875C89.9105 51.1652 90.2375 51.265 90.5736 51.2768C90.9096 51.2887 91.2428 51.2122 91.5401 51.055C91.7501 51.2525 91.9726 51.45 92.2026 51.6475C91.6903 51.4163 91.1107 51.3825 90.5751 51.5525C90.5626 51.5575 90.5517 51.5657 90.5434 51.5762C90.5351 51.5867 90.5296 51.5992 90.5276 51.6125C90.5263 51.6255 90.5281 51.6386 90.5329 51.6508C90.5377 51.663 90.5453 51.6738 90.5551 51.6825C90.8182 51.8957 91.1353 52.0319 91.471 52.076C91.8068 52.1201 92.1483 52.0705 92.4576 51.9325L92.4776 51.92C92.4854 51.9117 92.4907 51.9013 92.4926 51.89L92.7751 52.12C92.7838 52.1318 92.7961 52.1405 92.8101 52.145C92.9601 52.265 93.1126 52.3825 93.2676 52.4975C93.2812 52.5091 93.2985 52.5155 93.3163 52.5155C93.3342 52.5155 93.3515 52.5091 93.3651 52.4975C93.3709 52.4895 93.375 52.4804 93.3772 52.4707C93.3795 52.4611 93.3798 52.4511 93.3782 52.4414C93.3766 52.4316 93.373 52.4223 93.3678 52.4139C93.3625 52.4055 93.3557 52.3982 93.3476 52.3925C93.2051 52.285 93.0626 52.1775 92.9251 52.065C93.0549 51.7672 93.1017 51.4398 93.0603 51.1176C93.0189 50.7953 92.891 50.4903 92.6901 50.235C92.6835 50.2236 92.674 50.2141 92.6626 50.2075C92.6512 50.201 92.6382 50.1975 92.6251 50.1975Z" fill="white"/>
<path d="M90.1601 46.325C90.1731 46.3234 90.1856 46.3184 90.1961 46.3105C90.2066 46.3026 90.2149 46.2921 90.2201 46.28C90.3973 45.7828 90.392 45.2387 90.2051 44.745C90.3776 44.89 90.5476 45.0325 90.7051 45.1775C90.5643 45.4786 90.5098 45.8128 90.5478 46.1429C90.5857 46.4731 90.7146 46.7863 90.9201 47.0475C90.9279 47.0577 90.9382 47.0658 90.95 47.0711C90.9618 47.0763 90.9747 47.0785 90.9876 47.0775C91.0008 47.0765 91.0135 47.0717 91.0241 47.0637C91.0347 47.0558 91.0429 47.0449 91.0476 47.0325C91.2306 46.5213 91.219 45.9607 91.0151 45.4575C91.2401 45.6625 91.4551 45.8675 91.6526 46.065C91.5049 46.3676 91.4456 46.7056 91.4814 47.0404C91.5173 47.3752 91.6468 47.693 91.8551 47.9575C91.8629 47.9677 91.8732 47.9758 91.885 47.9811C91.8968 47.9863 91.9097 47.9885 91.9226 47.9875C91.9358 47.9865 91.9485 47.9817 91.9591 47.9737C91.9697 47.9658 91.9779 47.9549 91.9826 47.9425C92.1643 47.4303 92.1528 46.8693 91.9501 46.365C92.2926 46.7225 92.5776 47.0475 92.7901 47.3175C92.8664 47.6198 93.0181 47.8978 93.231 48.1256C93.4439 48.3534 93.7111 48.5235 94.0076 48.62C94.0196 48.6221 94.032 48.6213 94.0437 48.6177C94.0554 48.6141 94.0661 48.6078 94.0749 48.5992C94.0837 48.5907 94.0903 48.5802 94.0942 48.5686C94.0982 48.557 94.0993 48.5446 94.0976 48.5325C93.8726 47.425 93.0576 47.2325 92.8926 47.205C92.7751 47.0575 92.6426 46.895 92.4826 46.72C92.8742 46.8963 93.3106 46.9478 93.7326 46.8675C93.7453 46.8653 93.7571 46.8594 93.7664 46.8505C93.7758 46.8416 93.7823 46.8301 93.7851 46.8175C93.7888 46.8051 93.7894 46.792 93.7868 46.7794C93.7842 46.7667 93.7784 46.7549 93.7701 46.745C93.5551 46.4999 93.276 46.3197 92.9642 46.2248C92.6523 46.1298 92.3201 46.1238 92.0051 46.2075C91.8651 46.0625 91.7151 45.915 91.5576 45.7625C92.087 45.9139 92.6522 45.8804 93.1601 45.6675C93.1721 45.6611 93.1822 45.6516 93.1892 45.6399C93.1962 45.6282 93.1999 45.6149 93.1999 45.6013C93.1999 45.5876 93.1962 45.5743 93.1892 45.5626C93.1822 45.5509 93.1721 45.5414 93.1601 45.535C92.8746 45.3573 92.5476 45.2575 92.2116 45.2457C91.8755 45.2338 91.5423 45.3103 91.2451 45.4675C91.0351 45.27 90.8126 45.0725 90.5826 44.875C91.0948 45.1062 91.6744 45.14 92.2101 44.97C92.2222 44.9646 92.2329 44.9563 92.2412 44.9458C92.2495 44.9354 92.2551 44.9231 92.2576 44.91C92.2589 44.897 92.257 44.8839 92.2523 44.8717C92.2475 44.8595 92.2399 44.8487 92.2301 44.84C91.9669 44.6268 91.6499 44.4906 91.3141 44.4465C90.9783 44.4024 90.6369 44.4521 90.3276 44.59L90.3076 44.6025C90.2997 44.6108 90.2945 44.6212 90.2926 44.6325L90.0101 44.4025C90.0013 44.3907 89.9891 44.382 89.9751 44.3775C89.8251 44.2575 89.6726 44.14 89.5176 44.025C89.504 44.0134 89.4867 44.007 89.4688 44.007C89.4509 44.007 89.4336 44.0134 89.4201 44.025C89.4087 44.0411 89.404 44.061 89.4068 44.0805C89.4096 44.1 89.4197 44.1177 89.4351 44.13C89.5801 44.2375 89.7226 44.345 89.8601 44.4575C89.7302 44.7553 89.6835 45.0827 89.7249 45.405C89.7662 45.7272 89.8942 46.0322 90.0951 46.2875C90.1016 46.2989 90.1111 46.3084 90.1225 46.315C90.1339 46.3216 90.1469 46.325 90.1601 46.325Z" fill="white"/>
<path d="M97.8676 52.0225C97.8549 52.0243 97.8428 52.0291 97.8324 52.0365C97.8219 52.0439 97.8134 52.0536 97.8076 52.065C97.6325 52.5626 97.6378 53.1059 97.8226 53.6C97.6501 53.4575 97.4801 53.3125 97.3226 53.1675C97.4634 52.8669 97.5179 52.5331 97.4799 52.2033C97.442 51.8735 97.313 51.5607 97.1076 51.3C97.0998 51.2897 97.0896 51.2816 97.0778 51.2764C97.066 51.2713 97.0531 51.2692 97.0403 51.2704C97.0275 51.2717 97.0152 51.2762 97.0047 51.2836C96.9941 51.291 96.9857 51.3009 96.9801 51.3125C96.7983 51.8247 96.8098 52.3857 97.0126 52.89C96.7876 52.6825 96.5726 52.48 96.3751 52.2825C96.5234 51.9805 96.5831 51.6427 96.5472 51.3082C96.5114 50.9737 96.3815 50.6562 96.1726 50.3925C96.1652 50.3817 96.155 50.3732 96.1431 50.3679C96.1312 50.3626 96.118 50.3607 96.1051 50.3625C96.0923 50.3641 96.0802 50.3688 96.0697 50.3762C96.0592 50.3836 96.0508 50.3935 96.0451 50.405C95.8633 50.9172 95.8748 51.4782 96.0776 51.9825C95.7351 51.6275 95.4501 51.3 95.2376 51.03C95.1604 50.7281 95.0083 50.4505 94.7956 50.2229C94.5828 49.9953 94.3161 49.8249 94.0201 49.7275C94.008 49.7251 93.9956 49.7256 93.9838 49.7291C93.972 49.7326 93.9613 49.7389 93.9526 49.7475C93.9435 49.7565 93.9367 49.7676 93.9328 49.7798C93.9289 49.792 93.9279 49.8049 93.9301 49.8175C94.1551 50.9225 94.9726 51.115 95.1351 51.1425C95.2526 51.29 95.3851 51.455 95.5451 51.63C95.1533 51.4543 94.7173 51.402 94.2951 51.48C94.2825 51.4835 94.2711 51.4901 94.2619 51.4993C94.2527 51.5085 94.246 51.52 94.2426 51.5325C94.2388 51.5445 94.2382 51.5572 94.2408 51.5695C94.2435 51.5818 94.2492 51.5931 94.2576 51.6025C94.4712 51.8493 94.7503 52.0307 95.0626 52.1258C95.3748 52.2209 95.7076 52.2258 96.0226 52.14C96.1626 52.285 96.3126 52.435 96.4701 52.5875C95.9408 52.4347 95.3751 52.4682 94.8676 52.6825C94.8562 52.6893 94.8466 52.6988 94.8396 52.7101C94.8326 52.7214 94.8285 52.7343 94.8276 52.7475C94.8273 52.7607 94.8306 52.7738 94.8372 52.7852C94.8439 52.7967 94.8535 52.8061 94.8651 52.8125C95.1503 52.9904 95.4773 53.0905 95.8132 53.1027C96.1492 53.115 96.4825 53.0391 96.7801 52.8825C96.9901 53.0775 97.2126 53.275 97.4426 53.475C96.9303 53.2438 96.3507 53.21 95.8151 53.38C95.8026 53.3851 95.7917 53.3932 95.7834 53.4037C95.7751 53.4143 95.7696 53.4268 95.7676 53.44C95.7661 53.4529 95.768 53.466 95.7733 53.4779C95.7786 53.4897 95.787 53.5 95.7976 53.5075C96.0607 53.7207 96.3777 53.8569 96.7135 53.901C97.0493 53.9451 97.3908 53.8955 97.7001 53.7575L97.7176 53.7425C97.7248 53.7343 97.7307 53.7251 97.7351 53.715L98.0176 53.945C98.0254 53.9566 98.0368 53.9654 98.0501 53.97C98.2001 54.09 98.3526 54.2075 98.5076 54.325C98.5211 54.3366 98.5384 54.343 98.5563 54.343C98.5742 54.343 98.5915 54.3366 98.6051 54.325C98.617 54.3091 98.6221 54.2891 98.6193 54.2694C98.6165 54.2497 98.606 54.232 98.5901 54.22C98.4451 54.1125 98.3051 54.0025 98.1651 53.8925C98.2955 53.595 98.3428 53.2676 98.3019 52.9454C98.2609 52.6231 98.1333 52.318 97.9326 52.0625C97.9261 52.0508 97.9167 52.041 97.9053 52.034C97.8939 52.0269 97.8809 52.023 97.8676 52.0225Z" fill="white"/>
<path d="M102.675 53.75C102.662 53.751 102.649 53.7558 102.638 53.7638C102.628 53.7718 102.62 53.7826 102.615 53.795C102.437 54.2919 102.441 54.8361 102.627 55.33C102.455 55.185 102.287 55.04 102.127 54.8975C102.269 54.5968 102.324 54.2626 102.286 53.9324C102.249 53.6022 102.12 53.2889 101.915 53.0275C101.907 53.0169 101.896 53.0086 101.884 53.0033C101.872 52.9981 101.858 52.9961 101.845 52.9975C101.832 52.9993 101.82 53.0044 101.809 53.0123C101.799 53.0201 101.79 53.0305 101.785 53.0425C101.603 53.5539 101.615 54.1141 101.817 54.6175C101.592 54.4125 101.38 54.2075 101.182 54.01C101.33 53.7074 101.389 53.3694 101.354 53.0346C101.318 52.6999 101.188 52.382 100.98 52.1175C100.972 52.1073 100.962 52.0992 100.95 52.094C100.938 52.0887 100.925 52.0865 100.912 52.0875C100.899 52.0885 100.887 52.0933 100.876 52.1013C100.865 52.1093 100.857 52.1201 100.852 52.1325C100.67 52.6445 100.681 53.2059 100.885 53.71C100.542 53.3525 100.255 53.0275 100.045 52.7575C99.9686 52.4552 99.8169 52.1772 99.604 51.9494C99.3911 51.7217 99.1239 51.5516 98.8275 51.455C98.8153 51.4523 98.8027 51.4526 98.7907 51.456C98.7787 51.4594 98.7677 51.4657 98.7588 51.4744C98.7499 51.4831 98.7432 51.4939 98.7395 51.5058C98.7358 51.5177 98.7351 51.5303 98.7375 51.5425C98.9625 52.65 99.7775 52.8425 99.9425 52.87C100.057 53.0175 100.192 53.18 100.352 53.355C99.9605 53.1799 99.5247 53.1276 99.1025 53.205C99.0901 53.2089 99.0789 53.2157 99.0698 53.2248C99.0606 53.2339 99.0538 53.2452 99.05 53.2575C99.0465 53.2701 99.0464 53.2833 99.0494 53.296C99.0525 53.3087 99.0587 53.3204 99.0675 53.33C99.2822 53.5747 99.5609 53.7546 99.8722 53.8495C100.184 53.9445 100.515 53.9507 100.83 53.8675C100.972 54.0125 101.12 54.16 101.277 54.3125C100.749 54.1611 100.184 54.1946 99.6775 54.4075C99.6654 54.4136 99.6553 54.4228 99.6482 54.4343C99.6411 54.4458 99.6374 54.459 99.6375 54.4725C99.6372 54.4858 99.6403 54.4989 99.6464 54.5107C99.6525 54.5225 99.6615 54.5325 99.6725 54.54C99.9586 54.717 100.286 54.8163 100.622 54.8282C100.959 54.84 101.292 54.7639 101.59 54.6075C101.8 54.8042 102.02 55.0017 102.25 55.2C101.738 54.9688 101.158 54.935 100.622 55.105C100.61 55.1097 100.599 55.1178 100.591 55.1285C100.583 55.1391 100.578 55.1518 100.577 55.165C100.576 55.178 100.578 55.1912 100.583 55.2033C100.588 55.2155 100.595 55.2264 100.605 55.235C100.868 55.4479 101.185 55.584 101.521 55.6281C101.857 55.6722 102.198 55.6227 102.507 55.485C102.513 55.4862 102.519 55.4862 102.525 55.485C102.534 55.4776 102.541 55.4669 102.542 55.455L102.825 55.685C102.833 55.6961 102.845 55.7047 102.857 55.71C103.007 55.83 103.16 55.9475 103.315 56.0625C103.329 56.0741 103.346 56.0805 103.364 56.0805C103.382 56.0805 103.399 56.0741 103.412 56.0625C103.419 56.0548 103.423 56.0458 103.426 56.0362C103.429 56.0266 103.429 56.0166 103.428 56.0067C103.426 55.9969 103.423 55.9874 103.418 55.979C103.413 55.9705 103.406 55.9632 103.397 55.9575L102.972 55.63C103.103 55.3325 103.15 55.0051 103.109 54.6829C103.068 54.3606 102.941 54.0554 102.74 53.8C102.735 53.7864 102.726 53.7745 102.715 53.7657C102.703 53.7569 102.689 53.7514 102.675 53.75Z" fill="white"/>
<path d="M91.6825 54.0325C91.6696 54.0336 91.6572 54.0381 91.6467 54.0456C91.6361 54.0531 91.6278 54.0632 91.6225 54.075C91.4442 54.5719 91.4486 55.1161 91.635 55.61C91.4625 55.4675 91.295 55.3225 91.135 55.1775C91.2764 54.8768 91.3314 54.5426 91.2939 54.2124C91.2563 53.8822 91.1278 53.5689 90.9225 53.3075C90.9142 53.2974 90.9036 53.2895 90.8915 53.2845C90.8794 53.2796 90.8663 53.2778 90.8533 53.2793C90.8404 53.2808 90.828 53.2855 90.8173 53.2931C90.8067 53.3006 90.7981 53.3108 90.7925 53.3225C90.6107 53.8347 90.6222 54.3957 90.825 54.9C90.6 54.6925 90.3875 54.49 90.19 54.2925C90.3376 53.9899 90.3969 53.6519 90.3611 53.3171C90.3253 52.9824 90.1958 52.6645 89.9875 52.4C89.9798 52.3897 89.9695 52.3816 89.9576 52.3768C89.9457 52.3719 89.9326 52.3705 89.92 52.3725C89.9069 52.373 89.8943 52.3773 89.8837 52.3849C89.873 52.3924 89.8648 52.4029 89.86 52.415C89.677 52.927 89.6886 53.4884 89.8925 53.9925C89.5963 53.6896 89.316 53.3717 89.0525 53.04C88.9753 52.7381 88.8232 52.4605 88.6105 52.2329C88.3977 52.0053 88.131 51.8349 87.835 51.7375C87.8225 51.7351 87.8097 51.7356 87.7976 51.7391C87.7854 51.7426 87.7742 51.7489 87.765 51.7575C87.757 51.7667 87.7511 51.7774 87.7476 51.7891C87.7442 51.8007 87.7433 51.813 87.745 51.825C87.97 52.9325 88.785 53.125 88.95 53.1525C89.065 53.3 89.2 53.4625 89.36 53.6525C88.9687 53.4749 88.5321 53.4225 88.11 53.5025C88.0977 53.5057 88.0864 53.512 88.0773 53.5207C88.0681 53.5295 88.0613 53.5404 88.0575 53.5525C88.054 53.5651 88.0539 53.5783 88.0569 53.591C88.06 53.6037 88.0662 53.6154 88.075 53.625C88.2881 53.8718 88.5667 54.0533 88.8786 54.1484C89.1905 54.2435 89.5229 54.2484 89.8375 54.1625C89.98 54.3075 90.1275 54.4575 90.285 54.61C89.7566 54.4562 89.1914 54.4897 88.685 54.705C88.6731 54.7106 88.6631 54.7195 88.656 54.7305C88.6489 54.7416 88.6451 54.7544 88.645 54.7675C88.6445 54.7808 88.6475 54.794 88.6536 54.8058C88.6597 54.8177 88.6688 54.8277 88.68 54.835C88.9657 55.0129 89.293 55.1129 89.6294 55.1252C89.9658 55.1375 90.2995 55.0616 90.5975 54.905C90.8075 55.1 91.0275 55.2975 91.2575 55.495C90.745 55.2644 90.1653 55.2315 89.63 55.4025C89.6179 55.407 89.6073 55.4148 89.5994 55.4249C89.5914 55.4351 89.5864 55.4472 89.585 55.46C89.5832 55.4731 89.5848 55.4863 89.5896 55.4986C89.5945 55.5108 89.6023 55.5216 89.6125 55.53C89.8758 55.7429 90.1928 55.879 90.5285 55.9231C90.8642 55.9672 91.2056 55.9177 91.515 55.78C91.5207 55.7812 91.5267 55.7812 91.5325 55.78C91.5414 55.7732 91.5476 55.7635 91.55 55.7525L91.8325 55.9825C91.8408 55.9936 91.8521 56.0022 91.865 56.0075C92.0175 56.1275 92.1675 56.245 92.3225 56.3625C92.336 56.3741 92.3533 56.3805 92.3712 56.3805C92.3891 56.3805 92.4064 56.3741 92.42 56.3625C92.4262 56.3548 92.4308 56.3458 92.4334 56.3362C92.4361 56.3266 92.4367 56.3166 92.4353 56.3068C92.4339 56.2969 92.4305 56.2874 92.4252 56.279C92.42 56.2705 92.4131 56.2632 92.405 56.2575L91.98 55.93C92.1104 55.6321 92.1576 55.3043 92.1167 54.9817C92.0758 54.659 91.9482 54.3535 91.7475 54.0975C91.7463 54.0807 91.7391 54.0648 91.7271 54.0528C91.7152 54.0409 91.6993 54.0337 91.6825 54.0325Z" fill="white"/>
<path d="M97.7073 43.5C97.6944 43.5018 97.682 43.5069 97.6715 43.5148C97.661 43.5226 97.6527 43.533 97.6474 43.545C97.4723 44.0426 97.4776 44.5859 97.6624 45.08C97.4899 44.935 97.3199 44.7925 97.1624 44.6475C97.3031 44.3465 97.3576 44.0122 97.3196 43.6821C97.2817 43.3519 97.1528 43.0387 96.9474 42.7775C96.9395 42.7673 96.9292 42.7592 96.9174 42.7539C96.9056 42.7487 96.8927 42.7465 96.8798 42.7475C96.8666 42.7485 96.8539 42.7533 96.8433 42.7613C96.8327 42.7693 96.8246 42.7801 96.8199 42.7925C96.638 43.3039 96.6496 43.8641 96.8524 44.3675C96.6274 44.1625 96.4123 43.9575 96.2148 43.76C96.3625 43.4574 96.4218 43.1194 96.386 42.7846C96.3502 42.4499 96.2207 42.132 96.0123 41.8675C96.0046 41.8571 95.9944 41.8489 95.9825 41.8436C95.9707 41.8384 95.9577 41.8363 95.9449 41.8375C95.9316 41.8385 95.9189 41.8433 95.9083 41.8513C95.8977 41.8593 95.8896 41.8701 95.8849 41.8825C95.7031 42.3947 95.7146 42.9557 95.9174 43.46C95.5749 43.1025 95.2899 42.7775 95.0774 42.5075C95.001 42.2052 94.8493 41.9272 94.6364 41.6994C94.4235 41.4717 94.1563 41.3016 93.8599 41.205C93.8478 41.2029 93.8354 41.2037 93.8237 41.2073C93.812 41.2109 93.8013 41.2172 93.7925 41.2258C93.7837 41.2343 93.7771 41.2448 93.7732 41.2564C93.7692 41.268 93.7681 41.2804 93.7698 41.2925C93.9948 42.4 94.8124 42.5925 94.9749 42.62C95.0924 42.7675 95.2249 42.93 95.3849 43.105C94.9931 42.9293 94.5571 42.877 94.1349 42.955C94.1225 42.9589 94.1113 42.9657 94.1021 42.9748C94.093 42.9839 94.0862 42.9952 94.0823 43.0075C94.0786 43.0199 94.078 43.033 94.0806 43.0457C94.0833 43.0583 94.089 43.0701 94.0974 43.08C94.3123 43.3251 94.5914 43.5053 94.9033 43.6003C95.2151 43.6952 95.5473 43.7012 95.8624 43.6175C96.0024 43.7625 96.1523 43.91 96.3098 44.0625C95.7804 43.9111 95.2152 43.9446 94.7073 44.1575C94.6959 44.1643 94.6864 44.1738 94.6794 44.1851C94.6724 44.1964 94.6683 44.2093 94.6674 44.2225C94.6672 44.2361 94.6705 44.2494 94.6771 44.2613C94.6837 44.2731 94.6932 44.283 94.7049 44.29C94.9903 44.4677 95.3173 44.5675 95.6533 44.5793C95.9894 44.5912 96.3226 44.5147 96.6199 44.3575C96.8299 44.555 97.0524 44.7525 97.2824 44.95C96.7701 44.7188 96.1905 44.685 95.6549 44.855C95.6424 44.86 95.6315 44.8682 95.6232 44.8787C95.6149 44.8893 95.6094 44.9018 95.6073 44.915C95.6059 44.9283 95.6079 44.9417 95.6132 44.9539C95.6184 44.9662 95.6267 44.9769 95.6373 44.985C95.9001 45.198 96.2167 45.334 96.5521 45.3782C96.8874 45.4223 97.2284 45.3727 97.5374 45.235L97.5574 45.2225C97.5652 45.2142 97.5704 45.2038 97.5724 45.1925L97.8549 45.4225C97.8641 45.4338 97.8762 45.4424 97.8899 45.4475C98.0399 45.5675 98.1924 45.685 98.3474 45.8C98.3609 45.8116 98.3782 45.818 98.3961 45.818C98.414 45.818 98.4313 45.8116 98.4449 45.8C98.4568 45.7841 98.4619 45.7641 98.4591 45.7444C98.4563 45.7247 98.4458 45.7069 98.4299 45.695C98.2849 45.5875 98.1448 45.48 98.0048 45.3675C98.1353 45.07 98.1826 44.7426 98.1417 44.4204C98.1007 44.0981 97.9731 43.7929 97.7724 43.5375C97.7653 43.5266 97.7557 43.5175 97.7444 43.5109C97.7331 43.5044 97.7204 43.5007 97.7073 43.5Z" fill="white"/>
<path d="M95.3325 48.25C95.3454 48.2489 95.3578 48.2444 95.3683 48.2369C95.3789 48.2295 95.3872 48.2193 95.3925 48.2075C95.5708 47.7106 95.5664 47.1665 95.38 46.6725C95.5525 46.815 95.72 46.96 95.88 47.105C95.7386 47.4058 95.6836 47.7399 95.7211 48.0701C95.7586 48.4004 95.8872 48.7137 96.0925 48.975C96.1007 48.9852 96.1114 48.9931 96.1235 48.998C96.1355 49.0029 96.1487 49.0047 96.1616 49.0032C96.1746 49.0017 96.187 48.997 96.1976 48.9894C96.2083 48.9819 96.2168 48.9718 96.2225 48.96C96.4043 48.4478 96.3927 47.8868 96.19 47.3825C96.415 47.5892 96.6275 47.7917 96.8275 47.99C96.6799 48.2926 96.6206 48.6306 96.6564 48.9654C96.6922 49.3002 96.8217 49.618 97.03 49.8825C97.0382 49.8927 97.0489 49.9006 97.061 49.9055C97.073 49.9104 97.0862 49.9122 97.0991 49.9107C97.1121 49.9092 97.1245 49.9045 97.1351 49.8969C97.1458 49.8894 97.1543 49.8793 97.16 49.8675C97.3422 49.3552 97.3297 48.7938 97.125 48.29C97.4211 48.5929 97.7015 48.9108 97.965 49.2425C98.0422 49.5448 98.1946 49.8227 98.4078 50.0504C98.6211 50.2781 98.8884 50.4482 99.185 50.545C99.197 50.5475 99.2095 50.5469 99.2213 50.5434C99.233 50.5399 99.2438 50.5336 99.2525 50.525C99.2612 50.5158 99.2675 50.5046 99.2709 50.4924C99.2744 50.4802 99.275 50.4674 99.2725 50.455C99.05 49.35 98.2325 49.1575 98.0675 49.13C97.9525 48.9825 97.8175 48.82 97.6575 48.63C98.0488 48.8076 98.4854 48.86 98.9075 48.78C98.9198 48.7768 98.931 48.7705 98.9402 48.7618C98.9494 48.753 98.9562 48.7421 98.96 48.73C98.9634 48.7174 98.9636 48.7042 98.9606 48.6915C98.9575 48.6788 98.9513 48.6672 98.9425 48.6575C98.7294 48.4107 98.4508 48.2293 98.1389 48.1341C97.827 48.039 97.4946 48.0341 97.18 48.12C97.04 47.975 96.89 47.825 96.7325 47.6725C97.2608 47.8264 97.8261 47.7928 98.3325 47.5775C98.3446 47.5715 98.3547 47.5622 98.3618 47.5507C98.3688 47.5392 98.3726 47.526 98.3725 47.5125C98.3733 47.4995 98.3705 47.4865 98.3643 47.475C98.3581 47.4635 98.3488 47.454 98.3375 47.4475C98.0518 47.2696 97.7245 47.1696 97.3881 47.1573C97.0517 47.1451 96.718 47.221 96.42 47.3775C96.21 47.1825 95.99 46.985 95.76 46.7875C96.2728 47.0169 96.852 47.0498 97.3875 46.88C97.3996 46.8755 97.4102 46.8677 97.4181 46.8576C97.4261 46.8474 97.431 46.8353 97.4325 46.8225C97.4348 46.8094 97.4334 46.796 97.4286 46.7837C97.4237 46.7713 97.4156 46.7605 97.405 46.7525C97.1421 46.5388 96.8251 46.4023 96.4892 46.3582C96.1533 46.314 95.8117 46.364 95.5025 46.5025C95.4967 46.5014 95.4908 46.5014 95.485 46.5025C95.4778 46.5107 95.4718 46.52 95.4675 46.53L95.185 46.3C95.1772 46.2884 95.1658 46.2796 95.1525 46.275C95.0025 46.155 94.85 46.025 94.695 45.92C94.6814 45.9084 94.6641 45.902 94.6463 45.902C94.6284 45.902 94.6111 45.9084 94.5975 45.92C94.5856 45.9359 94.5805 45.9559 94.5833 45.9756C94.5861 45.9953 94.5966 46.0131 94.6125 46.025L95.0375 46.3525C94.9071 46.6505 94.8598 46.9782 94.9008 47.3009C94.9417 47.6235 95.0693 47.9291 95.27 48.185C95.2724 48.201 95.2796 48.2159 95.2908 48.2275C95.3021 48.2392 95.3166 48.2471 95.3325 48.25Z" fill="white"/>
</g>
</g>
<path d="M96.4299 50.4L79.6799 52.09C79.2332 52.1355 78.8227 52.3563 78.5387 52.7041C78.2547 53.0519 78.1202 53.4982 78.1649 53.945L78.7399 59.6725C79.1762 59.3633 79.6858 59.174 80.2181 59.1233C80.7504 59.0727 81.2866 59.1625 81.7734 59.3838C82.2601 59.6051 82.6803 59.9502 82.992 60.3846C83.3037 60.819 83.496 61.3276 83.5498 61.8596C83.6036 62.3915 83.5169 62.9283 83.2984 63.4163C83.08 63.9043 82.7374 64.3265 82.3048 64.6408C81.8722 64.955 81.3647 65.1503 80.8331 65.2072C80.3015 65.2641 79.7642 65.1806 79.2749 64.965L79.8524 70.6925C79.8985 71.1391 80.1195 71.5494 80.467 71.8337C80.8146 72.118 81.2605 72.2533 81.7074 72.21L98.4574 70.5225C98.9043 70.4758 99.3146 70.2543 99.5988 69.9063C99.8831 69.5584 100.018 69.1122 99.9749 68.665L98.2874 51.915C98.2401 51.4686 98.0183 51.0589 97.6705 50.7752C97.3226 50.4915 96.8767 50.3566 96.4299 50.4Z" fill="#8FC1FF"/>
<path opacity="0.3" d="M96.4299 50.4L79.6799 52.09C79.2332 52.1355 78.8227 52.3563 78.5387 52.7041C78.2547 53.0519 78.1202 53.4982 78.1649 53.945L78.7399 59.6725C79.1762 59.3633 79.6858 59.174 80.2181 59.1233C80.7504 59.0727 81.2866 59.1625 81.7734 59.3838C82.2601 59.6051 82.6803 59.9502 82.992 60.3846C83.3037 60.819 83.496 61.3276 83.5498 61.8596C83.6036 62.3915 83.5169 62.9283 83.2984 63.4163C83.08 63.9043 82.7374 64.3265 82.3048 64.6408C81.8722 64.955 81.3647 65.1503 80.8331 65.2072C80.3015 65.2641 79.7642 65.1806 79.2749 64.965L79.8524 70.6925C79.8985 71.1391 80.1195 71.5494 80.467 71.8337C80.8146 72.118 81.2605 72.2533 81.7074 72.21L98.4574 70.5225C98.9043 70.4758 99.3146 70.2543 99.5988 69.9063C99.8831 69.5584 100.018 69.1122 99.9749 68.665L98.2874 51.915C98.2401 51.4686 98.0183 51.0589 97.6705 50.7752C97.3226 50.4915 96.8767 50.3566 96.4299 50.4Z" fill="black"/>
<path d="M101 55.5375L100.225 55.2L98.4049 55.665C98.1963 55.7196 98.0117 55.8418 97.8799 56.0125L97.4949 56.5125C97.4129 56.622 97.3713 56.7566 97.3773 56.8933C97.3832 57.03 97.4362 57.1605 97.5274 57.2625L97.9624 57.7425C98.0668 57.8568 98.2116 57.926 98.3661 57.9353C98.5206 57.9447 98.6726 57.8934 98.7899 57.7925L99.7774 56.945C99.7774 56.945 100.967 56.3875 101 55.5375Z" fill="#FFB573"/>
<path d="M85.2224 52.415L86.0274 52.3125C86.1359 52.3002 86.2374 52.2528 86.3165 52.1774C86.3955 52.102 86.4476 52.0028 86.4649 51.895L86.5749 51.255C86.5896 51.1788 86.5864 51.1002 86.5654 51.0255C86.5445 50.9507 86.5065 50.8819 86.4543 50.8244C86.4021 50.7669 86.3373 50.7223 86.265 50.6942C86.1926 50.6662 86.1147 50.6553 86.0374 50.6625L85.0974 50.73C84.9652 50.7371 84.8412 50.7964 84.7526 50.8948C84.664 50.9932 84.6181 51.1228 84.6249 51.255L84.6499 51.93C84.6513 52.001 84.6678 52.0708 84.6982 52.1349C84.7287 52.199 84.7725 52.2559 84.8266 52.3018C84.8808 52.3477 84.9441 52.3815 85.0123 52.401C85.0806 52.4206 85.1522 52.4253 85.2224 52.415Z" fill="#FFB573"/>
<path d="M97.7498 34.0425C95.7648 35.0425 92.2773 34.5825 92.2773 34.5825C92.2773 34.5825 94.2223 31.4025 97.7498 34.0425Z" fill="#263238"/>
<path d="M62.8201 97.4725L61.8226 102.665L59.2976 102.055L60.2951 96.8625L62.8201 97.4725Z" fill="#7F3E3B"/>
<path d="M59.3775 101L62.185 101.61C62.2285 101.619 62.2672 101.643 62.2936 101.679C62.32 101.714 62.3321 101.758 62.3275 101.803L62.1325 103.865C62.1261 103.917 62.1089 103.967 62.0821 104.011C62.0553 104.056 62.0195 104.095 61.9769 104.125C61.9343 104.155 61.8859 104.176 61.8348 104.186C61.7837 104.197 61.7309 104.196 61.68 104.185C60.7975 103.978 60.535 103.848 59.4175 103.605C58.115 103.318 57.6525 103.395 56.1225 103.06C55.1975 102.858 55.24 101.888 55.655 101.885C56.751 101.888 57.8283 101.6 58.7775 101.053C58.9635 100.959 59.1781 100.941 59.3775 101Z" fill="#263238"/>
<path opacity="0.2" d="M62.8225 97.475L62.3075 100.15L59.78 99.54L60.295 96.8625L62.8225 97.475Z" fill="black"/>
<path d="M67.215 77.475C70.1775 68.76 72.5225 58.475 72.5225 58.475L64.0725 57.94C64.0725 57.94 62.8225 71.285 62.1775 77.44C61.5025 83.835 59.405 98.2725 59.405 98.2725L63.2175 99.045C63.2175 99.045 66.7925 85.45 67.215 77.475Z" fill="#263238"/>
<path opacity="0.2" d="M68.625 63.325L70.675 65.86C70.1525 67.8175 69.5425 70.0175 68.8725 72.265C68.488 69.301 68.405 66.3057 68.625 63.325Z" fill="#263238"/>
<path d="M59.4602 98.815L62.9602 99.58C63.0299 99.5955 63.103 99.5847 63.1653 99.5496C63.2276 99.5145 63.2747 99.4577 63.2977 99.39L63.6827 98.2625C63.696 98.2243 63.7011 98.1837 63.6977 98.1434C63.6942 98.1031 63.6824 98.064 63.6628 98.0286C63.6432 97.9932 63.6164 97.9623 63.584 97.938C63.5517 97.9137 63.5146 97.8965 63.4752 97.8875L59.6777 97C59.6377 96.9905 59.5962 96.9897 59.5559 96.9974C59.5156 97.0052 59.4775 97.0215 59.4439 97.0451C59.4103 97.0687 59.3822 97.0992 59.3613 97.1345C59.3404 97.1698 59.3272 97.2092 59.3227 97.25L59.2352 98.5C59.2273 98.571 59.2459 98.6424 59.2874 98.7005C59.3289 98.7587 59.3904 98.7994 59.4602 98.815Z" fill="#263238"/>
<path opacity="0.1" d="M59.4602 98.815L62.9602 99.58C63.0299 99.5955 63.103 99.5847 63.1653 99.5496C63.2276 99.5145 63.2747 99.4577 63.2977 99.39L63.6827 98.2625C63.696 98.2243 63.7011 98.1837 63.6977 98.1434C63.6942 98.1031 63.6824 98.064 63.6628 98.0286C63.6432 97.9932 63.6164 97.9623 63.584 97.938C63.5517 97.9137 63.5146 97.8965 63.4752 97.8875L59.6777 97C59.6377 96.9905 59.5962 96.9897 59.5559 96.9974C59.5156 97.0052 59.4775 97.0215 59.4439 97.0451C59.4103 97.0687 59.3822 97.0992 59.3613 97.1345C59.3404 97.1698 59.3272 97.2092 59.3227 97.25L59.2352 98.5C59.2273 98.571 59.2459 98.6424 59.2874 98.7005C59.3289 98.7587 59.3904 98.7994 59.4602 98.815Z" fill="white"/>
<path d="M76.72 97.2925L76.8775 102.65L74.315 102.615L74.1575 97.2575L76.72 97.2925Z" fill="#7F3E3B"/>
<path d="M74.2501 101.515L76.9751 101.555C77.0193 101.555 77.062 101.571 77.0948 101.601C77.1276 101.63 77.1482 101.671 77.1526 101.715L77.3726 103.775C77.3768 103.827 77.37 103.88 77.3527 103.929C77.3354 103.978 77.308 104.024 77.2722 104.062C77.2365 104.1 77.1931 104.13 77.1449 104.15C77.0968 104.171 77.0449 104.181 76.9926 104.18C76.0876 104.153 75.8026 104.078 74.6601 104.06C73.3251 104.038 73.0376 104.205 71.4726 104.183C70.5251 104.168 70.3726 103.208 70.7776 103.123C71.8529 102.908 72.8524 102.413 73.6751 101.688C73.8378 101.559 74.0434 101.497 74.2501 101.515Z" fill="#263238"/>
<path opacity="0.2" d="M76.7225 97.295L76.8025 100.055L74.2375 100.02L74.1575 97.2575L76.7225 97.295Z" fill="black"/>
<path d="M76.0826 77.2975C75.3576 68.13 75.9701 63.185 74.9051 58.6325L67.2151 58.155C67.2151 58.155 69.6026 71.63 70.9201 77.725C72.2376 83.82 73.6551 98.625 73.6551 98.625L77.4351 98.6725C77.4351 98.6725 77.8976 84.45 76.0826 77.2975Z" fill="#263238"/>
<path d="M73.6649 99.305L77.2424 99.36C77.3164 99.3608 77.3879 99.3333 77.4423 99.2831C77.4967 99.2329 77.5298 99.1638 77.5349 99.09L77.6124 97.91C77.6155 97.871 77.6106 97.8318 77.598 97.7948C77.5854 97.7578 77.5654 97.7237 77.5392 97.6947C77.513 97.6657 77.4811 97.6423 77.4456 97.6261C77.41 97.6098 77.3715 97.6009 77.3324 97.6L73.4399 97.48C73.3967 97.4785 73.3536 97.4867 73.3139 97.5041C73.2743 97.5215 73.2391 97.5477 73.211 97.5806C73.1828 97.6135 73.1625 97.6524 73.1515 97.6943C73.1405 97.7362 73.1391 97.78 73.1474 97.8225L73.3974 99.0725C73.4108 99.135 73.4441 99.1915 73.4924 99.2334C73.5406 99.2753 73.6012 99.3005 73.6649 99.305Z" fill="#263238"/>
<path opacity="0.1" d="M73.6649 99.305L77.2424 99.36C77.3164 99.3608 77.3879 99.3333 77.4423 99.2831C77.4967 99.2329 77.5298 99.1638 77.5349 99.09L77.6124 97.91C77.6155 97.871 77.6106 97.8318 77.598 97.7948C77.5854 97.7578 77.5654 97.7237 77.5392 97.6947C77.513 97.6657 77.4811 97.6423 77.4456 97.6261C77.41 97.6098 77.3715 97.6009 77.3324 97.6L73.4399 97.48C73.3967 97.4785 73.3536 97.4867 73.3139 97.5041C73.2743 97.5215 73.2391 97.5477 73.211 97.5806C73.1828 97.6135 73.1625 97.6524 73.1515 97.6943C73.1405 97.7362 73.1391 97.78 73.1474 97.8225L73.3974 99.0725C73.4108 99.135 73.4441 99.1915 73.4924 99.2334C73.5406 99.2753 73.6012 99.3005 73.6649 99.305Z" fill="white"/>
<path d="M66.9675 44.0525C66.6725 44.69 66.365 45.255 66.03 45.8375C65.695 46.42 65.3425 46.985 64.9525 47.54C64.5582 48.113 64.1273 48.66 63.6625 49.1775C63.1468 49.7733 62.5421 50.286 61.87 50.6975L61.7825 50.7475C61.6331 50.8354 61.4667 50.8907 61.2943 50.9097C61.122 50.9286 60.9475 50.9108 60.7825 50.8575C60.295 50.7 59.8225 50.5225 59.36 50.3325C58.8975 50.1425 58.4475 49.9325 58.005 49.7125C57.5625 49.4925 57.13 49.26 56.705 49.01C56.28 48.76 55.865 48.51 55.455 48.2075C55.3082 48.1034 55.2024 47.9513 55.1558 47.7775C55.1092 47.6037 55.1247 47.4191 55.1996 47.2555C55.2746 47.0919 55.4044 46.9596 55.5665 46.8815C55.7286 46.8033 55.9129 46.7843 56.0875 46.8275H56.115C56.5625 46.935 57.025 47.065 57.475 47.1825L58.8275 47.54C59.275 47.6625 59.725 47.765 60.1675 47.875C60.61 47.985 61.0525 48.07 61.4875 48.16L60.41 48.3225C60.7843 48.0121 61.1201 47.6579 61.41 47.2675C61.7525 46.8275 62.0825 46.3425 62.41 45.8425C62.7375 45.3425 63.035 44.82 63.33 44.29C63.625 43.76 63.925 43.2125 64.19 42.7075L64.205 42.68C64.4043 42.3481 64.7213 42.1035 65.0928 41.9948C65.4644 41.8861 65.8632 41.9213 66.21 42.0934C66.5567 42.2655 66.8259 42.5619 66.964 42.9236C67.1021 43.2852 67.0989 43.6856 66.955 44.045L66.9675 44.0525Z" fill="#7F3E3B"/>
<path d="M67.5825 39.6825C64.5975 40.0225 62.3325 44.645 62.3325 44.645L65.4125 47.9225C65.4125 47.9225 66.785 46.2875 68.26 44.22C69.87 41.9675 69.945 39.415 67.5825 39.6825Z" fill="#8FC1FF"/>
<path d="M67.215 40.375C68.3625 39.9675 73.5025 40.625 73.5025 40.625C72.5025 41.915 71.6675 52.5975 71.575 58.7375C70.4825 58.8875 66.2925 58.6 65.325 58.375C65.45 55.965 66.455 44.66 67.215 40.375Z" fill="white"/>
<path d="M63.8977 43.615C64.0325 42.5041 64.5706 41.4814 65.4099 40.7412C66.2492 40.001 67.3311 39.5949 68.4502 39.6C70.5978 39.6172 72.738 39.8534 74.8377 40.305C75.1647 40.3742 75.4745 40.5083 75.7488 40.6993C76.0231 40.8904 76.2563 41.1345 76.4346 41.4172C76.6129 41.6999 76.7327 42.0155 76.7869 42.3454C76.8411 42.6752 76.8286 43.0126 76.7502 43.3375C75.1677 49.975 75.5852 56.2725 75.1627 59.2025C73.6564 59.7563 72.0565 60.0111 70.4527 59.9525C70.4527 59.9525 70.4902 57.425 70.8427 53.1575C71.1227 49.765 71.6252 41.7875 72.6602 40.4625C72.6602 40.4625 68.9502 39.9625 67.8027 40.365C66.9502 45.1775 66.3252 59.755 66.3252 59.7575C64.5102 59.6275 63.6552 58.6175 63.6827 58.3175C63.3152 52.42 63.5002 47.0725 63.8977 43.615Z" fill="#8FC1FF"/>
<path d="M72.7925 36.2325C72.445 37.2325 72.0425 39.005 72.685 40C72.7176 40.0462 72.7395 40.0991 72.7492 40.1548C72.7589 40.2106 72.7561 40.2677 72.741 40.3222C72.726 40.3768 72.699 40.4273 72.6621 40.4701C72.6252 40.5129 72.5792 40.5471 72.5275 40.57C71.4948 41.1657 70.3014 41.4227 69.115 41.305C67.5025 41.175 67.615 40.4475 68.03 39.975C68.1281 39.8659 68.2639 39.798 68.41 39.785C69.9325 39.6025 69.9475 38.685 69.7275 37.785L72.7925 36.2325Z" fill="#7F3E3B"/>
<path opacity="0.2" d="M71.5425 36.87L69.73 37.7925C69.7873 38.0056 69.82 38.2245 69.8275 38.445C70.4875 38.445 71.4225 38.0025 71.53 37.495C71.5852 37.2908 71.5895 37.0762 71.5425 36.87Z" fill="black"/>
<path d="M70.3756 32.7566C70.4437 31.8548 69.9532 31.0825 69.2799 31.0317C68.6067 30.9808 68.0057 31.6706 67.9376 32.5724C67.8694 33.4742 68.36 34.2465 69.0332 34.2974C69.7065 34.3482 70.3075 33.6584 70.3756 32.7566Z" fill="#263238"/>
<path d="M73.7725 33.5C73.4375 35.4725 73.34 36.645 72.245 37.5625C70.5975 38.94 68.285 37.775 68.035 35.7425C67.8075 33.915 68.3925 30.9925 70.3875 30.4025C72.3825 29.8125 74.1075 31.525 73.7725 33.5Z" fill="#7F3E3B"/>
<path d="M73.3425 35.1675C73.3175 35.1675 73.2875 35.135 73.26 35.15C72.365 35.65 72.075 34.575 72.13 33.86C72.1484 33.6215 72.2169 33.3895 72.331 33.1793C72.4452 32.9691 72.6025 32.7853 72.7925 32.64C71.8225 32.75 70.8825 32.125 70.8675 31.5425C69.795 32.015 68.5025 32.0425 67.92 31.0425C67.3375 30.0425 68.17 28.735 69.28 29.0825C68.83 28.2775 70.7325 26.6675 72.725 29.0425C72.7875 27.32 75.5725 29.0425 75.115 30.735C76.405 31.18 77.51 33.63 75.3225 34.1525C75.1775 36.4225 73.3425 35.1675 73.3425 35.1675Z" fill="#263238"/>
<path d="M74.3976 35.7875C74.0947 36.159 73.6624 36.402 73.1876 36.4675C72.5876 36.535 72.4551 35.925 72.7626 35.37C73.0401 34.87 73.6851 34.235 74.2201 34.43C74.7551 34.625 74.7876 35.3125 74.3976 35.7875Z" fill="#7F3E3B"/>
<path d="M70.9126 33.6475C70.8976 33.8125 70.8001 33.935 70.6926 33.925C70.5851 33.915 70.5101 33.775 70.5251 33.61C70.5401 33.445 70.6376 33.325 70.7451 33.335C70.8526 33.345 70.9251 33.485 70.9126 33.6475Z" fill="#263238"/>
<path d="M68.9751 33.4325C68.9601 33.595 68.8626 33.7175 68.7551 33.7075C68.6476 33.6975 68.5751 33.5575 68.5876 33.395C68.6001 33.2325 68.7001 33.1075 68.8076 33.1175C68.9151 33.1275 69.0001 33.2675 68.9751 33.4325Z" fill="#263238"/>
<path d="M69.7326 33.525C69.4937 34.0043 69.19 34.4484 68.8301 34.845C68.9338 34.9354 69.0559 35.0021 69.1881 35.0406C69.3202 35.079 69.4591 35.0882 69.5951 35.0675L69.7326 33.525Z" fill="#630F0F"/>
<path d="M70.1001 35.8625C70.2816 35.8752 70.4638 35.851 70.6357 35.7913C70.8076 35.7315 70.9656 35.6376 71.1001 35.515C71.1045 35.5104 71.108 35.505 71.1103 35.499C71.1127 35.4931 71.1138 35.4868 71.1137 35.4804C71.1136 35.474 71.1122 35.4677 71.1097 35.4618C71.1071 35.456 71.1034 35.4507 71.0988 35.4463C71.0942 35.4418 71.0888 35.4383 71.0829 35.436C71.0769 35.4337 71.0706 35.4325 71.0642 35.4326C71.0578 35.4328 71.0515 35.4341 71.0457 35.4367C71.0398 35.4392 71.0345 35.4429 71.0301 35.4475C70.8778 35.5822 70.6958 35.6789 70.499 35.7298C70.3021 35.7806 70.0961 35.7841 69.8976 35.74C69.8915 35.7386 69.8852 35.7384 69.879 35.7395C69.8728 35.7407 69.867 35.7431 69.8618 35.7466C69.8566 35.7501 69.8522 35.7547 69.8489 35.76C69.8456 35.7653 69.8435 35.7713 69.8426 35.7775C69.8403 35.7901 69.8429 35.803 69.8499 35.8137C69.8569 35.8244 69.8677 35.832 69.8801 35.835C69.9601 35.8475 70.0301 35.8575 70.1001 35.8625Z" fill="#263238"/>
<path d="M71.5524 33.25C71.5681 33.2536 71.5843 33.2536 71.6 33.25C71.6115 33.2449 71.622 33.2375 71.6307 33.2282C71.6394 33.219 71.6462 33.2081 71.6506 33.1963C71.655 33.1844 71.657 33.1717 71.6565 33.1591C71.6559 33.1464 71.6529 33.134 71.6475 33.1225C71.5887 32.9811 71.4975 32.8555 71.381 32.756C71.2646 32.6565 71.1263 32.5859 70.9775 32.55C70.9523 32.5464 70.9267 32.5527 70.9062 32.5676C70.8857 32.5826 70.8718 32.605 70.8675 32.63C70.8638 32.6551 70.8702 32.6807 70.8851 32.7012C70.9 32.7218 70.9224 32.7357 70.9475 32.74C71.0648 32.7703 71.1735 32.8276 71.2647 32.9075C71.3558 32.9874 71.427 33.0876 71.4725 33.2C71.4808 33.2141 71.4924 33.226 71.5064 33.2347C71.5203 33.2434 71.5361 33.2487 71.5524 33.25Z" fill="#263238"/>
<path d="M68.1626 32.635C68.1781 32.6391 68.1944 32.6395 68.21 32.636C68.2257 32.6325 68.2403 32.6253 68.2526 32.615C68.3417 32.5343 68.4485 32.4757 68.5645 32.444C68.6805 32.4123 68.8023 32.4083 68.9201 32.4325C68.9443 32.4395 68.9702 32.4365 68.9923 32.4243C69.0143 32.4121 69.0306 32.3917 69.0376 32.3675C69.0446 32.343 69.0417 32.3167 69.0296 32.2942C69.0174 32.2718 68.997 32.255 68.9726 32.2475C68.8238 32.2136 68.6691 32.2162 68.5216 32.2549C68.374 32.2936 68.238 32.3674 68.1251 32.47C68.1162 32.4788 68.1091 32.4893 68.1042 32.5009C68.0994 32.5125 68.0969 32.525 68.0969 32.5375C68.0969 32.5501 68.0994 32.5625 68.1042 32.5741C68.1091 32.5857 68.1162 32.5962 68.1251 32.605C68.1346 32.6182 68.1476 32.6286 68.1626 32.635Z" fill="#263238"/>
<path d="M77.345 43.2025C77.5075 43.52 77.6399 43.795 77.7699 44.0925C77.8999 44.39 78.02 44.6775 78.15 44.9725C78.4 45.5625 78.6175 46.1625 78.8225 46.77C79.2394 47.9988 79.5587 49.2585 79.7774 50.5375L79.845 51.0375L79.88 51.2875V51.3475V51.4575C79.88 51.5375 79.8925 51.6175 79.8925 51.7075C79.8828 52.1632 79.7922 52.6135 79.625 53.0375C79.376 53.685 79.0593 54.3042 78.68 54.885C78.3357 55.4287 77.9626 55.9536 77.5625 56.4575C77.1703 56.9591 76.7531 57.4405 76.3125 57.9C76.1858 58.0341 76.0153 58.1182 75.8318 58.1372C75.6484 58.1561 75.4642 58.1086 75.3128 58.0032C75.1615 57.8979 75.0529 57.7417 75.007 57.5631C74.961 57.3845 74.9807 57.1953 75.0625 57.03V57.01C75.58 55.9325 76.1275 54.8425 76.5625 53.78C76.675 53.515 76.775 53.25 76.8625 52.9925C76.9496 52.7521 77.0222 52.5066 77.08 52.2575C77.1205 52.1026 77.1349 51.9421 77.1225 51.7825L77.11 51.7325L77.0625 51.525L76.97 51.1125C76.6816 49.993 76.3285 48.8911 75.9125 47.8125C75.7125 47.2625 75.485 46.72 75.265 46.175C75.155 45.905 75.0375 45.635 74.92 45.3675L74.57 44.5875L74.55 44.5425C74.3743 44.1745 74.3519 43.7518 74.4879 43.3674C74.6238 42.9829 74.907 42.6682 75.275 42.4925C75.6429 42.3168 76.0657 42.2945 76.4501 42.4304C76.8346 42.5664 77.1492 42.8495 77.325 43.2175L77.345 43.2025Z" fill="#7F3E3B"/>
<path d="M75.0951 40.375C78.4251 41.215 79.3451 45.4725 79.3451 45.4725L75.2101 48.4375C75.2101 48.4375 74.1851 47.365 73.8751 44.845C73.7326 43.6425 74.4201 40.3425 75.0951 40.375Z" fill="#8FC1FF"/>
<path d="M75.6076 56.5L73.6826 57.22L75.1576 59.195C75.1576 59.195 76.8201 58.3325 76.5051 57.375L75.6076 56.5Z" fill="#7F3E3B"/>
<path d="M72.2501 57.5C71.7316 57.4128 71.1994 57.4611 70.7051 57.64L71.6601 51.965C71.7339 51.5218 71.6291 51.0675 71.3685 50.7015C71.108 50.3355 70.713 50.0878 70.2701 50.0125L53.6701 47.2175C53.2277 47.1443 52.7743 47.2492 52.4089 47.5091C52.0436 47.7691 51.7959 48.1631 51.7201 48.605L50.7501 54.2925C51.2439 54.1112 51.7767 54.0629 52.2951 54.1525C52.756 54.2298 53.1931 54.4119 53.5726 54.6847C53.9521 54.9575 54.264 55.3137 54.4842 55.7259C54.7045 56.1382 54.8272 56.5955 54.8429 57.0626C54.8586 57.5298 54.7669 57.9943 54.5749 58.4204C54.3829 58.8465 54.0957 59.2229 53.7354 59.5206C53.375 59.8183 52.9512 60.0293 52.4965 60.1375C52.0418 60.2456 51.5683 60.248 51.1125 60.1444C50.6568 60.0408 50.2309 59.8341 49.8676 59.54L48.9101 65.215C48.8362 65.6581 48.9411 66.1125 49.2016 66.4785C49.4622 66.8444 49.8572 67.0922 50.3001 67.1675L66.9001 69.9625C67.3427 70.0357 67.7964 69.9309 68.1622 69.671C68.5279 69.4111 68.7761 69.0171 68.8526 68.575L69.8076 62.8975C70.1713 63.1869 70.5963 63.3894 71.0501 63.4898C71.504 63.5901 71.9747 63.5856 72.4265 63.4765C72.8784 63.3674 73.2993 63.1566 73.6574 62.8603C74.0155 62.5639 74.3012 62.1898 74.4928 61.7663C74.6845 61.3428 74.7769 60.8812 74.7632 60.4166C74.7495 59.952 74.63 59.4967 74.4137 59.0853C74.1974 58.6738 73.8901 58.3172 73.5151 58.0425C73.1402 57.7678 72.7075 57.5822 72.2501 57.5Z" fill="#8FC1FF"/>
<path opacity="0.6" d="M72.2501 57.5C71.7316 57.4128 71.1994 57.4611 70.7051 57.64L71.6601 51.965C71.7339 51.5218 71.6291 51.0675 71.3685 50.7015C71.108 50.3355 70.713 50.0878 70.2701 50.0125L53.6701 47.2175C53.2277 47.1443 52.7743 47.2492 52.4089 47.5091C52.0436 47.7691 51.7959 48.1631 51.7201 48.605L50.7501 54.2925C51.2439 54.1112 51.7767 54.0629 52.2951 54.1525C52.756 54.2298 53.1931 54.4119 53.5726 54.6847C53.9521 54.9575 54.264 55.3137 54.4842 55.7259C54.7045 56.1382 54.8272 56.5955 54.8429 57.0626C54.8586 57.5298 54.7669 57.9943 54.5749 58.4204C54.3829 58.8465 54.0957 59.2229 53.7354 59.5206C53.375 59.8183 52.9512 60.0293 52.4965 60.1375C52.0418 60.2456 51.5683 60.248 51.1125 60.1444C50.6568 60.0408 50.2309 59.8341 49.8676 59.54L48.9101 65.215C48.8362 65.6581 48.9411 66.1125 49.2016 66.4785C49.4622 66.8444 49.8572 67.0922 50.3001 67.1675L66.9001 69.9625C67.3427 70.0357 67.7964 69.9309 68.1622 69.671C68.5279 69.4111 68.7761 69.0171 68.8526 68.575L69.8076 62.8975C70.1713 63.1869 70.5963 63.3894 71.0501 63.4898C71.504 63.5901 71.9747 63.5856 72.4265 63.4765C72.8784 63.3674 73.2993 63.1566 73.6574 62.8603C74.0155 62.5639 74.3012 62.1898 74.4928 61.7663C74.6845 61.3428 74.7769 60.8812 74.7632 60.4166C74.7495 59.952 74.63 59.4967 74.4137 59.0853C74.1974 58.6738 73.8901 58.3172 73.5151 58.0425C73.1402 57.7678 72.7075 57.5822 72.2501 57.5Z" fill="white"/>
<path d="M72.7826 59.16L73.4151 59.765C73.5368 59.8821 73.6963 59.952 73.865 59.9621C74.0336 59.9721 74.2003 59.9218 74.3351 59.82L75.1576 59.2025L73.6826 57.2275L72.7701 58.1425C72.7029 58.2095 72.6499 58.2892 72.6141 58.3771C72.5783 58.4649 72.5604 58.559 72.5616 58.6539C72.5627 58.7487 72.5829 58.8424 72.6209 58.9293C72.6588 59.0162 72.7138 59.0947 72.7826 59.16Z" fill="#7F3E3B"/>
<path d="M54.25 47.75L54.48 46.8975C54.5185 46.7972 54.5874 46.7115 54.6771 46.6523C54.7667 46.5931 54.8727 46.5635 54.98 46.5675C55.3057 46.5542 55.6309 46.6043 55.9375 46.715L57.2375 47.195L57.175 47.725C57.1225 48.18 56.615 48.56 56.04 48.5775C55.654 48.5826 55.2687 48.5415 54.8925 48.455L54.7525 48.425C54.6728 48.4194 54.5953 48.3966 54.5252 48.3583C54.4551 48.3199 54.3941 48.2669 54.3464 48.2028C54.2987 48.1387 54.2654 48.0651 54.2487 47.9869C54.2321 47.9088 54.2325 47.828 54.25 47.75Z" fill="#7F3E3B"/>
<path d="M33.7724 35.9825C34.6049 35.015 35.8574 32.5025 33.5024 31.5425C31.7649 30.8325 28.0774 31.195 25.9599 34.4925C24.5124 34.9925 24.0849 38.2125 27.4274 38.89C30.7699 39.5675 33.7724 35.9825 33.7724 35.9825Z" fill="#263238"/>
<path d="M41.3249 98.02L37.5049 98.3375L38.1524 102.827L41.3449 102.567L41.3249 98.02Z" fill="#FFC3BD"/>
<path opacity="0.2" d="M41.3249 98.0225L37.5024 98.34L37.8674 100.855L41.3374 100.567L41.3249 98.0225Z" fill="black"/>
<path d="M34.0225 84.8025C32.5225 79.0525 28.6375 72.2075 31.1 66.675L41.8025 66.6425C41.8025 66.6425 42.0675 78.03 42.1425 83.3925C42.2175 89 41.75 99.55 41.75 99.55L37.3725 99.8825C37.3725 99.8825 34.3725 91.25 34.0225 84.8025Z" fill="#8FC1FF"/>
<path d="M37.155 100.055L41.885 99.7075C41.9253 99.704 41.9631 99.6862 41.9915 99.6574C42.02 99.6285 42.0371 99.5904 42.04 99.55L42.14 97.8C42.1416 97.7757 42.1379 97.7514 42.129 97.7287C42.1202 97.706 42.1064 97.6856 42.0887 97.6689C42.071 97.6521 42.0499 97.6395 42.0268 97.6319C42.0036 97.6243 41.9791 97.622 41.955 97.625L36.705 98.3225C36.6811 98.3251 36.6581 98.3329 36.6376 98.3455C36.6172 98.358 36.5998 98.3749 36.5866 98.395C36.5735 98.4151 36.5649 98.4378 36.5616 98.4616C36.5583 98.4854 36.5603 98.5096 36.5675 98.5325L36.9825 99.9375C36.994 99.9735 37.0173 100.005 37.0485 100.026C37.0798 100.047 37.1172 100.057 37.155 100.055Z" fill="#263238"/>
<path opacity="0.2" d="M31.0624 72.1175C31.021 73.4755 31.0761 74.8348 31.2274 76.185C31.7499 77.9925 32.4174 79.8025 33.0174 81.5575C33.8024 76.5875 33.8049 70.795 31.0624 72.1175Z" fill="black"/>
<path d="M27.185 98.3L23.35 98.3375L23.345 102.862L26.55 102.837L27.185 98.3Z" fill="#FFC3BD"/>
<path d="M23.0424 102.168C23.0462 102.142 23.0552 102.118 23.0688 102.097C23.0825 102.075 23.1005 102.057 23.1217 102.043C23.1428 102.029 23.1668 102.019 23.1919 102.015C23.217 102.01 23.2427 102.011 23.2674 102.018C24.2299 102.4 26.0549 102.108 26.7449 101.975C26.8211 101.959 26.8996 101.959 26.9758 101.975C27.0519 101.991 27.1239 102.023 27.1874 102.068C27.7518 102.43 28.3634 102.712 29.0049 102.908C29.1425 103.275 29.1771 103.674 29.1049 104.06H22.6399C22.8223 103.44 22.9569 102.808 23.0424 102.168Z" fill="#263238"/>
<path d="M37.7299 102.168C37.7337 102.142 37.7427 102.118 37.7563 102.097C37.77 102.075 37.788 102.057 37.8092 102.043C37.8303 102.029 37.8543 102.019 37.8794 102.015C37.9045 102.01 37.9302 102.011 37.9549 102.018C38.9174 102.4 40.7424 102.108 41.4324 101.975C41.5086 101.959 41.5871 101.959 41.6632 101.975C41.7394 101.991 41.8114 102.023 41.8749 102.068C42.6099 102.588 44.5699 102.908 44.5699 102.908C44.7076 103.275 44.7413 103.674 44.6674 104.06H37.3274C37.5098 103.44 37.6444 102.808 37.7299 102.168Z" fill="#263238"/>
<path opacity="0.2" d="M27.185 98.3025L23.3475 98.3375L23.345 100.872L26.83 100.842L27.185 98.3025Z" fill="black"/>
<path d="M22.81 82.9425C22.29 77.135 20.66 69.3125 22.51 66.6425H35.035C35.035 66.6425 32.4825 78.2225 31.435 83.5825C30.3475 89.155 27.22 99.855 27.22 99.855L23.0725 99.8675C23.0725 99.8675 21.5 89.5725 22.81 82.9425Z" fill="#8FC1FF"/>
<path opacity="0.2" d="M23.5625 98.68C23.5356 98.6796 23.5094 98.6707 23.4879 98.6545C23.4663 98.6384 23.4504 98.6158 23.4425 98.59C23.145 97.59 23.1925 86.1025 23.9425 82.9575C23.9425 82.5425 23.855 81.7275 23.755 80.695C23.4125 77.195 22.7775 70.695 23.725 67.0075C23.7333 66.9744 23.7544 66.9459 23.7837 66.9283C23.813 66.9107 23.8481 66.9055 23.8813 66.9138C23.9144 66.922 23.9429 66.9432 23.9605 66.9725C23.9781 67.0018 23.9833 67.0369 23.975 67.07C23.0375 70.7175 23.67 77.1925 24.01 80.6725C24.1125 81.7225 24.195 82.55 24.2 82.97C24.2012 82.9808 24.2012 82.9917 24.2 83.0025C23.48 85.9775 23.41 97.5525 23.7 98.52C23.7094 98.5515 23.706 98.5854 23.6905 98.6144C23.6751 98.6434 23.6489 98.6652 23.6175 98.675C23.6 98.6819 23.5809 98.6837 23.5625 98.68Z" fill="white"/>
<path d="M22.7851 100.023H27.4826C27.5201 100.024 27.5568 100.011 27.5857 99.9871C27.6147 99.9632 27.634 99.9296 27.6401 99.8925L27.9501 98.225C27.9545 98.1998 27.9533 98.1738 27.9465 98.1491C27.9397 98.1244 27.9275 98.1015 27.9107 98.0821C27.894 98.0627 27.8731 98.0473 27.8496 98.037C27.8261 98.0267 27.8007 98.0217 27.7751 98.0225L22.6601 98.25C22.6385 98.2506 22.6172 98.2556 22.5977 98.2647C22.5781 98.2739 22.5606 98.287 22.5463 98.3031C22.532 98.3193 22.5212 98.3383 22.5145 98.3588C22.5079 98.3793 22.5055 98.401 22.5076 98.4225L22.6126 99.8625C22.6163 99.9058 22.636 99.9462 22.6679 99.9758C22.6998 100.005 22.7416 100.022 22.7851 100.023Z" fill="#263238"/>
<path d="M39.2899 46.415C39.5399 47.415 39.7699 48.415 39.9924 49.415C40.2149 50.415 40.4249 51.415 40.6199 52.415L40.9199 53.915L41.1999 55.415C41.3924 56.415 41.5624 57.43 41.7374 58.44L41.3299 57.5275C41.3844 57.7146 41.5018 57.8771 41.6624 57.9875C41.9824 58.2037 42.343 58.3526 42.7224 58.425C43.228 58.5417 43.7437 58.6095 44.2624 58.6275C44.5399 58.6425 44.8249 58.6525 45.1124 58.6475C45.2549 58.6475 45.3999 58.6475 45.5449 58.6475C45.6899 58.6475 45.8474 58.6475 45.9474 58.6475L46.3024 58.6725C46.6011 58.6917 46.8855 58.8074 47.1126 59.0023C47.3398 59.1972 47.4974 59.4607 47.5618 59.7531C47.6261 60.0454 47.5937 60.3507 47.4693 60.623C47.345 60.8952 47.1355 61.1197 46.8724 61.2625C46.6724 61.3725 46.5299 61.455 46.3599 61.5425C46.1899 61.63 46.0324 61.705 45.8599 61.7925C45.5249 61.9375 45.1824 62.075 44.8274 62.19C44.4671 62.308 44.1008 62.4065 43.7299 62.485C43.3392 62.5629 42.9444 62.6179 42.5474 62.65C42.1185 62.6806 41.6877 62.6739 41.2599 62.63C40.7844 62.5901 40.3158 62.491 39.8649 62.335C39.359 62.1664 38.8787 61.9292 38.4374 61.63C37.972 61.3076 37.5574 60.9175 37.2074 60.4725C37.0564 60.2848 36.9442 60.0689 36.8774 59.8375L36.7999 59.56C36.5249 58.575 36.2424 57.5925 35.9824 56.6025L35.5849 55.1225L35.2074 53.6375C34.9574 52.6375 34.7074 51.6525 34.4799 50.6575C34.2524 49.6625 34.0249 48.6575 33.8274 47.6575C33.6859 46.9419 33.8292 46.1994 34.2268 45.5879C34.6244 44.9764 35.245 44.5441 35.9565 44.3832C36.6679 44.2223 37.4141 44.3454 38.0362 44.7262C38.6583 45.1071 39.1072 45.7157 39.2874 46.4225L39.2899 46.415Z" fill="#FFC3BD"/>
<path d="M45.7725 58.895L45.825 60.51C46.4775 62.0775 48.3475 60.8875 48.3475 60.8875L49.4775 60.68C49.6742 60.6299 49.8469 60.5118 49.9649 60.3466C50.083 60.1815 50.1388 59.9799 50.1225 59.7775L50.0925 58.6475C50.1 58.4142 50.0162 58.1873 49.8588 58.0149C49.7014 57.8426 49.4829 57.7386 49.25 57.725L48.25 57.745C47.9581 57.75 47.6721 57.8273 47.4175 57.97L45.7725 58.895Z" fill="#FFC3BD"/>
<path d="M37.3749 43.63C39.6749 44.84 41.1774 49.11 41.1774 49.11C40.6924 51.11 38.7374 54.7575 36.9274 54.735C36.9274 54.735 34.2699 51.3075 33.9824 48.8275C33.6324 45.83 32.7249 41.185 37.3749 43.63Z" fill="#263238"/>
<path d="M35.25 42.92C31.7005 42.5825 28.1245 42.6395 24.5875 43.09C22.5425 43.3775 21.0875 44.65 21.3375 48.84C21.8375 57.34 21.0625 63.965 22.1425 67.02C22.1425 67.02 37.8725 71.52 42.3575 67.2075C43.4475 56.98 39.7775 48.49 38.1075 44.9575C37.846 44.4013 37.4458 43.9217 36.9454 43.5649C36.4449 43.2081 35.8611 42.986 35.25 42.92Z" fill="#263238"/>
<path d="M34.0674 43.85C33.6599 43.45 33.2324 43.6825 33.0349 43.08C32.9478 42.607 33.0273 42.1185 33.2599 41.6975L28.4074 39.0775C28.5024 40.8625 28.5749 42.2725 27.7824 42.9825C27.5524 44.3125 30.0324 45.64 33.3349 45.66C35.4374 45.6725 34.6549 44.425 34.0674 43.85Z" fill="#FFC3BD"/>
<path opacity="0.2" d="M33.1874 41.8475L29.3574 40.89C30.3249 42.4125 32.0674 43.245 33.0049 42.8775C32.9781 42.5243 33.0409 42.17 33.1874 41.8475Z" fill="black"/>
<path d="M31.6024 33.1125C29.0674 32.55 26.8774 34.655 27.3674 36.95C27.8574 39.245 28.2449 40.795 29.8324 41.575C32.9874 43.13 34.5274 41.63 34.7849 39.2325C35.0174 37.0725 34.1749 33.68 31.6024 33.1125Z" fill="#FFC3BD"/>
<path opacity="0.2" d="M31.105 37.1875C30.8072 37.1129 30.4919 37.1587 30.2275 37.315C30.5256 37.3307 30.8238 37.2874 31.105 37.1875Z" fill="black"/>
<path opacity="0.2" d="M31.1226 37.4C30.9825 37.3934 30.8426 37.4178 30.713 37.4714C30.5834 37.525 30.4671 37.6064 30.3726 37.71C30.6421 37.6624 30.898 37.5566 31.1226 37.4Z" fill="black"/>
<path d="M27.6875 38.89C29.105 39.2075 29.6875 38.4975 29.6875 37.7025C29.6875 36.8575 28.89 35.43 28.015 35.1675C28.3275 33.2925 33.495 35.9175 33.0025 33.32C33.0025 33.32 32.8625 32.875 31.5275 32.625C30.1925 32.375 26.625 33.18 26.875 35.8475C27.125 38.515 27.6875 38.89 27.6875 38.89Z" fill="#263238"/>
<path d="M25.8823 34.625C26.2293 33.9288 26.3272 33.1347 26.1598 32.375C26.1598 32.375 27.7148 33.4025 25.8823 34.625Z" fill="#263238"/>
<path d="M32.4024 39.6025C32.5084 39.5945 32.6137 39.5786 32.7174 39.555C32.7254 39.5532 32.7331 39.5499 32.7398 39.5451C32.7466 39.5404 32.7523 39.5344 32.7568 39.5274C32.7612 39.5204 32.7642 39.5126 32.7656 39.5045C32.767 39.4964 32.7667 39.488 32.7649 39.48C32.7634 39.4718 32.7603 39.4639 32.7556 39.457C32.751 39.45 32.7449 39.4441 32.7379 39.4397C32.7308 39.4352 32.7229 39.4322 32.7146 39.431C32.7064 39.4298 32.6979 39.4303 32.6899 39.4325C32.4303 39.4958 32.1594 39.4976 31.899 39.4377C31.6386 39.3778 31.3957 39.2579 31.1899 39.0875C31.1841 39.0815 31.1771 39.0766 31.1693 39.0734C31.1616 39.0701 31.1533 39.0684 31.1449 39.0684C31.1365 39.0684 31.1282 39.0701 31.1204 39.0734C31.1127 39.0766 31.1057 39.0815 31.0999 39.0875C31.0883 39.0996 31.0818 39.1157 31.0818 39.1325C31.0818 39.1493 31.0883 39.1654 31.0999 39.1775C31.278 39.3311 31.4849 39.4478 31.7085 39.5207C31.9321 39.5937 32.1679 39.6215 32.4024 39.6025Z" fill="#263238"/>
<path d="M26.7899 39C26.9521 39.2199 27.1562 39.4056 27.3905 39.5463C27.6248 39.6871 27.8845 39.7801 28.1549 39.82C28.8824 39.92 29.1549 39.2475 28.8749 38.6125C28.6249 38.04 27.9449 37.3 27.2549 37.49C26.5649 37.68 26.3949 38.4525 26.7899 39Z" fill="#FFC3BD"/>
<path d="M31.5174 37.2125C31.5474 37.415 31.6774 37.565 31.8099 37.545C31.9424 37.525 32.0274 37.3425 31.9974 37.14C31.9674 36.9375 31.8399 36.79 31.7074 36.81C31.5749 36.83 31.4999 37 31.5174 37.2125Z" fill="#263238"/>
<path d="M33.8999 36.8925C33.9299 37.0975 34.0599 37.245 34.1924 37.225C34.3249 37.205 34.4099 37.025 34.3799 36.8225C34.3499 36.62 34.2224 36.47 34.0899 36.49C33.9574 36.51 33.8724 36.69 33.8999 36.8925Z" fill="#263238"/>
<path d="M33 37.16L33.115 38.875C33.115 38.875 33.6775 38.9725 33.9825 38.6475C33.7889 38.0752 33.4504 37.5627 33 37.16Z" fill="#ED847E"/>
<path d="M30.7323 36.75C30.7119 36.7556 30.6903 36.7555 30.6698 36.7498C30.6494 36.7441 30.6309 36.7329 30.6163 36.7175C30.6017 36.7022 30.5915 36.6831 30.5869 36.6624C30.5822 36.6417 30.5832 36.6202 30.5898 36.6C30.6374 36.4142 30.7283 36.2422 30.8552 36.0984C30.9822 35.9545 31.1414 35.8428 31.3198 35.7725C31.35 35.763 31.3827 35.7659 31.4108 35.7804C31.4389 35.7949 31.4601 35.8199 31.4698 35.85C31.4794 35.8805 31.4766 35.9135 31.4621 35.942C31.4476 35.9705 31.4226 35.9922 31.3923 36.0025C31.2514 36.06 31.1261 36.1499 31.0266 36.2651C30.9271 36.3802 30.8563 36.5173 30.8198 36.665C30.8142 36.6857 30.8031 36.7045 30.7877 36.7194C30.7723 36.7344 30.7532 36.7449 30.7323 36.75Z" fill="#263238"/>
<path d="M34.6824 35.9825C34.6627 35.9843 34.6428 35.9809 34.6248 35.9726C34.6068 35.9642 34.5913 35.9513 34.5799 35.935C34.4943 35.8108 34.3802 35.709 34.2471 35.6381C34.1139 35.5672 33.9658 35.5293 33.8149 35.5275C33.7818 35.5275 33.75 35.5143 33.7266 35.4909C33.7031 35.4674 33.6899 35.4357 33.6899 35.4025C33.6899 35.3694 33.7031 35.3376 33.7266 35.3141C33.75 35.2907 33.7818 35.2775 33.8149 35.2775C34.0054 35.276 34.1934 35.3207 34.3628 35.4078C34.5321 35.4949 34.6779 35.6217 34.7874 35.7775C34.7966 35.7903 34.8032 35.8048 34.8068 35.8201C34.8104 35.8355 34.8109 35.8514 34.8084 35.867C34.8058 35.8825 34.8002 35.8974 34.7919 35.9108C34.7836 35.9242 34.7727 35.9358 34.7599 35.945C34.7503 35.9563 34.7384 35.9654 34.7251 35.9719C34.7118 35.9783 34.6972 35.9819 34.6824 35.9825Z" fill="#263238"/>
<path d="M49.2499 52.3325C48.7265 52.3694 48.2217 52.5417 47.7849 52.8325L47.3324 47.0825C47.2954 46.6352 47.083 46.2207 46.7416 45.9294C46.4002 45.6381 45.9574 45.4936 45.5099 45.5275L28.7274 46.85C28.2804 46.8876 27.8663 47.1002 27.5751 47.4415C27.2839 47.7827 27.1392 48.2251 27.1724 48.6725L28.4974 65.455C28.5331 65.9028 28.7451 66.3181 29.0869 66.6096C29.4286 66.9012 29.8721 67.0452 30.3199 67.01L47.0999 65.685C47.5476 65.6486 47.9628 65.4365 48.2546 65.095C48.5464 64.7535 48.6912 64.3104 48.6574 63.8625L48.2024 58.125C48.6789 58.3483 49.2055 58.4431 49.7299 58.4C50.4832 58.2732 51.1616 57.8688 51.6315 57.2666C52.1013 56.6643 52.3285 55.9079 52.2683 55.1464C52.208 54.385 51.8647 53.6737 51.306 53.1528C50.7473 52.6319 50.0137 52.3393 49.2499 52.3325Z" fill="#8FC1FF"/>
<path d="M24.9149 50.0375L24.6649 50.4975L24.3774 51.0125C24.1924 51.3625 24.0024 51.7125 23.8299 52.0675C23.4833 52.7592 23.1729 53.4685 22.8999 54.1925C22.7674 54.5425 22.6499 54.89 22.5624 55.2325C22.4626 55.5604 22.3841 55.8944 22.3274 56.2325C22.2225 56.7762 22.2048 57.3332 22.2749 57.8825L21.6999 56.8825C21.9393 57.2108 22.2248 57.503 22.5474 57.75C22.9716 58.0885 23.4166 58.3999 23.8799 58.6825C24.3624 58.9925 24.8799 59.29 25.3999 59.5875L26.1949 60.03C26.4449 60.18 26.7449 60.33 26.9824 60.475L27.1024 60.5475C27.3678 60.7083 27.573 60.952 27.6863 61.2409C27.7996 61.5298 27.8148 61.8479 27.7296 62.1463C27.6443 62.4447 27.4633 62.7068 27.2145 62.8922C26.9657 63.0777 26.6628 63.1761 26.3524 63.1725C25.9724 63.1725 25.6474 63.1475 25.2974 63.12C24.9474 63.0925 24.6149 63.05 24.2749 62.995C23.5839 62.8912 22.9001 62.7443 22.2274 62.555C21.5155 62.3555 20.8215 62.0971 20.1524 61.7825C19.3615 61.4182 18.6347 60.9286 17.9999 60.3325C17.7715 60.1147 17.5999 59.8443 17.4999 59.545L17.4299 59.33C17.0385 58.1426 16.8922 56.8881 16.9999 55.6425C17.0849 54.5574 17.2929 53.4856 17.6199 52.4475C17.9245 51.4721 18.3022 50.5211 18.7499 49.6025C18.9674 49.1525 19.1899 48.7075 19.4399 48.275C19.5624 48.0575 19.6899 47.84 19.8199 47.625L20.0249 47.3L20.1324 47.135L20.2624 46.9425C20.6641 46.3348 21.2869 45.9077 21.9986 45.752C22.7102 45.5964 23.4545 45.7244 24.0731 46.109C24.6918 46.4935 25.1361 47.1043 25.3115 47.8113C25.4869 48.5183 25.3796 49.2659 25.0124 49.895L24.9149 50.0375Z" fill="#FFC3BD"/>
<path d="M22.9625 43.63C18.8175 45.845 17.2725 50.7925 17.2725 50.7925C18.0925 52.355 23.0375 54.0425 24.8975 53.5825C24.8975 53.5825 26.68 50.3325 27.0475 47.4275C27.3875 44.735 25.39 42.3325 22.9625 43.63Z" fill="#263238"/>
<path d="M25.8625 60.75L25.9475 62.365C26.6325 63.92 28.4776 62.6925 28.4776 62.6925L29.605 62.4625C29.8006 62.4086 29.9708 62.287 30.0852 62.1195C30.1996 61.952 30.251 61.7493 30.23 61.5475L30.18 60.42C30.1862 60.1853 30.1001 59.9575 29.9403 59.7855C29.7804 59.6135 29.5596 59.511 29.3251 59.5L28.3251 59.54C28.0327 59.5534 27.7484 59.6393 27.4975 59.79L25.8625 60.75Z" fill="#FFC3BD"/>
</svg>
