<svg width="125" height="125" viewBox="0 0 125 125" fill="none" xmlns="http://www.w3.org/2000/svg">
<path d="M125 95.6H0V95.6625H125V95.6Z" fill="#EBEBEB"/>
<path d="M112.475 99.6225H104.195V99.685H112.475V99.6225Z" fill="#EBEBEB"/>
<path d="M82.805 100.302H80.6325V100.365H82.805V100.302Z" fill="#EBEBEB"/>
<path d="M103.945 97.3025H99.1475V97.365H103.945V97.3025Z" fill="#EBEBEB"/>
<path d="M23.9125 97.7225H13.115V97.785H23.9125V97.7225Z" fill="#EBEBEB"/>
<path d="M27.7225 97.7225H26.14V97.785H27.7225V97.7225Z" fill="#EBEBEB"/>
<path d="M56.2875 98.7775H32.8675V98.84H56.2875V98.7775Z" fill="#EBEBEB"/>
<path d="M59.25 84.45H10.9775C10.5993 84.4493 10.2369 84.2986 9.96973 84.031C9.70256 83.7634 9.5525 83.4007 9.55251 83.0225V15.165C9.5558 14.789 9.7073 14.4295 9.97412 14.1646C10.2409 13.8996 10.6015 13.7506 10.9775 13.75H59.25C59.6286 13.75 59.9917 13.9004 60.2594 14.1681C60.5271 14.4358 60.6775 14.7989 60.6775 15.1775V83.0225C60.6775 83.4011 60.5271 83.7642 60.2594 84.0319C59.9917 84.2996 59.6286 84.45 59.25 84.45ZM10.9775 13.8C10.6159 13.8007 10.2694 13.9448 10.0139 14.2007C9.75847 14.4566 9.615 14.8034 9.61501 15.165V83.0225C9.615 83.3841 9.75847 83.7309 10.0139 83.9868C10.2694 84.2427 10.6159 84.3868 10.9775 84.3875H59.25C59.6118 84.3868 59.9586 84.2428 60.2145 83.987C60.4703 83.7311 60.6143 83.3843 60.615 83.0225V15.165C60.6143 14.8032 60.4703 14.4564 60.2145 14.2005C59.9586 13.9447 59.6118 13.8007 59.25 13.8H10.9775Z" fill="#EBEBEB"/>
<path d="M113.327 84.45H65.0525C64.6741 84.4493 64.3114 84.2987 64.0438 84.0312C63.7763 83.7636 63.6257 83.4009 63.625 83.0225V15.165C63.6289 14.7888 63.781 14.4293 64.0482 14.1644C64.3154 13.8995 64.6763 13.7506 65.0525 13.75H113.327C113.703 13.7513 114.063 13.9006 114.329 14.1654C114.596 14.4303 114.747 14.7894 114.75 15.165V83.0225C114.75 83.4002 114.6 83.7626 114.334 84.0301C114.067 84.2977 113.705 84.4487 113.327 84.45ZM65.0525 13.8C64.6907 13.8007 64.3439 13.9447 64.088 14.2005C63.8322 14.4564 63.6882 14.8032 63.6875 15.165V83.0225C63.6882 83.3843 63.8322 83.7311 64.088 83.987C64.3439 84.2428 64.6907 84.3868 65.0525 84.3875H113.327C113.689 84.3868 114.036 84.2428 114.292 83.987C114.548 83.7311 114.692 83.3843 114.692 83.0225V15.165C114.692 14.8032 114.548 14.4564 114.292 14.2005C114.036 13.9447 113.689 13.8007 113.327 13.8H65.0525Z" fill="#EBEBEB"/>
<path d="M70.0775 41.8925H14.0275C14.0275 41.8925 16.58 37.3925 21.445 37.3925C26.31 37.3925 21.7475 39.8925 25.5175 39.8925C29.2875 39.8925 33.1775 31.8075 45.1525 31.8075C57.1275 31.8075 47.22 37.8875 53.42 37.8875C59.62 37.8875 79.47 32.5 70.0775 41.8925Z" fill="#FAFAFA"/>
<path d="M112.538 49.095H84.5125C84.5125 49.095 85.79 46.845 88.2225 46.845C90.655 46.845 88.3725 48.095 90.2575 48.095C92.1425 48.095 94.0875 44.0525 100.075 44.0525C106.063 44.0525 101.11 47.0925 104.21 47.0925C107.31 47.0925 117.235 44.3975 112.538 49.095Z" fill="#FAFAFA"/>
<path d="M57.5675 25.065C59.9325 25.065 57.715 26.2775 59.5475 26.2775C61.38 26.2775 63.2775 22.3425 69.105 22.3425C74.8325 22.3425 70.51 25.69 73.225 25.805H73.3725C76.0925 25.805 78.9 19.9725 87.5375 19.9725C96.175 19.9725 89.0375 24.3575 93.5 24.3575C97.9625 24.3575 112.292 20.48 105.517 27.25H53.9575C53.9575 27.25 55.2 25.065 57.5675 25.065Z" fill="#FAFAFA"/>
<path d="M24.89 23.25C24.5054 23.096 24.1057 22.9829 23.6975 22.9125C23.2845 22.845 22.865 22.8257 22.4475 22.855C22.136 22.8803 21.8273 22.933 21.525 23.0125C21.3142 22.7625 21.0834 22.5301 20.835 22.3175C20.1822 21.7637 19.4133 21.3638 18.585 21.1475C18.1964 21.0393 17.7958 20.9796 17.3925 20.97C17.7786 21.0768 18.1504 21.2295 18.5 21.425C18.8498 21.6128 19.1791 21.8365 19.4825 22.0925C20.0862 22.6026 20.5702 23.2393 20.9 23.9575L21.1275 24.4575L21.56 24.19C22.1981 23.7908 22.9242 23.5539 23.675 23.5C24.0597 23.4726 24.4462 23.4877 24.8275 23.545C25.2201 23.6013 25.6045 23.7045 25.9725 23.8525C25.6366 23.6098 25.2733 23.4075 24.89 23.25Z" fill="#E0E0E0"/>
<path d="M32.6625 28.135C32.3407 28.0632 32.0122 28.0263 31.6825 28.025C31.3456 28.0251 31.0099 28.0654 30.6825 28.145C30.4412 28.2068 30.2061 28.2905 29.98 28.395C29.7814 28.2271 29.5699 28.0749 29.3475 27.94C29.0508 27.7635 28.7355 27.6202 28.4075 27.5125C28.0915 27.411 27.7654 27.3439 27.435 27.3125C27.1155 27.2795 26.7931 27.2854 26.475 27.33C26.7913 27.3605 27.1028 27.4293 27.4025 27.535C27.7024 27.6358 27.9906 27.7682 28.2625 27.93C28.8024 28.2533 29.2656 28.69 29.62 29.21L29.87 29.565L30.175 29.2975C30.6247 28.8985 31.1656 28.616 31.75 28.475C32.0491 28.4038 32.3551 28.3652 32.6625 28.36C32.9776 28.3525 33.2924 28.3835 33.6 28.4525C33.3012 28.3098 32.9865 28.2033 32.6625 28.135Z" fill="#E0E0E0"/>
<path d="M103.45 33.9125C102.997 34.0326 102.558 34.2002 102.14 34.4125C101.717 34.6365 101.321 34.9101 100.963 35.2275C100.698 35.4637 100.456 35.723 100.238 36.0025C99.8757 35.9206 99.5078 35.8688 99.1375 35.8475C98.1702 35.7951 97.2034 35.9591 96.3075 36.3275C95.8816 36.4984 95.4779 36.72 95.105 36.9875C95.5255 36.8179 95.9643 36.6979 96.4125 36.63C96.8587 36.5585 97.3112 36.5342 97.7625 36.5575C98.6585 36.6048 99.5332 36.848 100.325 37.27L100.865 37.555L101.073 37.015C101.377 36.2185 101.87 35.5081 102.51 34.945C102.84 34.6562 103.2 34.4047 103.585 34.195C103.98 33.9784 104.4 33.8105 104.835 33.695C104.366 33.7131 103.902 33.7861 103.45 33.9125Z" fill="#E0E0E0"/>
<path d="M62.4725 109.77C89.2431 109.77 110.945 106.687 110.945 102.885C110.945 99.0825 89.2431 96 62.4725 96C35.7019 96 14 99.0825 14 102.885C14 106.687 35.7019 109.77 62.4725 109.77Z" fill="#F5F5F5"/>
<path d="M34.6525 70.49H45.665V64.7825H34.6525V70.49Z" fill="#8FC1FF"/>
<path opacity="0.4" d="M34.6525 70.49H45.665V64.7825H34.6525V70.49Z" fill="#FAFAFA"/>
<path d="M34.6525 64.78H31.8225V70.4875H34.6525V64.78Z" fill="#8FC1FF"/>
<path opacity="0.4" d="M34.6525 64.78H31.8225V70.4875H34.6525V64.78Z" fill="#FAFAFA"/>
<path opacity="0.2" d="M34.6525 64.78H31.8225V70.4875H34.6525V64.78Z" fill="black"/>
<path opacity="0.2" d="M45.2025 70.2575H45.48V65.015H45.2025V70.2575Z" fill="black"/>
<path opacity="0.2" d="M44.59 70.2575H44.8675V65.015H44.59V70.2575Z" fill="black"/>
<path opacity="0.2" d="M43.9825 70.2575H44.26V65.015H43.9825V70.2575Z" fill="black"/>
<path opacity="0.2" d="M43.3725 70.2575H43.65V65.015H43.3725V70.2575Z" fill="black"/>
<path opacity="0.2" d="M42.7625 70.2575H43.04V65.015H42.7625V70.2575Z" fill="black"/>
<path opacity="0.2" d="M42.155 70.2575H42.4325V65.015H42.155V70.2575Z" fill="black"/>
<path opacity="0.2" d="M41.5425 70.2575H41.82V65.015H41.5425V70.2575Z" fill="black"/>
<path opacity="0.2" d="M40.935 70.2575H41.2125V65.015H40.935V70.2575Z" fill="black"/>
<path opacity="0.2" d="M40.325 70.2575H40.6025V65.015H40.325V70.2575Z" fill="black"/>
<path opacity="0.2" d="M39.715 70.2575H39.9925V65.015H39.715V70.2575Z" fill="black"/>
<path opacity="0.2" d="M39.1075 70.2575H39.385V65.015H39.1075V70.2575Z" fill="black"/>
<path opacity="0.2" d="M38.495 70.2575H38.7725V65.015H38.495V70.2575Z" fill="black"/>
<path opacity="0.2" d="M37.8875 70.2575H38.165V65.015H37.8875V70.2575Z" fill="black"/>
<path opacity="0.2" d="M37.2775 70.2575H37.555V65.015H37.2775V70.2575Z" fill="black"/>
<path opacity="0.2" d="M36.6675 70.2575H36.945V65.015H36.6675V70.2575Z" fill="black"/>
<path opacity="0.2" d="M36.06 70.2575H36.3375V65.015H36.06V70.2575Z" fill="black"/>
<path opacity="0.2" d="M35.4475 70.2575H35.725V65.015H35.4475V70.2575Z" fill="black"/>
<path opacity="0.2" d="M34.8375 70.2575H35.115V65.015H34.8375V70.2575Z" fill="black"/>
<path d="M21.6075 70.49H32.62V64.7825H21.6075V70.49Z" fill="#8FC1FF"/>
<path d="M21.6075 64.78H18.7775V70.4875H21.6075V64.78Z" fill="#8FC1FF"/>
<path opacity="0.2" d="M21.6075 64.78H18.7775V70.4875H21.6075V64.78Z" fill="black"/>
<path opacity="0.2" d="M32.155 70.2575H32.4325V65.015H32.155V70.2575Z" fill="black"/>
<path opacity="0.2" d="M31.545 70.2575H31.8225V65.015H31.545V70.2575Z" fill="black"/>
<path opacity="0.2" d="M30.9375 70.2575H31.215V65.015H30.9375V70.2575Z" fill="black"/>
<path opacity="0.2" d="M30.325 70.2575H30.6025V65.015H30.325V70.2575Z" fill="black"/>
<path opacity="0.2" d="M29.7175 70.2575H29.995V65.015H29.7175V70.2575Z" fill="black"/>
<path opacity="0.2" d="M29.1075 70.2575H29.385V65.015H29.1075V70.2575Z" fill="black"/>
<path opacity="0.2" d="M28.4975 70.2575H28.775V65.015H28.4975V70.2575Z" fill="black"/>
<path opacity="0.2" d="M27.89 70.2575H28.1675V65.015H27.89V70.2575Z" fill="black"/>
<path opacity="0.2" d="M27.2775 70.2575H27.555V65.015H27.2775V70.2575Z" fill="black"/>
<path opacity="0.2" d="M26.6675 70.2575H26.945V65.015H26.6675V70.2575Z" fill="black"/>
<path opacity="0.2" d="M26.06 70.2575H26.3375V65.015H26.06V70.2575Z" fill="black"/>
<path opacity="0.2" d="M25.45 70.2575H25.7275V65.015H25.45V70.2575Z" fill="black"/>
<path opacity="0.2" d="M24.8425 70.2575H25.12V65.015H24.8425V70.2575Z" fill="black"/>
<path opacity="0.2" d="M24.23 70.2575H24.5075V65.015H24.23V70.2575Z" fill="black"/>
<path opacity="0.2" d="M23.62 70.2575H23.8975V65.015H23.62V70.2575Z" fill="black"/>
<path opacity="0.2" d="M23.0125 70.2575H23.29V65.015H23.0125V70.2575Z" fill="black"/>
<path opacity="0.2" d="M22.4025 70.2575H22.68V65.015H22.4025V70.2575Z" fill="black"/>
<path opacity="0.2" d="M21.795 70.2575H22.0725V65.015H21.795V70.2575Z" fill="black"/>
<path d="M32.855 76.195H43.8675V70.4875H32.855V76.195Z" fill="#8FC1FF"/>
<path d="M32.855 70.4875H30.025V76.195H32.855V70.4875Z" fill="#8FC1FF"/>
<path opacity="0.2" d="M32.855 70.4875H30.025V76.195H32.855V70.4875Z" fill="black"/>
<path opacity="0.2" d="M43.4025 75.9625H43.68V70.72H43.4025V75.9625Z" fill="black"/>
<path opacity="0.2" d="M42.7925 75.9625H43.07V70.72H42.7925V75.9625Z" fill="black"/>
<path opacity="0.2" d="M42.1825 75.9625H42.46V70.72H42.1825V75.9625Z" fill="black"/>
<path opacity="0.2" d="M41.575 75.9625H41.8525V70.72H41.575V75.9625Z" fill="black"/>
<path opacity="0.2" d="M40.9625 75.9625H41.24V70.72H40.9625V75.9625Z" fill="black"/>
<path opacity="0.2" d="M40.355 75.9625H40.6325V70.72H40.355V75.9625Z" fill="black"/>
<path opacity="0.2" d="M39.745 75.9625H40.0225V70.72H39.745V75.9625Z" fill="black"/>
<path opacity="0.2" d="M39.135 75.9625H39.4125V70.72H39.135V75.9625Z" fill="black"/>
<path opacity="0.2" d="M38.5275 75.9625H38.805V70.72H38.5275V75.9625Z" fill="black"/>
<path opacity="0.2" d="M37.915 75.9625H38.1925V70.72H37.915V75.9625Z" fill="black"/>
<path opacity="0.2" d="M37.3075 75.9625H37.585V70.72H37.3075V75.9625Z" fill="black"/>
<path opacity="0.2" d="M36.6975 75.9625H36.975V70.72H36.6975V75.9625Z" fill="black"/>
<path opacity="0.2" d="M36.0875 75.9625H36.365V70.72H36.0875V75.9625Z" fill="black"/>
<path opacity="0.2" d="M35.48 75.9625H35.7575V70.72H35.48V75.9625Z" fill="black"/>
<path opacity="0.2" d="M34.8675 75.9625H35.145V70.72H34.8675V75.9625Z" fill="black"/>
<path opacity="0.2" d="M34.2575 75.9625H34.535V70.72H34.2575V75.9625Z" fill="black"/>
<path opacity="0.2" d="M33.65 75.9625H33.9275V70.72H33.65V75.9625Z" fill="black"/>
<path opacity="0.2" d="M33.04 75.9625H33.3175V70.72H33.04V75.9625Z" fill="black"/>
<path d="M20.615 76.195H31.6275V70.4875H20.615V76.195Z" fill="#8FC1FF"/>
<path opacity="0.4" d="M20.615 76.195H31.6275V70.4875H20.615V76.195Z" fill="#FAFAFA"/>
<path d="M20.615 70.4875H17.785V76.195H20.615V70.4875Z" fill="#8FC1FF"/>
<path opacity="0.4" d="M20.615 70.4875H17.785V76.195H20.615V70.4875Z" fill="#FAFAFA"/>
<path opacity="0.2" d="M20.615 70.4875H17.785V76.195H20.615V70.4875Z" fill="black"/>
<path opacity="0.2" d="M31.1625 75.9625H31.44V70.72H31.1625V75.9625Z" fill="black"/>
<path opacity="0.2" d="M30.5525 75.9625H30.83V70.72H30.5525V75.9625Z" fill="black"/>
<path opacity="0.2" d="M29.9425 75.9625H30.22V70.72H29.9425V75.9625Z" fill="black"/>
<path opacity="0.2" d="M29.335 75.9625H29.6125V70.72H29.335V75.9625Z" fill="black"/>
<path opacity="0.2" d="M28.7225 75.9625H29V70.72H28.7225V75.9625Z" fill="black"/>
<path opacity="0.2" d="M28.115 75.9625H28.3925V70.72H28.115V75.9625Z" fill="black"/>
<path opacity="0.2" d="M27.505 75.9625H27.7825V70.72H27.505V75.9625Z" fill="black"/>
<path opacity="0.2" d="M26.895 75.9625H27.1725V70.72H26.895V75.9625Z" fill="black"/>
<path opacity="0.2" d="M26.2875 75.9625H26.565V70.72H26.2875V75.9625Z" fill="black"/>
<path opacity="0.2" d="M25.675 75.9625H25.9525V70.72H25.675V75.9625Z" fill="black"/>
<path opacity="0.2" d="M25.0675 75.9625H25.345V70.72H25.0675V75.9625Z" fill="black"/>
<path opacity="0.2" d="M24.4575 75.9625H24.735V70.72H24.4575V75.9625Z" fill="black"/>
<path opacity="0.2" d="M23.8475 75.9625H24.125V70.72H23.8475V75.9625Z" fill="black"/>
<path opacity="0.2" d="M23.24 75.9625H23.5175V70.72H23.24V75.9625Z" fill="black"/>
<path opacity="0.2" d="M22.6275 75.9625H22.905V70.72H22.6275V75.9625Z" fill="black"/>
<path opacity="0.2" d="M22.0175 75.9625H22.295V70.72H22.0175V75.9625Z" fill="black"/>
<path opacity="0.2" d="M21.41 75.9625H21.6875V70.72H21.41V75.9625Z" fill="black"/>
<path opacity="0.2" d="M20.8 75.9625H21.0775V70.72H20.8V75.9625Z" fill="black"/>
<path d="M46.6525 44.6H41.4875V52.62H46.6525V44.6Z" fill="#8FC1FF"/>
<path d="M46.6525 45.415H41.4875V46.2425H46.6525V45.415Z" fill="white"/>
<path d="M46.6525 47.1975H41.4875V47.835H46.6525V47.1975Z" fill="white"/>
<path d="M36.8875 44.6H31.7225V52.62H36.8875V44.6Z" fill="#8FC1FF"/>
<path d="M36.8875 45.415H31.7225V46.2425H36.8875V45.415Z" fill="white"/>
<path d="M36.8875 47.1975H31.7225V47.835H36.8875V47.1975Z" fill="white"/>
<path d="M32.7875 55.9975H26.2425V76.195H32.7875V55.9975Z" fill="#E0E0E0"/>
<path opacity="0.7" d="M31.4025 58.755H26.97V59.19H31.4025V58.755Z" fill="white"/>
<path opacity="0.7" d="M31.4025 60.4425H26.97V60.8775H31.4025V60.4425Z" fill="white"/>
<path opacity="0.7" d="M31.4025 62.1275H26.97V62.5625H31.4025V62.1275Z" fill="white"/>
<path opacity="0.7" d="M31.4025 63.8125H26.97V64.2475H31.4025V63.8125Z" fill="white"/>
<path opacity="0.7" d="M31.4025 65.4975H26.97V65.9325H31.4025V65.4975Z" fill="white"/>
<path opacity="0.7" d="M31.4025 67.185H26.97V67.62H31.4025V67.185Z" fill="white"/>
<path opacity="0.7" d="M31.4025 68.87H26.97V69.305H31.4025V68.87Z" fill="white"/>
<path opacity="0.7" d="M31.4025 70.555H26.97V70.99H31.4025V70.555Z" fill="white"/>
<path d="M32.7875 76.1925H50.815V55.995H32.7875V76.1925Z" fill="#FAFAFA"/>
<g opacity="0.8">
<path opacity="0.2" d="M35.01 58.2175H34.77V59.2175H35.01V58.2175Z" fill="black"/>
<path opacity="0.2" d="M38.465 58.2175H38.225V59.2175H38.465V58.2175Z" fill="black"/>
<path opacity="0.2" d="M41.92 58.2175H41.68V59.2175H41.92V58.2175Z" fill="black"/>
<path opacity="0.2" d="M45.375 58.2175H45.135V59.2175H45.375V58.2175Z" fill="black"/>
<path opacity="0.2" d="M48.83 58.2175H48.59V59.2175H48.83V58.2175Z" fill="black"/>
<path opacity="0.2" d="M35.01 61.3825H34.77V62.3825H35.01V61.3825Z" fill="black"/>
<path opacity="0.2" d="M38.465 61.3825H38.225V62.3825H38.465V61.3825Z" fill="black"/>
<path opacity="0.2" d="M41.92 61.3825H41.68V62.3825H41.92V61.3825Z" fill="black"/>
<path opacity="0.2" d="M45.375 61.3825H45.135V62.3825H45.375V61.3825Z" fill="black"/>
<path opacity="0.2" d="M48.83 61.3825H48.59V62.3825H48.83V61.3825Z" fill="black"/>
<path opacity="0.2" d="M35.01 64.545H34.77V65.545H35.01V64.545Z" fill="black"/>
<path opacity="0.2" d="M38.465 64.545H38.225V65.545H38.465V64.545Z" fill="black"/>
<path opacity="0.2" d="M41.92 64.545H41.68V65.545H41.92V64.545Z" fill="black"/>
<path opacity="0.2" d="M45.375 64.545H45.135V65.545H45.375V64.545Z" fill="black"/>
<path opacity="0.2" d="M48.83 64.545H48.59V65.545H48.83V64.545Z" fill="black"/>
<path opacity="0.2" d="M35.01 67.71H34.77V68.71H35.01V67.71Z" fill="black"/>
<path opacity="0.2" d="M38.465 67.71H38.225V68.71H38.465V67.71Z" fill="black"/>
<path opacity="0.2" d="M41.92 67.71H41.68V68.71H41.92V67.71Z" fill="black"/>
<path opacity="0.2" d="M45.375 67.71H45.135V68.71H45.375V67.71Z" fill="black"/>
<path opacity="0.2" d="M48.83 67.71H48.59V68.71H48.83V67.71Z" fill="black"/>
<path opacity="0.2" d="M35.01 70.8725H34.77V71.8725H35.01V70.8725Z" fill="black"/>
<path opacity="0.2" d="M38.465 70.8725H38.225V71.8725H38.465V70.8725Z" fill="black"/>
<path opacity="0.2" d="M41.92 70.8725H41.68V71.8725H41.92V70.8725Z" fill="black"/>
<path opacity="0.2" d="M45.375 70.8725H45.135V71.8725H45.375V70.8725Z" fill="black"/>
<path opacity="0.2" d="M48.83 70.8725H48.59V71.8725H48.83V70.8725Z" fill="black"/>
<path opacity="0.2" d="M35.01 74.0375H34.77V75.0375H35.01V74.0375Z" fill="black"/>
<path opacity="0.2" d="M38.465 74.0375H38.225V75.0375H38.465V74.0375Z" fill="black"/>
<path opacity="0.2" d="M41.92 74.0375H41.68V75.0375H41.92V74.0375Z" fill="black"/>
<path opacity="0.2" d="M45.375 74.0375H45.135V75.0375H45.375V74.0375Z" fill="black"/>
<path opacity="0.2" d="M48.83 74.0375H48.59V75.0375H48.83V74.0375Z" fill="black"/>
</g>
<path d="M33.7925 51.47H28.3925V55.995H33.7925V51.47Z" fill="#E0E0E0"/>
<path d="M33.7925 55.9975H48.6625V51.4725H33.7925V55.9975Z" fill="#FAFAFA"/>
<g style="mix-blend-mode:multiply" opacity="0.1">
<path d="M28.395 52.3775H48.665V51.4725H28.395V52.3775Z" fill="black"/>
</g>
<path opacity="0.2" d="M35.6325 53.095H34.815V53.9125H35.6325V53.095Z" fill="black"/>
<path opacity="0.2" d="M36.8325 53.095H36.015V53.9125H36.8325V53.095Z" fill="black"/>
<path opacity="0.2" d="M38.035 53.095H37.2175V53.9125H38.035V53.095Z" fill="black"/>
<path opacity="0.2" d="M39.235 53.095H38.4175V53.9125H39.235V53.095Z" fill="black"/>
<path opacity="0.2" d="M40.435 53.095H39.6175V53.9125H40.435V53.095Z" fill="black"/>
<path opacity="0.2" d="M41.635 53.095H40.8175V53.9125H41.635V53.095Z" fill="black"/>
<path opacity="0.2" d="M42.8375 53.095H42.02V53.9125H42.8375V53.095Z" fill="black"/>
<path opacity="0.2" d="M44.0375 53.095H43.22V53.9125H44.0375V53.095Z" fill="black"/>
<path opacity="0.2" d="M45.2375 53.095H44.42V53.9125H45.2375V53.095Z" fill="black"/>
<path opacity="0.2" d="M46.4375 53.095H45.62V53.9125H46.4375V53.095Z" fill="black"/>
<path opacity="0.2" d="M47.64 53.095H46.8225V53.9125H47.64V53.095Z" fill="black"/>
<path opacity="0.2" d="M35.6325 54.2825H34.815V55.1H35.6325V54.2825Z" fill="black"/>
<path opacity="0.2" d="M36.8325 54.2825H36.015V55.1H36.8325V54.2825Z" fill="black"/>
<path opacity="0.2" d="M38.035 54.2825H37.2175V55.1H38.035V54.2825Z" fill="black"/>
<path opacity="0.2" d="M39.235 54.2825H38.4175V55.1H39.235V54.2825Z" fill="black"/>
<path opacity="0.2" d="M40.435 54.2825H39.6175V55.1H40.435V54.2825Z" fill="black"/>
<path opacity="0.2" d="M41.635 54.2825H40.8175V55.1H41.635V54.2825Z" fill="black"/>
<path opacity="0.2" d="M42.8375 54.2825H42.02V55.1H42.8375V54.2825Z" fill="black"/>
<path opacity="0.2" d="M44.0375 54.2825H43.22V55.1H44.0375V54.2825Z" fill="black"/>
<path opacity="0.2" d="M45.2375 54.2825H44.42V55.1H45.2375V54.2825Z" fill="black"/>
<path opacity="0.2" d="M46.4375 54.2825H45.62V55.1H46.4375V54.2825Z" fill="black"/>
<path opacity="0.2" d="M47.64 54.2825H46.8225V55.1H47.64V54.2825Z" fill="black"/>
<path d="M32.905 48.95H25.385L26.495 51.47H32.905V48.95Z" fill="#E0E0E0"/>
<path d="M32.905 48.95H51.67L50.56 51.47H32.905V48.95Z" fill="#FAFAFA"/>
<path d="M66.7875 76.195H81.515V70.4875H66.7875V76.195Z" fill="#8FC1FF"/>
<path opacity="0.4" d="M66.7875 76.195H81.515V70.4875H66.7875V76.195Z" fill="#FAFAFA"/>
<path d="M66.7875 70.4875H63.005V76.195H66.7875V70.4875Z" fill="#8FC1FF"/>
<path opacity="0.4" d="M66.7875 70.4875H63.005V76.195H66.7875V70.4875Z" fill="#FAFAFA"/>
<path opacity="0.2" d="M66.7875 70.4875H63.005V76.195H66.7875V70.4875Z" fill="black"/>
<path opacity="0.2" d="M80.895 75.9625H81.265V70.72H80.895V75.9625Z" fill="black"/>
<path opacity="0.2" d="M80.08 75.9625H80.45V70.72H80.08V75.9625Z" fill="black"/>
<path opacity="0.2" d="M79.265 75.9625H79.635V70.72H79.265V75.9625Z" fill="black"/>
<path opacity="0.2" d="M78.45 75.9625H78.82V70.72H78.45V75.9625Z" fill="black"/>
<path opacity="0.2" d="M77.635 75.9625H78.005V70.72H77.635V75.9625Z" fill="black"/>
<path opacity="0.2" d="M76.82 75.9625H77.19V70.72H76.82V75.9625Z" fill="black"/>
<path opacity="0.2" d="M76.005 75.9625H76.375V70.72H76.005V75.9625Z" fill="black"/>
<path opacity="0.2" d="M75.19 75.9625H75.56V70.72H75.19V75.9625Z" fill="black"/>
<path opacity="0.2" d="M74.375 75.9625H74.745V70.72H74.375V75.9625Z" fill="black"/>
<path opacity="0.2" d="M73.56 75.9625H73.93V70.72H73.56V75.9625Z" fill="black"/>
<path opacity="0.2" d="M72.745 75.9625H73.115V70.72H72.745V75.9625Z" fill="black"/>
<path opacity="0.2" d="M71.93 75.9625H72.3V70.72H71.93V75.9625Z" fill="black"/>
<path opacity="0.2" d="M71.115 75.9625H71.485V70.72H71.115V75.9625Z" fill="black"/>
<path opacity="0.2" d="M70.3 75.9625H70.67V70.72H70.3V75.9625Z" fill="black"/>
<path opacity="0.2" d="M69.485 75.9625H69.855V70.72H69.485V75.9625Z" fill="black"/>
<path opacity="0.2" d="M68.67 75.9625H69.04V70.72H68.67V75.9625Z" fill="black"/>
<path opacity="0.2" d="M67.855 75.9625H68.225V70.72H67.855V75.9625Z" fill="black"/>
<path opacity="0.2" d="M67.04 75.9625H67.41V70.72H67.04V75.9625Z" fill="black"/>
<path d="M49.3425 76.195H64.07V70.4875H49.3425V76.195Z" fill="#8FC1FF"/>
<path d="M49.3425 70.4875H45.56V76.195H49.3425V70.4875Z" fill="#8FC1FF"/>
<path opacity="0.2" d="M49.3425 70.4875H45.56V76.195H49.3425V70.4875Z" fill="black"/>
<path opacity="0.2" d="M63.45 75.9625H63.82V70.72H63.45V75.9625Z" fill="black"/>
<path opacity="0.2" d="M62.635 75.9625H63.005V70.72H62.635V75.9625Z" fill="black"/>
<path opacity="0.2" d="M61.82 75.9625H62.19V70.72H61.82V75.9625Z" fill="black"/>
<path opacity="0.2" d="M61.005 75.9625H61.375V70.72H61.005V75.9625Z" fill="black"/>
<path opacity="0.2" d="M60.19 75.9625H60.56V70.72H60.19V75.9625Z" fill="black"/>
<path opacity="0.2" d="M59.375 75.9625H59.745V70.72H59.375V75.9625Z" fill="black"/>
<path opacity="0.2" d="M58.56 75.9625H58.93V70.72H58.56V75.9625Z" fill="black"/>
<path opacity="0.2" d="M57.745 75.9625H58.115V70.72H57.745V75.9625Z" fill="black"/>
<path opacity="0.2" d="M56.93 75.9625H57.3V70.72H56.93V75.9625Z" fill="black"/>
<path opacity="0.2" d="M56.115 75.9625H56.485V70.72H56.115V75.9625Z" fill="black"/>
<path opacity="0.2" d="M55.3 75.9625H55.67V70.72H55.3V75.9625Z" fill="black"/>
<path opacity="0.2" d="M54.485 75.9625H54.855V70.72H54.485V75.9625Z" fill="black"/>
<path opacity="0.2" d="M53.67 75.9625H54.04V70.72H53.67V75.9625Z" fill="black"/>
<path opacity="0.2" d="M52.855 75.9625H53.225V70.72H52.855V75.9625Z" fill="black"/>
<path opacity="0.2" d="M52.04 75.9625H52.41V70.72H52.04V75.9625Z" fill="black"/>
<path opacity="0.2" d="M51.225 75.9625H51.595V70.72H51.225V75.9625Z" fill="black"/>
<path opacity="0.2" d="M50.41 75.9625H50.78V70.72H50.41V75.9625Z" fill="black"/>
<path opacity="0.2" d="M49.595 75.9625H49.965V70.72H49.595V75.9625Z" fill="black"/>
<path d="M64.385 70.49H79.1125V64.7825H64.385V70.49Z" fill="#8FC1FF"/>
<path d="M64.3825 64.78H60.6V70.4875H64.3825V64.78Z" fill="#8FC1FF"/>
<path opacity="0.2" d="M64.3825 64.78H60.6V70.4875H64.3825V64.78Z" fill="black"/>
<path opacity="0.2" d="M78.49 70.2575H78.86V65.015H78.49V70.2575Z" fill="black"/>
<path opacity="0.2" d="M77.675 70.2575H78.045V65.015H77.675V70.2575Z" fill="black"/>
<path opacity="0.2" d="M76.86 70.2575H77.23V65.015H76.86V70.2575Z" fill="black"/>
<path opacity="0.2" d="M76.045 70.2575H76.415V65.015H76.045V70.2575Z" fill="black"/>
<path opacity="0.2" d="M75.23 70.2575H75.6V65.015H75.23V70.2575Z" fill="black"/>
<path opacity="0.2" d="M74.415 70.2575H74.785V65.015H74.415V70.2575Z" fill="black"/>
<path opacity="0.2" d="M73.6 70.2575H73.97V65.015H73.6V70.2575Z" fill="black"/>
<path opacity="0.2" d="M72.785 70.2575H73.155V65.015H72.785V70.2575Z" fill="black"/>
<path opacity="0.2" d="M71.97 70.2575H72.34V65.015H71.97V70.2575Z" fill="black"/>
<path opacity="0.2" d="M71.155 70.2575H71.525V65.015H71.155V70.2575Z" fill="black"/>
<path opacity="0.2" d="M70.34 70.2575H70.71V65.015H70.34V70.2575Z" fill="black"/>
<path opacity="0.2" d="M69.525 70.2575H69.895V65.015H69.525V70.2575Z" fill="black"/>
<path opacity="0.2" d="M68.7075 70.2575H69.0775V65.015H68.7075V70.2575Z" fill="black"/>
<path opacity="0.2" d="M67.8925 70.2575H68.2625V65.015H67.8925V70.2575Z" fill="black"/>
<path opacity="0.2" d="M67.0775 70.2575H67.4475V65.015H67.0775V70.2575Z" fill="black"/>
<path opacity="0.2" d="M66.2625 70.2575H66.6325V65.015H66.2625V70.2575Z" fill="black"/>
<path opacity="0.2" d="M65.4475 70.2575H65.8175V65.015H65.4475V70.2575Z" fill="black"/>
<path opacity="0.2" d="M64.6325 70.2575H65.0025V65.015H64.6325V70.2575Z" fill="black"/>
<path d="M48.015 70.49H62.7425V64.7825H48.015V70.49Z" fill="#8FC1FF"/>
<path opacity="0.4" d="M48.015 70.49H62.7425V64.7825H48.015V70.49Z" fill="#FAFAFA"/>
<path d="M48.015 64.78H44.2325V70.4875H48.015V64.78Z" fill="#8FC1FF"/>
<path opacity="0.4" d="M48.015 64.78H44.2325V70.4875H48.015V64.78Z" fill="#FAFAFA"/>
<path opacity="0.2" d="M48.015 64.78H44.2325V70.4875H48.015V64.78Z" fill="black"/>
<path opacity="0.2" d="M62.1225 70.2575H62.4925V65.015H62.1225V70.2575Z" fill="black"/>
<path opacity="0.2" d="M61.3075 70.2575H61.6775V65.015H61.3075V70.2575Z" fill="black"/>
<path opacity="0.2" d="M60.4925 70.2575H60.8625V65.015H60.4925V70.2575Z" fill="black"/>
<path opacity="0.2" d="M59.6775 70.2575H60.0475V65.015H59.6775V70.2575Z" fill="black"/>
<path opacity="0.2" d="M58.8625 70.2575H59.2325V65.015H58.8625V70.2575Z" fill="black"/>
<path opacity="0.2" d="M58.0475 70.2575H58.4175V65.015H58.0475V70.2575Z" fill="black"/>
<path opacity="0.2" d="M57.2325 70.2575H57.6025V65.015H57.2325V70.2575Z" fill="black"/>
<path opacity="0.2" d="M56.4175 70.2575H56.7875V65.015H56.4175V70.2575Z" fill="black"/>
<path opacity="0.2" d="M55.6025 70.2575H55.9725V65.015H55.6025V70.2575Z" fill="black"/>
<path opacity="0.2" d="M54.7875 70.2575H55.1575V65.015H54.7875V70.2575Z" fill="black"/>
<path opacity="0.2" d="M53.9725 70.2575H54.3425V65.015H53.9725V70.2575Z" fill="black"/>
<path opacity="0.2" d="M53.1575 70.2575H53.5275V65.015H53.1575V70.2575Z" fill="black"/>
<path opacity="0.2" d="M52.3425 70.2575H52.7125V65.015H52.3425V70.2575Z" fill="black"/>
<path opacity="0.2" d="M51.5275 70.2575H51.8975V65.015H51.5275V70.2575Z" fill="black"/>
<path opacity="0.2" d="M50.7125 70.2575H51.0825V65.015H50.7125V70.2575Z" fill="black"/>
<path opacity="0.2" d="M49.8975 70.2575H50.2675V65.015H49.8975V70.2575Z" fill="black"/>
<path opacity="0.2" d="M49.0825 70.2575H49.4525V65.015H49.0825V70.2575Z" fill="black"/>
<path opacity="0.2" d="M48.2675 70.2575H48.6375V65.015H48.2675V70.2575Z" fill="black"/>
<path d="M62.0175 71.7825H19.96C19.9314 71.7779 19.9022 71.7791 19.874 71.7859C19.8459 71.7928 19.8194 71.8052 19.7961 71.8224C19.7728 71.8397 19.7532 71.8614 19.7384 71.8863C19.7236 71.9112 19.714 71.9388 19.71 71.9675V76.315C19.7221 76.3588 19.7482 76.3974 19.7843 76.4248C19.8205 76.4523 19.8646 76.4672 19.91 76.4672C19.9554 76.4672 19.9995 76.4523 20.0357 76.4248C20.0718 76.3974 20.0979 76.3588 20.11 76.315V72.0925H24.4V76.315C24.4121 76.3588 24.4382 76.3974 24.4743 76.4248C24.5105 76.4523 24.5546 76.4672 24.6 76.4672C24.6454 76.4672 24.6896 76.4523 24.7257 76.4248C24.7618 76.3974 24.7879 76.3588 24.8 76.315V72.0925H29.0775V76.315C29.0896 76.3588 29.1157 76.3974 29.1518 76.4248C29.188 76.4523 29.2321 76.4672 29.2775 76.4672C29.3229 76.4672 29.3671 76.4523 29.4032 76.4248C29.4393 76.3974 29.4654 76.3588 29.4775 76.315V72.0925H33.75V76.315C33.7621 76.3588 33.7882 76.3974 33.8243 76.4248C33.8605 76.4523 33.9046 76.4672 33.95 76.4672C33.9954 76.4672 34.0396 76.4523 34.0757 76.4248C34.1118 76.3974 34.1379 76.3588 34.15 76.315V72.0925H38.425V76.315C38.4363 76.3599 38.4622 76.3997 38.4986 76.4281C38.5351 76.4565 38.58 76.472 38.6263 76.472C38.6725 76.472 38.7174 76.4565 38.7539 76.4281C38.7903 76.3997 38.8162 76.3599 38.8275 76.315V72.0925H43.1025V76.315C43.1146 76.3588 43.1407 76.3974 43.1768 76.4248C43.213 76.4523 43.2571 76.4672 43.3025 76.4672C43.3479 76.4672 43.3921 76.4523 43.4282 76.4248C43.4643 76.3974 43.4904 76.3588 43.5025 76.315V72.0925H47.78V76.315C47.7921 76.3588 47.8182 76.3974 47.8543 76.4248C47.8905 76.4523 47.9346 76.4672 47.98 76.4672C48.0254 76.4672 48.0695 76.4523 48.1057 76.4248C48.1418 76.3974 48.1679 76.3588 48.18 76.315V72.0925H52.4575V76.315C52.4696 76.3588 52.4957 76.3974 52.5318 76.4248C52.568 76.4523 52.6121 76.4672 52.6575 76.4672C52.7029 76.4672 52.7471 76.4523 52.7832 76.4248C52.8193 76.3974 52.8454 76.3588 52.8575 76.315V72.0925H57.135V76.315C57.1471 76.3588 57.1732 76.3974 57.2093 76.4248C57.2455 76.4523 57.2896 76.4672 57.335 76.4672C57.3804 76.4672 57.4245 76.4523 57.4607 76.4248C57.4968 76.3974 57.5229 76.3588 57.535 76.315V72.0925H61.81V76.315C61.8221 76.3588 61.8482 76.3974 61.8843 76.4248C61.9205 76.4523 61.9646 76.4672 62.01 76.4672C62.0554 76.4672 62.0996 76.4523 62.1357 76.4248C62.1718 76.3974 62.1979 76.3588 62.21 76.315V71.9375C62.2032 71.8922 62.1796 71.8512 62.144 71.8225C62.1083 71.7938 62.0632 71.7795 62.0175 71.7825Z" fill="#8FC1FF"/>
<path opacity="0.6" d="M62.0175 71.7825H19.96C19.9314 71.7779 19.9022 71.7791 19.874 71.7859C19.8459 71.7928 19.8194 71.8052 19.7961 71.8224C19.7728 71.8397 19.7532 71.8614 19.7384 71.8863C19.7236 71.9112 19.714 71.9388 19.71 71.9675V76.315C19.7221 76.3588 19.7482 76.3974 19.7843 76.4248C19.8205 76.4523 19.8646 76.4672 19.91 76.4672C19.9554 76.4672 19.9995 76.4523 20.0357 76.4248C20.0718 76.3974 20.0979 76.3588 20.11 76.315V72.0925H24.4V76.315C24.4121 76.3588 24.4382 76.3974 24.4743 76.4248C24.5105 76.4523 24.5546 76.4672 24.6 76.4672C24.6454 76.4672 24.6896 76.4523 24.7257 76.4248C24.7618 76.3974 24.7879 76.3588 24.8 76.315V72.0925H29.0775V76.315C29.0896 76.3588 29.1157 76.3974 29.1518 76.4248C29.188 76.4523 29.2321 76.4672 29.2775 76.4672C29.3229 76.4672 29.3671 76.4523 29.4032 76.4248C29.4393 76.3974 29.4654 76.3588 29.4775 76.315V72.0925H33.75V76.315C33.7621 76.3588 33.7882 76.3974 33.8243 76.4248C33.8605 76.4523 33.9046 76.4672 33.95 76.4672C33.9954 76.4672 34.0396 76.4523 34.0757 76.4248C34.1118 76.3974 34.1379 76.3588 34.15 76.315V72.0925H38.425V76.315C38.4363 76.3599 38.4622 76.3997 38.4986 76.4281C38.5351 76.4565 38.58 76.472 38.6263 76.472C38.6725 76.472 38.7174 76.4565 38.7539 76.4281C38.7903 76.3997 38.8162 76.3599 38.8275 76.315V72.0925H43.1025V76.315C43.1146 76.3588 43.1407 76.3974 43.1768 76.4248C43.213 76.4523 43.2571 76.4672 43.3025 76.4672C43.3479 76.4672 43.3921 76.4523 43.4282 76.4248C43.4643 76.3974 43.4904 76.3588 43.5025 76.315V72.0925H47.78V76.315C47.7921 76.3588 47.8182 76.3974 47.8543 76.4248C47.8905 76.4523 47.9346 76.4672 47.98 76.4672C48.0254 76.4672 48.0695 76.4523 48.1057 76.4248C48.1418 76.3974 48.1679 76.3588 48.18 76.315V72.0925H52.4575V76.315C52.4696 76.3588 52.4957 76.3974 52.5318 76.4248C52.568 76.4523 52.6121 76.4672 52.6575 76.4672C52.7029 76.4672 52.7471 76.4523 52.7832 76.4248C52.8193 76.3974 52.8454 76.3588 52.8575 76.315V72.0925H57.135V76.315C57.1471 76.3588 57.1732 76.3974 57.2093 76.4248C57.2455 76.4523 57.2896 76.4672 57.335 76.4672C57.3804 76.4672 57.4245 76.4523 57.4607 76.4248C57.4968 76.3974 57.5229 76.3588 57.535 76.315V72.0925H61.81V76.315C61.8221 76.3588 61.8482 76.3974 61.8843 76.4248C61.9205 76.4523 61.9646 76.4672 62.01 76.4672C62.0554 76.4672 62.0996 76.4523 62.1357 76.4248C62.1718 76.3974 62.1979 76.3588 62.21 76.315V71.9375C62.2032 71.8922 62.1796 71.8512 62.144 71.8225C62.1083 71.7938 62.0632 71.7795 62.0175 71.7825Z" fill="#FAFAFA"/>
<path d="M71.2 76.195C72.0465 76.1949 72.8666 75.9006 73.52 75.3625L81.3 68.955C81.9541 68.4163 82.7752 68.122 83.6225 68.1225H116.872C116.971 68.123 117.069 68.1449 117.159 68.1868C117.248 68.2287 117.327 68.2896 117.391 68.3652C117.455 68.4408 117.501 68.5293 117.528 68.6247C117.554 68.7201 117.559 68.82 117.543 68.9175C116.53 75.1125 114.64 79.19 112.45 82.77C112.107 83.3325 111.757 83.8825 111.402 84.4275L111.05 84.96C110.68 85.515 110.3 86.065 109.935 86.6175C108.466 88.7131 107.106 90.8826 105.86 93.1175C104.558 95.5221 103.49 98.0462 102.67 100.655C102.353 101.645 101.73 102.508 100.891 103.12C100.051 103.732 99.0389 104.061 98 104.06H24.1775C23.0474 104.061 21.9521 103.67 21.0778 102.954C20.2036 102.237 19.6045 101.241 19.3825 100.132L17.9725 93.105L16.6725 86.6175L16.34 84.96L16.2325 84.4275L15.9025 82.77L14.75 77C14.7304 76.9016 14.7329 76.8 14.7573 76.7026C14.7816 76.6053 14.8272 76.5145 14.8908 76.4368C14.9543 76.3591 15.0343 76.2965 15.1249 76.2534C15.2156 76.2103 15.3146 76.1878 15.415 76.1875L71.2 76.195ZM106.75 70.9225C106.82 70.994 106.904 71.0507 106.996 71.0893C107.088 71.128 107.187 71.1478 107.287 71.1475H113.628C113.83 71.1475 114.025 71.0669 114.168 70.9234C114.312 70.78 114.393 70.5854 114.393 70.3825C114.393 70.1796 114.312 69.985 114.168 69.8416C114.025 69.6981 113.83 69.6175 113.628 69.6175H107.275C107.072 69.6182 106.878 69.699 106.735 69.8423C106.591 69.9856 106.511 70.1798 106.51 70.3825C106.511 70.4841 106.533 70.5843 106.575 70.6771C106.616 70.77 106.676 70.8534 106.75 70.9225ZM93.3325 69.8425C93.1894 69.6989 92.9952 69.618 92.7925 69.6175H86.44C86.2884 69.6167 86.1401 69.661 86.0138 69.7449C85.8876 69.8288 85.7892 69.9484 85.7312 70.0884C85.6733 70.2285 85.6584 70.3826 85.6885 70.5312C85.7185 70.6798 85.7922 70.816 85.9 70.9225C85.9703 70.9943 86.0544 71.0512 86.1472 71.0898C86.2399 71.1285 86.3395 71.1481 86.44 71.1475H92.78C92.9316 71.1483 93.0799 71.104 93.2062 71.0201C93.3324 70.9362 93.4308 70.8166 93.4888 70.6766C93.5467 70.5365 93.5616 70.3824 93.5315 70.2338C93.5015 70.0852 93.4278 69.949 93.32 69.8425H93.3325ZM103.75 69.8425C103.68 69.7707 103.596 69.7138 103.503 69.6752C103.41 69.6365 103.31 69.6169 103.21 69.6175H96.8575C96.7059 69.6167 96.5576 69.661 96.4313 69.7449C96.3051 69.8288 96.2067 69.9484 96.1487 70.0884C96.0908 70.2285 96.0759 70.3826 96.1059 70.5312C96.136 70.6798 96.2097 70.816 96.3175 70.9225C96.3878 70.9943 96.4719 71.0512 96.5647 71.0898C96.6574 71.1285 96.757 71.1481 96.8575 71.1475H103.198C103.349 71.1483 103.497 71.104 103.624 71.0201C103.75 70.9362 103.848 70.8166 103.906 70.6766C103.964 70.5365 103.979 70.3824 103.949 70.2338C103.919 70.0852 103.845 69.949 103.738 69.8425H103.75Z" fill="#8FC1FF"/>
<path opacity="0.3" d="M16.2325 84.4275L16.34 84.96L16.6725 86.6175H109.938C110.312 86.065 110.687 85.515 111.052 84.96L111.405 84.4275H16.2325Z" fill="black"/>
<path opacity="0.3" d="M74.4525 82.56H85.02C85.9796 82.56 86.7575 81.7821 86.7575 80.8225V80.82C86.7575 79.8604 85.9796 79.0825 85.02 79.0825H74.4525C73.4929 79.0825 72.715 79.8604 72.715 80.82V80.8225C72.715 81.7821 73.4929 82.56 74.4525 82.56Z" fill="black"/>
<path opacity="0.3" d="M57.1375 82.56H67.705C68.6646 82.56 69.4425 81.7821 69.4425 80.8225V80.82C69.4425 79.8604 68.6646 79.0825 67.705 79.0825H57.1375C56.1779 79.0825 55.4 79.8604 55.4 80.82V80.8225C55.4 81.7821 56.1779 82.56 57.1375 82.56Z" fill="black"/>
<path opacity="0.3" d="M91.765 82.56H102.333C103.292 82.56 104.07 81.7821 104.07 80.8225V80.82C104.07 79.8604 103.292 79.0825 102.333 79.0825H91.765C90.8054 79.0825 90.0275 79.8604 90.0275 80.82V80.8225C90.0275 81.7821 90.8054 82.56 91.765 82.56Z" fill="black"/>
<path opacity="0.3" d="M102.673 100.645C102.358 101.637 101.735 102.502 100.895 103.117C100.054 103.731 99.0406 104.061 98 104.06H24.1775C23.0474 104.061 21.9521 103.67 21.0778 102.954C20.2036 102.237 19.6045 101.241 19.3825 100.133L17.9725 93.105H105.863C104.561 95.5107 103.493 98.0356 102.673 100.645Z" fill="black"/>
</svg>
