<svg width="125" height="125" viewBox="0 0 125 125" fill="none" xmlns="http://www.w3.org/2000/svg">
<path d="M119.96 89.6925L117.948 60.0175L115.41 57.1575L111.888 43.7175L108.888 40.86L108.37 35.885L105.615 33.705L104.265 23.655L102.03 24.4L101.425 28.585L98.97 29.51L96.0875 39.3925L92.49 41.405L89.5225 51.0225L85.6225 53.6475L73.89 90.075L119.96 89.6925Z" fill="#E0E0E0"/>
<path d="M118.915 74.29L113.152 70.05L110.618 60.865L107.448 60.335L105.33 52.6725L102.963 53.2025L101.01 57.1575L97.3175 57.87L94.235 48.3675L91.4175 48.62L89.335 42.5575L87.6275 44.425L86.3075 48.0925L83.4 49.15L81.2 53.97L76.795 54.7825L67.875 90.075L119.96 89.6925L118.915 74.29Z" fill="#F0F0F0"/>
<path d="M21.8825 113.772C-0.552475 100.822 -0.552475 79.8225 21.8825 66.8725C44.3175 53.9225 80.685 53.92 103.118 66.8725C125.55 79.825 125.553 100.822 103.118 113.772C80.6825 126.722 44.315 126.725 21.8825 113.772Z" fill="#FAFAFA"/>
<path d="M82.585 120.515L55.8225 78.7675L35.775 90.3825L29.7525 93.26L10.105 104.895L82.585 120.515Z" fill="#E0E0E0"/>
<path d="M114.442 114.433L95.6325 85.085L81.54 93.25L77.3075 95.2725L63.495 103.453L114.442 114.433Z" fill="#E0E0E0"/>
<g opacity="0.2">
<path d="M104.03 11.3125C104.018 11.3125 104.005 11.31 103.994 11.3052C103.983 11.3004 103.972 11.2934 103.964 11.2845C103.955 11.2757 103.948 11.2652 103.944 11.2537C103.939 11.2422 103.937 11.2299 103.937 11.2175V7.9675C103.937 7.94297 103.947 7.91944 103.965 7.90209C103.982 7.88475 104.005 7.875 104.03 7.875C104.054 7.87563 104.077 7.88558 104.095 7.90279C104.112 7.92 104.122 7.94317 104.122 7.9675V11.2175C104.122 11.2423 104.113 11.2661 104.096 11.2838C104.078 11.3016 104.055 11.3118 104.03 11.3125V11.3125Z" fill="#8FC1FF"/>
<path d="M102.34 25.58C102.318 25.5801 102.296 25.572 102.28 25.5573C102.263 25.5425 102.252 25.5221 102.25 25.5V22.25C102.25 22.2379 102.252 22.2258 102.257 22.2146C102.262 22.2034 102.269 22.1932 102.277 22.1846C102.286 22.176 102.296 22.1692 102.307 22.1645C102.318 22.1599 102.33 22.1575 102.342 22.1575C102.367 22.1581 102.39 22.1681 102.407 22.1853C102.424 22.2025 102.434 22.2257 102.435 22.25V25.5C102.432 25.5227 102.42 25.5435 102.403 25.5583C102.385 25.5731 102.363 25.5808 102.34 25.58V25.58Z" fill="#8FC1FF"/>
<path d="M105.908 13.0675C105.892 13.0669 105.876 13.0626 105.863 13.055C105.841 13.0425 105.826 13.0221 105.819 12.9983C105.813 12.9746 105.816 12.9491 105.828 12.9275L107.043 10.8225C107.055 10.801 107.075 10.7852 107.099 10.7786C107.123 10.772 107.148 10.7752 107.17 10.7875C107.192 10.7998 107.207 10.8201 107.214 10.844C107.22 10.8679 107.217 10.8935 107.205 10.915L106 13.02C105.991 13.0365 105.978 13.05 105.961 13.0585C105.945 13.067 105.926 13.0701 105.908 13.0675V13.0675Z" fill="#8FC1FF"/>
<path d="M99.25 22.69C99.2342 22.6894 99.2188 22.6851 99.205 22.6775C99.1837 22.665 99.1682 22.6446 99.1617 22.6208C99.1551 22.597 99.1581 22.5716 99.17 22.55L100.385 20.4425C100.398 20.4221 100.419 20.4075 100.442 20.4015C100.466 20.3955 100.491 20.3985 100.512 20.41C100.523 20.416 100.533 20.424 100.54 20.4337C100.548 20.4434 100.554 20.4545 100.557 20.4664C100.56 20.4783 100.561 20.4907 100.559 20.5029C100.558 20.5151 100.554 20.5269 100.547 20.5375L99.3325 22.6425C99.3239 22.6568 99.3119 22.6687 99.2974 22.677C99.283 22.6853 99.2666 22.6898 99.25 22.69V22.69Z" fill="#8FC1FF"/>
<path d="M107.282 15.6925C107.26 15.6916 107.239 15.6827 107.223 15.6673C107.206 15.6519 107.196 15.6312 107.194 15.6089C107.192 15.5866 107.198 15.5643 107.211 15.5461C107.224 15.5279 107.243 15.5151 107.265 15.51L109.372 15.105C109.384 15.1025 109.397 15.1024 109.408 15.1047C109.42 15.107 109.432 15.1116 109.442 15.1184C109.452 15.1252 109.46 15.1339 109.467 15.144C109.473 15.1542 109.478 15.1656 109.48 15.1775C109.484 15.2017 109.479 15.2266 109.466 15.2471C109.452 15.2676 109.431 15.2821 109.407 15.2875L107.3 15.6925H107.282Z" fill="#8FC1FF"/>
<path d="M96.98 18.3625C96.9583 18.3622 96.9374 18.3543 96.9209 18.3401C96.9045 18.3259 96.8935 18.3064 96.89 18.285C96.8875 18.2732 96.8873 18.2609 96.8896 18.2491C96.8919 18.2372 96.8966 18.2259 96.9034 18.2158C96.9102 18.2058 96.9189 18.1972 96.929 18.1906C96.9392 18.1841 96.9506 18.1796 96.9625 18.1775L99.07 17.7725C99.0818 17.77 99.0941 17.7698 99.1059 17.7721C99.1178 17.7744 99.1291 17.7791 99.1392 17.7859C99.1492 17.7927 99.1578 17.8014 99.1644 17.8115C99.1709 17.8217 99.1754 17.8331 99.1775 17.845C99.182 17.8692 99.1769 17.8941 99.1634 17.9146C99.1499 17.9351 99.129 17.9496 99.105 17.955L97 18.36L96.98 18.3625Z" fill="#8FC1FF"/>
<path d="M110.217 19.8925C110.203 19.8962 110.187 19.8962 110.172 19.8925L107.75 18.475C107.729 18.4629 107.713 18.4431 107.707 18.4197C107.7 18.3963 107.703 18.3713 107.715 18.35C107.728 18.3288 107.748 18.3132 107.772 18.3067C107.795 18.3002 107.821 18.3031 107.842 18.315L110.275 19.72C110.286 19.7257 110.295 19.7335 110.303 19.7431C110.31 19.7526 110.316 19.7636 110.319 19.7753C110.322 19.7871 110.322 19.7994 110.32 19.8114C110.318 19.8234 110.314 19.8348 110.307 19.845C110.299 19.8609 110.286 19.8738 110.27 19.8822C110.254 19.8907 110.235 19.8943 110.217 19.8925V19.8925Z" fill="#8FC1FF"/>
<path d="M98.585 15.1625C98.5694 15.1662 98.5531 15.1662 98.5375 15.1625L96.105 13.75C96.0849 13.7372 96.0706 13.7171 96.0649 13.694C96.0593 13.6708 96.0628 13.6464 96.0747 13.6258C96.0867 13.6052 96.1061 13.5899 96.1289 13.5833C96.1518 13.5766 96.1763 13.579 96.1975 13.59L98.63 15C98.6407 15.006 98.6502 15.014 98.6578 15.0237C98.6654 15.0334 98.671 15.0445 98.6743 15.0564C98.6775 15.0683 98.6784 15.0807 98.6768 15.0929C98.6752 15.1051 98.6712 15.1169 98.665 15.1275C98.6554 15.1393 98.6432 15.1486 98.6292 15.1547C98.6153 15.1608 98.6001 15.1635 98.585 15.1625V15.1625Z" fill="#8FC1FF"/>
<path d="M108.93 23.79C108.915 23.7903 108.901 23.7871 108.888 23.7805C108.875 23.774 108.863 23.7644 108.855 23.7525L106.75 20.915C106.741 20.9055 106.734 20.8942 106.73 20.8819C106.726 20.8697 106.725 20.8567 106.726 20.8438C106.727 20.8309 106.731 20.8183 106.737 20.807C106.744 20.7957 106.752 20.7859 106.763 20.7782C106.773 20.7704 106.785 20.7649 106.798 20.7621C106.81 20.7592 106.823 20.7591 106.836 20.7616C106.849 20.7641 106.861 20.7693 106.871 20.7768C106.882 20.7843 106.891 20.7939 106.897 20.805L109 23.6425C109.014 23.6626 109.02 23.6873 109.016 23.7115C109.012 23.7358 108.999 23.7576 108.98 23.7725C108.965 23.7823 108.948 23.7883 108.93 23.79V23.79Z" fill="#8FC1FF"/>
<path d="M99.77 12.37C99.7554 12.3701 99.741 12.3668 99.728 12.3602C99.715 12.3537 99.7036 12.3442 99.695 12.3325L97.59 9.5C97.5812 9.49047 97.5745 9.47921 97.5704 9.46693C97.5662 9.45466 97.5647 9.44165 97.5659 9.42875C97.5671 9.41585 97.571 9.40334 97.5773 9.39204C97.5837 9.38074 97.5923 9.3709 97.6027 9.36315C97.6131 9.35541 97.625 9.34993 97.6376 9.34707C97.6503 9.34422 97.6634 9.34405 97.6761 9.34658C97.6888 9.34912 97.7008 9.35429 97.7114 9.36177C97.722 9.36925 97.7309 9.37887 97.7375 9.39L99.845 12.225C99.855 12.239 99.8609 12.2555 99.8623 12.2727C99.8636 12.2899 99.8602 12.3071 99.8525 12.3225C99.8448 12.3379 99.8331 12.351 99.8185 12.3602C99.804 12.3694 99.7872 12.3746 99.77 12.375V12.37Z" fill="#8FC1FF"/>
<path d="M106.117 25.6825C106.098 25.6833 106.079 25.6776 106.063 25.6663C106.047 25.655 106.036 25.6387 106.03 25.62L104.812 22.12C104.805 22.0965 104.806 22.0707 104.817 22.0485C104.828 22.0262 104.848 22.0092 104.871 22.0013C104.895 21.9933 104.921 21.995 104.943 22.006C104.965 22.0171 104.982 22.0365 104.99 22.06L106.205 25.56C106.213 25.5832 106.211 25.6086 106.201 25.6307C106.19 25.6527 106.171 25.6695 106.147 25.6775C106.138 25.6816 106.128 25.6833 106.117 25.6825Z" fill="#8FC1FF"/>
<path d="M101.693 11.1475C101.673 11.1479 101.654 11.142 101.638 11.1308C101.623 11.1195 101.611 11.1034 101.605 11.085L100.388 7.585C100.38 7.56146 100.381 7.53573 100.392 7.51346C100.403 7.49119 100.423 7.47421 100.446 7.46625C100.47 7.4583 100.496 7.46002 100.518 7.47103C100.54 7.48205 100.557 7.50146 100.565 7.525L101.78 11.025C101.784 11.0365 101.786 11.0487 101.786 11.0609C101.785 11.0732 101.782 11.0851 101.777 11.0961C101.771 11.1071 101.764 11.1169 101.754 11.1249C101.745 11.1329 101.734 11.1389 101.723 11.1425C101.713 11.1466 101.703 11.1483 101.693 11.1475Z" fill="#8FC1FF"/>
</g>
<path d="M100.75 12.8475L100.5 12.3475L101.542 11.7475C101.666 11.6752 101.799 11.6197 101.937 11.5825L102.082 11.55C102.326 11.5107 102.574 11.5175 102.815 11.57C102.902 11.59 102.99 11.6125 103.08 11.6425C103.174 11.6713 103.266 11.7064 103.355 11.7475C103.475 11.8006 103.592 11.8607 103.705 11.9275C103.827 12 103.955 12.08 104.07 12.1775C104.185 12.275 104.25 12.3125 104.337 12.3875C105.632 13.48 106.65 15.4275 106.91 17.3C106.927 17.4275 106.94 17.55 106.95 17.68C106.967 17.8586 106.975 18.0381 106.972 18.2175C106.972 18.3625 106.972 18.505 106.955 18.64C106.937 18.775 106.932 18.8725 106.917 18.9825C106.902 19.0925 106.88 19.1975 106.855 19.2975C106.792 19.5785 106.69 19.8494 106.552 20.1025C106.525 20.1525 106.495 20.2 106.465 20.245C106.341 20.4397 106.184 20.6107 106 20.75C105.945 20.7904 105.889 20.8279 105.83 20.8625V20.8625L104.845 21.43L104.627 20.975C104.57 20.975 104.51 20.9475 104.452 20.93C104.212 20.8557 103.981 20.7533 103.765 20.625C103.626 20.5434 103.492 20.4541 103.362 20.3575C103.187 20.2275 103.02 20.0864 102.862 19.935C101.707 18.7604 100.924 17.2706 100.612 15.6525C100.565 15.4146 100.531 15.1742 100.51 14.9325C100.492 14.735 100.482 14.5375 100.482 14.3425C100.483 14.0627 100.506 13.7835 100.552 13.5075C100.597 13.2818 100.664 13.0608 100.75 12.8475V12.8475Z" fill="#8FC1FF"/>
<path opacity="0.25" d="M106.67 16.185L104.557 17.405L104.277 16.6025L106.395 15.38C106.5 15.6434 106.592 15.9121 106.67 16.185V16.185Z" fill="white"/>
<path opacity="0.25" d="M101.542 11.75C101.666 11.6777 101.799 11.6222 101.937 11.585L102.082 11.5525C102.326 11.5132 102.574 11.52 102.815 11.5725L102.912 11.5975L100.737 12.8475L100.487 12.3475L101.542 11.75Z" fill="white"/>
<path opacity="0.25" d="M101.77 14.8375L101.5 14.5L104.673 12.675C104.773 12.775 104.872 12.88 104.967 12.9875L101.77 14.8375Z" fill="white"/>
<path opacity="0.25" d="M105.633 13.8875L102.883 15.475L102.58 14.685L105.138 13.2075C105.315 13.425 105.48 13.652 105.633 13.8875V13.8875Z" fill="white"/>
<path opacity="0.4" d="M101.542 11.75C101.666 11.6777 101.799 11.6222 101.937 11.585L102.082 11.5525C102.326 11.5132 102.574 11.52 102.815 11.5725C102.902 11.5925 102.99 11.615 103.08 11.645C103.174 11.6738 103.266 11.7089 103.355 11.75C103.475 11.8031 103.592 11.8632 103.705 11.93C103.827 12.0025 103.955 12.0825 104.07 12.18C104.185 12.2775 104.25 12.315 104.337 12.39C105.545 13.4075 106.51 15.1675 106.837 16.915L102.425 19.465C101.518 18.3621 100.898 17.0513 100.622 15.65C100.575 15.4121 100.541 15.1717 100.52 14.93C100.502 14.7325 100.492 14.535 100.492 14.34C100.493 14.0602 100.516 13.781 100.562 13.505C100.599 13.2844 100.656 13.0677 100.732 12.8575L100.482 12.3575L101.542 11.75Z" fill="white"/>
<path opacity="0.1" d="M104.847 21.4175L104.63 20.9625C104.572 20.9625 104.512 20.935 104.455 20.9175C104.215 20.8432 103.984 20.7408 103.767 20.6125C103.628 20.5309 103.494 20.4416 103.365 20.345C103.189 20.215 103.022 20.0739 102.865 19.9225C102.715 19.7775 102.57 19.62 102.427 19.455L106.84 16.905C106.865 17.035 106.887 17.155 106.905 17.2925C106.922 17.43 106.935 17.5425 106.945 17.6725C106.962 17.8511 106.97 18.0306 106.967 18.21C106.967 18.355 106.967 18.4975 106.95 18.6325C106.932 18.7675 106.927 18.865 106.912 18.975C106.897 19.085 106.875 19.19 106.85 19.29C106.787 19.571 106.685 19.8419 106.547 20.095C106.52 20.145 106.49 20.1925 106.46 20.2375C106.338 20.4344 106.183 20.608 106 20.75C105.945 20.7904 105.889 20.8279 105.83 20.8625V20.8625L104.847 21.4175Z" fill="black"/>
<path opacity="0.1" d="M106.552 20.095C106.525 20.145 106.495 20.1925 106.465 20.2375C106.342 20.4349 106.184 20.6085 106 20.75C105.945 20.7904 105.889 20.8279 105.83 20.8625V20.8625L104.845 21.43L104.627 20.975L104.612 20.79L106.797 19.5C106.738 19.7068 106.656 19.9063 106.552 20.095V20.095Z" fill="black"/>
<path d="M99.385 14.975C99.385 15.1675 99.385 15.365 99.4125 15.565C99.4333 15.8059 99.4676 16.0454 99.515 16.2825C99.8267 17.9012 100.609 19.3919 101.765 20.5675C101.917 20.7219 102.079 20.8664 102.25 21C102.38 21.0912 102.515 21.1746 102.655 21.25C102.871 21.3775 103.101 21.479 103.34 21.5525C103.575 21.6265 103.821 21.6586 104.067 21.6475C104.398 21.6329 104.716 21.5188 104.98 21.32C105.162 21.1815 105.319 21.0123 105.442 20.82C105.472 20.7725 105.502 20.725 105.53 20.675C105.666 20.4223 105.768 20.1524 105.832 19.8725V19.8725C105.855 19.77 105.877 19.665 105.892 19.555C105.907 19.445 105.922 19.33 105.932 19.2125C105.942 19.095 105.95 18.9375 105.95 18.7925C105.95 18.6475 105.95 18.435 105.927 18.2525C105.927 18.1275 105.905 18.0025 105.885 17.8725C105.635 16 104.61 14.0525 103.315 12.9625C103.228 12.8875 103.137 12.8175 103.047 12.75C102.957 12.6825 102.798 12.5825 102.683 12.5C102.569 12.4331 102.451 12.373 102.33 12.32C102.237 12.28 102.148 12.245 102.058 12.215C101.971 12.1862 101.882 12.1628 101.793 12.145C101.552 12.0913 101.303 12.0845 101.06 12.125C101.01 12.1323 100.961 12.1424 100.912 12.155C100.705 12.2121 100.511 12.3088 100.34 12.44C100.058 12.6636 99.838 12.9553 99.7 13.2875C99.5813 13.5522 99.4973 13.8312 99.45 14.1175C99.4044 14.401 99.3826 14.6879 99.385 14.975V14.975Z" fill="#8FC1FF"/>
<path opacity="0.1" d="M99.385 14.975C99.385 15.1675 99.385 15.365 99.4125 15.565C99.4333 15.8059 99.4676 16.0454 99.515 16.2825C99.8267 17.9012 100.609 19.3919 101.765 20.5675C101.917 20.7219 102.079 20.8664 102.25 21C102.38 21.0912 102.515 21.1746 102.655 21.25C102.871 21.3775 103.101 21.479 103.34 21.5525C103.575 21.6265 103.821 21.6586 104.067 21.6475C104.398 21.6329 104.716 21.5188 104.98 21.32C105.162 21.1815 105.319 21.0123 105.442 20.82C105.472 20.7725 105.502 20.725 105.53 20.675C105.666 20.4223 105.768 20.1524 105.832 19.8725V19.8725C105.855 19.77 105.877 19.665 105.892 19.555C105.907 19.445 105.922 19.33 105.932 19.2125C105.942 19.095 105.95 18.9375 105.95 18.7925C105.95 18.6475 105.95 18.435 105.927 18.2525C105.927 18.1275 105.905 18.0025 105.885 17.8725C105.635 16 104.61 14.0525 103.315 12.9625C103.228 12.8875 103.137 12.8175 103.047 12.75C102.957 12.6825 102.798 12.5825 102.683 12.5C102.569 12.4331 102.451 12.373 102.33 12.32C102.237 12.28 102.148 12.245 102.058 12.215C101.971 12.1862 101.882 12.1628 101.793 12.145C101.552 12.0913 101.303 12.0845 101.06 12.125C101.01 12.1323 100.961 12.1424 100.912 12.155C100.705 12.2121 100.511 12.3088 100.34 12.44C100.058 12.6636 99.838 12.9553 99.7 13.2875C99.5813 13.5522 99.4973 13.8312 99.45 14.1175C99.4044 14.401 99.3826 14.6879 99.385 14.975V14.975Z" fill="white"/>
<path opacity="0.05" d="M105.822 17.5C105.847 17.63 105.867 17.75 105.885 17.8875C105.902 18.025 105.917 18.1375 105.927 18.2675C105.942 18.4508 105.95 18.6308 105.95 18.8075C105.95 18.9525 105.95 19.0925 105.932 19.2275C105.915 19.3625 105.91 19.46 105.892 19.57C105.875 19.68 105.855 19.785 105.832 19.8875C105.768 20.1674 105.666 20.4373 105.53 20.69C105.502 20.74 105.472 20.7875 105.442 20.835C105.319 21.0273 105.162 21.1965 104.98 21.335C104.716 21.5338 104.398 21.6479 104.067 21.6625C103.821 21.6736 103.575 21.6415 103.34 21.5675C103.1 21.4893 102.87 21.3827 102.655 21.25C102.532 21.1775 102.405 21.0975 102.295 21L105.822 17.5Z" fill="black"/>
<path opacity="0.05" d="M105.77 20.1075C105.708 20.3086 105.624 20.5022 105.52 20.685C105.492 20.735 105.463 20.7825 105.433 20.83C105.309 21.0223 105.152 21.1915 104.97 21.33C104.758 21.4891 104.511 21.5945 104.25 21.6375L105.77 20.1075Z" fill="black"/>
<path opacity="0.15" d="M105.373 15.97C105.478 16.235 105.57 16.505 105.648 16.775L101.808 20.615L101.758 20.5675C101.591 20.4091 101.434 20.2422 101.285 20.0675L105.373 15.97Z" fill="white"/>
<path opacity="0.15" d="M104.118 13.7975C104.297 14.0151 104.464 14.243 104.618 14.48L100.393 18.7075C100.255 18.4575 100.143 18.1825 100.018 17.91L104.118 13.7975Z" fill="white"/>
<path opacity="0.15" d="M103.637 13.2675C103.74 13.3675 103.84 13.4725 103.935 13.5825L99.895 17.625C99.8383 17.4733 99.7858 17.3208 99.7375 17.1675L103.637 13.2675Z" fill="white"/>
<path opacity="0.15" d="M99.395 14.6825C99.395 14.605 99.395 14.5275 99.4125 14.4525V14.3775C99.4125 14.3525 99.4125 14.3275 99.4125 14.3025C99.4125 14.2775 99.4275 14.19 99.4375 14.1375C99.4848 13.8512 99.5688 13.5723 99.6875 13.3075C99.8255 12.9753 100.046 12.6836 100.328 12.46C100.498 12.3288 100.693 12.2321 100.9 12.175C100.949 12.1624 100.998 12.1524 101.048 12.145C101.291 12.1045 101.539 12.1113 101.78 12.165L101.878 12.1875L99.395 14.6825Z" fill="white"/>
<path d="M100.223 15.4775C100.223 17.205 101.223 19.1975 102.505 20.0475L102.668 20.15C104.02 20.93 105.113 20.1025 105.113 18.3C105.113 16.4975 104.02 14.4075 102.668 13.6275C102.613 13.595 102.558 13.5675 102.505 13.54C101.23 12.9175 100.223 13.75 100.223 15.4775Z" fill="#8FC1FF"/>
<path opacity="0.4" d="M100.223 15.4775C100.223 17.205 101.223 19.1975 102.505 20.0475L102.668 20.15C104.02 20.93 105.113 20.1025 105.113 18.3C105.113 16.4975 104.02 14.4075 102.668 13.6275C102.613 13.595 102.558 13.5675 102.505 13.54C101.23 12.9175 100.223 13.75 100.223 15.4775Z" fill="black"/>
<path d="M100.33 15.54C100.33 15.595 100.33 15.65 100.33 15.7075C100.392 17.3175 101.33 19.1225 102.507 19.9075L102.537 19.9275L102.662 20.005C102.888 20.1399 103.138 20.2307 103.397 20.2725C103.654 20.3103 103.916 20.2674 104.147 20.1495C104.379 20.0317 104.567 19.8449 104.687 19.615C104.876 19.2725 104.983 18.8908 105 18.5C105 18.415 105 18.3275 105 18.25C105 18.1725 105 18.085 105 18C104.99 17.8224 104.97 17.6454 104.94 17.47C104.733 16.2235 104.133 15.0759 103.227 14.195C103.11 14.0881 102.986 13.9895 102.855 13.9C102.795 13.86 102.732 13.82 102.67 13.785L102.515 13.7025L102.47 13.68C102.173 13.5275 101.835 13.4741 101.505 13.5275C101.005 13.6225 100.632 14.015 100.452 14.64C100.37 14.9328 100.328 15.2358 100.33 15.54V15.54Z" fill="#8FC1FF"/>
<path opacity="0.5" d="M100.33 15.54C100.33 15.595 100.33 15.65 100.33 15.7075C100.392 17.3175 101.33 19.1225 102.507 19.9075L102.537 19.9275L102.662 20.005C102.888 20.1399 103.138 20.2307 103.397 20.2725C103.654 20.3103 103.916 20.2674 104.147 20.1495C104.379 20.0317 104.567 19.8449 104.687 19.615C104.876 19.2725 104.983 18.8908 105 18.5C105 18.415 105 18.3275 105 18.25C105 18.1725 105 18.085 105 18C104.99 17.8224 104.97 17.6454 104.94 17.47C104.733 16.2235 104.133 15.0759 103.227 14.195C103.11 14.0881 102.986 13.9895 102.855 13.9C102.795 13.86 102.732 13.82 102.67 13.785L102.515 13.7025L102.47 13.68C102.173 13.5275 101.835 13.4741 101.505 13.5275C101.005 13.6225 100.632 14.015 100.452 14.64C100.37 14.9328 100.328 15.2358 100.33 15.54V15.54Z" fill="black"/>
<path d="M100.722 15.4825C100.722 15.425 100.722 15.37 100.722 15.315C100.718 15.0068 100.758 14.6996 100.84 14.4025C100.921 14.0784 101.095 13.7848 101.34 13.5575C101.393 13.5392 101.447 13.525 101.502 13.515C101.832 13.4616 102.17 13.515 102.467 13.6675L102.512 13.69L102.667 13.7725C102.73 13.8075 102.792 13.8475 102.852 13.8875C102.983 13.977 103.108 14.0756 103.225 14.1825C104.131 15.0634 104.731 16.211 104.937 17.4575C104.968 17.637 104.989 17.8181 105 18C105 18.085 105 18.1675 105 18.25C105 18.3325 105 18.4275 105 18.5C104.986 18.89 104.883 19.2716 104.697 19.615C104.616 19.7604 104.511 19.8907 104.385 20C104.194 20.0648 103.99 20.0828 103.79 20.0525C103.53 20.0128 103.28 19.9228 103.055 19.7875L102.93 19.71L102.9 19.6875C101.722 18.8975 100.785 17.0925 100.722 15.4825Z" fill="#8FC1FF"/>
<path opacity="0.25" d="M100.722 15.4825C100.722 15.425 100.722 15.37 100.722 15.315C100.718 15.0068 100.758 14.6996 100.84 14.4025C100.921 14.0784 101.095 13.7848 101.34 13.5575C101.393 13.5392 101.447 13.525 101.502 13.515C101.832 13.4616 102.17 13.515 102.467 13.6675L102.512 13.69L102.667 13.7725C102.73 13.8075 102.792 13.8475 102.852 13.8875C102.983 13.977 103.108 14.0756 103.225 14.1825C104.131 15.0634 104.731 16.211 104.937 17.4575C104.968 17.637 104.989 17.8181 105 18C105 18.085 105 18.1675 105 18.25C105 18.3325 105 18.4275 105 18.5C104.986 18.89 104.883 19.2716 104.697 19.615C104.616 19.7604 104.511 19.8907 104.385 20C104.194 20.0648 103.99 20.0828 103.79 20.0525C103.53 20.0128 103.28 19.9228 103.055 19.7875L102.93 19.71L102.9 19.6875C101.722 18.8975 100.785 17.0925 100.722 15.4825Z" fill="black"/>
<path d="M101.06 12.145C102.472 11.985 103.62 13.145 104.387 14.205C105.495 15.8375 106.197 17.905 105.812 19.8825C105.711 20.448 105.416 20.9606 104.978 21.3325C105.429 20.9684 105.737 20.4566 105.848 19.8875V19.8875C106.2 18.27 105.758 16.57 105.018 15.1225C104.228 13.6875 102.882 11.95 101.06 12.145Z" fill="#F5F5F5"/>
<path d="M104.415 18.25C104.397 17.9741 104.322 17.7049 104.196 17.4589C104.069 17.213 103.894 16.9956 103.68 16.82L103.865 16.8675L104.4 16.5575C104.376 16.4419 104.344 16.3282 104.303 16.2175C104.234 16.0294 104.141 15.8511 104.025 15.6875C103.839 15.4222 103.607 15.192 103.34 15.0075L103.32 14.4525L102.66 14.07L102.125 14.38V14.52V14.55C102.08 14.5653 102.036 14.5854 101.995 14.61L101.955 14.6375C101.893 14.6825 101.585 14.845 101.455 14.9175L101.415 14.945C101.333 15.0225 101.272 15.1189 101.236 15.2257C101.2 15.3325 101.191 15.4464 101.21 15.5575C101.228 15.8666 101.328 16.1653 101.5 16.4225C101.513 16.445 101.528 16.465 101.54 16.485L101.585 16.55L101.625 16.6025L101.643 16.625L101.675 16.6675C101.765 16.7836 101.862 16.8946 101.965 17L102.105 17.1275L101.855 17.065L101.32 17.375C101.472 17.9598 101.826 18.4717 102.32 18.82L102.34 19.3725L103.008 19.7425L103.543 19.4325V19.26C103.58 19.2507 103.617 19.2355 103.65 19.215V19.215C103.73 19.1625 104.088 18.965 104.18 18.91C104.35 18.795 104.428 18.5875 104.415 18.25Z" fill="#8FC1FF"/>
<path opacity="0.15" d="M101.5 14.915C101.638 14.835 101.91 14.69 101.97 14.6475L102.01 14.62C102.051 14.5949 102.094 14.5748 102.14 14.56L102.155 14.9575C102.06 14.892 101.949 14.8534 101.833 14.8459C101.718 14.8384 101.603 14.8623 101.5 14.915V14.915Z" fill="black"/>
<path opacity="0.45" d="M103 18.14C103 18.305 102.91 18.39 102.633 18.2375C102.503 18.1699 102.389 18.0747 102.3 17.9585C102.211 17.8423 102.149 17.708 102.118 17.565L101.318 17.365L101.853 17.0575L102.103 17.1175H102.115L102.335 17.305L102.418 17.375C102.579 17.4965 102.728 17.6338 102.863 17.785C102.919 17.8481 102.961 17.9221 102.988 18.0025C102.998 18.0476 103.002 18.0938 103 18.14V18.14Z" fill="black"/>
<path opacity="0.2" d="M103.55 19.25V19.42L103.015 19.7275L102.995 19.1775C103.168 19.2589 103.362 19.2842 103.55 19.25V19.25Z" fill="black"/>
<path opacity="0.15" d="M102.785 14.7725L102.125 14.39L102.66 14.08L103.323 14.4625L103.34 15.015C103.606 15.2013 103.838 15.4322 104.025 15.6975C104.14 15.8616 104.234 16.0397 104.305 16.2275C104.344 16.3386 104.376 16.4522 104.4 16.5675L103.865 16.8775C103.842 16.761 103.811 16.6465 103.77 16.535C103.703 16.3458 103.613 16.1659 103.5 16C103.313 15.7361 103.082 15.5061 102.817 15.32L102.785 14.7725Z" fill="black"/>
<path opacity="0.2" d="M103.34 15.015C103.57 15.1434 103.774 15.3128 103.942 15.515C104.112 15.7197 104.236 15.9584 104.305 16.215C104.191 15.9812 104.05 15.7614 103.885 15.56C103.807 15.4589 103.723 15.3621 103.635 15.27C103.535 15.19 103.437 15.105 103.34 15.015Z" fill="black"/>
<path opacity="0.35" d="M104.195 18.895C104.103 18.9525 103.745 19.145 103.665 19.2025C103.818 19.1025 103.898 18.8975 103.885 18.57C103.858 17.8425 103.423 17.3675 102.963 16.97C102.503 16.5725 102.155 16.3725 102.14 16.02C102.14 15.8 102.275 15.77 102.495 15.9C102.633 15.9791 102.751 16.0871 102.843 16.2166C102.934 16.3461 102.996 16.494 103.025 16.65L103.683 16.8175C103.896 16.9941 104.071 17.2121 104.197 17.4584C104.323 17.7046 104.398 17.9739 104.418 18.25C104.442 18.3676 104.434 18.4895 104.395 18.603C104.355 18.7164 104.286 18.8173 104.195 18.895V18.895Z" fill="black"/>
<path d="M102.66 17.255L102.128 17.565L101.328 17.365L101.863 17.055L102.66 17.255Z" fill="#8FC1FF"/>
<path opacity="0.15" d="M102.66 17.255L102.128 17.565L101.328 17.365L101.863 17.055L102.66 17.255Z" fill="black"/>
<path d="M103.022 19.7325L103.003 19.1775L103.55 19.25L103.558 19.4225L103.022 19.7325Z" fill="#8FC1FF"/>
<path opacity="0.45" d="M103.022 19.7325L103.003 19.1775L103.55 19.25L103.558 19.4225L103.022 19.7325Z" fill="black"/>
<path d="M102.13 14.53L102.145 14.9575C102.046 14.8893 101.93 14.8504 101.809 14.8451C101.689 14.8398 101.57 14.8683 101.465 14.9275L101.425 14.955C101.343 15.0325 101.282 15.1289 101.246 15.2357C101.21 15.3425 101.201 15.4564 101.22 15.5675V15.5675C101.236 15.8722 101.333 16.1672 101.5 16.4225C101.513 16.445 101.528 16.465 101.54 16.485L101.585 16.55L101.625 16.6025L101.643 16.625L101.675 16.6675C101.765 16.7836 101.862 16.8946 101.965 17C102.015 17.0475 102.065 17.095 102.118 17.1375C102.17 17.18 102.268 17.2675 102.338 17.3275L102.423 17.3975C102.583 17.5203 102.732 17.6576 102.868 17.8075C102.923 17.8709 102.964 17.9449 102.99 18.025C103.002 18.0649 103.008 18.106 103.01 18.1475C103.01 18.315 102.92 18.3975 102.643 18.245C102.512 18.1794 102.397 18.0851 102.308 17.969C102.219 17.853 102.157 17.7183 102.128 17.575L101.328 17.375C101.48 17.9598 101.834 18.4717 102.328 18.82L102.348 19.3725L103.015 19.7425L103 19.1775C103.1 19.2314 103.211 19.2619 103.324 19.2666C103.438 19.2714 103.551 19.2503 103.655 19.205C103.808 19.105 103.888 18.9 103.875 18.5725C103.848 17.845 103.413 17.37 102.953 16.9725C102.493 16.575 102.145 16.375 102.13 16.0225C102.13 15.8025 102.268 15.7725 102.485 15.905C102.623 15.9837 102.742 16.0916 102.833 16.2212C102.925 16.3508 102.987 16.4988 103.015 16.655L103.858 16.8725C103.833 16.7564 103.802 16.642 103.763 16.53C103.698 16.3431 103.609 16.165 103.5 16C103.312 15.736 103.08 15.506 102.815 15.32L102.795 14.765L102.133 14.385L102.13 14.53Z" fill="#8FC1FF"/>
<path opacity="0.1" d="M102.13 14.53L102.145 14.9575C102.046 14.8893 101.93 14.8504 101.809 14.8451C101.689 14.8398 101.57 14.8683 101.465 14.9275L101.425 14.955C101.343 15.0325 101.282 15.1289 101.246 15.2357C101.21 15.3425 101.201 15.4564 101.22 15.5675V15.5675C101.236 15.8722 101.333 16.1672 101.5 16.4225C101.513 16.445 101.528 16.465 101.54 16.485L101.585 16.55L101.625 16.6025L101.643 16.625L101.675 16.6675C101.765 16.7836 101.862 16.8946 101.965 17C102.015 17.0475 102.065 17.095 102.118 17.1375C102.17 17.18 102.268 17.2675 102.338 17.3275L102.423 17.3975C102.583 17.5203 102.732 17.6576 102.868 17.8075C102.923 17.8709 102.964 17.9449 102.99 18.025C103.002 18.0649 103.008 18.106 103.01 18.1475C103.01 18.315 102.92 18.3975 102.643 18.245C102.512 18.1794 102.397 18.0851 102.308 17.969C102.219 17.853 102.157 17.7183 102.128 17.575L101.328 17.375C101.48 17.9598 101.834 18.4717 102.328 18.82L102.348 19.3725L103.015 19.7425L103 19.1775C103.1 19.2314 103.211 19.2619 103.324 19.2666C103.438 19.2714 103.551 19.2503 103.655 19.205C103.808 19.105 103.888 18.9 103.875 18.5725C103.848 17.845 103.413 17.37 102.953 16.9725C102.493 16.575 102.145 16.375 102.13 16.0225C102.13 15.8025 102.268 15.7725 102.485 15.905C102.623 15.9837 102.742 16.0916 102.833 16.2212C102.925 16.3508 102.987 16.4988 103.015 16.655L103.858 16.8725C103.833 16.7564 103.802 16.642 103.763 16.53C103.698 16.3431 103.609 16.165 103.5 16C103.312 15.736 103.08 15.506 102.815 15.32L102.795 14.765L102.133 14.385L102.13 14.53Z" fill="white"/>
<path d="M103.882 18.57C103.863 18.3073 103.788 18.0517 103.662 17.82C103.529 17.5884 103.361 17.3791 103.162 17.2C102.975 17.0125 102.765 16.85 102.56 16.6775C102.457 16.5917 102.362 16.4972 102.275 16.395C102.187 16.2928 102.135 16.1646 102.128 16.03C102.141 16.1629 102.199 16.2876 102.29 16.385C102.379 16.4826 102.476 16.5729 102.58 16.655C102.788 16.8225 102.998 16.985 103.19 17.1725C103.39 17.356 103.559 17.5704 103.69 17.8075C103.751 17.9269 103.799 18.0527 103.832 18.1825C103.861 18.3099 103.878 18.4396 103.882 18.57V18.57Z" fill="white"/>
<path d="M102.787 14.7725L103.32 14.4625L103.34 15.015L102.807 15.325L102.787 14.7725Z" fill="#8FC1FF"/>
<path opacity="0.35" d="M102.787 14.7725L103.32 14.4625L103.34 15.015L102.807 15.325L102.787 14.7725Z" fill="black"/>
<path d="M102.125 14.39L102.725 14.8025L102.808 15.325L102.787 14.7725L102.125 14.39Z" fill="#FAFAFA"/>
<path d="M102.335 18.81L102.41 19.3275L103.023 19.7325L102.355 19.3625L102.335 18.81Z" fill="#FAFAFA"/>
<path opacity="0.15" d="M101.328 17.365C101.354 17.4662 101.386 17.5655 101.425 17.6625L101.645 17.445L101.328 17.365Z" fill="white"/>
<path opacity="0.15" d="M103.88 18.545C103.867 18.2526 103.781 17.9681 103.63 17.7175L102.342 19L102.355 19.36L102.81 19.61L103.01 19.4075V19.1725C103.07 19.1978 103.132 19.2178 103.195 19.2325L103.88 18.545Z" fill="white"/>
<path opacity="0.15" d="M101.227 15.6775C101.244 15.8454 101.287 16.0097 101.352 16.165L102.762 14.75L102.372 14.525L102.137 14.76V14.95C102.097 14.9231 102.053 14.9005 102.007 14.8825L101.227 15.6775Z" fill="white"/>
<path opacity="0.15" d="M101.533 16.5L101.577 16.565L101.618 16.6175L101.635 16.64L101.668 16.6825C101.761 16.7937 101.86 16.8997 101.965 17L102.035 17.0625L102.5 16.5875C102.403 16.5234 102.321 16.4398 102.259 16.342C102.196 16.2443 102.155 16.1346 102.137 16.02C102.137 15.8 102.275 15.77 102.493 15.9025C102.64 15.9865 102.763 16.1059 102.853 16.25L103.31 15.79C103.161 15.6209 102.993 15.4691 102.81 15.3375V15.1275L101.5 16.425L101.537 16.485L101.533 16.5Z" fill="white"/>
<path d="M104.518 13.88L104.58 13.055L104.645 13.88L105.468 13.9425L104.645 14.005L104.58 14.8275L104.518 14.005L103.695 13.9425L104.518 13.88Z" fill="white"/>
<path d="M105.165 14.555L105.195 14.155L105.225 14.555L105.625 14.585L105.225 14.615L105.195 15.015L105.165 14.615L104.765 14.585L105.165 14.555Z" fill="white"/>
<path d="M78.5575 88.785C78.5085 88.7846 78.4607 88.7699 78.42 88.7425L77.795 88.3325C77.7674 88.3146 77.7436 88.2915 77.725 88.2644C77.7064 88.2373 77.6932 88.2068 77.6864 88.1747C77.6796 88.1425 77.6791 88.1093 77.6851 88.077C77.6911 88.0447 77.7033 88.0139 77.7212 87.9863C77.7391 87.9587 77.7623 87.9349 77.7894 87.9163C77.8164 87.8977 77.8469 87.8845 77.8791 87.8777C77.9112 87.8708 77.9444 87.8704 77.9768 87.8764C78.0091 87.8823 78.0399 87.8946 78.0675 87.9125L78.6975 88.325C78.7431 88.3545 78.778 88.3981 78.7967 88.4491C78.8153 88.5001 78.8169 88.5559 78.8011 88.6078C78.7852 88.6598 78.7529 88.7053 78.709 88.7372C78.665 88.7692 78.6118 88.786 78.5575 88.785V88.785Z" fill="#455A64"/>
<path d="M76.605 87.5475C76.5603 87.5468 76.5164 87.5348 76.4775 87.5125C76.025 87.24 75.5725 86.98 75.1325 86.7375C75.1038 86.7211 75.0786 86.6992 75.0583 86.673C75.0381 86.6469 75.0232 86.617 75.0145 86.5851C75.0058 86.5531 75.0034 86.5198 75.0076 86.487C75.0118 86.4542 75.0224 86.4225 75.0388 86.3938C75.0552 86.365 75.0771 86.3398 75.1033 86.3196C75.1294 86.2993 75.1593 86.2844 75.1912 86.2757C75.2232 86.267 75.2565 86.2647 75.2893 86.2688C75.3221 86.273 75.3538 86.2836 75.3825 86.3C75.83 86.55 76.2875 86.8 76.745 87.0825C76.7923 87.1106 76.829 87.1534 76.8495 87.2045C76.87 87.2555 76.873 87.3119 76.8582 87.3648C76.8434 87.4178 76.8116 87.4644 76.7676 87.4974C76.7236 87.5304 76.67 87.5481 76.615 87.5475H76.605ZM73.87 86.0475C73.8317 86.0469 73.7941 86.0375 73.76 86.02C73.29 85.7875 72.8175 85.57 72.355 85.3675C72.3223 85.3565 72.2922 85.3388 72.2666 85.3155C72.2411 85.2922 72.2206 85.2639 72.2065 85.2323C72.1925 85.2008 72.1851 85.1666 72.1849 85.1321C72.1847 85.0975 72.1917 85.0633 72.2054 85.0315C72.2191 84.9998 72.2392 84.9713 72.2645 84.9477C72.2898 84.9241 72.3197 84.9061 72.3523 84.8947C72.3849 84.8832 72.4196 84.8787 72.454 84.8814C72.4885 84.884 72.522 84.8938 72.5525 84.91C73.0225 85.1125 73.5025 85.3375 73.98 85.5725C74.031 85.5972 74.0721 85.6385 74.0966 85.6897C74.121 85.7408 74.1274 85.7987 74.1146 85.8539C74.1018 85.9091 74.0707 85.9584 74.0262 85.9935C73.9818 86.0287 73.9267 86.0477 73.87 86.0475V86.0475ZM71.005 84.7975C70.976 84.7975 70.9473 84.7924 70.92 84.7825C70.4325 84.6025 69.9375 84.4375 69.455 84.2825C69.4212 84.2754 69.3892 84.2613 69.3611 84.2412C69.333 84.2211 69.3094 84.1954 69.2917 84.1657C69.2741 84.136 69.2627 84.1029 69.2585 84.0686C69.2542 84.0343 69.2571 83.9995 69.267 83.9664C69.2769 83.9333 69.2936 83.9026 69.3159 83.8762C69.3383 83.8499 69.3658 83.8284 69.3969 83.8132C69.4279 83.7981 69.4618 83.7895 69.4963 83.7881C69.5309 83.7867 69.5653 83.7924 69.5975 83.805C70.0975 83.9525 70.5975 84.1225 71.0975 84.305C71.153 84.3251 71.1995 84.3642 71.229 84.4153C71.2584 84.4665 71.2688 84.5264 71.2583 84.5844C71.2478 84.6425 71.2171 84.6949 71.1717 84.7326C71.1263 84.7702 71.069 84.7905 71.01 84.79L71.005 84.7975ZM68.0175 83.8975H67.96C67.46 83.78 66.96 83.68 66.445 83.595C66.3787 83.5841 66.3195 83.5472 66.2803 83.4926C66.2412 83.438 66.2253 83.3701 66.2363 83.3038C66.2472 83.2375 66.284 83.1782 66.3387 83.1391C66.3933 83.0999 66.4612 83.0841 66.5275 83.095C67.045 83.18 67.565 83.2825 68.075 83.4025C68.1413 83.4101 68.2019 83.4438 68.2434 83.4961C68.2849 83.5483 68.3039 83.615 68.2963 83.6813C68.2886 83.7476 68.255 83.8081 68.2027 83.8496C68.1504 83.8911 68.0838 83.9101 68.0175 83.9025V83.8975ZM57.1575 83.6475C57.1247 83.6496 57.0918 83.6453 57.0606 83.6347C57.0295 83.6241 57.0007 83.6075 56.976 83.5858C56.9513 83.5641 56.9311 83.5377 56.9165 83.5082C56.902 83.4787 56.8934 83.4466 56.8913 83.4138C56.8891 83.3809 56.8935 83.348 56.9041 83.3169C56.9147 83.2857 56.9313 83.257 56.953 83.2322C56.9747 83.2075 57.0011 83.1873 57.0306 83.1728C57.0601 83.1582 57.0922 83.1496 57.125 83.1475C57.655 83.0725 58.18 83.01 58.6825 82.9575C58.7488 82.9505 58.8152 82.9702 58.867 83.0122C58.9188 83.0541 58.9518 83.115 58.9588 83.1813C58.9657 83.2476 58.9461 83.3139 58.9041 83.3657C58.8621 83.4175 58.8013 83.4505 58.735 83.4575C58.235 83.5075 57.72 83.5725 57.1925 83.645L57.1575 83.6475ZM64.94 83.3975H64.915C64.415 83.3475 63.89 83.31 63.3725 83.29C63.3062 83.29 63.2426 83.2637 63.1957 83.2168C63.1489 83.1699 63.1225 83.1063 63.1225 83.04C63.1225 82.9737 63.1489 82.9101 63.1957 82.8632C63.2426 82.8164 63.3062 82.79 63.3725 82.79C63.9 82.81 64.43 82.8475 64.945 82.9C65.0113 82.9033 65.0736 82.9329 65.1181 82.9821C65.1627 83.0313 65.1858 83.0962 65.1825 83.1625C65.1792 83.2288 65.1497 83.2911 65.1005 83.3356C65.0512 83.3802 64.9863 83.4033 64.92 83.4L64.94 83.3975ZM60.2625 83.33C60.2297 83.331 60.197 83.3255 60.1663 83.3139C60.1356 83.3022 60.1075 83.2846 60.0836 83.2621C60.0596 83.2396 60.0404 83.2126 60.0269 83.1826C60.0135 83.1527 60.006 83.1203 60.005 83.0875C60.004 83.0547 60.0095 83.022 60.0212 82.9913C60.0328 82.9606 60.0504 82.9324 60.0729 82.9085C60.0955 82.8846 60.1225 82.8654 60.1524 82.8519C60.1824 82.8384 60.2147 82.831 60.2475 82.83C60.78 82.795 61.3075 82.775 61.82 82.7675C61.8863 82.7675 61.9499 82.7939 61.9968 82.8407C62.0437 82.8876 62.07 82.9512 62.07 83.0175C62.07 83.0838 62.0437 83.1474 61.9968 83.1943C61.9499 83.2412 61.8863 83.2675 61.82 83.2675C61.32 83.2675 60.795 83.295 60.2725 83.3275L60.2625 83.33Z" fill="#455A64"/>
<path d="M54.87 84.0175C54.8037 84.0235 54.7377 84.0029 54.6866 83.9602C54.6355 83.9175 54.6035 83.8563 54.5975 83.79C54.5915 83.7237 54.6122 83.6577 54.6548 83.6066C54.6975 83.5555 54.7587 83.5235 54.825 83.5175L55.575 83.3875C55.6413 83.3766 55.7092 83.3924 55.7639 83.4316C55.8185 83.4707 55.8553 83.53 55.8663 83.5963C55.8772 83.6626 55.8613 83.7305 55.8222 83.7851C55.7831 83.8397 55.7238 83.8766 55.6575 83.8875L54.92 84.015L54.87 84.0175Z" fill="#455A64"/>
<path d="M114.443 109.183L81.54 88L80.6425 91.745L114.443 109.183Z" fill="#F0F0F0"/>
<path d="M87.3575 91.745L87.4425 95.3225L80.6425 91.745L81.54 88L87.3575 91.745Z" fill="#E0E0E0"/>
<path d="M81.54 88L80.6425 91.745L80.8675 91.86L81.8125 88H81.54Z" fill="#455A64"/>
<path d="M63.495 98.2025L114.442 109.183L77.3075 90.0225L63.495 98.2025Z" fill="white"/>
<path d="M63.495 98.2025L84.285 93.6225L77.3075 90.0225L63.495 98.2025Z" fill="#F5F5F5"/>
<path d="M77.3125 90.25L113.035 108.68L64.035 98.1175L77.3125 90.25ZM77.3125 90.025L63.5 98.2025L114.448 109.183L77.3075 90.0225L77.3125 90.025Z" fill="#455A64"/>
<path d="M114.442 109.183L81.54 88L95.6325 79.835L114.442 109.183Z" fill="white"/>
<path d="M87.3575 91.745L95.6325 79.835L81.54 88L87.3575 91.745Z" fill="#F5F5F5"/>
<path d="M95.5675 80.1L113.79 108.528L81.9175 88L95.5675 80.09M95.6325 79.825L81.54 88L114.442 109.183L95.6325 79.835V79.825Z" fill="#455A64"/>
<path d="M32.5175 87.075C32.4685 87.0746 32.4207 87.0598 32.38 87.0325L31.755 86.6225C31.7274 86.6046 31.7036 86.5815 31.685 86.5544C31.6664 86.5273 31.6533 86.4968 31.6464 86.4646C31.6396 86.4325 31.6391 86.3993 31.6451 86.367C31.6511 86.3347 31.6634 86.3038 31.6813 86.2763C31.6992 86.2487 31.7223 86.2249 31.7494 86.2063C31.7765 86.1876 31.807 86.1745 31.8391 86.1677C31.8713 86.1608 31.9044 86.1604 31.9368 86.1663C31.9691 86.1723 31.9999 86.1846 32.0275 86.2025C32.235 86.3375 32.445 86.475 32.6575 86.6175C32.7123 86.6542 32.7504 86.711 32.7635 86.7756C32.7766 86.8402 32.7637 86.9074 32.7275 86.9625C32.7046 86.9972 32.6734 87.0257 32.6368 87.0454C32.6001 87.065 32.5591 87.0752 32.5175 87.075Z" fill="#455A64"/>
<path d="M30.5675 85.8375C30.5219 85.8371 30.4772 85.825 30.4375 85.8025C29.985 85.53 29.5325 85.27 29.0925 85.0275C29.0345 84.9943 28.992 84.9395 28.9744 84.875C28.9569 84.8106 28.9656 84.7418 28.9988 84.6837C29.0319 84.6257 29.0868 84.5833 29.1512 84.5657C29.2157 84.5481 29.2845 84.5568 29.3425 84.59C29.7875 84.84 30.245 85.09 30.7025 85.3725C30.7591 85.4067 30.7998 85.462 30.8158 85.5262C30.8317 85.5904 30.8215 85.6583 30.7875 85.715C30.765 85.753 30.7327 85.7844 30.6941 85.806C30.6554 85.8275 30.6117 85.8384 30.5675 85.8375V85.8375ZM27.8175 84.3375C27.7792 84.3369 27.7416 84.3275 27.7075 84.31C27.2375 84.0775 26.765 83.86 26.3025 83.6575C26.242 83.6311 26.1944 83.5819 26.17 83.5205C26.1457 83.4592 26.1466 83.3907 26.1725 83.33C26.1856 83.2997 26.2045 83.2723 26.2281 83.2494C26.2518 83.2265 26.2798 83.2084 26.3105 83.1963C26.3411 83.1843 26.3739 83.1784 26.4069 83.179C26.4398 83.1796 26.4723 83.1867 26.5025 83.2C26.97 83.4025 27.4525 83.6275 27.9275 83.8625C27.9571 83.8769 27.9836 83.897 28.0054 83.9216C28.0272 83.9463 28.0439 83.975 28.0546 84.0061C28.0653 84.0372 28.0697 84.0702 28.0676 84.103C28.0656 84.1358 28.057 84.168 28.0425 84.1975C28.0229 84.2377 27.9928 84.2719 27.9554 84.2966C27.918 84.3212 27.8747 84.3353 27.83 84.3375H27.8175ZM24.9525 83.0875C24.9235 83.0875 24.8948 83.0824 24.8675 83.0725C24.3675 82.8925 23.8875 82.7275 23.4025 82.5725C23.3693 82.5646 23.338 82.55 23.3107 82.5296C23.2833 82.5092 23.2604 82.4834 23.2434 82.4538C23.2264 82.4242 23.2156 82.3914 23.2117 82.3575C23.2079 82.3236 23.211 82.2892 23.2209 82.2566C23.2308 82.2239 23.2473 82.1936 23.2694 82.1676C23.2915 82.1415 23.3187 82.1203 23.3493 82.1051C23.3799 82.09 23.4132 82.0813 23.4473 82.0795C23.4814 82.0778 23.5155 82.0831 23.5475 82.095C24.0475 82.2425 24.5475 82.4125 25.0475 82.595C25.103 82.6151 25.1495 82.6542 25.1789 82.7053C25.2084 82.7565 25.2187 82.8163 25.2083 82.8744C25.1978 82.9324 25.1671 82.9849 25.1217 83.0225C25.0763 83.0602 25.019 83.0805 24.96 83.08L24.9525 83.0875ZM21.9525 82.1875H21.8975C21.3975 82.07 20.8975 81.97 20.3825 81.885C20.3497 81.8797 20.3182 81.8681 20.2899 81.8507C20.2616 81.8332 20.237 81.8104 20.2175 81.7835C20.198 81.7566 20.1839 81.7261 20.1762 81.6937C20.1685 81.6614 20.1673 81.6278 20.1725 81.595C20.1778 81.5622 20.1894 81.5307 20.2069 81.5024C20.2243 81.474 20.2471 81.4494 20.274 81.4299C20.301 81.4104 20.3315 81.3964 20.3638 81.3887C20.3961 81.381 20.4297 81.3797 20.4625 81.385C20.98 81.47 21.5 81.5725 22.01 81.6925C22.0763 81.7001 22.1369 81.7338 22.1784 81.786C22.2199 81.8383 22.2389 81.9049 22.2313 81.9712C22.2236 82.0375 22.19 82.0981 22.1377 82.1396C22.0854 82.1811 22.0188 82.2001 21.9525 82.1925V82.1875ZM11.095 81.9375C11.0622 81.9398 11.0292 81.9356 10.998 81.9252C10.9668 81.9147 10.938 81.8982 10.9131 81.8766C10.8629 81.833 10.8322 81.7713 10.8275 81.705C10.8229 81.6387 10.8448 81.5733 10.8884 81.5231C10.932 81.4729 10.9937 81.4421 11.06 81.4375C11.5925 81.3625 12.115 81.3 12.6175 81.2475C12.6838 81.2405 12.7502 81.2602 12.802 81.3022C12.8538 81.3441 12.8868 81.4049 12.8938 81.4712C12.9007 81.5375 12.8811 81.6039 12.8391 81.6557C12.7971 81.7075 12.7363 81.7405 12.67 81.7475C12.17 81.7975 11.655 81.8625 11.1275 81.935L11.095 81.9375ZM18.8775 81.6875H18.875C18.375 81.6375 17.85 81.6 17.335 81.58C17.3022 81.5787 17.2699 81.5709 17.2401 81.5571C17.2103 81.5434 17.1835 81.5238 17.1612 81.4997C17.1389 81.4756 17.1216 81.4473 17.1102 81.4164C17.0989 81.3856 17.0937 81.3528 17.095 81.32C17.0963 81.2872 17.1041 81.2549 17.1179 81.2251C17.1316 81.1953 17.1512 81.1684 17.1753 81.1461C17.1995 81.1239 17.2277 81.1065 17.2586 81.0952C17.2894 81.0838 17.3222 81.0787 17.355 81.08C17.88 81.1 18.41 81.1375 18.925 81.19C18.9913 81.193 19.0537 81.2222 19.0985 81.2712C19.1433 81.3202 19.1667 81.3849 19.1638 81.4512C19.1608 81.5175 19.1316 81.58 19.0826 81.6247C19.0336 81.6695 18.9688 81.693 18.9025 81.69L18.8775 81.6875ZM14.2 81.6175C14.1672 81.6186 14.1345 81.6133 14.1037 81.6018C14.0729 81.5903 14.0447 81.5729 14.0207 81.5505C13.9966 81.5281 13.9773 81.5011 13.9636 81.4712C13.95 81.4414 13.9424 81.4091 13.9413 81.3762C13.9401 81.3434 13.9454 81.3107 13.9569 81.2799C13.9684 81.2491 13.9859 81.2209 14.0083 81.1969C14.0307 81.1729 14.0576 81.1535 14.0875 81.1399C14.1174 81.1262 14.1497 81.1186 14.1825 81.1175C14.715 81.0825 15.2425 81.0625 15.755 81.055C15.7878 81.055 15.8204 81.0615 15.8507 81.074C15.881 81.0866 15.9086 81.105 15.9318 81.1282C15.955 81.1514 15.9734 81.179 15.986 81.2093C15.9985 81.2397 16.005 81.2722 16.005 81.305C16.005 81.3713 15.9787 81.4349 15.9318 81.4818C15.8849 81.5286 15.8213 81.555 15.755 81.555C15.255 81.555 14.73 81.5825 14.2075 81.615L14.2 81.6175Z" fill="#455A64"/>
<path d="M8.83 82.3075C8.77044 82.3084 8.71254 82.2879 8.6667 82.2499C8.62087 82.2118 8.59012 82.1587 8.58 82.1C8.56832 82.035 8.58278 81.9681 8.62025 81.9138C8.65771 81.8594 8.71514 81.8221 8.78 81.81L9.53 81.68C9.59631 81.669 9.66424 81.6849 9.71886 81.724C9.77348 81.7632 9.81031 81.8224 9.82125 81.8887C9.83219 81.955 9.81635 82.023 9.7772 82.0776C9.73805 82.1322 9.67881 82.169 9.6125 82.18L8.8775 82.3075H8.83Z" fill="#455A64"/>
<path d="M10.105 99.645L82.585 115.265L29.7525 88.01L10.105 99.645Z" fill="#8FC1FF"/>
<path d="M82.585 115.265L35.775 85.1325L55.8225 73.5175L82.585 115.265Z" fill="#8FC1FF"/>
<path opacity="0.2" d="M10.105 99.645L39.68 93.13L29.7525 88.01L10.105 99.645Z" fill="black"/>
<path opacity="0.2" d="M44.05 90.4575L55.8225 73.5175L35.775 85.1325L44.05 90.4575Z" fill="black"/>
<path d="M82.585 115.265L35.775 85.1325L34.4975 90.4575L82.585 115.265Z" fill="#8FC1FF"/>
<path opacity="0.2" d="M82.585 115.265L35.775 85.1325L34.4975 90.4575L82.585 115.265Z" fill="black"/>
<path opacity="0.2" d="M44.05 90.4575L43.97 95.345L34.4975 90.4575L35.775 85.1325L44.05 90.4575Z" fill="black"/>
<path d="M47.4375 90.335L48.29 89.9L47.4375 89.675V90.335Z" fill="#263238"/>
<path d="M55.9725 91.79C55.9725 91.79 45.775 87.355 45.66 88.04C45.6363 88.1769 45.6405 88.3172 45.6725 88.4525L45.645 88.415L45.8525 89.6925C46.3079 90.0541 46.8586 90.2756 47.4375 90.33V89.675C47.7526 89.7997 48.0548 89.9545 48.34 90.1375C48.995 90.56 49.425 91.3075 50.1275 92.175C50.64 92.8075 51.5375 93.09 52.8775 93.26C54.3075 93.44 55.56 93.145 55.9075 92.76C56.175 92.4425 56.025 91.88 55.9725 91.79Z" fill="#263238"/>
<path d="M55.6875 91.5575C55.59 91.4575 55.2225 91.0575 54.7275 90.635C54.2925 90.26 53.7875 89.7875 53.245 89.405C52.9841 89.2291 52.7382 89.0317 52.51 88.815C52.3336 88.6277 52.1667 88.4316 52.01 88.2275C51.5203 87.5861 51.1012 86.8938 50.76 86.1625C50.595 85.8175 50.295 85.055 50.355 83.635C50.445 81.4825 50.605 80.7025 50.605 79.305L45.7875 80.055C45.9425 80.8275 46.12 82.555 46.2075 83.4325C46.3425 84.77 46.54 84.895 46.04 86.24C45.895 86.635 45.6725 87.0175 45.66 87.44C45.6375 88.125 46.1825 88.7075 46.785 89.035C47.285 89.305 47.86 89.415 48.345 89.7025C48.8416 90.0309 49.2752 90.4458 49.625 90.9275C49.9725 91.36 50.255 91.875 50.7375 92.1775C51.2482 92.4682 51.8117 92.6543 52.395 92.725C53.128 92.8439 53.873 92.8699 54.6125 92.8025C55.6325 92.69 56.41 92.295 55.6875 91.5575Z" fill="#FFA8A7"/>
<path d="M55.095 90.82C54.655 90.4575 54.0275 89.9375 53.2725 89.355C53.014 89.2689 52.7399 89.2396 52.469 89.2689C52.1981 89.2982 51.9367 89.3856 51.7025 89.525C50.2025 90.3425 49.975 91.475 49.975 91.475C50.2371 91.9781 50.6858 92.3587 51.225 92.535C52.975 93.27 56.08 92.98 56.0975 92.175C56.1025 91.66 55.6325 91.25 55.095 90.82ZM46.095 85.9375C46.095 85.9375 45.9975 86.2025 45.74 86.725C45.6008 86.9616 45.5308 87.2325 45.5378 87.507C45.5449 87.7814 45.6288 88.0484 45.78 88.2775C45.9534 88.5434 46.1796 88.771 46.4445 88.946C46.7094 89.121 47.0074 89.2398 47.32 89.295C47.785 87.75 46.7125 86.25 46.1025 85.9375H46.095Z" fill="#37474F"/>
<path d="M37.3675 89.865C37.645 90.33 37.24 92.06 37.28 93.2975C37.3175 94.4225 37.5125 96.1775 37.21 97.4875C36.9075 98.7975 35.7525 100.238 34.2325 98.9725C33.29 98.19 32.92 97.26 32.8225 95.6425C32.7525 94.5175 33.2325 92.97 33.645 91.6C34.1275 90 34.315 89.1425 34.315 89.1425L37.3675 89.865Z" fill="#263238"/>
<path d="M34.3576 81.5175C34.1951 84.135 34.4651 85.98 34.4501 87.6575C34.4266 88.419 34.3312 89.1765 34.1651 89.92C33.9151 90.985 33.5226 92.465 33.3501 93.1575C33.1001 94.1225 32.9326 94.73 33.2476 95.8225C33.274 95.9092 33.3092 95.993 33.3526 96.0725C33.8026 96.9775 34.9776 97.68 35.3526 97.5725C35.4272 97.6742 35.5298 97.752 35.6479 97.7964C35.766 97.8408 35.8944 97.8499 36.0176 97.8225C36.0599 97.8167 36.1017 97.8075 36.1426 97.795C36.1872 97.7821 36.2307 97.7653 36.2726 97.745C36.4307 97.6619 36.5701 97.5471 36.682 97.4077C36.7938 97.2684 36.8757 97.1075 36.9226 96.935C36.9451 96.8625 36.9676 96.7825 36.9876 96.7C37.2901 95.355 37.1076 94.4775 37.0926 93.95C37.0726 93.34 37.1251 92.565 37.1976 91.5825C37.2701 90.6 37.5651 87.52 37.9351 86.0525C38.2101 85.0275 38.5526 83.74 38.9126 82.37L34.3576 81.5175Z" fill="#FFA8A7"/>
<path d="M33.0925 94.415C34.04 94.02 36.76 94.015 37.1675 95.3475C37.1675 96.5975 37.145 97.44 36.3375 98.5075C35.2625 99.93 33.9275 98.375 33.4225 97.3925C32.9175 96.41 32.9525 95.0825 33.0925 94.415Z" fill="#37474F"/>
<path d="M38.875 44.6375C37.5025 46.985 35.655 50.25 35.4825 55.57C35.255 62.66 35.1075 67.7375 35.0575 68.5925C35.0075 69.4475 34.4225 71.0025 33.8725 75.2025C33.3225 79.4025 33.9225 87.4325 33.9225 87.4325C33.9225 87.4325 34.395 88.3875 36 88.575C37.4825 88.75 38.1775 88.055 38.1775 88.055C38.1775 88.055 40.525 76.805 41.1575 74.2925C41.79 71.78 43.945 60.75 43.945 60.75L44.7325 67.54C44.7325 67.54 44.2175 69.8525 44.57 73.5575C44.9225 77.2625 46.095 84.41 46.095 84.41C46.095 84.41 46.7675 85.12 48.345 85.0575C49.1492 85.0548 49.923 84.7495 50.5125 84.2025C50.5125 84.2025 51.895 70.095 52.0125 65.91C52.13 61.725 52.0125 51.2725 50.86 45.04L38.875 44.6375Z" fill="#37474F"/>
<path d="M45.25 54.045L43.945 60.75L44.7325 67.54L44.76 61.095L46.0425 54.7125C47.0575 54.4975 49.67 52.73 49.8925 51.03C48.4825 53.2325 45.25 54.045 45.25 54.045ZM37.7 79.2225C37.2784 81.3892 36.885 83.5692 36.52 85.7625C37.055 83.6125 37.5617 81.4558 38.04 79.2925C38.525 77.13 38.9825 74.9725 39.4375 72.7925C39.8925 70.6125 40.4175 65.6725 40.66 63.47C40.9025 61.2675 41.0975 59.06 41.26 56.85C40.925 59.04 40.6225 61.235 40.3175 63.4275C40.0125 65.62 39.4325 70.5425 39 72.705C38.5675 74.8675 38.1 77.0475 37.6875 79.2225H37.7ZM50.0875 63.5175C50.105 64.4775 50.1375 65.445 50.0875 66.395C50.0375 67.345 49.9575 68.31 49.8825 69.27L49.66 72.155C49.5067 74.0767 49.3775 76.0017 49.2725 77.93C49.5525 76.02 49.7967 74.1033 50.005 72.18C50.215 70.26 50.415 68.345 50.5325 66.405C50.58 64.455 50.4675 62.5325 50.3475 60.6025C50.2275 58.6725 50.04 56.7525 49.795 54.8375L50 60.62C50.0225 61.5925 50.0575 62.555 50.075 63.5175H50.0875Z" fill="#263238"/>
<path d="M39.58 20.7925C38.21 21.525 38.08 22.6625 38.0025 25.435C37.8775 30.4625 36.3375 36.185 36.3375 36.185L47.8375 36.3175L48.4575 24.8175C48.4575 24.8175 49.475 23.585 49.43 22.26C49.385 20.935 48.66 19.1725 46.2225 18.5325C44.19 18 40.25 18.2025 39.58 20.7925Z" fill="#263238"/>
<path d="M61.285 35.1125C60.6525 32.3075 59.055 28.43 58.31 26.5875C58.0817 25.9035 57.8947 25.2064 57.75 24.5C57.6152 23.7247 57.347 22.9787 56.9575 22.295C56.6507 21.7043 56.2311 21.1794 55.7225 20.75C55.6477 20.6718 55.5484 20.6215 55.4412 20.6074C55.3339 20.5933 55.225 20.6163 55.1325 20.6725C54.9692 20.4801 54.7579 20.3343 54.52 20.25C54.3236 20.2094 54.1223 20.1977 53.9225 20.215C53.7803 20.1983 53.6433 20.1513 53.5208 20.0771C53.3983 20.003 53.2932 19.9033 53.2125 19.785C53.123 19.6702 53.0095 19.5764 52.88 19.51C52.6575 19.4275 52.5525 19.5775 52.505 19.76C52.4438 20.0309 52.4692 20.3142 52.5775 20.57C52.7627 20.9592 52.9775 21.3336 53.22 21.69C53.5475 22.2825 54.035 23.0325 54.0075 23.7225C54.0075 23.8625 53.95 24.1525 53.775 23.9725C53.5595 23.7109 53.3211 23.4691 53.0625 23.25C52.9341 23.1403 52.784 23.0589 52.6221 23.0111C52.4601 22.9633 52.2899 22.9502 52.1225 22.9725C52.0193 22.9847 51.9246 23.0356 51.8575 23.115C51.7725 23.2325 51.8275 23.3125 51.8975 23.4025C51.9684 23.5006 52.0327 23.6034 52.09 23.71C52.2117 23.925 52.3367 24.14 52.465 24.355C53.215 25.605 53.5425 26.1275 54.615 26.975C54.7825 27.11 55.32 27.4225 55.705 28.52C56.09 29.6175 56.3725 33.0975 56.3725 33.0975C56.3725 33.0975 55.8725 32.985 52.6375 32.205C50.9749 31.7816 49.2812 31.4915 47.5725 31.3375L49.8725 36.8125C49.8725 36.8125 53.68 37.5075 57.4375 38.1C60.3075 38.555 62.0475 38.48 61.285 35.1125Z" fill="#FFA8A7"/>
<path d="M56.1425 31.095L56 30C56.6089 30.228 57.2715 30.2715 57.905 30.125C59.045 29.895 59.5075 29.375 59.5075 29.375L59.8675 30.2875C59.3168 30.6458 58.705 30.9 58.0625 31.0375C57.4313 31.1733 56.7807 31.1928 56.1425 31.095V31.095Z" fill="#F0F0F0"/>
<path d="M47.64 31.29C49.205 31.3675 50.7075 31.6425 52.9375 32.16C54.925 32.6225 56.3075 32.995 56.3075 32.995L56.0575 30.665C56.0575 30.665 56.7275 31.095 58.0975 30.8525C59.4675 30.61 59.82 30.035 59.82 30.035C59.82 30.035 61.23 33.8525 61.545 35.6925C61.825 37.3225 61.4025 38.75 59.1775 38.5525C56.445 38.3025 49.4275 37.07 49.4275 37.07L47.64 31.29Z" fill="#8FC1FF"/>
<path opacity="0.15" d="M56.3075 33C56.4175 34.5175 56.7225 35.66 57.2775 36.3275C56.3275 35.8075 55.7325 34.3275 55.69 32.8275L56.3075 33Z" fill="black"/>
<path d="M50.4125 23.0125C50.3227 23.0434 50.2415 23.095 50.1755 23.1632C50.1094 23.2314 50.0605 23.3143 50.0325 23.405C49.9723 23.6198 49.9832 23.8482 50.0633 24.0564C50.1435 24.2645 50.2888 24.4411 50.4775 24.56C50.5583 24.6136 50.6497 24.6491 50.7455 24.6642C50.8413 24.6793 50.9392 24.6736 51.0325 24.6475L51.68 24.425C51.77 24.3945 51.8514 24.343 51.9175 24.2747C51.9836 24.2065 52.0325 24.1234 52.06 24.0325C52.1204 23.8174 52.1097 23.5885 52.0295 23.38C51.9493 23.1714 51.8039 22.9943 51.615 22.875C51.5339 22.8212 51.4419 22.7857 51.3456 22.771C51.2494 22.7563 51.151 22.7628 51.0575 22.79L50.4125 23.0125Z" fill="#FAFAFA"/>
<path d="M50.4125 23.0125C50.3227 23.0434 50.2415 23.095 50.1755 23.1632C50.1094 23.2314 50.0605 23.3143 50.0325 23.405C49.9723 23.6198 49.9832 23.8482 50.0633 24.0564C50.1435 24.2645 50.2888 24.4411 50.4775 24.56C50.5583 24.6136 50.6497 24.6491 50.7455 24.6642C50.8413 24.6793 50.9392 24.6736 51.0325 24.6475L51.68 24.425C51.77 24.3945 51.8514 24.343 51.9175 24.2747C51.9836 24.2065 52.0325 24.1234 52.06 24.0325C52.1204 23.8174 52.1097 23.5885 52.0295 23.38C51.9493 23.1714 51.8039 22.9943 51.615 22.875C51.5339 22.8212 51.4419 22.7857 51.3456 22.771C51.2494 22.7563 51.151 22.7628 51.0575 22.79L50.4125 23.0125Z" fill="#8FC1FF"/>
<path opacity="0.25" d="M50.4125 23.0125C50.3227 23.0434 50.2415 23.095 50.1755 23.1632C50.1094 23.2314 50.0605 23.3143 50.0325 23.405C49.9723 23.6198 49.9832 23.8482 50.0633 24.0564C50.1435 24.2645 50.2888 24.4411 50.4775 24.56C50.5583 24.6136 50.6497 24.6491 50.7455 24.6642C50.8413 24.6793 50.9392 24.6736 51.0325 24.6475L51.68 24.425C51.77 24.3945 51.8514 24.343 51.9175 24.2747C51.9836 24.2065 52.0325 24.1234 52.06 24.0325C52.1204 23.8174 52.1097 23.5885 52.0295 23.38C51.9493 23.1714 51.8039 22.9943 51.615 22.875C51.5339 22.8212 51.4419 22.7857 51.3456 22.771C51.2494 22.7563 51.151 22.7628 51.0575 22.79L50.4125 23.0125Z" fill="white"/>
<path d="M51.1175 24.3425C51.1958 24.3998 51.2866 24.4376 51.3824 24.4528C51.4783 24.468 51.5763 24.4601 51.6685 24.4298C51.7606 24.3995 51.8442 24.3476 51.9123 24.2785C51.9804 24.2094 52.0311 24.1251 52.06 24.0325C52.1204 23.8174 52.1097 23.5885 52.0295 23.3799C51.9493 23.1714 51.804 22.9943 51.615 22.875C51.5368 22.8177 51.4459 22.7799 51.3501 22.7647C51.2543 22.7495 51.1563 22.7574 51.0641 22.7877C50.9719 22.818 50.8884 22.8699 50.8203 22.939C50.7522 23.0081 50.7015 23.0924 50.6725 23.185C50.6122 23.4001 50.6229 23.629 50.7031 23.8375C50.7833 24.0461 50.9286 24.2232 51.1175 24.3425V24.3425Z" fill="#8FC1FF"/>
<path d="M51.215 22.865C51.1374 22.891 51.0672 22.9353 51.0103 22.994C50.9533 23.0527 50.9112 23.1242 50.8875 23.2025C50.8341 23.3881 50.8426 23.5861 50.9116 23.7665C50.9806 23.9468 51.1064 24.0999 51.27 24.2025C51.3392 24.2482 51.4174 24.2786 51.4994 24.2916C51.5813 24.3045 51.6651 24.2997 51.745 24.2775L57.18 22.7425C57.3275 22.695 57.3875 22.33 57.4475 22.155C57.5009 21.9694 57.4924 21.7714 57.4234 21.5911C57.3544 21.4107 57.2286 21.2576 57.065 21.155C56.9025 21.055 56.6175 20.8025 56.4725 20.85C56.425 20.865 51.25 22.85 51.215 22.865Z" fill="#263238"/>
<path d="M55.05 20.7225C54.8911 20.7759 54.7473 20.8666 54.6307 20.9871C54.5141 21.1076 54.4281 21.2544 54.38 21.415C54.2736 21.7942 54.2925 22.1977 54.4339 22.5653C54.5754 22.9329 54.8318 23.245 55.165 23.455C55.307 23.5491 55.4676 23.6115 55.6359 23.6378C55.8042 23.6641 55.9761 23.6538 56.14 23.6075C56.24 23.5775 66.6675 20.6675 66.7625 20.6375C67.0625 20.54 67.19 19.785 67.3125 19.4275C67.4188 19.0486 67.3998 18.6456 67.2584 18.2784C67.1169 17.9112 66.8605 17.5996 66.5275 17.39C66.195 17.185 65.605 16.665 65.305 16.76C65.2075 16.7925 55.1425 20.69 55.05 20.7225Z" fill="#E0E0E0"/>
<path d="M65.5001 20.4175C66.4076 20.97 67.4076 20.6425 67.7326 19.6825C68.0576 18.7225 67.5876 17.5 66.6801 16.9475C65.7726 16.395 64.7726 16.7225 64.4476 17.68C64.1226 18.6375 64.5901 19.8625 65.5001 20.4175Z" fill="#E0E0E0"/>
<path d="M65.3675 20.58C65.663 20.7675 66.005 20.8688 66.355 20.8725H66.4375L66.9525 20.8575H66.915H66.845C66.7975 20.8575 66.745 20.8575 66.695 20.84C66.4177 20.7939 66.152 20.6946 65.9125 20.5475C65.7844 20.4677 65.6632 20.3774 65.55 20.2775C64.7225 19.55 64.3325 18.3125 64.6725 17.32C64.7537 17.0698 64.8885 16.8403 65.0675 16.6475L65.1025 16.61C65.1129 16.5979 65.1247 16.587 65.1375 16.5775L65.2125 16.5125L65.24 16.49L64.81 16.7975C64.77 16.825 64.7325 16.8575 64.695 16.8875C64.4761 17.0846 64.3124 17.3353 64.22 17.615C64.0777 18.1201 64.0876 18.6559 64.2486 19.1554C64.4096 19.6548 64.7145 20.0956 65.125 20.4225L65.25 20.5H65.2625L65.3675 20.58Z" fill="#263238"/>
<path d="M67.805 20C68.935 20.6875 70.1825 20.28 70.5875 19.085C70.9925 17.89 70.4075 16.365 69.275 15.675C68.1425 14.985 66.9 15.4 66.5 16.595C66.1 17.79 66.6725 19.315 67.805 20Z" fill="#8FC1FF"/>
<path d="M65.8675 20.64C66.0637 20.7616 66.2769 20.8535 66.5 20.9125C66.6578 20.9423 66.8173 20.9623 66.9775 20.9725C67.0175 20.9725 67.17 20.9725 67.2075 20.9725L67.32 20.955C67.3835 20.9441 67.4461 20.9291 67.5075 20.91V20.91H67.5225H67.55H67.565L69.4225 20.3H69.3775H69.3225C69.2822 20.3101 69.2413 20.3176 69.2 20.3225C69.1454 20.3319 69.0903 20.3386 69.035 20.3425C68.6004 20.3571 68.1718 20.2375 67.8075 20C67.6931 19.9314 67.5844 19.8536 67.4825 19.7675C66.5675 19.0175 66.13 17.665 66.495 16.59C66.6083 16.2381 66.8231 15.9275 67.1125 15.6975L67.195 15.6375L67.2775 15.585L67.365 15.5375C67.389 15.523 67.4141 15.5105 67.44 15.5L67.505 15.4725L67.57 15.4475L65.71 16.0575L65.625 16.085C65.3706 16.1818 65.1417 16.3356 64.9558 16.5344C64.7699 16.7333 64.632 16.9721 64.5525 17.2325C64.205 18.2575 64.5875 19.5275 65.4175 20.3025C65.4575 20.34 65.4975 20.3775 65.545 20.415C65.6472 20.4973 65.755 20.5725 65.8675 20.64V20.64Z" fill="#FAFAFA"/>
<path d="M71.05 15.195C72.1225 15.8475 72.6775 17.29 72.3 18.42C72.2013 18.7243 72.0235 18.9969 71.785 19.21C71.6285 19.3471 71.4468 19.4524 71.25 19.52L69.7 20.0375L69.6625 20.0525C69.5879 20.0742 69.5118 20.0909 69.435 20.1025C68.9714 20.1683 68.4996 20.0634 68.1075 19.8075C67.0375 19.155 66.48 17.7125 66.8575 16.5825C66.9918 16.1529 67.29 15.7936 67.6875 15.5825C67.7489 15.5501 67.8124 15.5218 67.8775 15.4975V15.4975L67.9525 15.4725L69.4725 14.9725C69.7357 14.8917 70.0134 14.8697 70.286 14.9081C70.5586 14.9466 70.8194 15.0445 71.05 15.195V15.195Z" fill="#EBEBEB"/>
<path d="M68.9075 14.9725C68.6418 15.0636 68.4015 15.2165 68.2063 15.4186C68.0112 15.6207 67.8668 15.8662 67.785 16.135C67.3775 17.33 67.965 18.8575 69.0975 19.5475C69.3361 19.703 69.6052 19.8058 69.8868 19.8489C70.1683 19.892 70.4558 19.8745 70.73 19.7975C70.8975 19.745 71.9675 19.37 72.1225 19.3175C72.3885 19.2288 72.6295 19.0779 72.8256 18.8775C73.0216 18.6771 73.1671 18.4328 73.25 18.165C73.6575 16.97 73.07 15.4425 71.9375 14.7525C71.6981 14.5945 71.4273 14.4903 71.1437 14.4471C70.8602 14.404 70.5706 14.4229 70.295 14.5025C70.1275 14.55 69.0625 14.9225 68.9075 14.9725Z" fill="#FAFAFA"/>
<path d="M65.8675 20.64C66.0637 20.7616 66.2769 20.8535 66.5 20.9125C66.6578 20.9423 66.8173 20.9623 66.9775 20.9725C67.0175 20.9725 67.17 20.9725 67.2075 20.9725L67.32 20.955C67.3835 20.9441 67.4461 20.9291 67.5075 20.91V20.91H67.5225H67.55H67.565L69.4225 20.3H69.3775H69.3225C69.2822 20.3101 69.2413 20.3176 69.2 20.3225C69.1454 20.3319 69.0903 20.3386 69.035 20.3425C68.6004 20.3571 68.1718 20.2375 67.8075 20C67.6931 19.9314 67.5844 19.8536 67.4825 19.7675C66.5675 19.0175 66.13 17.665 66.495 16.59C66.6083 16.2381 66.8231 15.9275 67.1125 15.6975L67.195 15.6375L67.2775 15.585L67.365 15.5375C67.389 15.523 67.4141 15.5105 67.44 15.5L67.505 15.4725L67.57 15.4475L65.71 16.0575L65.625 16.085C65.3706 16.1818 65.1417 16.3356 64.9558 16.5344C64.7699 16.7333 64.632 16.9721 64.5525 17.2325C64.205 18.2575 64.5875 19.5275 65.4175 20.3025C65.4575 20.34 65.4975 20.3775 65.545 20.415C65.6472 20.4973 65.755 20.5725 65.8675 20.64V20.64Z" fill="#8FC1FF"/>
<path opacity="0.25" d="M65.8675 20.64C66.0637 20.7616 66.2769 20.8535 66.5 20.9125C66.6578 20.9423 66.8173 20.9623 66.9775 20.9725C67.0175 20.9725 67.17 20.9725 67.2075 20.9725L67.32 20.955C67.3835 20.9441 67.4461 20.9291 67.5075 20.91V20.91H67.5225H67.55H67.565L69.4225 20.3H69.3775H69.3225C69.2822 20.3101 69.2413 20.3176 69.2 20.3225C69.1454 20.3319 69.0903 20.3386 69.035 20.3425C68.6004 20.3571 68.1718 20.2375 67.8075 20C67.6931 19.9314 67.5844 19.8536 67.4825 19.7675C66.5675 19.0175 66.13 17.665 66.495 16.59C66.6083 16.2381 66.8231 15.9275 67.1125 15.6975L67.195 15.6375L67.2775 15.585L67.365 15.5375C67.389 15.523 67.4141 15.5105 67.44 15.5L67.505 15.4725L67.57 15.4475L65.71 16.0575L65.625 16.085C65.3706 16.1818 65.1417 16.3356 64.9558 16.5344C64.7699 16.7333 64.632 16.9721 64.5525 17.2325C64.205 18.2575 64.5875 19.5275 65.4175 20.3025C65.4575 20.34 65.4975 20.3775 65.545 20.415C65.6472 20.4973 65.755 20.5725 65.8675 20.64V20.64Z" fill="white"/>
<path d="M71.05 15.195C72.1225 15.8475 72.6775 17.29 72.3 18.42C72.2013 18.7243 72.0235 18.9969 71.785 19.21C71.6285 19.3471 71.4468 19.4524 71.25 19.52L69.7 20.0375L69.6625 20.0525C69.5879 20.0742 69.5118 20.0909 69.435 20.1025C68.9714 20.1683 68.4996 20.0634 68.1075 19.8075C67.0375 19.155 66.48 17.7125 66.8575 16.5825C66.9918 16.1529 67.29 15.7936 67.6875 15.5825C67.7489 15.5501 67.8124 15.5218 67.8775 15.4975V15.4975L67.9525 15.4725L69.4725 14.9725C69.7357 14.8917 70.0134 14.8697 70.286 14.9081C70.5586 14.9466 70.8194 15.0445 71.05 15.195V15.195Z" fill="#8FC1FF"/>
<path opacity="0.15" d="M71.05 15.195C72.1225 15.8475 72.6775 17.29 72.3 18.42C72.2013 18.7243 72.0235 18.9969 71.785 19.21C71.6285 19.3471 71.4468 19.4524 71.25 19.52L69.7 20.0375L69.6625 20.0525C69.5879 20.0742 69.5118 20.0909 69.435 20.1025C68.9714 20.1683 68.4996 20.0634 68.1075 19.8075C67.0375 19.155 66.48 17.7125 66.8575 16.5825C66.9918 16.1529 67.29 15.7936 67.6875 15.5825C67.7489 15.5501 67.8124 15.5218 67.8775 15.4975V15.4975L67.9525 15.4725L69.4725 14.9725C69.7357 14.8917 70.0134 14.8697 70.286 14.9081C70.5586 14.9466 70.8194 15.0445 71.05 15.195V15.195Z" fill="white"/>
<path d="M68.9075 14.9725C68.6418 15.0636 68.4015 15.2165 68.2063 15.4186C68.0112 15.6207 67.8668 15.8662 67.785 16.135C67.3775 17.33 67.965 18.8575 69.0975 19.5475C69.3361 19.703 69.6052 19.8058 69.8868 19.8489C70.1683 19.892 70.4558 19.8745 70.73 19.7975C70.8975 19.745 71.9675 19.37 72.1225 19.3175C72.3885 19.2288 72.6295 19.0779 72.8256 18.8775C73.0216 18.6771 73.1671 18.4328 73.25 18.165C73.6575 16.97 73.07 15.4425 71.9375 14.7525C71.6981 14.5945 71.4273 14.4903 71.1437 14.4471C70.8602 14.404 70.5706 14.4229 70.295 14.5025C70.1275 14.55 69.0625 14.9225 68.9075 14.9725Z" fill="#8FC1FF"/>
<path opacity="0.25" d="M68.9075 14.9725C68.6418 15.0636 68.4015 15.2165 68.2063 15.4186C68.0112 15.6207 67.8668 15.8662 67.785 16.135C67.3775 17.33 67.965 18.8575 69.0975 19.5475C69.3361 19.703 69.6052 19.8058 69.8868 19.8489C70.1683 19.892 70.4558 19.8745 70.73 19.7975C70.8975 19.745 71.9675 19.37 72.1225 19.3175C72.3885 19.2288 72.6295 19.0779 72.8256 18.8775C73.0216 18.6771 73.1671 18.4328 73.25 18.165C73.6575 16.97 73.07 15.4425 71.9375 14.7525C71.6981 14.5945 71.4273 14.4903 71.1437 14.4471C70.8602 14.404 70.5706 14.4229 70.295 14.5025C70.1275 14.55 69.0625 14.9225 68.9075 14.9725Z" fill="white"/>
<path d="M70.46 19.0775C71.5925 19.7675 72.84 19.36 73.245 18.165C73.65 16.97 73.065 15.4425 71.9325 14.7525C70.8 14.0625 69.555 14.47 69.1475 15.665C68.74 16.86 69.3275 18.3875 70.46 19.0775Z" fill="#8FC1FF"/>
<path opacity="0.2" d="M72.41 18.845C71.8825 19.3075 71.1975 18.975 70.9275 18.81C69.8725 18.1675 69.3025 16.685 69.6775 15.5725C69.756 15.3195 69.9 15.0918 70.095 14.9125C70.6225 14.4525 71.3075 14.785 71.5775 14.95C72.63 15.59 73.2 17.0725 72.8275 18.185C72.7491 18.438 72.605 18.6657 72.41 18.845V18.845Z" fill="black"/>
<path d="M70.9251 15.1675C70.6816 15.0137 70.4046 14.921 70.1175 14.8975L70.1 14.9125C69.905 15.0918 69.761 15.3195 69.6826 15.5725C69.3026 16.685 69.8726 18.1675 70.9326 18.81C71.1754 18.9632 71.4515 19.0558 71.7376 19.08L71.7575 19.065C71.9515 18.8848 72.0953 18.6574 72.1751 18.405C72.5476 17.2925 71.9776 15.81 70.9251 15.1675Z" fill="#8FC1FF"/>
<path opacity="0.6" d="M70.9251 15.1675C70.6816 15.0137 70.4046 14.921 70.1175 14.8975L70.1 14.9125C69.905 15.0918 69.761 15.3195 69.6826 15.5725C69.3026 16.685 69.8726 18.1675 70.9326 18.81C71.1754 18.9632 71.4515 19.0558 71.7376 19.08L71.7575 19.065C71.9515 18.8848 72.0953 18.6574 72.1751 18.405C72.5476 17.2925 71.9776 15.81 70.9251 15.1675Z" fill="white"/>
<path opacity="0.1" d="M69.6675 15.6175C69.32 16.725 69.8875 18.175 70.9175 18.81C71.1228 18.7657 71.3125 18.6672 71.4668 18.5248C71.6212 18.3823 71.7345 18.2011 71.795 18C71.9128 17.5769 71.8911 17.127 71.733 16.7172C71.5749 16.3074 71.2889 15.9594 70.9175 15.725C70.7357 15.6017 70.5253 15.5271 70.3065 15.5083C70.0877 15.4895 69.8677 15.5271 69.6675 15.6175V15.6175Z" fill="#8FC1FF"/>
<path opacity="0.2" d="M69.5775 16.5575C69.6346 17.1371 69.8519 17.6894 70.205 18.1525C70.3041 18.2107 70.4152 18.2454 70.5297 18.2539C70.6443 18.2624 70.7593 18.2444 70.8658 18.2014C70.9724 18.1584 71.0676 18.0915 71.1442 18.0059C71.2208 17.9202 71.2766 17.8182 71.3075 17.7075C71.3824 17.4369 71.3686 17.1494 71.2683 16.8871C71.168 16.6249 70.9864 16.4016 70.75 16.25C70.657 16.1794 70.5492 16.1308 70.4346 16.108C70.3201 16.0852 70.2019 16.0887 70.0889 16.1183C69.9759 16.148 69.8712 16.2029 69.7826 16.279C69.694 16.3551 69.6239 16.4503 69.5775 16.5575Z" fill="#8FC1FF"/>
<path opacity="0.6" d="M69.905 16.2225C69.8 15.615 70.1826 15.1575 70.4251 15.17C70.6676 15.1825 72.25 16.135 72 18.0175C72 18.0175 71.9576 16.82 71.2376 16.0375C70.5576 15.2975 69.9425 15.6325 69.905 16.2225Z" fill="white"/>
<path opacity="0.1" d="M65.5475 20.4125L67.4775 19.77L67.7275 19.54L68.6725 19.225L68.8 19.3375L70.1775 18.8775C70.2685 18.9517 70.3646 19.0193 70.465 19.08L70.5725 19.1425C70.8539 19.301 71.1677 19.3933 71.49 19.4125C71.6804 19.4234 71.8712 19.4031 72.055 19.3525H72.04C71.74 19.455 70.8825 19.755 70.735 19.8025C70.5504 19.8584 70.3578 19.8829 70.165 19.875L70.055 19.9125C69.842 20.1017 69.5836 20.2326 69.305 20.2925H69.3275H69.3825H69.4275L67.57 20.9025H67.555H67.5275H67.5125C67.4511 20.9216 67.3885 20.9366 67.325 20.9475L67.2125 20.965C67.175 20.965 67.0225 20.98 66.9825 20.965C66.8223 20.9549 66.6628 20.9348 66.505 20.905C66.3401 20.8629 66.1807 20.8016 66.03 20.7225C65.976 20.6962 65.9234 20.667 65.8725 20.635C65.7592 20.5684 65.6506 20.4941 65.5475 20.4125V20.4125Z" fill="black"/>
<path d="M37.36 47.2725C37.5075 46.1925 38.26 46.0225 37.895 43.46C37.7125 42.185 37.0725 38.8875 37.0725 38.8875C37.0725 38.8875 39.265 37.1975 38.5725 32.2675L40.93 31.3175L42.215 30.865L45.81 31.015L47.655 31.515C48.2875 32.06 49.445 32.9175 50.3775 34.2325C51.7225 36.1325 51.965 38.2325 50.59 39.785C50.575 40.09 50.63 44.785 50.985 45.9325C51.125 46.3875 51.3175 47.005 51.02 47.615C49.6875 49.7925 41.8425 52 37.36 47.2725Z" fill="#FAFAFA"/>
<path d="M45.8 31.015L47.64 31.29C49.4075 32.625 51.5125 35.04 51.64 36.8925C51.7147 37.9909 51.4247 39.0832 50.815 40C50.815 40 50.7901 43.7725 51.2201 45.7625C51.6501 47.7525 52.1301 53.0875 52.1301 53.0875C52.1301 53.0875 52.1675 53.42 50.69 53.8375C50.235 51.2825 49.1151 41.9075 49.1776 39.6575C49.2401 37.4075 49.27 33.85 45.8 31.015Z" fill="#8FC1FF"/>
<path opacity="0.3" d="M45.8 31.015L47.64 31.29C49.4075 32.625 51.5125 35.04 51.64 36.8925C51.7147 37.9909 51.4247 39.0832 50.815 40C50.815 40 50.7901 43.7725 51.2201 45.7625C51.6501 47.7525 52.1301 53.0875 52.1301 53.0875C52.1301 53.0875 52.1675 53.42 50.69 53.8375C50.235 51.2825 49.1151 41.9075 49.1776 39.6575C49.2401 37.4075 49.27 33.85 45.8 31.015Z" fill="black"/>
<path opacity="0.2" d="M49.445 40.7025C49.59 40.105 49.75 39.5125 49.9125 38.92C50.075 38.3275 50.23 37.7325 50.3775 37.14C50.4532 36.8464 50.51 36.5483 50.5475 36.2475C50.5925 35.965 50.3925 35.73 50.1925 35.4975C49.764 35.0678 49.2905 34.6856 48.78 34.3575L48.7325 34.3275V34.2725C48.7875 33.949 48.7875 33.6185 48.7325 33.295C48.6815 32.9699 48.5668 32.6581 48.395 32.3775C48.2063 32.1038 47.9721 31.8645 47.7025 31.67C47.4326 31.472 47.1416 31.3044 46.835 31.17C47.1576 31.2834 47.4649 31.4362 47.75 31.625C48.042 31.8088 48.2966 32.0463 48.5 32.325C48.6918 32.6138 48.8252 32.9374 48.8925 33.2775C48.9617 33.6193 48.9685 33.9708 48.9125 34.315L48.875 34.2275C49.4045 34.5561 49.8944 34.9444 50.335 35.385C50.4457 35.5015 50.5423 35.6307 50.6225 35.77C50.6448 35.8054 50.6633 35.8431 50.6775 35.8825C50.6967 35.9219 50.7094 35.9641 50.715 36.0075C50.728 36.0903 50.728 36.1747 50.715 36.2575C50.6737 36.5661 50.6128 36.8717 50.5325 37.1725C50.3825 37.77 50.1925 38.3575 50.0125 38.945C49.8325 39.5325 49.635 40.1175 49.445 40.7025Z" fill="black"/>
<path d="M40.92 31.3175C40.92 31.3175 41.695 32.3175 42.72 34.655C43.745 36.9925 44.7325 39.1275 44.72 41.2975C44.7075 43.4675 44 54.685 44 54.685C44 54.685 40.89 55.155 38.0725 54.02L38.3025 49.675L37.235 53.815C37.235 53.815 35.8875 53.3325 35.39 52.8825C36.125 48.365 37.7675 46.22 37.85 44.5525C37.905 43.4075 36.9325 40.2325 36.7475 37.37C36.6705 35.6957 36.7854 34.0181 37.09 32.37L40.92 31.3175Z" fill="#8FC1FF"/>
<path opacity="0.3" d="M40.92 31.3175C40.92 31.3175 41.695 32.3175 42.72 34.655C43.745 36.9925 44.7325 39.1275 44.72 41.2975C44.7075 43.4675 44 54.685 44 54.685C44 54.685 40.89 55.155 38.0725 54.02L38.3025 49.675L37.235 53.815C37.235 53.815 35.8875 53.3325 35.39 52.8825C36.125 48.365 37.7675 46.22 37.85 44.5525C37.905 43.4075 36.9325 40.2325 36.7475 37.37C36.6705 35.6957 36.7854 34.0181 37.09 32.37L40.92 31.3175Z" fill="black"/>
<path opacity="0.2" d="M44.305 41.9425C44.1092 41.3967 43.8199 40.8891 43.45 40.4425C43.1 39.98 42.7175 39.545 42.3275 39.1175C42.1325 38.9025 41.935 38.69 41.7375 38.48L41.4375 38.1625C41.3875 38.105 41.3375 38.0575 41.2875 37.9925C41.2724 37.9774 41.259 37.9606 41.2475 37.9425C41.2326 37.9162 41.22 37.8886 41.21 37.86C41.1991 37.8125 41.1941 37.7638 41.195 37.715C41.244 37.4111 41.3464 37.1182 41.4975 36.85C41.635 36.6 41.785 36.335 41.945 36.085L41.96 36.23L41.07 35.3325L40.6275 34.88L40.5175 34.765L40.4625 34.7075C40.4335 34.6811 40.4083 34.6508 40.3875 34.6175C40.3665 34.553 40.3589 34.485 40.365 34.4175C40.365 34.3625 40.365 34.3075 40.3825 34.2525C40.4559 33.8296 40.5569 33.4121 40.685 33.0025C40.81 32.595 40.935 32.1925 41.0825 31.7925C40.9825 32.205 40.8775 32.615 40.785 33.0275C40.6925 33.44 40.595 33.855 40.55 34.265C40.5357 34.3527 40.5357 34.4422 40.55 34.53C40.535 34.51 40.55 34.5425 40.58 34.5575L40.6375 34.6125L40.7525 34.7225L41.21 35.1675L42.1225 36.06L42.1875 36.1225L42.1375 36.205C41.985 36.455 41.8425 36.705 41.7125 36.955C41.5764 37.1939 41.4794 37.453 41.425 37.7225C41.4235 37.745 41.4235 37.7675 41.425 37.79C41.4269 37.7957 41.4269 37.8018 41.425 37.8075C41.425 37.8075 41.4425 37.8325 41.4525 37.845C41.49 37.895 41.5425 37.95 41.59 38.0025L41.885 38.325C42.08 38.54 42.275 38.755 42.4675 38.975C42.8488 39.4184 43.2075 39.8807 43.5425 40.36C43.7082 40.6002 43.8585 40.8507 43.9925 41.11C44.1358 41.3712 44.241 41.6515 44.305 41.9425V41.9425Z" fill="black"/>
<path d="M40.84 28.1725C40.5981 28.2341 40.3446 28.2337 40.1029 28.1712C39.8612 28.1087 39.6393 27.9862 39.4575 27.815C38.6725 27.125 38.5175 26.35 38.785 25.79C39.005 25.3325 39.635 24.9825 40.13 25.2225C40.625 25.4625 40.7025 25.7225 40.93 26.055C41.1575 26.3875 41.605 26.055 41.285 24.6675C42.195 24.1075 41.86 22.515 42.305 21.8C43.0025 20.68 44.3725 20.8 44.835 20.99C45.0771 20.7736 45.3746 20.6289 45.6943 20.5719C46.0139 20.5149 46.3431 20.548 46.645 20.6675C47.33 20.94 47.84 21.62 48.35 24.095C48.87 26.6175 48.62 28.3675 48.1 28.975C47.7375 29.3925 46.82 29.7775 45.9175 29.8275L45.81 31.215C45.81 31.215 48.7925 33.5525 45.4625 33.68C42.9625 33.775 41.1525 31.2375 41.1525 31.2375L41.35 27.71C41.35 27.71 41.325 28.0225 40.84 28.1725Z" fill="#FFA8A7"/>
<path d="M44.085 23.5275L43.1875 24C43.1259 23.8768 43.1144 23.7346 43.1555 23.6032C43.1965 23.4717 43.2868 23.3613 43.4075 23.295C43.4671 23.2649 43.5321 23.247 43.5987 23.2424C43.6653 23.2379 43.7322 23.2467 43.7953 23.2683C43.8585 23.29 43.9166 23.3241 43.9664 23.3686C44.0162 23.4131 44.0565 23.4671 44.085 23.5275Z" fill="#263238"/>
<path d="M47.67 22.7975L46.655 22.645C46.6627 22.5789 46.6835 22.515 46.7163 22.457C46.749 22.399 46.7929 22.3482 46.8456 22.3075C46.8982 22.2667 46.9584 22.2369 47.0227 22.2197C47.087 22.2025 47.1541 22.1984 47.22 22.2075C47.3559 22.2303 47.4781 22.3039 47.5617 22.4135C47.6453 22.5231 47.684 22.6604 47.67 22.7975Z" fill="#263238"/>
<path d="M44.5325 26.9325L45.9725 27.15C45.9634 27.2448 45.9351 27.3367 45.8892 27.4201C45.8434 27.5036 45.781 27.5768 45.7059 27.6353C45.6307 27.6938 45.5445 27.7364 45.4523 27.7604C45.3602 27.7844 45.2641 27.7894 45.17 27.775C44.9761 27.7429 44.8019 27.6376 44.6832 27.4809C44.5646 27.3241 44.5107 27.1279 44.5325 26.9325V26.9325Z" fill="#B16668"/>
<path d="M45.4475 27.75C45.4036 27.5864 45.3055 27.4424 45.1694 27.3417C45.0332 27.2409 44.8669 27.1892 44.6975 27.195C44.6487 27.1957 44.6001 27.2016 44.5526 27.2125C44.5914 27.3538 44.67 27.481 44.779 27.579C44.888 27.6769 45.0229 27.7415 45.1675 27.765C45.2609 27.7793 45.3562 27.7742 45.4475 27.75V27.75Z" fill="#F28F8F"/>
<path d="M47.6026 23.905C47.6411 23.9775 47.6572 24.0599 47.6489 24.1416C47.6406 24.2233 47.6083 24.3007 47.5559 24.364C47.5036 24.4273 47.4337 24.4737 47.355 24.4972C47.2763 24.5208 47.1924 24.5204 47.1139 24.4962C47.0354 24.4721 46.9658 24.4251 46.914 24.3614C46.8622 24.2977 46.8305 24.22 46.8228 24.1382C46.8152 24.0564 46.832 23.9742 46.8711 23.902C46.9102 23.8298 46.9699 23.7708 47.0426 23.7325C47.1399 23.6819 47.2531 23.6717 47.3579 23.704C47.4627 23.7363 47.5506 23.8085 47.6026 23.905V23.905Z" fill="#263238"/>
<path d="M44.67 24.6325C44.7025 24.715 44.42 24.5525 44.1475 24.5925C43.7875 24.6425 43.5776 24.995 43.6126 24.7675C43.6261 24.6446 43.6848 24.5312 43.7771 24.449C43.8694 24.3668 43.9889 24.3217 44.1125 24.3225C44.2273 24.2975 44.3472 24.3152 44.4498 24.3722C44.5525 24.4293 44.6308 24.5218 44.67 24.6325V24.6325Z" fill="#263238"/>
<path d="M45.5001 23.59L46.0201 26.25L47.4451 25.6525C46.9626 24.65 46.1276 24.0275 45.5001 23.59Z" fill="#F28F8F"/>
<path d="M45.91 29.8275C44.6125 29.9225 43.0225 29.6075 42.4625 28.8275C42.8225 29.6975 43.785 30.06 44.535 30.1825C44.9763 30.2684 45.4257 30.3045 45.875 30.29L45.91 29.8275Z" fill="#F28F8F"/>
<path d="M35.0625 53.935C34.765 53.625 34.3875 53.355 34.2575 52.935C34.2211 52.8258 34.2103 52.7098 34.2259 52.5957C34.2415 52.4817 34.2831 52.3728 34.3475 52.2775C34.3815 52.2434 34.4079 52.2025 34.425 52.1575C34.4325 52.1187 34.4325 52.0788 34.425 52.04C34.3822 51.879 34.3901 51.7088 34.4475 51.5525C34.4766 51.4886 34.5188 51.4315 34.5713 51.385C34.6238 51.3385 34.6856 51.3036 34.7525 51.2825C34.671 51.0391 34.671 50.7758 34.7525 50.5325C34.8425 50.2525 35.1275 50.0325 35.3225 50.3325C35.4152 50.4852 35.4922 50.6469 35.5525 50.815C35.7052 51.2348 35.8076 51.6711 35.8575 52.115C35.915 52.575 36.0525 53.8825 35.3375 53.96C35.2625 53.9725 35.105 53.98 35.0625 53.935Z" fill="#F28F8F"/>
<path d="M37.75 32.6225C35 33.2 34.75 34.0725 33.15 36.3725C31.55 38.6725 29.5625 41.8025 29.0725 42.9125C28.4675 44.2875 28.3425 44.815 29.8225 46.235C30.59 46.9675 31.6575 47.835 32.745 48.82C33.605 49.595 34.635 50.4175 35.4675 51.22C35.5785 51.307 35.6627 51.4235 35.7104 51.5562C35.7582 51.6888 35.7676 51.8322 35.7375 51.97C35.6836 52.1534 35.6394 52.3395 35.605 52.5275C35.6103 52.7725 35.6354 53.0166 35.68 53.2575C35.6998 53.3792 35.6842 53.504 35.635 53.617C35.5858 53.7301 35.5051 53.8266 35.4025 53.895C35.2928 53.9408 35.173 53.9572 35.055 53.9425C35.2621 54.0945 35.4915 54.2134 35.735 54.295C35.9813 54.3756 36.2487 54.3613 36.485 54.255C36.705 54.1425 36.87 53.925 37.1075 53.85C37.235 53.8075 37.375 53.8125 37.5025 53.775C37.6361 53.7352 37.7541 53.6548 37.84 53.545C37.9725 53.37 38.0225 53.1225 38.2125 53.0125C38.3094 52.972 38.4088 52.9378 38.51 52.91C38.6054 52.8616 38.6878 52.7908 38.75 52.7038C38.8122 52.6167 38.8526 52.516 38.8675 52.41C38.8958 52.1975 38.8865 51.9817 38.84 51.7725C38.7428 51.2058 38.6143 50.6449 38.455 50.0925C38.3925 49.9053 38.2968 49.7308 38.1725 49.5775C38.04 49.395 37.9225 49.205 37.7675 49.03C36.795 47.8425 33.7075 43.88 33.7075 43.88L37.1175 39.41C37.8548 38.4546 38.3057 37.3095 38.4177 36.1079C38.5296 34.9063 38.2981 33.6977 37.75 32.6225V32.6225Z" fill="#FFA8A7"/>
<path d="M33.7176 43.87C32.8976 44.71 31.5976 44.8025 31.1176 44.785C31.6016 44.9739 32.1293 45.0218 32.6394 44.9231C33.1496 44.8244 33.6213 44.5833 34.0001 44.2275L33.7176 43.87Z" fill="#F28F8F"/>
<path d="M31.98 48.1425L32.7525 48.815C33.4983 48.7015 34.1745 48.3126 34.6475 47.725C35.505 46.695 35.44 45.9425 35.44 45.9425L34.5425 44.9275L31.98 48.1425Z" fill="#F0F0F0"/>
<path d="M37.78 32.1725C35.8075 32.605 35.44 32.8675 34.03 34.8425C32.62 36.8175 30.24 40.5925 29.62 41.555C29 42.5175 28.0775 44.21 28.62 45.055C29.1625 45.9 32.085 48.37 32.085 48.37C32.085 48.37 33.085 48.3225 34.0475 47.3275C35.0475 46.2925 34.9725 45.2325 34.9725 45.2325L33.885 43.87C33.885 43.87 36.9275 39.95 37.4775 39.225C38.0275 38.5 39.25 36.0525 37.78 32.1725Z" fill="#8FC1FF"/>
<path opacity="0.15" d="M33.8775 43.8675C33.4825 43.4225 32.52 42.7 31.8125 42.5775C32.5625 42.4475 33.655 42.9775 34.175 43.4625L33.8775 43.8675Z" fill="black"/>
</svg>
