<svg width="125" height="125" viewBox="0 0 125 125" fill="none" xmlns="http://www.w3.org/2000/svg">
<mask id="mask0_796_2296" style="mask-type:alpha" maskUnits="userSpaceOnUse" x="0" y="0" width="125" height="125">
<rect width="125" height="125" fill="#D9D9D9"/>
</mask>
<g mask="url(#mask0_796_2296)">
<path d="M114.479 86.0147H65.8415C65.4234 86.014 65.0226 85.8476 64.727 85.5519C64.4314 85.2563 64.265 84.8556 64.2643 84.4375V13.5772C64.2657 13.1596 64.4324 12.7595 64.728 12.4645C65.0235 12.1694 65.4239 12.0034 65.8415 12.0027H114.479C114.896 12.0034 115.296 12.1694 115.592 12.4645C115.888 12.7595 116.054 13.1596 116.056 13.5772V84.4375C116.055 84.8556 115.889 85.2563 115.593 85.5519C115.297 85.8476 114.897 86.014 114.479 86.0147ZM65.8415 12.07C65.6425 12.0686 65.4452 12.1065 65.261 12.1816C65.0767 12.2566 64.9091 12.3674 64.7678 12.5075C64.6265 12.6475 64.5142 12.8141 64.4375 12.9977C64.3608 13.1813 64.3211 13.3782 64.3208 13.5772V84.4375C64.3208 84.8379 64.4799 85.222 64.763 85.5051C65.0462 85.7883 65.4302 85.9474 65.8307 85.9474H114.479C114.879 85.9474 115.263 85.7883 115.546 85.5051C115.829 85.222 115.988 84.8379 115.988 84.4375V13.5772C115.988 13.1767 115.829 12.7927 115.546 12.5095C115.263 12.2264 114.879 12.0673 114.479 12.0673L65.8415 12.07Z" fill="#F0F0F0"/>
<path d="M58.3808 86.0146H9.73295C9.31487 86.0139 8.91412 85.8475 8.61849 85.5519C8.32287 85.2563 8.15647 84.8555 8.15576 84.4375V13.5772C8.15647 13.1591 8.32287 12.7584 8.61849 12.4627C8.91412 12.1671 9.31487 12.0007 9.73295 12H58.3808C58.7988 12.0007 59.1996 12.1671 59.4952 12.4627C59.7908 12.7584 59.9572 13.1591 59.9579 13.5772V84.4375C59.9572 84.8555 59.7908 85.2563 59.4952 85.5519C59.1996 85.8475 58.7988 86.0139 58.3808 86.0146ZM9.73295 12.07C9.33296 12.07 8.94932 12.2287 8.66624 12.5113C8.38315 12.7938 8.22376 13.1772 8.22305 13.5772V84.4375C8.22305 84.8379 8.38213 85.222 8.66529 85.5051C8.94845 85.7883 9.3325 85.9474 9.73295 85.9474H58.3808C58.7812 85.9474 59.1653 85.7883 59.4484 85.5051C59.7316 85.222 59.8907 84.8379 59.8907 84.4375V13.5772C59.8907 13.1767 59.7316 12.7927 59.4484 12.5095C59.1653 12.2264 58.7812 12.0673 58.3808 12.0673L9.73295 12.07Z" fill="#F0F0F0"/>
<path d="M129.572 102.451H-5V102.519H129.572V102.451Z" fill="#E0E0E0"/>
<path d="M121.393 70.4823H70.2554C70.2554 70.8978 70.4204 71.2962 70.7142 71.59C71.0079 71.8837 71.4064 72.0488 71.8218 72.0488H119.824C120.239 72.0488 120.638 71.8838 120.932 71.5901C121.226 71.2964 121.392 70.898 121.393 70.4823Z" fill="#E0E0E0"/>
<path d="M111.348 85.3068H80.7601V86.7575H111.348V85.3068Z" fill="#E0E0E0"/>
<path d="M110.266 102.47L114.435 72.0488H112.971L108.802 102.47H110.266Z" fill="#E6E6E6"/>
<path d="M113.693 102.47L109.456 72.0488H110.92L115.157 102.47H113.693Z" fill="#E6E6E6"/>
<path d="M78.4213 102.47L82.768 72.0488H81.3038L76.9572 102.47H78.4213Z" fill="#E6E6E6"/>
<path d="M81.8475 102.47L77.6785 72.0488H79.1426L83.3117 102.47H81.8475Z" fill="#E6E6E6"/>
<path d="M123.107 67.9659H68.5383V70.4904H123.107V67.9659Z" fill="#E6E6E6"/>
<path d="M88.2047 67.9739H111.889L112.134 67.406C112.296 67.0427 111.865 66.6766 111.289 66.6766H89.4482C89.2829 66.6621 89.1168 66.693 88.9678 66.7661C88.8189 66.8391 88.6927 66.9515 88.603 67.0911L88.2047 67.9739Z" fill="#E0E0E0"/>
<path d="M118.378 51.4915L115.348 64.3109C115.309 64.477 115.214 64.625 115.081 64.7309C114.947 64.8369 114.781 64.8947 114.61 64.8949H95.9372C95.823 64.8947 95.7104 64.8686 95.6077 64.8188C95.5049 64.769 95.4148 64.6966 95.3439 64.6071C95.273 64.5176 95.2233 64.4133 95.1983 64.3019C95.1733 64.1905 95.1738 64.0749 95.1997 63.9637L98.2303 51.1417C98.2702 50.9761 98.3646 50.8287 98.4983 50.7232C98.6321 50.6178 98.7974 50.5604 98.9678 50.5603H117.641C117.755 50.5601 117.868 50.5857 117.971 50.6354C118.074 50.6851 118.165 50.7574 118.236 50.8471C118.307 50.9367 118.356 51.0413 118.381 51.1529C118.406 51.2645 118.405 51.3803 118.378 51.4915Z" fill="#F0F0F0"/>
<path d="M109.306 58.2282C109.255 58.6244 109.064 58.9894 108.768 59.2574C108.472 59.5254 108.09 59.6787 107.691 59.6897C107.505 59.6938 107.32 59.6575 107.149 59.5832C106.979 59.5089 106.827 59.3984 106.703 59.2594C106.579 59.1204 106.487 58.9562 106.433 58.7781C106.379 58.6001 106.365 58.4124 106.391 58.2282C106.441 57.832 106.632 57.467 106.928 57.199C107.224 56.931 107.606 56.7777 108.006 56.7668C108.192 56.7626 108.376 56.799 108.547 56.8732C108.717 56.9475 108.87 57.058 108.993 57.197C109.117 57.336 109.209 57.5002 109.263 57.6783C109.317 57.8563 109.331 58.044 109.306 58.2282Z" fill="#E0E0E0"/>
<path d="M99.7079 50.5603L96.4782 64.8949H95.9399C95.8257 64.8947 95.7131 64.8686 95.6103 64.8188C95.5076 64.769 95.4175 64.6966 95.3466 64.6071C95.2757 64.5176 95.2259 64.4133 95.201 64.3019C95.176 64.1905 95.1765 64.0749 95.2024 63.9637L98.233 51.1417C98.2728 50.9761 98.3673 50.8287 98.501 50.7232C98.6348 50.6178 98.8001 50.5604 98.9704 50.5603H99.7079Z" fill="#E0E0E0"/>
<path d="M105.118 64.8949L104.48 67.9389H106.35L106.988 64.8949H105.118Z" fill="#E0E0E0"/>
<path d="M101.751 67.4249L102.133 66.8866C102.2 66.7915 102.289 66.714 102.393 66.6606C102.496 66.6072 102.611 66.5795 102.728 66.5797H107.858C107.991 66.5797 108.121 66.6161 108.235 66.6848C108.349 66.7536 108.442 66.8522 108.503 66.97L108.773 67.4652C108.8 67.518 108.813 67.5769 108.811 67.6362C108.809 67.6955 108.792 67.7533 108.761 67.8041C108.73 67.8548 108.687 67.8968 108.635 67.9261C108.583 67.9554 108.525 67.9709 108.466 67.9712H102.033C101.969 67.9719 101.907 67.9548 101.852 67.9219C101.798 67.889 101.753 67.8416 101.724 67.785C101.695 67.7284 101.682 67.6647 101.686 67.6011C101.691 67.5375 101.713 67.4765 101.751 67.4249Z" fill="#E0E0E0"/>
<path d="M94.1258 26.7114L93.9724 26.4665L102.983 20.7876L111.776 26.593L111.615 26.8352L102.981 21.1321L94.1258 26.7114Z" fill="#F0F0F0"/>
<path d="M111.967 26.4799H93.8163V37.8324H111.967V26.4799Z" fill="#E0E0E0"/>
<path d="M111.464 37.3291V26.9832H94.3196V37.3291H111.464Z" fill="white"/>
<path d="M96.7553 30.2264H95.6599V31.3219H96.7553V30.2264Z" fill="#F0F0F0"/>
<path d="M98.4456 30.2264H97.3502V31.3219H98.4456V30.2264Z" fill="#F0F0F0"/>
<path d="M100.133 30.2264H99.0377V31.3219H100.133V30.2264Z" fill="#F0F0F0"/>
<path d="M101.823 30.2264H100.728V31.3219H101.823V30.2264Z" fill="#F0F0F0"/>
<path d="M103.511 30.2264H102.415V31.3219H103.511V30.2264Z" fill="#F0F0F0"/>
<path d="M105.201 30.2264H104.106V31.3219H105.201V30.2264Z" fill="#F0F0F0"/>
<path d="M106.889 30.2264H105.793V31.3219H106.889V30.2264Z" fill="#F0F0F0"/>
<path d="M108.579 30.2264H107.483V31.3219H108.579V30.2264Z" fill="#F0F0F0"/>
<path d="M110.266 30.2264H109.171V31.3219H110.266V30.2264Z" fill="#F0F0F0"/>
<path d="M96.7553 31.7337H95.6599V32.8291H96.7553V31.7337Z" fill="#F0F0F0"/>
<path d="M98.4456 31.7337H97.3502V32.8291H98.4456V31.7337Z" fill="#F0F0F0"/>
<path d="M100.133 31.7337H99.0377V32.8291H100.133V31.7337Z" fill="#F0F0F0"/>
<path d="M101.823 31.7337H100.728V32.8291H101.823V31.7337Z" fill="#F0F0F0"/>
<path d="M103.511 31.7337H102.415V32.8291H103.511V31.7337Z" fill="#F0F0F0"/>
<path d="M105.201 31.7337H104.106V32.8291H105.201V31.7337Z" fill="#F0F0F0"/>
<path d="M106.889 31.7337H105.793V32.8291H106.889V31.7337Z" fill="#F0F0F0"/>
<path d="M108.579 31.7337H107.483V32.8291H108.579V31.7337Z" fill="#F0F0F0"/>
<path d="M110.266 31.7337H109.171V32.8291H110.266V31.7337Z" fill="#F0F0F0"/>
<path d="M96.7553 33.2409H95.6599V34.3363H96.7553V33.2409Z" fill="#F0F0F0"/>
<path d="M98.4456 33.2409H97.3502V34.3363H98.4456V33.2409Z" fill="#F0F0F0"/>
<path d="M100.133 33.2409H99.0377V34.3363H100.133V33.2409Z" fill="#F0F0F0"/>
<path d="M101.823 33.2409H100.728V34.3363H101.823V33.2409Z" fill="#F0F0F0"/>
<path d="M103.511 33.2409H102.415V34.3363H103.511V33.2409Z" fill="#F0F0F0"/>
<path d="M105.201 33.2409H104.106V34.3363H105.201V33.2409Z" fill="#F0F0F0"/>
<path d="M106.889 33.2409H105.793V34.3363H106.889V33.2409Z" fill="#F0F0F0"/>
<path d="M108.579 33.2409H107.483V34.3363H108.579V33.2409Z" fill="#F0F0F0"/>
<path d="M110.266 33.2409H109.171V34.3363H110.266V33.2409Z" fill="#F0F0F0"/>
<path d="M96.7553 34.8638H95.6599V35.9592H96.7553V34.8638Z" fill="#F0F0F0"/>
<path d="M98.4456 34.8638H97.3502V35.9592H98.4456V34.8638Z" fill="#F0F0F0"/>
<path d="M100.133 34.8638H99.0377V35.9592H100.133V34.8638Z" fill="#F0F0F0"/>
<path d="M101.823 34.8638H100.728V35.9592H101.823V34.8638Z" fill="#F0F0F0"/>
<path d="M107.836 27.9952H98.0903V28.9426H107.836V27.9952Z" fill="#E0E0E0"/>
<path d="M103.562 20.8898C103.562 20.9963 103.53 21.1004 103.471 21.1889C103.412 21.2774 103.328 21.3464 103.23 21.3872C103.131 21.4279 103.023 21.4386 102.919 21.4178C102.814 21.397 102.718 21.3457 102.643 21.2705C102.568 21.1952 102.517 21.0993 102.496 20.9949C102.475 20.8904 102.486 20.7822 102.526 20.6838C102.567 20.5855 102.636 20.5014 102.725 20.4423C102.813 20.3831 102.917 20.3515 103.024 20.3515C103.167 20.3515 103.303 20.4083 103.404 20.5092C103.505 20.6102 103.562 20.7471 103.562 20.8898Z" fill="#E0E0E0"/>
<path d="M87.1416 15.3024H68.2153V61.2857H87.1416V15.3024Z" fill="#F0F0F0"/>
<path d="M85.9868 16.4597H69.3699V60.1337H85.9868V16.4597Z" fill="#FAFAFA"/>
<path d="M85.9868 18.3303V21.6273L69.3699 38.2469V34.9472L85.9868 18.3303Z" fill="white"/>
<path d="M85.9868 29.7339V34.3847L69.3699 50.999V46.3455L85.9868 29.7339Z" fill="white"/>
<path d="M78.2517 15.3024H77.1078V61.2857H78.2517V15.3024Z" fill="#F0F0F0"/>
<path d="M53.8753 15.3024H34.9491V61.2857H53.8753V15.3024Z" fill="#F0F0F0"/>
<path d="M52.7207 16.4597H36.1038V60.1337H52.7207V16.4597Z" fill="#FAFAFA"/>
<path d="M52.7207 18.3303V21.6273L36.1038 38.2469V34.9472L52.7207 18.3303Z" fill="white"/>
<path d="M52.7207 29.7339V34.3847L36.1038 50.999V46.3455L52.7207 29.7339Z" fill="white"/>
<path d="M44.9827 15.3024H43.8389V61.2857H44.9827V15.3024Z" fill="#F0F0F0"/>
<path d="M40.8487 96.3094C40.8487 96.3094 38.561 96.8181 38.9001 95.2329C39.2392 93.6476 39.215 93.0474 38.2864 92.3234C37.3579 91.5994 36.4213 91.2468 37.1318 90.0895C37.8423 88.9322 36.4939 88.0494 35.7861 87.4304C35.0782 86.8113 35.8776 86.3538 36.0552 85.1776C36.2329 84.0015 34.9786 84.1845 34.8818 82.7123C34.7849 81.24 36.2786 79.5202 34.9948 77.4936C34.9948 77.4936 36.72 78.3898 37.2879 79.9616C37.8558 81.5334 37.3983 82.7499 38.4183 83.3474C39.4384 83.9449 40.0762 84.9812 39.729 86.0389C39.3818 87.0966 39.8744 87.6538 40.7114 88.437C41.5485 89.2202 41.3251 89.5135 41.2228 90.4663C41.1205 91.4191 41.3278 91.1903 42.2832 92.4822C43.2387 93.7741 43.2817 95.8869 40.8487 96.3094Z" fill="#F0F0F0"/>
<path d="M41.1744 96.2394C41.1735 96.2314 41.1735 96.2233 41.1744 96.2152L36.599 82.322C36.5944 82.3079 36.5926 82.293 36.5937 82.2781C36.5949 82.2633 36.599 82.2489 36.6057 82.2356C36.6125 82.2223 36.6217 82.2106 36.6331 82.2009C36.6444 82.1913 36.6575 82.1839 36.6716 82.1794C36.6856 82.1748 36.7003 82.173 36.715 82.1742C36.7296 82.1754 36.7439 82.1795 36.7569 82.1863C36.7699 82.193 36.7815 82.2023 36.7909 82.2136C36.8003 82.2249 36.8073 82.238 36.8116 82.252L41.387 96.1426C41.3881 96.1542 41.3881 96.1659 41.387 96.1775L41.1744 96.2394Z" fill="#E0E0E0"/>
<path d="M44.9747 96.2825C44.9747 96.2825 47.2517 96.7858 46.9126 95.2059C46.5734 93.6261 46.6004 93.034 47.5235 92.3126C48.4467 91.5913 49.3806 91.2361 48.6701 90.0922C47.9595 88.9483 49.308 88.0602 50.0158 87.4465C50.7236 86.8329 49.9243 86.3699 49.7467 85.2045C49.569 84.0392 50.8232 84.2168 50.9121 82.7526C51.0009 81.2885 49.5233 79.5767 50.8017 77.5609C50.8017 77.5609 49.0846 78.4517 48.5194 80.0181C47.9542 81.5846 48.409 82.7903 47.3943 83.3851C46.3797 83.9799 45.7445 85 46.0917 86.0766C46.4389 87.1531 45.9463 87.6914 45.1147 88.4612C44.283 89.2309 44.5037 89.5378 44.606 90.4798C44.7083 91.4218 44.501 91.1984 43.551 92.4849C42.6009 93.7714 42.5551 95.86 44.9747 96.2825Z" fill="#F0F0F0"/>
<path d="M44.4418 96.1506C44.4403 96.139 44.4403 96.1273 44.4418 96.1156L48.9957 82.2978C49 82.2837 49.007 82.2707 49.0164 82.2594C49.0258 82.2481 49.0374 82.2388 49.0504 82.232C49.0635 82.2253 49.0777 82.2212 49.0923 82.22C49.107 82.2188 49.1217 82.2205 49.1357 82.2251C49.1498 82.2297 49.1629 82.237 49.1742 82.2467C49.1856 82.2563 49.1949 82.2681 49.2016 82.2814C49.2084 82.2946 49.2124 82.3091 49.2136 82.3239C49.2147 82.3387 49.213 82.3536 49.2083 82.3678L44.6544 96.1856C44.6559 96.1945 44.6559 96.2036 44.6544 96.2125L44.4418 96.1506Z" fill="#E0E0E0"/>
<path d="M42.4502 95.9918C42.4502 95.9918 39.8314 95.7765 40.725 94.1805C41.6186 92.5845 41.7881 91.9439 41.0318 90.8593C40.2755 89.7746 39.3954 89.0775 40.5393 88.0844C41.6832 87.0912 40.5393 85.6863 40.001 84.7927C39.4627 83.8992 40.4586 83.6596 41.0426 82.47C41.6266 81.2804 40.2352 81.0516 40.6066 79.4422C40.978 77.8327 43.1635 76.4816 42.461 73.8897C42.461 73.8897 44.0113 75.4211 44.0974 77.2944C44.1835 79.1676 43.2899 80.3169 44.1835 81.2966C45.0771 82.2762 45.4162 83.5951 44.6922 84.6178C43.9682 85.6405 44.31 86.4049 44.9613 87.5111C45.6127 88.6173 45.2601 88.8757 44.8348 89.8527C44.4096 90.8296 44.7056 90.6601 45.3031 92.3665C45.9006 94.0728 45.1955 96.3471 42.4502 95.9918Z" fill="#F5F5F5"/>
<path d="M42.8216 96.0241C42.8201 96.0143 42.8201 96.0043 42.8216 95.9945L42.5336 79.5956C42.5332 79.5787 42.5362 79.562 42.5424 79.5463C42.5486 79.5307 42.5579 79.5164 42.5697 79.5044C42.5815 79.4923 42.5955 79.4828 42.6111 79.4763C42.6266 79.4697 42.6433 79.4664 42.6601 79.4664C42.6932 79.4664 42.725 79.4793 42.7486 79.5025C42.7723 79.5256 42.7859 79.5571 42.7866 79.5902L43.0746 95.9891C43.0772 96.0025 43.0772 96.0162 43.0746 96.0295L42.8216 96.0241Z" fill="#E0E0E0"/>
<path d="M49.577 94.7268H36.7738C36.6896 94.7291 36.6071 94.7512 36.533 94.7912C36.4588 94.8312 36.3951 94.888 36.3469 94.9571C36.2987 95.0262 36.2675 95.1057 36.2556 95.1891C36.2437 95.2725 36.2516 95.3576 36.2786 95.4374L36.4697 95.9407L36.5881 96.261L36.9326 97.1734L37.0538 97.4909L37.4063 98.4276L37.5248 98.7452L38.9351 102.486H47.4158L48.8261 98.7452L48.9445 98.4276L49.2971 97.4909L49.4182 97.1734L49.7627 96.261L49.8812 95.9407L50.0723 95.4374C50.0993 95.3576 50.1071 95.2725 50.0953 95.1891C50.0834 95.1057 50.0521 95.0262 50.004 94.9571C49.9558 94.888 49.8921 94.8312 49.8179 94.7912C49.7438 94.7512 49.6613 94.7291 49.577 94.7268Z" fill="#E6E6E6"/>
<path d="M18.9861 26.6011C21.5353 26.6011 23.6019 24.5345 23.6019 21.9853C23.6019 19.436 21.5353 17.3694 18.9861 17.3694C16.4368 17.3694 14.3702 19.436 14.3702 21.9853C14.3702 24.5345 16.4368 26.6011 18.9861 26.6011Z" fill="#E0E0E0"/>
<path d="M23.1828 22.6942C23.5717 20.378 22.0093 18.1852 19.6931 17.7964C17.3769 17.4075 15.1841 18.9699 14.7952 21.2861C14.4064 23.6022 15.9688 25.7951 18.285 26.1839C20.6011 26.5728 22.794 25.0104 23.1828 22.6942Z" fill="#FAFAFA"/>
<path d="M18.9996 18.1176H18.8408V19.0058H18.9996V18.1176Z" fill="#E0E0E0"/>
<path d="M18.9996 24.9405H18.8408V25.8286H18.9996V24.9405Z" fill="#E0E0E0"/>
<path d="M15.9529 21.8937H15.0647V22.0525H15.9529V21.8937Z" fill="#E0E0E0"/>
<path d="M22.7756 21.8937H21.8875V22.0525H22.7756V21.8937Z" fill="#E0E0E0"/>
<path d="M21.5918 19.1885L20.9639 19.8167L21.0762 19.9289L21.7041 19.3008L21.5918 19.1885Z" fill="#E0E0E0"/>
<path d="M16.7653 24.0115L16.1373 24.6397L16.2496 24.7519L16.8776 24.1238L16.7653 24.0115Z" fill="#E0E0E0"/>
<path d="M16.2507 19.194L16.1384 19.3063L16.7665 19.9344L16.8787 19.8221L16.2507 19.194Z" fill="#E0E0E0"/>
<path d="M21.0743 24.0134L20.962 24.1257L21.5902 24.7536L21.7024 24.6413L21.0743 24.0134Z" fill="#E0E0E0"/>
<path d="M18.89 21.865L18.8397 21.9928L20.3423 22.5844L20.3926 22.4566L18.89 21.865Z" fill="#E0E0E0"/>
<path d="M18.9888 22.0418H16.5073V21.9045H18.8516V19.9801H18.9888V22.0418Z" fill="#E0E0E0"/>
<path d="M120.677 114.711C120.677 115.424 94.5323 116 62.2861 116C30.0399 116 3.89526 115.424 3.89526 114.711C3.89526 113.998 30.0453 113.43 62.2861 113.43C94.5269 113.43 120.677 114 120.677 114.711Z" fill="#F5F5F5"/>
<path d="M25.4088 21.1465C27.0926 19.4627 27.0926 16.7326 25.4088 15.0488C23.725 13.365 20.995 13.365 19.3112 15.0488C17.6273 16.7326 17.6273 19.4627 19.3112 21.1465C20.995 22.8303 23.725 22.8303 25.4088 21.1465Z" fill="#8FC1FF"/>
<path d="M24.5207 18.0869C24.52 18.1831 24.4815 18.2751 24.4135 18.3431C24.3455 18.411 24.2535 18.4495 24.1574 18.4503H22.7201V19.8875C22.7123 19.9781 22.6708 20.0625 22.6038 20.124C22.5367 20.1855 22.4491 20.2196 22.3581 20.2196C22.2672 20.2196 22.1795 20.1855 22.1125 20.124C22.0455 20.0625 22.0039 19.9781 21.9961 19.8875V18.4503H20.5589C20.4628 18.4495 20.3707 18.411 20.3028 18.3431C20.2348 18.2751 20.1963 18.1831 20.1956 18.0869C20.1963 17.9908 20.2348 17.8988 20.3028 17.8308C20.3707 17.7628 20.4628 17.7243 20.5589 17.7236H21.9961V16.2971C22.0039 16.2065 22.0455 16.1221 22.1125 16.0606C22.1795 15.9991 22.2672 15.965 22.3581 15.965C22.4491 15.965 22.5367 15.9991 22.6038 16.0606C22.6708 16.1221 22.7123 16.2065 22.7201 16.2971V17.7343H24.1574C24.2517 17.735 24.3421 17.772 24.4098 17.8377C24.4775 17.9034 24.5172 17.9926 24.5207 18.0869Z" fill="white"/>
<path d="M22.3594 23.5021C22.3424 23.5025 22.3254 23.4994 22.3095 23.493C22.2937 23.4866 22.2793 23.4771 22.2672 23.4651C22.2552 23.453 22.2457 23.4386 22.2393 23.4228C22.233 23.4069 22.2299 23.39 22.2302 23.3729V23.1038C22.2276 23.0854 22.2289 23.0667 22.2341 23.0489C22.2393 23.0311 22.2482 23.0147 22.2604 23.0006C22.2725 22.9866 22.2875 22.9754 22.3044 22.9677C22.3212 22.96 22.3395 22.956 22.3581 22.956C22.3766 22.956 22.3949 22.96 22.4118 22.9677C22.4286 22.9754 22.4436 22.9866 22.4558 23.0006C22.4679 23.0147 22.4769 23.0311 22.4821 23.0489C22.4873 23.0667 22.4886 23.0854 22.4859 23.1038V23.3729C22.4863 23.3897 22.4833 23.4065 22.4771 23.4221C22.4709 23.4378 22.4616 23.4521 22.4498 23.4641C22.438 23.4761 22.424 23.4857 22.4085 23.4922C22.3929 23.4987 22.3763 23.5021 22.3594 23.5021ZM22.4859 29.5444V29.0303C22.4886 29.012 22.4873 28.9933 22.4821 28.9755C22.4769 28.9577 22.4679 28.9412 22.4558 28.9272C22.4436 28.9132 22.4286 28.9019 22.4118 28.8942C22.3949 28.8865 22.3766 28.8825 22.3581 28.8825C22.3395 28.8825 22.3212 28.8865 22.3044 28.8942C22.2875 28.9019 22.2725 28.9132 22.2604 28.9272C22.2482 28.9412 22.2393 28.9577 22.2341 28.9755C22.2289 28.9933 22.2276 29.012 22.2302 29.0303V29.5444C22.2347 29.5751 22.2501 29.6032 22.2736 29.6235C22.297 29.6438 22.327 29.655 22.3581 29.655C22.3891 29.655 22.4191 29.6438 22.4426 29.6235C22.4661 29.6032 22.4814 29.5751 22.4859 29.5444ZM22.4859 28.0022V27.4881C22.4886 27.4698 22.4873 27.4511 22.4821 27.4333C22.4769 27.4155 22.4679 27.399 22.4558 27.385C22.4436 27.371 22.4286 27.3597 22.4118 27.352C22.3949 27.3443 22.3766 27.3403 22.3581 27.3403C22.3395 27.3403 22.3212 27.3443 22.3044 27.352C22.2875 27.3597 22.2725 27.371 22.2604 27.385C22.2482 27.399 22.2393 27.4155 22.2341 27.4333C22.2289 27.4511 22.2276 27.4698 22.2302 27.4881V28.0022C22.2347 28.0329 22.2501 28.061 22.2736 28.0813C22.297 28.1016 22.327 28.1128 22.3581 28.1128C22.3891 28.1128 22.4191 28.1016 22.4426 28.0813C22.4661 28.061 22.4814 28.0329 22.4859 28.0022ZM22.4859 26.46V25.9459C22.4886 25.9276 22.4873 25.9089 22.4821 25.8911C22.4769 25.8733 22.4679 25.8568 22.4558 25.8428C22.4436 25.8288 22.4286 25.8175 22.4118 25.8098C22.3949 25.8021 22.3766 25.7981 22.3581 25.7981C22.3395 25.7981 22.3212 25.8021 22.3044 25.8098C22.2875 25.8175 22.2725 25.8288 22.2604 25.8428C22.2482 25.8568 22.2393 25.8733 22.2341 25.8911C22.2289 25.9089 22.2276 25.9276 22.2302 25.9459V26.46C22.2347 26.4907 22.2501 26.5188 22.2736 26.5391C22.297 26.5594 22.327 26.5706 22.3581 26.5706C22.3891 26.5706 22.4191 26.5594 22.4426 26.5391C22.4661 26.5188 22.4814 26.4907 22.4859 26.46ZM22.4859 24.9178V24.401C22.4814 24.3703 22.4661 24.3422 22.4426 24.3219C22.4191 24.3016 22.3891 24.2904 22.3581 24.2904C22.327 24.2904 22.297 24.3016 22.2736 24.3219C22.2501 24.3422 22.2347 24.3703 22.2302 24.401V24.9178C22.2347 24.9485 22.2501 24.9766 22.2736 24.9969C22.297 25.0172 22.327 25.0284 22.3581 25.0284C22.3891 25.0284 22.4191 25.0172 22.4426 24.9969C22.4661 24.9766 22.4814 24.9485 22.4859 24.9178ZM22.7551 30.839C22.7551 30.8047 22.7414 30.7718 22.7172 30.7476C22.693 30.7234 22.6601 30.7098 22.6259 30.7098H22.4859V30.5833C22.4886 30.5649 22.4873 30.5462 22.4821 30.5284C22.4769 30.5106 22.4679 30.4942 22.4558 30.4801C22.4436 30.4661 22.4286 30.4549 22.4118 30.4472C22.3949 30.4395 22.3766 30.4355 22.3581 30.4355C22.3395 30.4355 22.3212 30.4395 22.3044 30.4472C22.2875 30.4549 22.2725 30.4661 22.2604 30.4801C22.2482 30.4942 22.2393 30.5106 22.2341 30.5284C22.2289 30.5462 22.2276 30.5649 22.2302 30.5833V30.8524C22.2299 30.8695 22.233 30.8864 22.2393 30.9023C22.2457 30.9181 22.2552 30.9325 22.2672 30.9446C22.2793 30.9567 22.2937 30.9662 22.3095 30.9725C22.3254 30.9789 22.3424 30.982 22.3594 30.9816H22.6151C22.6353 30.9843 22.6559 30.982 22.6751 30.975C22.6942 30.968 22.7114 30.9565 22.7252 30.9415C22.7389 30.9264 22.7488 30.9082 22.754 30.8885C22.7592 30.8688 22.7596 30.8481 22.7551 30.8282V30.839ZM28.6009 30.839C28.6009 30.8047 28.5873 30.7718 28.563 30.7476C28.5388 30.7234 28.5059 30.7098 28.4717 30.7098H27.9845C27.9505 30.7105 27.918 30.7243 27.8939 30.7484C27.8699 30.7724 27.856 30.8049 27.8553 30.839C27.8553 30.8732 27.869 30.9061 27.8932 30.9303C27.9174 30.9545 27.9503 30.9681 27.9845 30.9681H28.4717C28.4888 30.9672 28.5055 30.9627 28.5209 30.955C28.5362 30.9474 28.5498 30.9367 28.5609 30.9236C28.572 30.9105 28.5803 30.8953 28.5853 30.8789C28.5903 30.8625 28.592 30.8452 28.5901 30.8282L28.6009 30.839ZM27.1394 30.839C27.1394 30.8047 27.1258 30.7718 27.1016 30.7476C27.0774 30.7234 27.0445 30.7098 27.0102 30.7098H26.5231C26.489 30.7105 26.4566 30.7243 26.4325 30.7484C26.4084 30.7724 26.3946 30.8049 26.3939 30.839C26.3939 30.8732 26.4075 30.9061 26.4317 30.9303C26.456 30.9545 26.4888 30.9681 26.5231 30.9681H27.0102C27.0273 30.9672 27.0441 30.9627 27.0594 30.955C27.0748 30.9474 27.0884 30.9367 27.0995 30.9236C27.1105 30.9105 27.1188 30.8953 27.1239 30.8789C27.1289 30.8625 27.1305 30.8452 27.1287 30.8282L27.1394 30.839ZM25.678 30.839C25.678 30.8047 25.6644 30.7718 25.6401 30.7476C25.6159 30.7234 25.583 30.7098 25.5488 30.7098H25.0616C25.0276 30.7105 24.9951 30.7243 24.971 30.7484C24.947 30.7724 24.9331 30.8049 24.9324 30.839C24.9324 30.8732 24.946 30.9061 24.9703 30.9303C24.9945 30.9545 25.0274 30.9681 25.0616 30.9681H25.5488C25.5659 30.9672 25.5826 30.9627 25.598 30.955C25.6133 30.9474 25.6269 30.9367 25.638 30.9236C25.6491 30.9105 25.6574 30.8953 25.6624 30.8789C25.6674 30.8625 25.6691 30.8452 25.6672 30.8282L25.678 30.839ZM24.2165 30.839C24.2165 30.8047 24.2029 30.7718 24.1787 30.7476C24.1544 30.7234 24.1216 30.7098 24.0873 30.7098H23.5894C23.5554 30.7105 23.5229 30.7243 23.4988 30.7484C23.4747 30.7724 23.4609 30.8049 23.4602 30.839C23.4602 30.8732 23.4738 30.9061 23.4981 30.9303C23.5223 30.9545 23.5551 30.9681 23.5894 30.9681H24.0766C24.0946 30.9686 24.1125 30.9653 24.1291 30.9582C24.1458 30.9512 24.1607 30.9408 24.1729 30.9275C24.1852 30.9142 24.1944 30.8985 24.2001 30.8814C24.2057 30.8643 24.2077 30.8461 24.2057 30.8282L24.2165 30.839ZM29.8336 30.839C29.8329 30.8049 29.819 30.7724 29.795 30.7484C29.7709 30.7243 29.7384 30.7105 29.7044 30.7098H29.4352C29.4014 30.7105 29.3692 30.7244 29.3456 30.7485C29.322 30.7727 29.3087 30.8052 29.3087 30.839C29.3084 30.8558 29.3114 30.8725 29.3176 30.8882C29.3238 30.9038 29.333 30.9181 29.3448 30.9301C29.3566 30.9422 29.3707 30.9517 29.3862 30.9583C29.4017 30.9648 29.4184 30.9681 29.4352 30.9681H29.7044C29.7214 30.9668 29.7379 30.9621 29.7531 30.9543C29.7682 30.9465 29.7817 30.9358 29.7927 30.9228C29.8037 30.9098 29.812 30.8947 29.8172 30.8785C29.8224 30.8623 29.8243 30.8452 29.8228 30.8282L29.8336 30.839Z" fill="#8FC1FF"/>
<path d="M78.3091 107.174L78.581 111.499L76.7346 111.644L75.4966 107.392L78.3091 107.174Z" fill="#CE7A63"/>
<path d="M77.1653 111.211C77.0908 111.116 76.9912 111.045 76.8779 111.004C76.7646 110.964 76.6422 110.956 76.5247 110.982C76.1668 111.1 75.6958 111.687 75.6958 111.687C75.6958 111.687 73.7525 112.312 73.2277 112.344C72.7029 112.376 72.3557 112.713 72.3126 113.69H78.9255C78.9255 113.69 78.9255 111.396 78.7021 110.998C78.5083 110.654 78.1181 111.098 78.1181 111.098L77.1653 111.211Z" fill="#263238"/>
<path d="M72.4634 113.391L73.6126 113.377L78.6295 113.326C78.6407 113.324 78.6507 113.317 78.6579 113.308C78.665 113.299 78.6689 113.288 78.6689 113.276C78.6689 113.265 78.665 113.254 78.6579 113.245C78.6507 113.236 78.6407 113.229 78.6295 113.227H78.2876C78.1848 112.979 78.1808 112.702 78.2764 112.451C78.3721 112.201 78.5601 111.997 78.8017 111.881C78.8078 111.878 78.8133 111.874 78.8177 111.869C78.8222 111.864 78.8255 111.858 78.8275 111.852C78.8296 111.845 78.8302 111.838 78.8295 111.832C78.8288 111.825 78.8266 111.819 78.8232 111.813C78.8199 111.807 78.8153 111.802 78.8098 111.798C78.8044 111.794 78.7982 111.791 78.7916 111.79C78.785 111.788 78.7782 111.788 78.7716 111.79C78.765 111.791 78.7587 111.794 78.7533 111.798C78.4948 111.923 78.2931 112.141 78.1883 112.408C78.0835 112.676 78.0835 112.973 78.1881 113.24H77.4802L72.4634 113.294C72.4532 113.297 72.4444 113.304 72.4382 113.313C72.4319 113.321 72.4286 113.332 72.4286 113.342C72.4286 113.353 72.4319 113.364 72.4382 113.372C72.4444 113.381 72.4532 113.387 72.4634 113.391Z" fill="white"/>
<path d="M75.9218 112.091C75.8765 112.016 75.8159 111.952 75.7438 111.902C75.6718 111.853 75.59 111.819 75.504 111.804C75.418 111.788 75.3296 111.791 75.2448 111.812C75.16 111.833 75.0807 111.872 75.0121 111.927C74.961 111.964 74.9125 111.878 74.9636 111.841C75.0435 111.78 75.1352 111.737 75.2328 111.714C75.3304 111.691 75.4316 111.689 75.5301 111.708C75.6285 111.727 75.7219 111.766 75.8042 111.823C75.8865 111.88 75.9559 111.954 76.0079 112.04C76.0429 112.091 75.9595 112.142 75.9218 112.091Z" fill="white"/>
<path d="M75.3727 112.255C75.3272 112.181 75.2664 112.117 75.1943 112.067C75.1223 112.018 75.0406 111.985 74.9547 111.969C74.8688 111.954 74.7806 111.956 74.6958 111.977C74.6111 111.998 74.5317 112.037 74.463 112.091C74.4119 112.129 74.3634 112.042 74.4146 112.005C74.4946 111.944 74.5865 111.901 74.6841 111.879C74.7818 111.856 74.8832 111.854 74.9816 111.873C75.0801 111.892 75.1734 111.932 75.2556 111.989C75.3378 112.047 75.4071 112.121 75.4589 112.207C75.4938 112.258 75.4104 112.306 75.3727 112.255Z" fill="white"/>
<path d="M74.8076 112.422C74.7624 112.347 74.7017 112.283 74.6297 112.233C74.5576 112.184 74.4759 112.15 74.3898 112.135C74.3038 112.119 74.2154 112.122 74.1306 112.143C74.0458 112.164 73.9665 112.204 73.8979 112.258C73.8468 112.295 73.7983 112.209 73.8468 112.172C73.9267 112.111 74.0183 112.068 74.1159 112.045C74.2135 112.022 74.3148 112.02 74.4132 112.039C74.5116 112.058 74.605 112.097 74.6873 112.154C74.7697 112.211 74.8391 112.285 74.8911 112.371C74.9287 112.422 74.8426 112.473 74.8076 112.422Z" fill="white"/>
<path d="M64.171 107.128L63.9153 111.496L62.0529 111.644L61.3315 107.349L64.171 107.128Z" fill="#CE7A63"/>
<path d="M62.4808 111.211C62.4063 111.116 62.3067 111.045 62.1934 111.004C62.0801 110.964 61.9577 110.956 61.8403 110.982C61.4823 111.1 61.0113 111.687 61.0113 111.687C61.0113 111.687 59.0681 112.312 58.5432 112.344C58.0184 112.376 57.5582 112.672 57.3617 113.69H63.7296C63.7296 113.69 63.98 111.391 64.0176 110.998C64.0553 110.605 63.4336 111.098 63.4336 111.098L62.4808 111.211Z" fill="#263238"/>
<path d="M57.5501 113.391L58.6966 113.377L63.7135 113.326C63.7247 113.324 63.7347 113.317 63.7419 113.308C63.7491 113.299 63.753 113.288 63.753 113.276C63.753 113.265 63.7491 113.254 63.7419 113.245C63.7347 113.236 63.7247 113.229 63.7135 113.227H63.3744C63.2717 112.979 63.2681 112.701 63.3643 112.451C63.4604 112.2 63.649 111.996 63.8911 111.881C63.8972 111.878 63.9027 111.874 63.9071 111.869C63.9116 111.864 63.9149 111.858 63.917 111.852C63.919 111.845 63.9196 111.838 63.9189 111.832C63.9182 111.825 63.916 111.819 63.9127 111.813C63.9093 111.807 63.9047 111.802 63.8993 111.798C63.8938 111.794 63.8876 111.791 63.881 111.79C63.8744 111.788 63.8676 111.788 63.861 111.79C63.8544 111.791 63.8482 111.794 63.8427 111.798C63.5842 111.923 63.3825 112.141 63.2777 112.408C63.173 112.676 63.1729 112.973 63.2775 113.24H62.5696L57.5528 113.294C57.5425 113.297 57.5335 113.303 57.5271 113.312C57.5206 113.32 57.5169 113.331 57.5166 113.341C57.5163 113.352 57.5194 113.363 57.5254 113.372C57.5314 113.38 57.54 113.387 57.5501 113.391Z" fill="white"/>
<path d="M61.2427 112.091C61.1974 112.016 61.1368 111.952 61.0647 111.902C60.9927 111.853 60.911 111.819 60.8249 111.804C60.7389 111.788 60.6505 111.791 60.5657 111.812C60.4809 111.833 60.4016 111.872 60.333 111.927C60.2819 111.964 60.2334 111.878 60.2846 111.841C60.3644 111.78 60.4561 111.737 60.5537 111.714C60.6513 111.691 60.7526 111.689 60.851 111.708C60.9494 111.727 61.0428 111.766 61.1251 111.823C61.2074 111.88 61.2769 111.954 61.3289 112.04C61.3665 112.091 61.2804 112.142 61.2427 112.091Z" fill="white"/>
<path d="M60.6883 112.255C60.643 112.181 60.5825 112.117 60.5106 112.067C60.4388 112.018 60.3574 111.985 60.2717 111.969C60.186 111.954 60.098 111.956 60.0135 111.977C59.9289 111.998 59.8498 112.037 59.7813 112.091C59.7302 112.129 59.679 112.042 59.7302 112.005C59.8102 111.944 59.902 111.901 59.9997 111.879C60.0974 111.856 60.1988 111.854 60.2972 111.873C60.3957 111.892 60.489 111.932 60.5712 111.989C60.6534 112.047 60.7227 112.121 60.7744 112.207C60.8121 112.258 60.726 112.306 60.6883 112.255Z" fill="white"/>
<path d="M60.1231 112.422C60.0778 112.347 60.0172 112.283 59.9451 112.233C59.8731 112.184 59.7913 112.15 59.7053 112.135C59.6193 112.119 59.5309 112.122 59.4461 112.143C59.3613 112.164 59.2819 112.204 59.2134 112.258C59.1622 112.295 59.1138 112.209 59.1649 112.172C59.2448 112.111 59.3365 112.068 59.4341 112.045C59.5316 112.022 59.6329 112.02 59.7314 112.039C59.8298 112.058 59.9232 112.097 60.0055 112.154C60.0878 112.211 60.1572 112.285 60.2092 112.371C60.2442 112.422 60.1608 112.473 60.1231 112.422Z" fill="white"/>
<path d="M59.8324 61.5968C59.8324 61.5968 58.7559 76.1978 58.8178 82.6115C58.8931 89.2809 61.0678 108.694 61.0678 108.694H64.6313C64.6313 108.694 65.288 89.6227 65.6056 83.0718C65.9528 75.9287 68.0871 60.426 68.0871 60.426L59.8324 61.5968Z" fill="#263238"/>
<path opacity="0.2" d="M66.2864 75.1266C66.5555 72.5052 66.8866 69.7976 67.1773 67.4318L66.7601 64.9341C66.7601 64.9341 65.3632 68.8313 66.2864 75.1266Z" fill="black"/>
<path d="M64.8976 107.615C64.8976 108 64.8627 108.767 64.8627 108.767H60.7582L60.6344 107.615H64.8976Z" fill="#8FC1FF"/>
<path d="M65.9124 60.426C65.9124 60.426 66.9889 76.5073 68.157 82.5308C69.4301 89.1221 75.2086 108.694 75.2086 108.694H79.06C79.06 108.694 76.5839 89.7062 75.9272 83.1767C75.2113 76.0929 74.9018 61.7852 74.9018 61.7852L65.9124 60.426Z" fill="#263238"/>
<path d="M79.2323 107.588C79.27 107.981 79.3292 108.767 79.3292 108.767H74.8183L74.5492 107.588H79.2323Z" fill="#8FC1FF"/>
<path d="M75.5559 63.1551C67.8557 63.6799 62.0664 63.7203 58.9981 62.563C58.7855 49.0035 59.2673 40.5685 59.8971 38.5069C59.9811 38.2319 60.1198 37.9767 60.3048 37.7565C60.4897 37.5364 60.7172 37.3559 60.9737 37.2257C61.7343 36.8435 62.5527 36.5889 63.396 36.4721C65.0108 36.2326 67.678 36.1626 69.5271 36.168C70.5417 36.168 71.5833 36.2488 72.4419 36.3349C73.5185 36.4452 74.2048 37.398 74.159 38.4692C74.0675 40.5308 74.0594 42.6167 74.1079 44.6595C74.1375 45.8384 74.1832 47.0011 74.2425 48.1395C74.622 55.4118 75.5424 61.5698 75.5559 63.1551Z" fill="#8FC1FF"/>
<path opacity="0.2" d="M74.237 48.1422L70.9319 40.8753L74.1024 44.6649C74.132 45.841 74.1778 47.0037 74.237 48.1422Z" fill="black"/>
<path d="M64.5047 25.6229C64.0983 25.1815 62.7338 25.1439 62.0824 25.9944C61.3881 26.9041 60.508 28.5835 59.9481 28.1475C60.0312 28.3989 60.1887 28.6192 60.3996 28.7793C60.6106 28.9393 60.8652 29.0315 61.1297 29.0438C61.1297 29.0438 60.5618 29.6655 59.8297 29.4367C59.9574 29.7971 60.1839 30.1144 60.4832 30.3523C60.7825 30.5903 61.1427 30.7393 61.5226 30.7824C62.7742 30.9654 64.5182 27.3778 64.7954 26.791C64.7954 26.1208 64.7416 26.1612 64.5047 25.6229Z" fill="#263238"/>
<path d="M65.2799 25.771C65.8319 25.7042 66.3918 25.7523 66.9244 25.9121C67.457 26.0718 67.9509 26.3399 68.375 26.6995C68.9295 27.1786 69.3601 27.8084 69.169 28.562C68.7222 30.3168 67.538 33.1374 67.538 33.1374L62.2251 29.0491C62.2251 29.0491 62.1982 27.3455 63.0513 26.5003C63.4981 26.0616 64.4724 25.8625 65.2799 25.771Z" fill="#263238"/>
<path d="M64.3082 25.6741C64.3082 25.6741 66.1384 24.3687 68.5742 26.1801C71.0099 27.9914 68.5742 31.2696 68.5742 31.2696C68.5742 31.2696 67.7936 32.7203 68.4826 33.0782C68.2408 33.1719 67.9829 33.2167 67.7237 33.2101C67.7237 33.2101 67.9605 33.6515 68.2619 33.6111C68.2619 33.6111 67.8394 33.7807 67.0912 33.447C66.343 33.1132 64.3082 25.6741 64.3082 25.6741Z" fill="#263238"/>
<path d="M64.4241 34.7173C64.4241 34.7173 64.4241 34.7173 64.4241 34.7415L64.5694 35.802C64.5664 36.0117 64.5439 36.2208 64.5021 36.4264C64.4682 36.5927 64.4223 36.7564 64.3649 36.9162C64.0957 37.1988 63.9046 37.8878 64.7094 37.9928C65.7241 38.1247 67.7669 36.8705 67.8907 36.4318C67.5919 34.9865 67.3981 33.3178 67.6377 32.0016L66.3269 33.1105L64.4241 34.7173Z" fill="#CE7A63"/>
<path opacity="0.2" d="M64.4293 34.7442L64.5747 35.8047C65.2448 35.5947 65.9877 35.051 66.2218 34.3943C66.3887 33.9206 66.2218 33.4362 66.0334 33.3877L64.4293 34.7442Z" fill="black"/>
<path d="M62.1282 32.2708C62.1605 32.5023 62.2009 32.731 62.2439 32.9571C62.6477 34.9569 64.9946 35.4225 66.6418 34.1898C66.7911 34.078 66.9315 33.9547 67.0616 33.8211C68.1517 32.7041 68.0332 31.7298 68.157 29.5632C68.1902 29.0606 68.0945 28.5578 67.8791 28.1025C67.6637 27.6472 67.3357 27.2543 66.9261 26.9611C66.5165 26.668 66.0388 26.4841 65.5384 26.427C65.0379 26.37 64.5311 26.4415 64.066 26.6349C62.1497 27.4208 61.7999 29.9589 62.1282 32.2708Z" fill="#CE7A63"/>
<path d="M64.7201 30.5079C64.7201 30.6828 64.6339 30.8255 64.5182 30.8282C64.4025 30.8309 64.311 30.6882 64.3083 30.5133C64.3056 30.3383 64.3971 30.1957 64.5101 30.1957C64.6232 30.1957 64.7201 30.333 64.7201 30.5079Z" fill="#263238"/>
<path d="M62.8199 30.5267C62.8199 30.7017 62.7311 30.8443 62.6181 30.847C62.505 30.8497 62.4081 30.7071 62.4055 30.5321C62.4028 30.3572 62.4943 30.2145 62.61 30.2145C62.7257 30.2145 62.8172 30.3518 62.8199 30.5267Z" fill="#263238"/>
<path d="M64.0337 32.8898H63.9718C63.9552 32.8854 63.9408 32.875 63.9314 32.8606C63.9219 32.8462 63.9181 32.8288 63.9207 32.8118C63.9226 32.8031 63.9262 32.7949 63.9313 32.7876C63.9364 32.7803 63.9429 32.7741 63.9504 32.7694C63.9579 32.7646 63.9663 32.7614 63.9751 32.7599C63.9838 32.7584 63.9928 32.7587 64.0014 32.7606C64.1297 32.7857 64.2617 32.7845 64.3895 32.7571C64.5172 32.7296 64.6381 32.6766 64.7448 32.6011C64.8515 32.5256 64.9417 32.4293 65.0101 32.3179C65.0785 32.2066 65.1236 32.0825 65.1426 31.9532C65.1445 31.9445 65.1481 31.9363 65.1532 31.929C65.1583 31.9218 65.1648 31.9156 65.1723 31.9108C65.1798 31.9061 65.1882 31.9028 65.197 31.9013C65.2057 31.8998 65.2147 31.9001 65.2234 31.9021C65.24 31.9071 65.2542 31.9181 65.2632 31.9331C65.2722 31.948 65.2752 31.9657 65.2718 31.9828C65.2261 32.2664 65.0705 32.5205 64.8388 32.6903C64.6071 32.86 64.3179 32.9317 64.0337 32.8898Z" fill="#263238"/>
<path d="M68.1597 29.7624C67.8474 30.002 67.6193 30.3347 67.5084 30.7125C67.5052 30.7537 67.4897 30.793 67.4637 30.8252C67.4378 30.8574 67.4027 30.8809 67.3631 30.8928L66.5772 30.9574C66.5772 30.9574 67.0562 28.8688 66.4964 28.8258C65.9366 28.7827 66.6579 27.908 66.3403 27.7276C65.5921 27.3051 63.4389 27.0117 62.4458 28.2067C62.4458 28.2067 62.828 26.9525 63.9369 26.3927C65.0457 25.8329 67.1208 25.9459 67.8233 27.0602C68.5258 28.1744 68.1597 29.7624 68.1597 29.7624Z" fill="#263238"/>
<path d="M69.0963 31.0058C68.9448 31.529 68.5927 31.9711 68.1166 32.2358C67.4814 32.5803 67.0024 32.0528 67.04 31.3692C67.0777 30.7528 67.4518 29.8324 68.1543 29.7704C68.8568 29.7085 69.2712 30.3626 69.0909 31.0058" fill="#CE7A63"/>
<path d="M62.3004 29.8027C62.3153 29.803 62.33 29.7991 62.3428 29.7915C62.3556 29.7839 62.3661 29.7729 62.3731 29.7597C62.3997 29.7044 62.4373 29.6552 62.4836 29.6149C62.5298 29.5747 62.5838 29.5443 62.6422 29.5255C62.7613 29.5027 62.8845 29.5207 62.9921 29.5767C63.0017 29.5829 63.0125 29.5871 63.0238 29.589C63.0351 29.5908 63.0466 29.5904 63.0577 29.5876C63.0689 29.5848 63.0793 29.5798 63.0883 29.5728C63.0974 29.5658 63.105 29.5571 63.1105 29.5471C63.1164 29.5373 63.1203 29.5266 63.1219 29.5153C63.1236 29.5041 63.1231 29.4927 63.1203 29.4817C63.1176 29.4707 63.1127 29.4603 63.1059 29.4512C63.0991 29.4421 63.0906 29.4344 63.0809 29.4286C62.9338 29.3486 62.7626 29.3247 62.5991 29.3613C62.5185 29.3847 62.4437 29.4248 62.3797 29.479C62.3157 29.5333 62.2639 29.6005 62.2277 29.6762C62.2216 29.6858 62.2176 29.6965 62.216 29.7078C62.2143 29.719 62.215 29.7304 62.2181 29.7413C62.2211 29.7522 62.2264 29.7624 62.2336 29.7711C62.2409 29.7798 62.2499 29.7869 62.26 29.792C62.2722 29.7992 62.2862 29.8029 62.3004 29.8027Z" fill="#263238"/>
<path d="M65.6029 29.7355C65.6153 29.7334 65.6272 29.7288 65.6378 29.722C65.648 29.717 65.657 29.7099 65.6642 29.7011C65.6714 29.6924 65.6768 29.6823 65.6798 29.6713C65.6829 29.6604 65.6836 29.649 65.6819 29.6378C65.6802 29.6266 65.6762 29.6158 65.6701 29.6063C65.5829 29.4628 65.4459 29.3565 65.2853 29.3075C65.2036 29.2885 65.1189 29.2866 65.0364 29.3019C64.954 29.3171 64.8756 29.3493 64.8062 29.3963C64.7866 29.4081 64.7724 29.4272 64.7669 29.4494C64.7613 29.4716 64.7648 29.4951 64.7766 29.5148C64.7884 29.5344 64.8075 29.5485 64.8297 29.5541C64.8519 29.5596 64.8754 29.5561 64.895 29.5444C64.9448 29.5091 65.0014 29.4846 65.0612 29.4725C65.121 29.4605 65.1827 29.4611 65.2422 29.4744C65.3548 29.5131 65.4501 29.5903 65.5113 29.6924C65.5198 29.7086 65.5333 29.7216 65.5498 29.7294C65.5664 29.7371 65.585 29.7393 65.6029 29.7355Z" fill="#263238"/>
<path d="M63.6784 30.3599C63.5838 30.7183 63.3875 31.0417 63.1132 31.2911C62.6718 31.6652 63.5465 31.9909 63.5465 31.9909L63.6784 30.3599Z" fill="#BA4D3C"/>
<path d="M67.433 30.1796C66.7557 30.0877 66.0672 30.2271 65.479 30.5752C65.4278 30.0961 65.1156 29.7247 64.7334 29.7247C64.3513 29.7247 64.0067 30.1365 63.9852 30.6559C63.8724 30.5745 63.7368 30.5307 63.5976 30.5307C63.4585 30.5307 63.3229 30.5745 63.2101 30.6559C63.1832 30.1446 62.8575 29.7382 62.4592 29.7382C62.0608 29.7382 61.7056 30.1796 61.7056 30.7259C61.7056 31.2723 62.0447 31.7137 62.4592 31.7137C62.8736 31.7137 63.2074 31.2777 63.2128 30.7394C63.2505 30.7044 63.525 30.4568 63.9825 30.7394C63.9825 31.2777 64.3243 31.7083 64.7334 31.7083C65.1425 31.7083 65.4897 31.2642 65.4897 30.7205C65.4911 30.6999 65.4911 30.6792 65.4897 30.6586C66.0699 30.2998 66.7579 30.1569 67.433 30.2549C67.4374 30.2557 67.442 30.2555 67.4463 30.2544C67.4507 30.2533 67.4548 30.2513 67.4584 30.2485C67.4619 30.2457 67.4648 30.2422 67.467 30.2382C67.4691 30.2342 67.4703 30.2298 67.4706 30.2253C67.4719 30.2197 67.4718 30.214 67.4705 30.2084C67.4691 30.2029 67.4665 30.1977 67.4629 30.1933C67.4593 30.1889 67.4547 30.1853 67.4495 30.183C67.4443 30.1806 67.4387 30.1794 67.433 30.1796ZM62.4592 31.6329C62.0797 31.6329 61.7729 31.2185 61.7729 30.7125C61.7729 30.2065 62.0797 29.792 62.4592 29.792C62.8387 29.792 63.1482 30.2038 63.1482 30.7125C63.1482 31.2211 62.8306 31.6329 62.4511 31.6329H62.4592ZM64.7334 31.6329C64.3566 31.6329 64.0471 31.2185 64.0471 30.7125C64.0471 30.2065 64.3566 29.792 64.7334 29.792C65.1102 29.792 65.4224 30.2038 65.4224 30.7125C65.4224 31.2211 65.1049 31.6329 64.7254 31.6329H64.7334Z" fill="white"/>
<path d="M59.7598 39.0479L57.4505 44.5761C57.0629 45.4912 56.6673 46.4009 56.2663 47.2917C56.0671 47.7358 55.8599 48.1745 55.6526 48.5971C55.4454 49.0196 55.2328 49.4341 55.0309 49.7732C54.9765 49.866 54.9172 49.9559 54.8533 50.0424L54.5545 50.185L54.2262 50.3331L53.5533 50.6264L50.7838 51.7999C48.924 52.5885 47.0615 53.4013 45.2179 54.2599L45.8692 56.2892C47.8797 55.907 49.866 55.4576 51.8469 54.9435C52.8347 54.6744 53.8224 54.4268 54.8075 54.1361L55.5611 53.9073L55.9433 53.7862L56.3497 53.6462L56.5031 53.5897L56.5731 53.5601L56.8422 53.439L56.9876 53.3717C57.0468 53.3367 57.1033 53.3044 57.1571 53.2667C57.211 53.2291 57.2702 53.1914 57.3025 53.1672C57.4326 53.068 57.5558 52.9601 57.6712 52.8442C57.7923 52.7204 57.8919 52.6073 57.978 52.5024C58.1422 52.3059 58.2606 52.1363 58.3817 51.9641C58.5863 51.668 58.7639 51.3827 58.92 51.1055C59.0438 50.9037 59.1569 50.7072 59.2699 50.5107C59.5391 50.037 59.7813 49.5687 60.0208 49.1031C60.5026 48.1691 60.9413 47.2191 61.3665 46.2959C62.2197 44.4119 63.0137 42.544 63.7377 40.6089L59.7598 39.0479ZM54.9771 49.9913H54.9609L54.9878 49.9724L55.0121 49.959L54.9771 49.9913Z" fill="#8FC1FF"/>
<path opacity="0.2" d="M59.5525 42.431C59.3291 44.0459 58.9469 51.1028 58.9469 51.1028C58.9474 51.1091 58.9474 51.1154 58.9469 51.1217C58.78 51.3908 58.6024 51.6842 58.4086 51.9802C58.2875 52.1498 58.1691 52.3194 58.0049 52.5185C58.1395 49.1219 59.5525 42.431 59.5525 42.431Z" fill="black"/>
<path d="M46.0334 55.6621C45.9742 55.2633 45.8704 54.8724 45.7239 54.4967C45.3974 54.1548 44.961 53.9386 44.4912 53.8858C43.8184 53.8696 43.2828 53.6785 42.7795 53.7028C42.2762 53.727 42.8118 54.1442 43.1401 54.311C43.4685 54.4779 43.8426 54.6663 43.6784 54.8951C43.5142 55.1238 41.318 56.1116 41.1242 56.4534C40.9304 56.7952 41.3395 56.7441 41.3395 56.7441C41.3395 56.7441 40.847 56.9702 40.8551 57.2366C40.8632 57.5031 41.2157 57.4546 41.2157 57.4546C41.2157 57.4546 40.8901 57.6161 41.0327 57.8314C41.1054 57.9445 41.6652 57.8557 42.1927 57.748C42.0824 57.8018 42.007 57.8664 41.9936 57.9472C41.9451 58.2755 42.6718 58.1679 43.2532 58.0925C43.8532 58.0241 44.4108 57.7491 44.8303 57.3147C45.2314 56.8733 46.1411 56.3458 46.0334 55.6621ZM43.1132 57.5461C43.1302 57.5442 43.1473 57.5442 43.1643 57.5461H43.1132Z" fill="#CE7A63"/>
<path d="M41.3072 57.4708C41.8697 57.2178 42.4403 56.9809 43.0136 56.7683C43.0745 56.917 43.1465 57.061 43.2289 57.1989C43.2693 57.2689 43.3581 57.1801 43.3177 57.1128C43.0668 56.6782 42.9135 56.1942 42.8682 55.6944C42.8682 55.611 42.7498 55.6379 42.7579 55.7213C42.7706 55.8479 42.7904 55.9737 42.8171 56.0981C42.8067 56.0942 42.7952 56.0942 42.7848 56.0981C42.315 56.2324 41.8631 56.4231 41.4391 56.666C41.3745 56.7037 41.4176 56.8221 41.4848 56.7844C41.8968 56.5467 42.336 56.3596 42.7929 56.2273C42.8006 56.2247 42.8077 56.2204 42.8138 56.2148C42.8198 56.2093 42.8246 56.2025 42.8279 56.195C42.8613 56.3516 42.9062 56.5054 42.9624 56.6553C42.3865 56.8679 41.8186 57.102 41.2534 57.3577C41.1942 57.3819 41.2372 57.5031 41.3072 57.4708Z" fill="#BA4D3C"/>
<path d="M43.4631 56.1681C43.641 55.8944 43.9053 55.6879 44.214 55.5816C44.5227 55.4753 44.8581 55.4752 45.1668 55.5814C45.2341 55.6083 45.2771 55.4845 45.2099 55.4576C44.5478 55.2126 43.8453 55.4576 43.3716 56.0954C43.3652 56.1012 43.3602 56.1083 43.3569 56.1162C43.3535 56.1241 43.3519 56.1327 43.3522 56.1412C43.3525 56.1498 43.3546 56.1582 43.3585 56.1659C43.3623 56.1736 43.3678 56.1803 43.3746 56.1857C43.3813 56.191 43.3891 56.1948 43.3974 56.1968C43.4058 56.1989 43.4145 56.1991 43.4229 56.1974C43.4313 56.1957 43.4393 56.1922 43.4462 56.1872C43.4532 56.1821 43.4589 56.1756 43.4631 56.1681Z" fill="#BA4D3C"/>
<path d="M73.7876 37.1531C75.1037 38.8621 76.3606 40.6062 77.6014 42.3691C78.2258 43.2465 78.8368 44.1347 79.445 45.0282C80.0533 45.9218 80.6481 46.81 81.2591 47.7654L81.3775 47.9484L81.5201 48.1826L81.5901 48.301L81.6089 48.3306L81.6708 48.4464L81.7381 48.5863C81.7597 48.6348 81.7785 48.6832 81.7866 48.7074C81.8254 48.8151 81.8587 48.9247 81.8862 49.0358L81.9158 49.165L81.9346 49.2699C81.9684 49.481 81.9873 49.6941 81.9911 49.9078C81.9911 50.0855 81.9911 50.2523 81.9911 50.4084C81.975 51.0328 81.9265 51.5927 81.8727 52.1552C81.7624 53.2721 81.6036 54.3541 81.4421 55.4333C81.1056 57.5865 80.6831 59.7154 80.1852 61.839L77.9271 61.5698C77.9271 59.4167 77.9513 57.2635 77.9836 55.1427C77.9836 54.0661 78.0024 53.0191 77.9836 51.9856C77.9836 51.4742 77.9593 50.9602 77.919 50.5107C77.919 50.3977 77.8974 50.2954 77.884 50.2039C77.8793 50.1494 77.8666 50.0959 77.8463 50.0451V50.0774C77.8551 50.1244 77.8686 50.1704 77.8867 50.2146L77.9163 50.2873C77.929 50.3194 77.9434 50.3509 77.9593 50.3815L77.9997 50.4542V50.4407L77.9593 50.3896L77.7736 50.1366C77.1654 49.3292 76.4925 48.4652 75.852 47.6147C75.2114 46.7642 74.552 45.9137 73.9087 45.0551C72.6168 43.3407 71.3357 41.6182 70.1003 39.8607L73.7876 37.1531Z" fill="#8FC1FF"/>
<path d="M80.142 61.7017C79.6495 60.426 78.5487 60.7516 78.2257 61.0746C78.2257 61.0746 77.4183 61.9036 77.2434 62.3773C77.0684 62.851 76.8342 63.3139 76.9177 63.5292C76.9581 63.6315 77.1007 63.5292 77.2407 63.3839C77.1708 63.5558 77.1272 63.7373 77.1115 63.9222C77.1115 63.9222 77.2353 65.2302 77.744 65.6393C78.2526 66.0484 78.1557 64.8722 78.1557 64.8722C78.1557 64.8722 78.2177 66.0376 79.4476 65.6608C79.9213 65.5182 80.4435 64.1213 80.5242 63.3435C80.7422 62.6868 80.142 61.7017 80.142 61.7017Z" fill="#CE7A63"/>
<path d="M64.5963 36.0173C64.5963 36.0173 63.5493 35.9043 62.9814 36.5421C62.7553 37.3253 63.2505 38.2566 63.7888 39.1986L64.9488 38.0009C65.0323 38.0036 64.4294 36.9781 64.5963 36.0173Z" fill="#8FC1FF"/>
<path opacity="0.2" d="M64.5963 36.0173C64.5963 36.0173 63.5493 35.9043 62.9814 36.5421C62.7553 37.3253 63.2505 38.2566 63.7888 39.1986L64.9488 38.0009C65.0323 38.0036 64.4294 36.9781 64.5963 36.0173Z" fill="black"/>
<path d="M67.7156 35.4467C67.2204 36.5906 66.16 37.3469 64.9542 38.0009L65.6082 39.1986L69.6454 36.168C69.6454 36.168 68.4881 35.1399 67.7156 35.4467Z" fill="#8FC1FF"/>
<path opacity="0.2" d="M67.7156 35.4467C67.2204 36.5906 66.16 37.3469 64.9542 38.0009L65.6082 39.1986L69.6454 36.168C69.6454 36.168 68.4881 35.1399 67.7156 35.4467Z" fill="black"/>
<path opacity="0.2" d="M64.9596 39.7288C64.9596 39.7699 64.9474 39.8101 64.9245 39.8442C64.9016 39.8783 64.8691 39.9049 64.8311 39.9205C64.7931 39.9361 64.7513 39.94 64.711 39.9318C64.6707 39.9236 64.6338 39.9036 64.6049 39.8744C64.576 39.8451 64.5565 39.8079 64.5488 39.7675C64.5411 39.7272 64.5456 39.6854 64.5617 39.6476C64.5778 39.6098 64.6048 39.5776 64.6392 39.5552C64.6737 39.5327 64.714 39.521 64.7551 39.5215C64.8096 39.5223 64.8616 39.5444 64.8999 39.5832C64.9382 39.622 64.9597 39.6743 64.9596 39.7288Z" fill="black"/>
<path opacity="0.2" d="M64.9596 41.0799C64.9596 41.121 64.9474 41.1612 64.9245 41.1953C64.9016 41.2294 64.8691 41.256 64.8311 41.2716C64.7931 41.2872 64.7513 41.2911 64.711 41.2829C64.6707 41.2747 64.6338 41.2547 64.6049 41.2255C64.576 41.1962 64.5565 41.159 64.5488 41.1186C64.5411 41.0783 64.5456 41.0365 64.5617 40.9987C64.5778 40.9609 64.6048 40.9287 64.6392 40.9063C64.6737 40.8838 64.714 40.8721 64.7551 40.8727C64.8096 40.8734 64.8616 40.8955 64.8999 40.9343C64.9382 40.9731 64.9597 41.0254 64.9596 41.0799Z" fill="black"/>
<path opacity="0.2" d="M64.9596 42.431C64.9596 42.4721 64.9474 42.5123 64.9245 42.5464C64.9016 42.5805 64.8691 42.6071 64.8311 42.6227C64.7931 42.6383 64.7513 42.6423 64.711 42.634C64.6707 42.6258 64.6338 42.6058 64.6049 42.5766C64.576 42.5473 64.5565 42.5101 64.5488 42.4698C64.5411 42.4294 64.5456 42.3876 64.5617 42.3498C64.5778 42.312 64.6048 42.2798 64.6392 42.2574C64.6737 42.2349 64.714 42.2232 64.7551 42.2238C64.8096 42.2245 64.8616 42.2466 64.8999 42.2854C64.9382 42.3242 64.9597 42.3765 64.9596 42.431Z" fill="black"/>
<path d="M39.1945 108.799L39.7489 111.593H41.2238L41.4203 108.799H39.1945Z" fill="#FFC3BD"/>
<path d="M41.03 111.238C41.1039 111.144 41.2026 111.073 41.3149 111.032C41.4271 110.992 41.5485 110.984 41.6652 111.009C42.0205 111.127 42.4726 111.709 42.4726 111.709C42.4726 111.709 44.3997 112.328 44.9191 112.36C45.4386 112.392 45.8961 112.686 46.0899 113.706H39.7946C39.7946 113.706 39.547 111.431 39.5066 111.041C39.4663 110.651 40.088 111.138 40.088 111.138L41.03 111.238Z" fill="#263238"/>
<path d="M45.9015 113.391H44.7657L39.7973 113.34C39.7354 113.34 39.7354 113.24 39.7973 113.243H40.1337C40.2395 112.996 40.2453 112.718 40.1499 112.467C40.0545 112.216 39.8654 112.011 39.6224 111.897C39.5659 111.867 39.6224 111.781 39.6708 111.814C39.9264 111.938 40.1259 112.154 40.2296 112.419C40.3333 112.684 40.3336 112.978 40.2306 113.243C40.4648 113.243 40.6989 113.243 40.9331 113.243L45.8988 113.294C45.9052 113.294 45.9115 113.295 45.9175 113.297C45.9234 113.299 45.9288 113.303 45.9335 113.307C45.9381 113.312 45.9418 113.317 45.9444 113.323C45.947 113.328 45.9484 113.335 45.9486 113.341C45.9488 113.347 45.9477 113.354 45.9454 113.36C45.9432 113.366 45.9397 113.371 45.9354 113.376C45.931 113.38 45.9258 113.384 45.9199 113.387C45.9141 113.389 45.9079 113.391 45.9015 113.391Z" fill="#8FC1FF"/>
<path d="M42.2599 112.104C42.3052 112.031 42.3656 111.967 42.437 111.919C42.5085 111.87 42.5894 111.837 42.6746 111.822C42.7597 111.806 42.8471 111.809 42.931 111.83C43.0149 111.851 43.0935 111.889 43.1616 111.943C43.2127 111.981 43.2611 111.894 43.21 111.857C43.1309 111.797 43.04 111.754 42.9433 111.732C42.8467 111.709 42.7463 111.707 42.6489 111.726C42.5514 111.745 42.459 111.784 42.3776 111.841C42.2962 111.898 42.2277 111.971 42.1765 112.056C42.1415 112.107 42.2249 112.155 42.2599 112.104Z" fill="white"/>
<path d="M42.8037 112.269C42.849 112.195 42.9094 112.132 42.9808 112.083C43.0523 112.034 43.1332 112.001 43.2184 111.986C43.3035 111.971 43.3909 111.973 43.4748 111.994C43.5587 112.015 43.6373 112.054 43.7054 112.107C43.7565 112.145 43.8049 112.059 43.7538 112.021C43.6747 111.961 43.5838 111.918 43.4871 111.896C43.3905 111.873 43.2901 111.872 43.1927 111.89C43.0952 111.909 43.0028 111.948 42.9214 112.005C42.84 112.062 42.7715 112.135 42.7203 112.22C42.6826 112.271 42.7687 112.32 42.8037 112.269Z" fill="white"/>
<path d="M43.3661 112.433C43.4111 112.359 43.4713 112.295 43.5428 112.246C43.6142 112.197 43.6952 112.164 43.7805 112.149C43.8658 112.133 43.9533 112.136 44.0373 112.158C44.1213 112.179 44.1999 112.217 44.2677 112.271C44.3162 112.309 44.3646 112.223 44.3162 112.185C44.2368 112.125 44.1458 112.083 44.0489 112.06C43.952 112.038 43.8515 112.036 43.7538 112.054C43.6561 112.073 43.5635 112.112 43.4819 112.169C43.4003 112.226 43.3315 112.299 43.28 112.384C43.245 112.435 43.3284 112.484 43.3661 112.433Z" fill="white"/>
<path d="M25.9875 108.818L26.2944 111.593H27.7693L28.2107 108.818H25.9875Z" fill="#FFC3BD"/>
<path d="M27.5754 111.238C27.6493 111.144 27.748 111.073 27.8603 111.032C27.9725 110.992 28.0939 110.984 28.2106 111.009C28.5659 111.127 29.018 111.709 29.018 111.709C29.018 111.709 30.9451 112.328 31.4645 112.36C31.984 112.392 32.4388 112.686 32.6353 113.706H26.34C26.34 113.706 26.0924 111.431 26.0521 111.041C26.0117 110.651 26.6334 111.138 26.6334 111.138L27.5754 111.238Z" fill="#263238"/>
<path d="M32.4578 113.391H31.322L26.3536 113.34C26.3407 113.34 26.3284 113.335 26.3193 113.326C26.3103 113.316 26.3051 113.304 26.3051 113.291C26.3051 113.278 26.3103 113.266 26.3193 113.257C26.3284 113.248 26.3407 113.243 26.3536 113.243H26.69C26.7958 112.996 26.8016 112.718 26.7062 112.467C26.6108 112.216 26.4217 112.011 26.1786 111.897C26.1221 111.867 26.1786 111.781 26.2271 111.814C26.4827 111.938 26.6821 112.154 26.7858 112.419C26.8895 112.684 26.8899 112.978 26.7869 113.243C27.0211 113.243 27.2552 113.243 27.4894 113.243L32.4551 113.294C32.4615 113.294 32.4678 113.295 32.4737 113.297C32.4797 113.299 32.4851 113.303 32.4897 113.307C32.4944 113.312 32.4981 113.317 32.5007 113.323C32.5033 113.328 32.5047 113.335 32.5049 113.341C32.5051 113.347 32.504 113.354 32.5017 113.36C32.4994 113.366 32.496 113.371 32.4916 113.376C32.4873 113.38 32.482 113.384 32.4762 113.387C32.4704 113.389 32.4641 113.391 32.4578 113.391Z" fill="#8FC1FF"/>
<path d="M28.8055 112.104C28.8507 112.031 28.9111 111.967 28.9825 111.919C29.054 111.87 29.135 111.837 29.2201 111.822C29.3052 111.806 29.3926 111.809 29.4766 111.83C29.5605 111.851 29.639 111.889 29.7071 111.943C29.7582 111.981 29.8067 111.894 29.7555 111.857C29.6764 111.797 29.5855 111.754 29.4889 111.732C29.3922 111.709 29.2919 111.707 29.1944 111.726C29.0969 111.745 29.0045 111.784 28.9231 111.841C28.8418 111.898 28.7732 111.971 28.722 112.056C28.687 112.107 28.7705 112.155 28.8055 112.104Z" fill="white"/>
<path d="M29.3491 112.269C29.3944 112.195 29.4548 112.132 29.5262 112.083C29.5977 112.034 29.6786 112.001 29.7638 111.986C29.8489 111.971 29.9363 111.973 30.0202 111.994C30.1042 112.015 30.1827 112.054 30.2508 112.107C30.3019 112.145 30.3503 112.059 30.2992 112.021C30.2201 111.961 30.1292 111.918 30.0325 111.896C29.9359 111.873 29.8355 111.872 29.7381 111.89C29.6406 111.909 29.5482 111.948 29.4668 112.005C29.3854 112.062 29.3169 112.135 29.2657 112.22C29.228 112.271 29.3141 112.32 29.3491 112.269Z" fill="white"/>
<path d="M29.9116 112.433C29.9567 112.359 30.0168 112.296 30.088 112.247C30.1592 112.198 30.2399 112.165 30.3249 112.15C30.4098 112.135 30.497 112.138 30.5807 112.159C30.6644 112.18 30.7428 112.218 30.8106 112.271C30.8617 112.309 30.9102 112.223 30.8617 112.185C30.7824 112.125 30.6913 112.083 30.5944 112.06C30.4975 112.038 30.397 112.036 30.2993 112.054C30.2017 112.073 30.109 112.112 30.0274 112.169C29.9458 112.226 29.877 112.299 29.8255 112.384C29.7905 112.435 29.874 112.484 29.9116 112.433Z" fill="white"/>
<path d="M38.7045 108.896H41.9612C42.2438 104.703 43.0377 90.7989 42.4106 83.9196C42.8655 74.3757 41.4067 61.7044 41.4067 61.7044H31.0985C31.0985 61.7044 31.8548 70.1852 35.2514 83.7742C35.2137 94.5589 37.8433 105.33 38.7045 108.896Z" fill="#8FC1FF"/>
<path opacity="0.2" d="M38.7045 108.896H41.9612C42.2438 104.703 43.0377 90.7989 42.4106 83.9196C42.8655 74.3757 41.4067 61.7044 41.4067 61.7044H31.0985C31.0985 61.7044 31.8548 70.1852 35.2514 83.7742C35.2137 94.5589 37.8433 105.33 38.7045 108.896Z" fill="white"/>
<path opacity="0.2" d="M34.6809 81.4973C36.5461 73.8778 34.907 64.0029 34.907 64.0029L33.2921 75.2908L34.6809 81.4973Z" fill="black"/>
<path d="M38.317 108.815L38.5566 110.053L42.2923 110.037L42.295 108.799L38.317 108.815Z" fill="#263238"/>
<path d="M25.5219 109.017H28.7812C29.9412 104.711 32.2801 90.8258 32.6461 83.9465C34.4925 74.4 35.3753 61.7044 35.3753 61.7044H25.0536C25.0536 61.7044 24.0927 70.2821 25.5057 83.8792C25.2312 95.7377 25.4465 105.33 25.5219 109.017Z" fill="#8FC1FF"/>
<path opacity="0.2" d="M25.5219 109.017H28.7812C29.9412 104.711 32.2801 90.8258 32.6461 83.9465C34.4925 74.4 35.3753 61.7044 35.3753 61.7044H25.0536C25.0536 61.7044 24.0927 70.2821 25.5057 83.8792C25.2312 95.7377 25.4465 105.33 25.5219 109.017Z" fill="white"/>
<path d="M25.2366 108.813L25.2312 110.04H28.9965L29.193 108.813H25.2366Z" fill="#263238"/>
<path d="M42.7552 63.2628C35.596 66.0134 23.934 64.0191 23.934 64.0191C24.012 62.057 24.0847 59.0211 24.1251 55.7133C24.1251 54.8251 24.1439 53.9181 24.1493 53.0057C24.1493 51.2562 24.1493 49.4907 24.1493 47.8247C24.1493 47.6901 24.1493 47.5555 24.1493 47.4236C24.1493 46.6162 24.1277 45.8088 24.1116 45.0659C24.1116 44.9744 24.1116 44.8829 24.1116 44.7968C24.0793 43.3246 24.0255 42.0219 23.9582 40.9803C23.8263 39.0183 24.8948 37.1908 26.8353 36.8651C27.4248 36.7655 28.0626 36.6767 28.7193 36.596C28.8754 36.5771 29.0369 36.5637 29.1984 36.5475C31.0916 36.3615 32.9945 36.2923 34.8962 36.3403H35.1653H35.3107H35.5502C36.3577 36.3726 37.1489 36.4345 37.846 36.526C39.4286 36.7305 40.8335 37.9794 40.8604 39.5781C40.8847 41.0422 41.0273 44.1347 41.2345 47.6228C41.3153 48.9416 41.4041 50.3142 41.5037 51.6896C41.8643 57.1128 42.3515 62.3208 42.7552 63.2628Z" fill="#263238"/>
<path opacity="0.2" d="M28.1379 42.431C28.1379 42.431 27.9845 50.0316 28.4905 50.9548C28.9965 51.878 38.7745 54.669 38.7745 54.669C33.8788 54.0042 29.1445 53.2587 26.6388 51.3935L28.1379 42.431Z" fill="black"/>
<path opacity="0.2" d="M39.0975 56.9029C33.3997 58.2486 26.7357 56.5207 24.125 55.7133C24.125 54.8251 24.1438 53.9181 24.1492 53.0057C28.1622 55.9743 39.0975 56.9029 39.0975 56.9029Z" fill="black"/>
<path d="M34.2555 40.9965L33.2947 51.6411L35.2164 55.506L36.7155 51.2805L35.1625 40.9965H34.2555Z" fill="#8FC1FF"/>
<path d="M34.4844 38.7087L33.4482 40.2456L34.6675 41.6532L35.884 39.8391L34.4844 38.7087Z" fill="#8FC1FF"/>
<path d="M36.5919 25.954C36.0394 25.751 35.451 25.6639 34.8634 25.6981C34.2758 25.7324 33.7016 25.8873 33.1764 26.1532C32.4874 26.5111 31.8899 27.0602 31.9061 27.8838C31.9384 29.8028 32.474 33.0136 32.474 33.0136L38.955 30.0854C38.955 30.0854 39.426 28.4705 38.667 27.4504C38.1486 26.7471 37.4229 26.2238 36.5919 25.954Z" fill="#263238"/>
<path d="M34.1721 25.7925C34.1721 25.7925 33.2947 25.3054 32.4173 26.2124C31.6825 26.9687 32.0028 29.4421 32.0028 29.4421L34.1721 25.7925Z" fill="#263238"/>
<path d="M33.5209 25.9944C33.5209 25.9944 33.7739 24.5302 36.4465 24.9689C39.1191 25.4076 41.2399 27.6146 40.2656 28.7692C39.2913 29.9239 36.4465 28.0291 36.4465 28.0291L33.5209 25.9944Z" fill="#263238"/>
<path d="M35.3053 35.401C35.3063 35.4081 35.3063 35.4153 35.3053 35.4225L34.8989 36.4829C34.8514 36.7007 34.8235 36.9223 34.8155 37.145C34.8112 37.3248 34.8193 37.5046 34.8397 37.6833C35.0442 38.0386 35.0765 38.7976 34.2233 38.7087C33.1468 38.5984 31.3166 36.9055 31.295 36.421C31.9544 35.0026 32.5816 33.229 32.6408 31.8106L33.7173 33.2747L35.3053 35.401Z" fill="#FFC3BD"/>
<path d="M34.4844 38.7087C34.7401 38.1435 34.7374 37.4653 34.8262 36.857C34.8498 36.6228 34.9107 36.3938 35.0065 36.1788C35.0065 36.1788 35.744 36.0065 36.1773 36.3968C36.3333 37.5763 36.2267 38.7756 35.8651 39.9091L34.4844 38.7087Z" fill="#263238"/>
<path d="M30.3934 36.4506C30.3934 36.4506 30.9909 35.3014 31.8091 35.1614C31.9087 36.5475 32.4739 37.6483 34.4844 38.7087L33.2948 40.4716C31.6369 39.1178 30.711 37.7802 30.3934 36.4506Z" fill="#263238"/>
<g opacity="0.2">
<path d="M35.2945 35.4252L34.888 36.4856C34.2448 36.1061 33.6123 35.366 33.5289 34.6285C33.4723 34.0902 33.7576 33.6408 33.9703 33.6354L35.2945 35.4252Z" fill="black"/>
</g>
<path d="M38.274 33.4281C38.1825 33.6596 38.0856 33.8857 37.986 34.1091C37.0844 36.0738 34.5463 35.9931 33.1414 34.3136C33.0141 34.1623 32.8989 34.0012 32.7969 33.8318C31.9437 32.4161 32.3017 31.4365 32.7 29.1703C32.787 28.6426 33.0073 28.146 33.3402 27.7274C33.673 27.3089 34.1073 26.9823 34.6018 26.7787C35.0963 26.5752 35.6346 26.5013 36.1657 26.5642C36.6967 26.6272 37.2029 26.8247 37.6361 27.1382C39.4421 28.4167 39.1729 31.1242 38.274 33.4281Z" fill="#FFC3BD"/>
<path d="M34.008 30.0369C34.008 30.0369 33.9945 31.9209 34.7347 32.1901C35.4748 32.4592 36.0266 31.8321 36.8394 32.6153C37.0027 32.5369 37.1842 32.5039 37.3647 32.52C37.5452 32.5362 37.718 32.6007 37.8648 32.7068C38.3547 33.0755 38.2739 33.2962 38.2739 33.2962C38.2739 33.2962 38.0855 36.1196 35.5017 35.7912C32.918 35.4629 32.6057 32.9302 32.7834 31.5845L33.2948 29.9131L34.008 30.0369Z" fill="#263238"/>
<path d="M35.6875 32.6772C36.2131 32.8577 36.7476 33.0113 37.2889 33.1374C37.2431 33.2418 37.1764 33.3357 37.093 33.4133C37.0095 33.491 36.911 33.5507 36.8036 33.5887C36.6961 33.6268 36.582 33.6425 36.4683 33.6348C36.3546 33.627 36.2437 33.5961 36.1424 33.5439C35.6229 33.3205 35.6875 32.6772 35.6875 32.6772Z" fill="white"/>
<path d="M37.8272 26.9229C36.8179 26.0724 34.6486 25.6875 33.6501 26.6538C32.6516 27.62 32.6462 29.3614 32.6462 29.3614C32.6342 29.5494 32.6938 29.735 32.813 29.8808C32.838 29.9068 32.8597 29.9357 32.8776 29.9669L34.0027 30.15C34.0915 29.687 34.2718 28.8446 34.5921 28.8042C35.1842 28.7235 34.7805 28.0722 34.9097 27.7061C35.3215 26.5165 38.5539 27.3293 38.9253 29.1487C38.9307 29.1568 38.8419 27.7761 37.8272 26.9229Z" fill="#263238"/>
<path d="M31.3838 30.4245C31.4148 31.0023 31.672 31.5447 32.0998 31.9344C32.673 32.4431 33.2948 32.0124 33.4159 31.2965C33.5262 30.6533 33.362 29.6117 32.6515 29.3748C31.941 29.138 31.3569 29.7166 31.3838 30.4245Z" fill="#FFC3BD"/>
<path d="M36.0158 30.5564C35.9727 30.7313 36.0319 30.8928 36.145 30.9224C36.258 30.952 36.3845 30.8309 36.4276 30.6533C36.4707 30.4756 36.4087 30.3168 36.2957 30.2899C36.1827 30.263 36.0562 30.3814 36.0266 30.5591" fill="#263238"/>
<path d="M37.8514 30.9897C37.8083 31.1646 37.8675 31.3261 37.9806 31.3557C38.0936 31.3853 38.2201 31.2642 38.2632 31.0866C38.3062 30.9089 38.2443 30.7501 38.1313 30.7232C38.0182 30.6963 37.8917 30.8147 37.8621 30.9924" fill="#263238"/>
<path d="M38.6345 30.4675C38.619 30.4634 38.6049 30.4552 38.5936 30.4439C38.5823 30.4325 38.5741 30.4184 38.5699 30.4029C38.5565 30.34 38.5301 30.2805 38.4926 30.2282C38.4551 30.1758 38.4072 30.1318 38.3519 30.0988C38.2355 30.042 38.1022 30.0305 37.9778 30.0665C37.9546 30.0734 37.9296 30.0711 37.9081 30.0601C37.8865 30.0491 37.8701 30.0302 37.8621 30.0073C37.8558 29.9841 37.8585 29.9594 37.8694 29.938C37.8803 29.9167 37.8988 29.9001 37.9213 29.8916C38.0934 29.8437 38.277 29.86 38.438 29.9373C38.5146 29.982 38.5813 30.0418 38.634 30.1131C38.6868 30.1843 38.7245 30.2655 38.7449 30.3518C38.7516 30.375 38.7488 30.3999 38.7372 30.4211C38.7256 30.4423 38.7061 30.458 38.683 30.4649C38.6673 30.4697 38.6506 30.4707 38.6345 30.4675Z" fill="#263238"/>
<path d="M35.6417 29.7489C35.627 29.746 35.6131 29.7395 35.6014 29.7301C35.583 29.7114 35.5726 29.6863 35.5726 29.6601C35.5726 29.6339 35.583 29.6088 35.6014 29.5901C35.7275 29.4423 35.9039 29.3464 36.0966 29.321C36.1927 29.3158 36.2888 29.3303 36.379 29.3636C36.4693 29.3969 36.5518 29.4484 36.6214 29.5148C36.6398 29.5334 36.6502 29.5585 36.6502 29.5847C36.6502 29.6109 36.6398 29.6361 36.6214 29.6547C36.6126 29.6641 36.602 29.6716 36.5902 29.6767C36.5784 29.6818 36.5656 29.6844 36.5528 29.6844C36.5399 29.6844 36.5272 29.6818 36.5154 29.6767C36.5036 29.6716 36.493 29.6641 36.4842 29.6547C36.4341 29.6057 36.3747 29.5674 36.3095 29.542C36.2443 29.5165 36.1746 29.5045 36.1047 29.5067C35.9656 29.5251 35.8381 29.5941 35.7467 29.7005C35.7361 29.7182 35.7205 29.7323 35.7017 29.7409C35.683 29.7496 35.6621 29.7524 35.6417 29.7489Z" fill="#263238"/>
<path d="M37.2242 30.6048C37.2783 31.072 37.3914 31.5305 37.5607 31.9694C37.8056 32.5292 36.8394 32.3192 36.8394 32.3192L37.2242 30.6048Z" fill="#ED847E"/>
<path d="M44.4751 56.405C44.1144 55.7806 42.7983 55.21 42.7983 55.21C42.4425 55.1511 42.0802 55.1412 41.7217 55.1804H41.7729C41.7729 55.1804 42.6341 54.6851 42.4188 54.5667C42.2035 54.4483 41.676 54.6394 41.1511 54.7497C40.7433 54.8711 40.3636 55.0724 40.0342 55.3419C39.6493 55.576 39.4259 56.3 39.6978 57.2582C39.6978 57.2582 40.7959 58.3024 41.5818 58.4478C42.3542 58.6362 43.9314 58.7331 44.2732 58.2513C45.0107 57.2393 43.6515 56.5288 43.6515 56.5288C43.6515 56.5288 44.825 57.0294 44.4751 56.405Z" fill="#FFC3BD"/>
<path d="M39.6035 54.8816L39.2967 56.989C37.0601 56.8679 34.8531 56.666 32.6326 56.37C31.5211 56.2246 30.4122 56.047 29.2899 55.8317C28.7274 55.7267 28.1649 55.6056 27.5889 55.463C26.9769 55.3224 26.3745 55.1426 25.7856 54.9247C25.6214 54.8601 25.4492 54.7874 25.2608 54.6959C25.0321 54.5825 24.8149 54.4473 24.6122 54.2922C24.4439 54.1644 24.2904 54.0181 24.1546 53.8562C24.0514 53.7282 23.9612 53.5903 23.8855 53.4444C23.8344 53.3468 23.7894 53.2461 23.7509 53.1429L23.6944 52.9653L23.6809 52.9061C23.6233 52.6733 23.582 52.4368 23.5571 52.1982C23.4817 51.4904 23.4683 50.9279 23.4548 50.3411C23.4548 49.1865 23.4548 48.0696 23.506 46.9499C23.5813 44.7133 23.7428 42.5117 23.9689 40.2913L28.2591 40.6654C28.1972 41.742 28.0976 42.8428 28.0276 43.9301L27.7746 47.1895C27.6939 48.266 27.605 49.3426 27.5593 50.4031C27.5404 50.7718 27.5243 51.1513 27.5216 51.4796C27.85 51.633 28.2456 51.7838 28.6412 51.921C29.1257 52.0879 29.629 52.244 30.1377 52.4001C31.155 52.7096 32.202 52.9895 33.2517 53.2694C35.3456 53.8104 37.4826 54.3487 39.6035 54.8816Z" fill="#263238"/>
<path d="M58.5055 40.8404C57.0602 42.2049 55.5584 43.486 54.0054 44.7214C53.233 45.3458 52.4363 45.9406 51.6154 46.5408C51.1982 46.8315 50.7784 47.1222 50.302 47.4155C50.1809 47.4882 50.0571 47.5609 49.9198 47.6362C49.7583 47.7284 49.5911 47.8102 49.4192 47.8812C49.2614 47.9451 49.0984 47.9955 48.932 48.0319L48.8217 48.0507L48.6764 48.0669C48.5225 48.0835 48.3673 48.0835 48.2134 48.0669H48.1354L48.025 48.0453C47.9539 48.0288 47.8838 48.0081 47.8151 47.9834H47.7774L47.7021 47.9565C47.6105 47.9215 47.4894 47.8785 47.4195 47.8462L47.188 47.7439C46.6147 47.4748 46.1679 47.2245 45.7104 46.9634C45.2528 46.7023 44.8222 46.4412 44.397 46.156C43.5465 45.6177 42.7121 45.0794 41.8993 44.4953L41.7701 44.4065L41.0192 43.8682C39.6977 42.9262 38.4139 41.9546 37.1543 40.9211L39.7865 37.5137C41.3556 38.6334 42.9086 39.8149 44.4454 40.9776C45.2179 41.5509 45.9795 42.1403 46.7466 42.6975C47.1315 42.9666 47.5083 43.2573 47.8824 43.521C48.1515 43.7094 48.4207 43.9005 48.6898 44.0593C49.0316 43.9005 49.395 43.7121 49.7664 43.521C50.6088 43.0931 51.4539 42.6194 52.3098 42.1592C54.0162 41.2306 55.7414 40.2752 57.4962 39.4031L58.5055 40.8404Z" fill="#263238"/>
<path opacity="0.2" d="M41.7701 44.3823L41.0192 43.844L40.7877 40.1702L41.7701 44.3823Z" fill="black"/>
<path d="M58.3333 40.8727C58.4839 40.8616 58.6305 40.819 58.7636 40.7476C58.8967 40.6762 59.0132 40.5776 59.1057 40.4582C59.5525 39.7288 60.2577 39.5942 60.5403 39.4381C60.8229 39.282 60.4999 38.8029 59.784 38.9564C59.784 38.9564 60.0908 37.9578 60.3384 37.7156C60.586 37.4734 61.8887 36.9566 61.8644 36.7709C61.8402 36.5852 60.8309 36.8866 60.2496 37.1531C59.6682 37.4195 58.4678 38.8971 57.3913 39.4274C57.3832 39.4274 56.9579 40.547 58.3333 40.8727Z" fill="#FFC3BD"/>
</g>
</svg>
