<svg width="125" height="125" viewBox="0 0 125 125" fill="none" xmlns="http://www.w3.org/2000/svg">
<g clip-path="url(#clip0_761_6779)">
<path d="M60 108.89C93.1372 108.89 120 107.243 120 105.21C120 103.178 93.1372 101.53 60 101.53C26.8629 101.53 0 103.178 0 105.21C0 107.243 26.8629 108.89 60 108.89Z" fill="#F5F5F5"/>
<path d="M3.61157 86.7918H79.3938L84.8402 37.2675H9.06106L3.61157 86.7918Z" fill="#8FC1FF"/>
<path opacity="0.4" d="M3.61157 86.7918H79.3938L84.8402 37.2675H9.06106L3.61157 86.7918Z" fill="white"/>
<path d="M94.2787 88.6479H18.4965L9.06128 37.2675H84.8404L94.2787 88.6479Z" fill="#8FC1FF"/>
<path opacity="0.6" d="M94.2787 88.6479H18.4965L9.06128 37.2675H84.8404L94.2787 88.6479Z" fill="white"/>
<path d="M91.3759 85.8914H20.3841L12.7622 44.3768H83.7541L91.3759 85.8914Z" fill="white"/>
<g opacity="0.5">
<path d="M25.911 54.4442H18.4872L17.0544 46.6425H24.4782L25.911 54.4442Z" fill="#8FC1FF"/>
<path d="M81.7272 54.4442H74.3003L72.8706 46.6425H80.2944L81.7272 54.4442Z" fill="#8FC1FF"/>
<path d="M72.4218 54.4442H64.998L63.5652 46.6425H70.9921L72.4218 54.4442Z" fill="#8FC1FF"/>
<path d="M63.12 54.4442H55.6962L54.2634 46.6425H61.6903L63.12 54.4442Z" fill="#8FC1FF"/>
<path d="M53.8173 54.4442H46.3935L44.9607 46.6425H52.3845L53.8173 54.4442Z" fill="#8FC1FF"/>
<path d="M44.5155 54.4442H37.0917L35.6589 46.6425H43.0827L44.5155 54.4442Z" fill="#8FC1FF"/>
<path d="M35.2133 54.4442H27.7895L26.3567 46.6425H33.7805L35.2133 54.4442Z" fill="#8FC1FF"/>
<path opacity="0.5" d="M27.6964 64.1702H20.2726L18.8398 56.3718H26.2636L27.6964 64.1702Z" fill="#8FC1FF"/>
<path d="M83.5126 64.1702H76.0888L74.656 56.3718H82.0798L83.5126 64.1702Z" fill="#8FC1FF"/>
<path opacity="0.5" d="M74.2106 64.1702H66.7868L65.354 56.3718H72.7778L74.2106 64.1702Z" fill="#8FC1FF"/>
<path d="M64.9083 64.1702H57.4814L56.0518 56.3718H63.4756L64.9083 64.1702Z" fill="#8FC1FF"/>
<path d="M55.6032 64.1702H48.1794L46.7466 56.3718H54.1735L55.6032 64.1702Z" fill="#8FC1FF"/>
<path d="M46.3009 64.1702H38.8771L37.4443 56.3718H44.8681L46.3009 64.1702Z" fill="#8FC1FF"/>
<path d="M36.9989 64.1702H29.5751L28.1423 56.3718H35.5661L36.9989 64.1702Z" fill="#8FC1FF"/>
<path d="M29.4821 73.8963H22.0583L20.6255 66.0979H28.0493L29.4821 73.8963Z" fill="#8FC1FF"/>
<path d="M85.2985 73.8963H77.8747L76.4419 66.0979H83.8657L85.2985 73.8963Z" fill="#8FC1FF"/>
<path d="M75.996 73.8963H68.5722L67.1394 66.0979H74.5632L75.996 73.8963Z" fill="#8FC1FF"/>
<path d="M66.694 73.8963H59.2702L57.8374 66.0979H65.2612L66.694 73.8963Z" fill="#8FC1FF"/>
<path d="M57.392 73.8963H49.9651L48.5354 66.0979H55.9592L57.392 73.8963Z" fill="#8FC1FF"/>
<path d="M48.0866 73.8963H40.6627L39.23 66.0979H46.6569L48.0866 73.8963Z" fill="#8FC1FF"/>
<path d="M38.7843 73.8963H31.3605L29.9277 66.0979H37.3515L38.7843 73.8963Z" fill="#8FC1FF"/>
<path d="M31.2675 83.6256H23.8437L22.4109 75.824H29.8378L31.2675 83.6256Z" fill="#8FC1FF"/>
<path d="M87.0839 83.6256H79.6601L78.2273 75.824H85.6511L87.0839 83.6256Z" fill="#8FC1FF"/>
<path d="M77.7816 83.6256H70.3578L68.925 75.824H76.3488L77.7816 83.6256Z" fill="#8FC1FF"/>
<path d="M68.4794 83.6256H61.0556L59.6228 75.824H67.0466L68.4794 83.6256Z" fill="#8FC1FF"/>
<path d="M59.1774 83.6256H51.7536L50.3208 75.824H57.7446L59.1774 83.6256Z" fill="#8FC1FF"/>
<path d="M49.8751 83.6256H42.4482L41.0186 75.824H48.4424L49.8751 83.6256Z" fill="#8FC1FF"/>
<path opacity="0.5" d="M40.5729 83.6256H33.146L31.7163 75.824H39.1401L40.5729 83.6256Z" fill="#8FC1FF"/>
</g>
<path d="M18.4065 40.7945L18.3106 40.2777C19.1864 40.2777 19.6753 38.8994 19.3751 37.2675C19.075 35.6357 18.0816 34.2541 17.209 34.2541C16.3363 34.2541 15.8443 35.6357 16.1413 37.2675H15.6524C15.2872 35.2879 15.9309 33.7405 17.113 33.7405C18.2951 33.7405 19.5082 35.2879 19.8703 37.2675C20.2323 39.2472 19.5887 40.7945 18.4065 40.7945Z" fill="#263238"/>
<path d="M25.7344 40.7945L25.6385 40.2777C26.5143 40.2777 27.0032 38.8994 26.703 37.2675C26.4028 35.6357 25.4095 34.2541 24.5368 34.2541C23.6642 34.2541 23.1721 35.6357 23.4692 37.2675H22.9803C22.6151 35.2879 23.2588 33.7405 24.4409 33.7405C25.623 33.7405 26.8361 35.2879 27.1981 37.2675C27.5602 39.2472 26.9165 40.7945 25.7344 40.7945Z" fill="#263238"/>
<path d="M33.0779 40.7945L32.9819 40.2777C33.8577 40.2777 34.3466 38.8994 34.0465 37.2675C33.7463 35.6357 32.7529 34.2541 31.8803 34.2541C31.0076 34.2541 30.5125 35.6357 30.8127 37.2675H30.2928C29.9276 35.2879 30.5713 33.7405 31.7534 33.7405C32.9355 33.7405 34.1486 35.2879 34.5106 37.2675C34.8727 39.2472 34.2445 40.7945 33.0779 40.7945Z" fill="#263238"/>
<path d="M40.3874 40.7945L40.2945 40.2777C41.1703 40.2777 41.6592 38.8994 41.359 37.2675C41.0589 35.6357 40.0655 34.2541 39.1929 34.2541C38.3202 34.2541 37.8282 35.6357 38.1283 37.2675H37.6363C37.2743 35.2879 37.9179 33.7405 39.1 33.7405C40.2821 33.7405 41.4921 35.2879 41.8573 37.2675C42.2224 39.2472 41.5726 40.7945 40.3874 40.7945Z" fill="#263238"/>
<path d="M47.715 40.7945L47.6222 40.2777C48.4979 40.2777 48.9869 38.8994 48.6867 37.2675C48.3865 35.6357 47.3932 34.2541 46.5205 34.2541C45.6478 34.2541 45.1558 35.6357 45.456 37.2675H44.9639C44.6019 35.2879 45.2456 33.7405 46.4277 33.7405C47.6098 33.7405 48.8197 35.2879 49.1849 37.2675C49.5501 39.2472 48.9002 40.7945 47.715 40.7945Z" fill="#263238"/>
<path d="M55.049 40.7945L54.9562 40.2777C55.8319 40.2777 56.3209 38.8994 56.0207 37.2675C55.7205 35.6357 54.7272 34.2541 53.8545 34.2541C52.9819 34.2541 52.4898 35.6357 52.79 37.2675H52.298C51.9359 35.2879 52.5765 33.7405 53.7617 33.7405C54.9469 33.7405 56.1538 35.2879 56.5189 37.2675C56.8841 39.2472 56.228 40.7945 55.049 40.7945Z" fill="#263238"/>
<path d="M62.3708 40.7945L62.2779 40.2777C63.1537 40.2777 63.6426 38.8994 63.3425 37.2675C63.0423 35.6357 62.0489 34.2541 61.1763 34.2541C60.3036 34.2541 59.8116 35.6357 60.1118 37.2675H59.6197C59.2577 35.2879 59.8982 33.7405 61.0835 33.7405C62.2687 33.7405 63.4755 35.2879 63.8407 37.2675C64.2058 39.2472 63.556 40.7945 62.3708 40.7945Z" fill="#263238"/>
<path d="M69.6984 40.7945L69.6056 40.2777C70.4813 40.2777 70.9703 38.8994 70.6701 37.2675C70.3699 35.6357 69.3766 34.2541 68.5039 34.2541C67.6313 34.2541 67.1392 35.6357 67.4394 37.2675H66.9474C66.5853 35.2879 67.2259 33.7405 68.4111 33.7405C69.5963 33.7405 70.8032 35.2879 71.1683 37.2675C71.5335 39.2472 70.8805 40.7945 69.6984 40.7945Z" fill="#263238"/>
<path d="M77.0202 40.7945L76.9274 40.2777C77.8031 40.2777 78.2921 38.8994 77.9919 37.2675C77.6917 35.6357 76.6984 34.2541 75.8257 34.2541C74.9531 34.2541 74.461 35.6357 74.7612 37.2675H74.2691C73.9071 35.2879 74.5477 33.7405 75.7329 33.7405C76.9181 33.7405 78.1249 35.2879 78.487 37.2675C78.8491 39.2472 78.2085 40.7945 77.0202 40.7945Z" fill="#263238"/>
<path d="M45.36 53.3455H19.3288L17.896 45.547H43.9273L45.36 53.3455Z" fill="#8FC1FF"/>
<path d="M56.454 63.0748H49.0271L47.5974 55.2731H55.0212L56.454 63.0748Z" fill="#8FC1FF"/>
<path d="M79.6816 73.0609L79.2794 72.6936C78.4537 71.934 77.5347 71.2944 76.5469 70.7919L76.8037 69.9955C77.7238 70.4631 78.5897 71.0401 79.3846 71.7151C80.7552 69.5801 82.5499 67.7823 84.6453 66.4457L85.1992 67.2389C83.0662 68.6003 81.2599 70.4589 79.9199 72.6708L79.6816 73.0609Z" fill="#8FC1FF"/>
<path d="M53.7306 56.5636H53.0591L51.9357 58.6993L50.0326 56.5636H49.3611L51.6882 59.1739L50.3173 61.781H50.9919L52.1121 59.6485L54.0153 61.781H54.6899L52.3597 59.1739L53.7306 56.5636Z" fill="white"/>
<path d="M67.4924 75.2453L68.7302 82.01H62.2936L61.0557 75.2453H67.4955M67.8947 74.7285H60.4678L61.9006 82.5301H69.3274L67.8978 74.7285H67.8947Z" fill="#8FC1FF"/>
<path d="M48.931 72.8008H32.205L30.7722 65.0024H47.4982L48.931 72.8008Z" fill="#263238"/>
<path d="M37.41 68.1133C37.4546 68.2945 37.4581 68.4841 37.4205 68.667C37.3828 68.8499 37.3049 69.021 37.1931 69.1666C37.0812 69.3123 36.9385 69.4284 36.7762 69.5057C36.614 69.583 36.4368 69.6194 36.2588 69.6119C35.857 69.5962 35.4716 69.4403 35.1634 69.169C34.8552 68.8976 34.6418 68.5262 34.5568 68.1133C34.513 67.9322 34.5099 67.7429 34.5478 67.5603C34.5858 67.3777 34.6637 67.2069 34.7754 67.0614C34.8871 66.916 35.0296 66.7999 35.1915 66.7224C35.3534 66.6448 35.5302 66.608 35.708 66.6148C36.1097 66.6311 36.4949 66.7871 36.8029 67.0584C37.111 67.3296 37.3246 67.7007 37.41 68.1133Z" fill="white"/>
<path d="M37.7535 69.5306C37.5961 69.7605 37.3873 69.9461 37.1456 70.0714C36.9039 70.1967 36.6366 70.2577 36.3672 70.249C35.7529 70.2335 35.1661 69.9786 34.7209 69.5339C34.4453 69.6904 34.2239 69.9343 34.0883 70.2309C33.9527 70.5275 33.9098 70.8615 33.9658 71.1852H39.1151C39.0219 70.8193 38.851 70.4803 38.6152 70.1937C38.3794 69.9071 38.0848 69.6804 37.7535 69.5306Z" fill="white"/>
<path d="M46.143 68.4156H40.4491L40.2913 67.5542H45.9852L46.143 68.4156Z" fill="white"/>
<path d="M44.574 70.2458H40.7862L40.6284 69.3844H44.4161L44.574 70.2458Z" fill="white"/>
<path d="M74.4703 46.2752C75.9371 46.2752 78.0135 46.4995 79.5825 47.5755C79.8675 47.752 80.116 47.9868 80.3132 48.266C80.5104 48.5452 80.6523 48.8631 80.7305 49.2008C81.006 50.4783 80.3592 51.8729 79.6444 52.6303C78.5149 53.8266 76.7572 54.5807 74.6931 54.7303C74.4579 54.7498 74.2165 54.7595 73.9783 54.7595C72.5249 54.7461 71.0868 54.4462 69.7387 53.8753C68.4112 53.3195 67.0032 52.575 66.6071 51.1252C66.5037 50.7912 66.472 50.4372 66.5142 50.0887C66.5565 49.7403 66.6717 49.406 66.8515 49.1098C67.0853 48.7339 67.3948 48.4165 67.7582 48.1801C69.4728 47.0661 71.4266 46.4234 73.4398 46.311C73.7833 46.2882 74.1299 46.2752 74.4703 46.2752ZM74.3775 45.7746C74.0092 45.7746 73.6533 45.7746 73.3191 45.8136C71.236 45.9287 69.2141 46.5927 67.4395 47.7445C67.0315 48.0113 66.6841 48.3685 66.4214 48.7912C66.2115 49.1426 66.0775 49.5381 66.0289 49.9498C65.9802 50.3615 66.0181 50.7793 66.1398 51.174C66.604 52.8579 68.1915 53.7323 69.6335 54.3337C71.0431 54.9321 72.5477 55.2453 74.068 55.2569C74.3187 55.2569 74.5662 55.2569 74.8138 55.2309C76.7757 55.0813 78.7315 54.3792 80.0188 53.0139C81.3061 51.6486 82.1262 48.7522 79.7898 47.1626C78.2147 46.0932 76.1537 45.7746 74.3744 45.7746H74.3775Z" fill="#263238"/>
<path d="M102.401 102.909L104.617 102.291L103.537 96.8169L101.321 97.4378L102.401 102.909Z" fill="#B55B52"/>
<path d="M104.688 101.862L102.24 102.707C102.199 102.719 102.163 102.748 102.142 102.788C102.12 102.828 102.114 102.875 102.126 102.918L102.646 104.996C102.678 105.103 102.75 105.192 102.845 105.244C102.94 105.296 103.051 105.306 103.153 105.272C104.001 104.947 104.391 104.768 105.468 104.398C106.13 104.167 107.733 103.65 108.646 103.335C109.559 103.019 109.24 102.08 108.826 102.125C106.969 102.34 105.883 102.168 105.112 101.875C104.976 101.82 104.827 101.815 104.688 101.862Z" fill="#263238"/>
<path opacity="0.2" d="M101.321 97.4378L103.537 96.8169L104.094 99.6385L101.875 100.259L101.321 97.4378Z" fill="black"/>
<path d="M95.6396 41.6527C95.6396 41.6527 98.7341 61.2706 99.6625 68.1133C100.668 75.6062 104.434 98.1465 104.434 98.1465L100.721 99.6223C100.721 99.6223 94.7948 77.4623 93.1577 70.1775C91.3784 62.2686 87.4607 41.6527 87.4607 41.6527H95.6396Z" fill="#263238"/>
<path opacity="0.3" d="M90.6667 49.6982C92.2511 53.8558 92.4306 60.9228 91.7869 63.8192C90.8152 59.0634 89.7012 53.3747 88.844 48.9505C89.1504 47.816 89.7074 47.1691 90.6667 49.6982Z" fill="black"/>
<path d="M100.554 100.175L104.865 98.8161L104.741 96.9632L99.6101 98.5398L100.554 100.175Z" fill="#263238"/>
<path d="M105.585 101.995C105.384 102.057 105.176 102.097 104.966 102.112C104.956 102.113 104.946 102.111 104.937 102.107C104.928 102.102 104.92 102.095 104.914 102.086C104.909 102.077 104.906 102.066 104.906 102.055C104.906 102.045 104.909 102.034 104.914 102.025C104.966 101.95 105.446 101.293 105.746 101.309C105.78 101.312 105.813 101.323 105.842 101.343C105.87 101.362 105.894 101.389 105.91 101.42C105.944 101.466 105.964 101.521 105.969 101.578C105.974 101.636 105.963 101.694 105.938 101.745C105.852 101.87 105.727 101.958 105.585 101.995ZM105.093 101.995C105.511 101.94 105.793 101.829 105.861 101.69C105.874 101.657 105.88 101.62 105.876 101.584C105.872 101.548 105.859 101.514 105.839 101.485C105.831 101.469 105.82 101.456 105.806 101.446C105.792 101.437 105.775 101.431 105.759 101.43C105.598 101.413 105.295 101.732 105.093 101.989V101.995Z" fill="#8FC1FF"/>
<path d="M104.992 102.109C104.984 102.112 104.975 102.112 104.967 102.109C104.958 102.108 104.95 102.104 104.943 102.098C104.936 102.093 104.93 102.085 104.927 102.077C104.927 102.047 104.66 101.407 104.809 101.101C104.829 101.063 104.856 101.03 104.889 101.004C104.922 100.978 104.96 100.96 105.001 100.952C105.045 100.938 105.092 100.941 105.135 100.959C105.178 100.977 105.213 101.01 105.236 101.053C105.366 101.283 105.19 101.875 105.016 102.083C105.007 102.103 105.001 102.109 104.992 102.109ZM104.992 101.079C104.952 101.094 104.919 101.124 104.899 101.163C104.847 101.425 104.876 101.697 104.982 101.94C105.133 101.697 105.189 101.402 105.137 101.118C105.122 101.088 105.094 101.056 105.016 101.072L104.992 101.079Z" fill="#8FC1FF"/>
<path d="M95.1693 21.4562C95.259 21.609 95.3828 21.8235 95.4973 22.0088L95.8501 22.5939C96.0946 22.9808 96.3359 23.3676 96.5928 23.7479C97.0972 24.5053 97.6294 25.24 98.1803 25.9389C98.7176 26.6222 99.2987 27.2662 99.9194 27.8665C100.481 28.4173 101.104 28.8934 101.776 29.2838L101.287 29.1376C101.766 29.241 102.257 29.2705 102.745 29.2253C103.011 29.1993 103.283 29.1636 103.562 29.1116C103.84 29.0595 104.122 28.988 104.406 28.9068C104.992 28.7391 105.568 28.5339 106.13 28.2924C106.418 28.1689 106.706 28.0421 106.994 27.9055C107.281 27.769 107.575 27.6162 107.826 27.4927L107.91 27.4505C108.15 27.3298 108.426 27.314 108.677 27.4066C108.928 27.4993 109.134 27.6927 109.249 27.9446C109.336 28.1387 109.365 28.3557 109.332 28.5674C109.3 28.7791 109.207 28.9755 109.067 29.1311C108.785 29.4366 108.538 29.6804 108.259 29.9372C107.981 30.194 107.702 30.4216 107.408 30.6491C106.81 31.1083 106.176 31.5149 105.514 31.8649C104.816 32.2336 104.08 32.5182 103.32 32.7133C102.912 32.8118 102.499 32.8823 102.082 32.9246C101.645 32.9635 101.205 32.9635 100.767 32.9246C100.643 32.9117 100.521 32.88 100.405 32.8303L100.281 32.7751C99.2588 32.3101 98.3035 31.6962 97.4438 30.9514C96.6285 30.2608 95.8698 29.4996 95.1755 28.676C94.4973 27.8871 93.8629 27.0579 93.2754 26.1924C92.9845 25.759 92.704 25.3256 92.4337 24.8922C92.3006 24.6679 92.1676 24.4468 92.0376 24.216C91.9076 23.9852 91.79 23.7707 91.6477 23.4911C91.3842 23.0044 91.3156 22.4278 91.4569 21.8879C91.5983 21.3481 91.9379 20.8894 92.4012 20.6126C92.8645 20.3359 93.4135 20.2638 93.9274 20.4122C94.4413 20.5607 94.878 20.9175 95.1414 21.4042L95.1693 21.4562Z" fill="#263238"/>
<path opacity="0.3" d="M97.0755 27.4017C95.8687 24.8011 93.8108 24.9507 92.9814 25.7536L93.2166 26.1144C93.7784 26.9508 94.3838 27.7539 95.03 28.5199C95.6918 29.3074 96.4075 30.0429 97.1715 30.7207C97.4128 30.9287 97.6635 31.1335 97.9172 31.3285C97.8827 29.9745 97.5968 28.6406 97.0755 27.4017Z" fill="black"/>
<path d="M108.513 27.1156L110.06 25.7601L110.989 27.8633C110.989 27.8633 108.683 29.5959 108.154 28.9848L108.092 28.2014C108.075 27.9982 108.104 27.7937 108.177 27.6048C108.25 27.4159 108.365 27.2482 108.513 27.1156Z" fill="#B55B52"/>
<path d="M112.124 26.0169L112.61 27.6423L110.976 27.8535L110.054 25.7504L112.124 26.0169Z" fill="#B55B52"/>
<path d="M83.0168 102.831H85.3099L85.607 97.2493H83.3139L83.0168 102.831Z" fill="#B55B52"/>
<path d="M85.4307 102.551H82.853C82.8314 102.55 82.8099 102.554 82.7897 102.562C82.7695 102.57 82.751 102.582 82.7352 102.597C82.7194 102.612 82.7066 102.631 82.6976 102.651C82.6886 102.672 82.6836 102.694 82.6828 102.717L82.5559 104.859C82.5559 104.972 82.5981 105.08 82.6734 105.16C82.7486 105.241 82.8509 105.287 82.9582 105.288C83.8556 105.272 84.2858 105.217 85.4184 105.217C86.1146 105.217 88.0363 105.291 88.9987 105.291C89.9611 105.291 89.9271 104.29 89.5279 104.199C87.6959 103.796 86.4736 103.224 85.8145 102.701C85.7064 102.607 85.5711 102.554 85.4307 102.551Z" fill="#263238"/>
<path opacity="0.2" d="M83.3142 97.2525H85.6072L85.4525 100.129H83.1594L83.3142 97.2525Z" fill="black"/>
<path d="M91.1585 41.6527C91.1585 41.6527 90.9605 62.5904 90.5891 69.4916C90.1807 77.0462 86.4363 99.4337 86.4363 99.4337H82.2339C82.2339 99.4337 84.0659 77.6541 83.8121 70.1775C83.5367 62.0508 83.3696 41.6527 83.3696 41.6527H91.1585Z" fill="#263238"/>
<path d="M81.8968 99.4337H87.0214L87.272 97.7596L81.6802 98.0197L81.8968 99.4337Z" fill="#263238"/>
<path d="M86.2415 102.971C86.0329 102.965 85.8254 102.937 85.6226 102.886C85.6122 102.884 85.6027 102.879 85.5953 102.871C85.5878 102.863 85.5828 102.853 85.5808 102.842C85.5788 102.831 85.5799 102.82 85.5841 102.81C85.5882 102.8 85.5951 102.791 85.604 102.785C85.6783 102.73 86.325 102.265 86.6066 102.382C86.6382 102.395 86.6662 102.416 86.6879 102.443C86.7095 102.471 86.7242 102.503 86.7304 102.538C86.7449 102.591 86.7466 102.646 86.7352 102.7C86.7239 102.753 86.6999 102.803 86.6654 102.844C86.5437 102.939 86.3928 102.984 86.2415 102.971ZM85.7773 102.805C86.1889 102.889 86.4921 102.876 86.5974 102.766C86.6207 102.739 86.6367 102.706 86.6438 102.671C86.6509 102.635 86.6487 102.598 86.6376 102.564C86.6351 102.546 86.628 102.53 86.6171 102.516C86.6061 102.502 86.5918 102.492 86.5757 102.486C86.4271 102.424 86.0434 102.626 85.7773 102.805Z" fill="#8FC1FF"/>
<path d="M85.6442 102.886C85.6362 102.889 85.6274 102.889 85.6194 102.886C85.6112 102.882 85.6043 102.875 85.5994 102.867C85.5945 102.859 85.5918 102.85 85.5916 102.84C85.5916 102.811 85.5358 102.119 85.7679 101.885C85.7976 101.855 85.8334 101.832 85.8725 101.819C85.9116 101.805 85.953 101.801 85.9938 101.807C86.0395 101.808 86.0834 101.826 86.1187 101.856C86.1539 101.887 86.1786 101.929 86.1888 101.976C86.2414 102.239 85.8979 102.743 85.672 102.886C85.6629 102.889 85.6532 102.889 85.6442 102.886ZM85.9536 101.911C85.9109 101.911 85.8698 101.928 85.8391 101.96C85.7117 102.19 85.6586 102.458 85.6875 102.723C85.8886 102.548 86.1145 102.164 86.0805 101.992C86.0805 101.96 86.0557 101.921 85.9784 101.911H85.9536Z" fill="#8FC1FF"/>
<path d="M94.6739 22.0738C94.5582 21.6673 94.3397 21.3014 94.0416 21.0152C93.7435 20.729 93.377 20.5331 92.9812 20.4485C92.4154 20.308 91.8418 20.2048 91.2638 20.1397C89.5271 20.0356 87.7861 20.0356 86.0495 20.1397C85.1397 20.1852 84.2113 20.3022 83.4717 20.416H83.4439C83.2494 20.4447 83.0625 20.5143 82.8941 20.6205C82.7258 20.7267 82.5795 20.8674 82.464 21.0342C82.3485 21.201 82.2662 21.3905 82.2219 21.5915C82.1775 21.7924 82.1722 22.0007 82.206 22.2038C82.7888 25.4369 83.1702 28.7065 83.3479 31.9917C83.5274 36.7604 83.2829 40.5052 83.3696 41.656H95.6394C96.3852 30.0153 95.4228 24.7264 94.6739 22.0738Z" fill="#E6E6E6"/>
<path d="M86.3963 19.9251C87.3618 24.0405 88.253 34.4687 88.2375 42.6214H83.0511C82.9582 41.4057 83.2182 37.4593 83.0294 32.4305C82.8436 28.9734 82.4456 25.5324 81.838 22.1291C81.8027 21.9158 81.8084 21.6972 81.8546 21.4863C81.9008 21.2753 81.9867 21.0762 82.1072 20.9005C82.2277 20.7249 82.3804 20.5763 82.5563 20.4635C82.7322 20.3507 82.9278 20.276 83.1315 20.2437H83.1594C83.9392 20.1234 84.9171 19.9999 85.8764 19.9511L86.3963 19.9251Z" fill="#263238"/>
<path d="M95.3055 22.1323C95.1735 21.683 94.9332 21.2772 94.6079 20.9543C94.2825 20.6313 93.8833 20.4022 93.4488 20.2892C92.6287 20.1538 91.8023 20.0648 90.9731 20.0226C91.9541 23.5984 93.8789 34.4915 93.3064 42.6214H96.5805C97.3572 30.4216 96.0358 24.3623 95.3055 22.1323Z" fill="#263238"/>
<path d="M114.43 33.4025L90.0169 44.3768L87.0833 37.2123L111.499 26.2379L114.43 33.4025Z" fill="#8FC1FF"/>
<path d="M93.8261 37.5666C93.9372 37.839 93.9688 38.1398 93.9172 38.431C93.8655 38.7223 93.7328 38.9909 93.5358 39.203C93.3389 39.415 93.0865 39.561 92.8106 39.6225C92.5346 39.6839 92.2476 39.658 91.9857 39.5482C91.7237 39.4383 91.4987 39.2493 91.339 39.0051C91.1792 38.761 91.092 38.4725 91.0883 38.1763C91.0845 37.88 91.1645 37.5893 91.318 37.3407C91.4715 37.0922 91.6918 36.897 91.9508 36.7799C92.1231 36.7021 92.3083 36.6606 92.4959 36.658C92.6834 36.6554 92.8696 36.6917 93.0438 36.7648C93.218 36.8378 93.3767 36.9463 93.511 37.0839C93.6452 37.2214 93.7523 37.3855 93.8261 37.5666Z" fill="white"/>
<path d="M94.4419 38.8344C94.351 39.1194 94.2039 39.3811 94.01 39.6022C93.8161 39.8233 93.58 39.9989 93.317 40.1173C93.054 40.2358 92.7701 40.2946 92.484 40.2897C92.1979 40.2848 91.916 40.2165 91.6568 40.0891C91.4371 40.3513 91.2885 40.6706 91.2265 41.0137C91.1644 41.3568 91.1912 41.7111 91.304 42.0396L96.0386 39.9136C95.8896 39.5994 95.6626 39.3333 95.3815 39.1434C95.1005 38.9534 94.7758 38.8467 94.4419 38.8344Z" fill="white"/>
<path d="M110.957 30.1973L96.6885 36.6109L96.3667 35.8177L110.636 29.4041L110.957 30.1973Z" fill="white"/>
<path d="M109.896 32.6646L97.3786 38.2915L97.0537 37.4983L109.571 31.8714L109.896 32.6646Z" fill="white"/>
<path opacity="0.3" d="M84.654 26.303C84.5673 23.5691 82.6456 22.5257 82.104 23.2603C82.0802 23.29 82.0585 23.3215 82.0391 23.3546C82.3764 25.461 82.7879 28.3607 82.9674 31.218C83.8803 30.6654 84.7344 28.9003 84.654 26.303Z" fill="black"/>
<path d="M91.0164 20.1332C89.5 19.7561 89.2339 18.7711 89.336 17.6886C89.3601 17.4175 89.4004 17.1483 89.4567 16.8825L87.5566 15.2246L86.161 14.0089C86.5478 15.774 86.9842 18.9889 85.8516 20.1657C85.8516 20.1657 86.7799 21.791 89.3886 21.648C91.5641 21.5212 91.0164 20.1332 91.0164 20.1332Z" fill="#B55B52"/>
<path d="M88.3458 23.101C88.525 22.5593 88.8168 22.0663 89.1999 21.6577C88.0352 21.2563 86.9756 20.5751 86.1053 19.6683L85.3101 19.9934C85.3101 19.9934 85.5917 22.1161 88.3458 23.101Z" fill="white"/>
<path d="M90.4685 22.7369C90.1241 22.2858 89.6914 21.9178 89.1997 21.6577C89.9641 21.4302 90.2611 19.8016 90.2611 19.8016L91.0069 19.9641C91.0069 19.9641 92.384 22.0868 90.4685 22.7369Z" fill="white"/>
<path opacity="0.2" d="M89.4567 16.8825C89.4003 17.1483 89.36 17.4175 89.336 17.6886C88.6273 17.5391 87.6804 16.7459 87.5814 15.9853C87.5466 15.7334 87.5382 15.4783 87.5566 15.2246L89.4567 16.8825Z" fill="black"/>
<path d="M90.3415 8.21287C91.2977 8.03083 92.4118 9.08405 91.8888 11.223C91.3658 13.362 88.8809 8.48918 90.3415 8.21287Z" fill="#263238"/>
<path d="M85.5853 11.4701C86.0712 13.8138 86.2414 15.2084 87.5597 16.2778C87.9844 16.6298 88.4927 16.8532 89.0295 16.9237C89.5664 16.9943 90.1113 16.9093 90.6055 16.678C91.0997 16.4467 91.5243 16.0779 91.8334 15.6115C92.1425 15.1451 92.3244 14.5987 92.3593 14.0316C92.5326 11.8504 91.7125 8.38516 89.3638 7.72202C88.8592 7.56402 88.3239 7.54824 87.8117 7.67624C87.2995 7.80423 86.8283 8.07152 86.4455 8.45126C86.0626 8.83099 85.7816 9.30983 85.6307 9.8397C85.4797 10.3696 85.4641 10.9318 85.5853 11.4701Z" fill="#B55B52"/>
<path d="M86.4828 14.0088C86.8108 13.1962 87.1017 10.9337 86.8355 9.99425C87.9032 9.95849 90.1467 9.75045 91.0812 8.65821C92.5171 6.98086 90.6233 4.99794 88.2405 6.57777C86.6932 7.59524 83.3542 7.39369 83.9081 8.52819C82.2804 10.4103 84.1092 12.5363 86.4828 14.0088Z" fill="#263238"/>
<path d="M83.905 8.6127C83.8937 8.6126 83.8827 8.60994 83.8725 8.60488C83.8624 8.59983 83.8534 8.59251 83.8462 8.58345C83.6481 8.32664 83.5862 8.1121 83.6543 7.93331C83.8183 7.50422 84.6693 7.38719 85.6503 7.25717C86.5787 7.13364 87.606 6.99386 87.9341 6.55502C87.9489 6.54085 87.9682 6.533 87.9882 6.533C88.0083 6.533 88.0276 6.54085 88.0424 6.55502C88.0498 6.56231 88.0557 6.57112 88.0597 6.58091C88.0637 6.59069 88.0658 6.60124 88.0658 6.6119C88.0658 6.62257 88.0637 6.63311 88.0597 6.6429C88.0557 6.65268 88.0498 6.66149 88.0424 6.66879C87.6741 7.15964 86.6498 7.29617 85.6596 7.42945C84.8024 7.54648 83.9174 7.6635 83.8029 8.00807C83.7564 8.1316 83.8029 8.29738 83.9669 8.50218C83.981 8.51737 83.989 8.53779 83.989 8.55907C83.989 8.58034 83.981 8.60076 83.9669 8.61595C83.9465 8.62235 83.9246 8.6212 83.905 8.6127Z" fill="#263238"/>
<path d="M85.2419 13.362C85.5083 13.7997 85.9107 14.127 86.3807 14.2884C86.978 14.477 87.1822 13.8983 86.9408 13.2872C86.7211 12.7346 86.1455 11.9707 85.5854 12.0519C85.0253 12.1332 84.9046 12.8126 85.2419 13.362Z" fill="#B55B52"/>
<path d="M88.7792 11.7041C88.8071 11.8959 88.9278 12.0292 89.0484 12.0292C89.1691 12.0292 89.2403 11.8472 89.2124 11.6554C89.1846 11.4636 89.0639 11.3303 88.9432 11.3303C88.8225 11.3303 88.7514 11.5123 88.7792 11.7041Z" fill="#263238"/>
<path d="M90.8553 11.4441C90.8832 11.6358 91.0038 11.7691 91.1245 11.7691C91.2452 11.7691 91.3195 11.5838 91.2885 11.392C91.2576 11.2002 91.14 11.067 91.0224 11.067C90.9048 11.067 90.8274 11.2523 90.8553 11.4441Z" fill="#263238"/>
<path d="M90.5366 11.6228C90.8436 12.1842 91.2203 12.7002 91.6568 13.1572C91.5428 13.2668 91.4071 13.3487 91.2595 13.397C91.1119 13.4454 90.9559 13.4589 90.8028 13.4367L90.5366 11.6228Z" fill="#A02724"/>
<path d="M90.1282 14.0511C89.9135 14.0542 89.7006 14.0113 89.5021 13.9253C89.3037 13.8392 89.124 13.7117 88.9739 13.5505C88.9693 13.5449 88.9657 13.5385 88.9634 13.5315C88.9611 13.5245 88.9601 13.5171 88.9605 13.5097C88.961 13.5023 88.9628 13.495 88.9659 13.4884C88.969 13.4817 88.9733 13.4758 88.9786 13.4709C88.9839 13.4659 88.99 13.4622 88.9967 13.4598C89.0033 13.4574 89.0104 13.4563 89.0174 13.4568C89.0245 13.4573 89.0314 13.4592 89.0377 13.4624C89.044 13.4657 89.0497 13.4702 89.0544 13.4757C89.2211 13.6464 89.4223 13.7754 89.6431 13.8531C89.8638 13.9308 90.0984 13.9551 90.3293 13.9243C90.3365 13.9229 90.3438 13.9231 90.3509 13.9249C90.358 13.9266 90.3646 13.9299 90.3705 13.9345C90.3763 13.939 90.3811 13.9448 90.3847 13.9515C90.3883 13.9581 90.3905 13.9655 90.3912 13.9731C90.3921 13.9804 90.3916 13.9877 90.3897 13.9948C90.3878 14.0018 90.3846 14.0084 90.3803 14.0142C90.376 14.0199 90.3706 14.0247 90.3645 14.0283C90.3584 14.0318 90.3517 14.034 90.3448 14.0348C90.273 14.0449 90.2006 14.0503 90.1282 14.0511Z" fill="#263238"/>
<path d="M88.1016 11.0832C88.0831 11.0819 88.0652 11.0764 88.049 11.067C88.0366 11.0596 88.0256 11.0496 88.0169 11.0377C88.0081 11.0259 88.0016 11.0123 87.9979 10.9978C87.9942 10.9833 87.9932 10.9681 87.9951 10.9532C87.9969 10.9383 88.0016 10.9239 88.0088 10.9109C88.0886 10.7525 88.2043 10.6172 88.3457 10.5168C88.4871 10.4165 88.6498 10.3542 88.8195 10.3356C88.8338 10.3347 88.848 10.3368 88.8615 10.3417C88.8749 10.3466 88.8873 10.3543 88.898 10.3642C88.9086 10.3742 88.9173 10.3863 88.9235 10.3998C88.9296 10.4133 88.9332 10.4279 88.934 10.4428C88.9349 10.4578 88.9329 10.4728 88.9282 10.4869C88.9235 10.501 88.9162 10.5141 88.9067 10.5252C88.8973 10.5364 88.8858 10.5455 88.8729 10.552C88.8601 10.5585 88.8461 10.5623 88.8319 10.5631C88.6983 10.5797 88.5706 10.6305 88.46 10.711C88.3494 10.7915 88.2593 10.8992 88.1975 11.0247C88.188 11.0426 88.1741 11.0576 88.1572 11.0679C88.1404 11.0782 88.1211 11.0835 88.1016 11.0832Z" fill="#263238"/>
<path d="M91.7869 10.5859C91.769 10.586 91.7513 10.5812 91.7356 10.5721C91.7199 10.563 91.7067 10.5499 91.6972 10.5339C91.622 10.4109 91.5209 10.3077 91.4018 10.2322C91.2828 10.1567 91.1488 10.1109 91.0102 10.0983C90.9814 10.0983 90.9539 10.0863 90.9336 10.065C90.9133 10.0436 90.9019 10.0147 90.9019 9.9845C90.9019 9.95433 90.9133 9.92539 90.9336 9.90405C90.9539 9.88272 90.9814 9.87073 91.0102 9.87073C91.1843 9.8835 91.3532 9.93861 91.5036 10.0317C91.6539 10.1248 91.7816 10.2533 91.8766 10.4071C91.8921 10.4327 91.8976 10.4636 91.8918 10.4933C91.886 10.523 91.8695 10.5492 91.8457 10.5664C91.8283 10.5787 91.8079 10.5855 91.7869 10.5859Z" fill="#263238"/>
<path d="M84.9356 23.7837L84.9139 23.8194L84.8613 23.9105L84.7499 24.1152C84.6725 24.2615 84.5983 24.4111 84.524 24.5671C84.3817 24.8922 84.2424 25.2172 84.1186 25.5423C83.8715 26.2231 83.6749 26.923 83.5307 27.6357C83.2432 29.1075 83.1588 30.615 83.28 32.1119C83.2967 32.4269 83.3371 32.7399 83.4007 33.0481C83.4712 33.3595 83.5697 33.6632 83.6947 33.9551C83.9816 34.6218 84.3332 35.2558 84.7437 35.847C85.6474 37.1307 86.6582 38.3274 87.764 39.4227L87.8073 39.4683C87.9794 39.6439 88.0859 39.8787 88.1073 40.1298C88.1287 40.3809 88.0636 40.6318 87.9239 40.8368C87.7842 41.0418 87.5791 41.1873 87.3459 41.247C87.1127 41.3066 86.8669 41.2764 86.6531 41.1619C85.8769 40.7452 85.1339 40.2636 84.4312 39.7218C83.7164 39.1794 83.0429 38.5795 82.4166 37.9274C81.7523 37.2333 81.1704 36.4573 80.6837 35.6162C80.4166 35.1585 80.1937 34.6739 80.0184 34.1696C79.8475 33.6596 79.7221 33.134 79.6439 32.5995C79.4836 31.6585 79.4007 30.7047 79.3963 29.7487C79.3821 28.7808 79.4515 27.8135 79.6037 26.8588C79.7569 25.8897 79.9983 24.9383 80.3247 24.0177C80.491 23.5485 80.6822 23.0895 80.8972 22.6427C81.0086 22.4151 81.1231 22.1908 81.2531 21.9665C81.3181 21.8528 81.3861 21.739 81.4573 21.622L81.5718 21.4464L81.7265 21.2221C82.0541 20.7939 82.5276 20.5166 83.0465 20.4489C83.5655 20.3812 84.0892 20.5284 84.5065 20.8595C84.9239 21.1905 85.2021 21.6792 85.2822 22.2221C85.3623 22.7649 85.2379 23.3192 84.9356 23.7674V23.7837Z" fill="#263238"/>
<path d="M88.42 39.4488L89.698 39.3772L88.2158 41.9778C88.2158 41.9778 86.1486 41.7015 86.359 40.593L86.6468 40.2679C87.1175 39.7684 87.7514 39.4756 88.42 39.4488Z" fill="#B55B52"/>
<path d="M91.0226 40.3102L89.9085 43.0733L88.2158 41.9875L89.6981 39.3772L91.0226 40.3102Z" fill="#B55B52"/>
</g>
<defs>
<clipPath id="clip0_761_6779">
<rect width="125" height="125" fill="white"/>
</clipPath>
</defs>
</svg>
